<?xml version="1.0" encoding="utf-8"?>
<!-- Generator: Adobe Illustrator 27.5.0, SVG Export Plug-In . SVG Version: 6.00 Build 0)  -->
<svg version="1.1" xmlns="http://www.w3.org/2000/svg" xmlns:xlink="http://www.w3.org/1999/xlink" x="0px" y="0px"
	 viewBox="0 0 750 500" style="enable-background:new 0 0 750 500;" xml:space="preserve">
<g id="BACKGROUND">
	<rect x="-0.002" style="fill:#B9ECF4;" width="750" height="500"/>
</g>
<g id="OBJECTS">
	<g>
		<path style="fill:#FFFFFF;" d="M722.194,163.228H611.086c0,0,17.11-14.355,29.415-9.543c7.83-31.827,48.072-26.518,53.889-8.488
			C713.509,129.839,728.219,148.73,722.194,163.228z"/>
		<g>
			<path style="fill:#FFFFFF;" d="M749.998,234.428v64.309c0,0-75.38,0.819-115.134-0.653c-26.654-0.993-44.432-11.907-53.342-21.07
				c-4.39-4.503-6.629-8.588-6.724-10.853c-0.287-6.89,32.106-33.744,46.4-34.51C643.192,230.473,749.998,234.428,749.998,234.428z"
				/>
			<g>
				<path style="fill:#60C2E9;" d="M640.726,236.6l-10.079,19.222c10.634,0.513,19.707,0.892,19.707,0.892v-19.803
					C650.355,236.911,646.067,236.736,640.726,236.6z"/>
				<path style="fill:#60C2E9;" d="M636.909,236.514c-6.94-0.132-14.346-0.131-16.238,0.397
					c-7.613,2.127-23.238,15.657-23.28,16.622c-0.021,0.475,12.803,1.253,25.836,1.92L636.909,236.514z"/>
			</g>
			
				<ellipse transform="matrix(0.1602 -0.9871 0.9871 0.1602 342.4428 914.8124)" style="fill:#60C2E9;" cx="708.838" cy="256.16" rx="9.649" ry="9.649"/>
			<path style="fill:#B9ECF4;" d="M715.661,256.16c0,3.768-3.055,6.823-6.823,6.823s-6.823-3.055-6.823-6.823
				c0-3.768,3.055-6.823,6.823-6.823S715.661,252.391,715.661,256.16z"/>
			
				<ellipse transform="matrix(0.1602 -0.9871 0.9871 0.1602 365.2596 941.6302)" style="fill:#60C2E9;" cx="736.006" cy="256.16" rx="9.649" ry="9.649"/>
			<path style="fill:#B9ECF4;" d="M742.829,256.16c0,3.768-3.055,6.823-6.823,6.823s-6.823-3.055-6.823-6.823
				c0-3.768,3.055-6.823,6.823-6.823S742.829,252.391,742.829,256.16z"/>
			<path style="opacity:0.1;fill:#5E2655;" d="M749.998,288.807v9.93c0,0-75.38,0.819-115.134-0.653
				c-26.654-0.993-44.432-11.907-53.342-21.07c15.626,3.989,53.865,11.01,130.899,11.559
				C726.724,288.676,739.172,288.754,749.998,288.807z"/>
			<path style="fill:#60C2E9;" d="M749.998,279.843v35.739c0,0-55.415-32.342-55.607-34.232c-0.078-0.828,3.702-1.333,9.337-1.611
				C719.564,278.937,749.998,279.843,749.998,279.843z"/>
			<path style="opacity:0.1;fill:#5E2655;" d="M749.998,305.712v9.869c0,0-55.415-32.342-55.607-34.232
				c-0.078-0.828,3.702-1.333,9.337-1.611L749.998,305.712z"/>
		</g>
		<linearGradient id="SVGID_1_" gradientUnits="userSpaceOnUse" x1="57.9806" y1="319.2628" x2="149.4388" y2="5.584">
			<stop  offset="0" style="stop-color:#FFFFFF;stop-opacity:0"/>
			<stop  offset="1" style="stop-color:#FFFFFF"/>
		</linearGradient>
		<polygon style="fill:url(#SVGID_1_);" points="0,255.471 181.111,0 227.647,0 -0.002,317.99 		"/>
		
			<linearGradient id="SVGID_00000165953565866712091270000004831549795290897807_" gradientUnits="userSpaceOnUse" x1="166.8486" y1="385.3638" x2="265.9354" y2="45.5207">
			<stop  offset="0" style="stop-color:#FFFFFF;stop-opacity:0"/>
			<stop  offset="1" style="stop-color:#FFFFFF"/>
		</linearGradient>
		<polygon style="fill:url(#SVGID_00000165953565866712091270000004831549795290897807_);" points="85.871,331.899 329.238,0 
			375.774,0 142.231,326.223 		"/>
		
			<linearGradient id="SVGID_00000016779340024216822510000013861376976204612738_" gradientUnits="userSpaceOnUse" x1="222.8497" y1="380.4938" x2="319.7372" y2="48.1936">
			<stop  offset="0" style="stop-color:#FFFFFF;stop-opacity:0"/>
			<stop  offset="1" style="stop-color:#FFFFFF"/>
		</linearGradient>
		<polygon style="fill:url(#SVGID_00000016779340024216822510000013861376976204612738_);" points="156.302,331.899 399.669,0 
			414.505,0 180.962,326.223 		"/>
		
			<linearGradient id="SVGID_00000079450943766772967790000001591634388777603499_" gradientUnits="userSpaceOnUse" x1="361.853" y1="380.4938" x2="458.7405" y2="48.1936">
			<stop  offset="0" style="stop-color:#FFFFFF;stop-opacity:0"/>
			<stop  offset="1" style="stop-color:#FFFFFF"/>
		</linearGradient>
		<polygon style="fill:url(#SVGID_00000079450943766772967790000001591634388777603499_);" points="295.306,331.899 538.672,0 
			553.508,0 319.965,326.223 		"/>
		
			<linearGradient id="SVGID_00000158003252919325024030000003832818659186968206_" gradientUnits="userSpaceOnUse" x1="518.3413" y1="388.1593" x2="618.6906" y2="43.9863">
			<stop  offset="0" style="stop-color:#FFFFFF;stop-opacity:0"/>
			<stop  offset="1" style="stop-color:#FFFFFF"/>
		</linearGradient>
		<polygon style="fill:url(#SVGID_00000158003252919325024030000003832818659186968206_);" points="429.08,331.899 672.447,0 
			737.18,0 503.638,326.223 		"/>
		<path style="fill:#FFFFFF;" d="M323.445,178.044h148.07c0,0-18.632-21.884-44.952-10.942
			c-13.011-20.253-36.372-12.385-36.372-12.385s-8.677-19.214-27.366-12.779c-13.259,4.566-15.134,19.647-15.134,19.647
			S322.777,156.509,323.445,178.044z"/>
	</g>
	<rect y="324.944" style="fill:#FFBE62;" width="749.998" height="175.055"/>
	<ellipse style="opacity:0.2;fill:#EB2655;" cx="298.358" cy="422.109" rx="284.772" ry="9.365"/>
	<g>
		<rect y="324.944" style="fill:#2C1F49;" width="749.998" height="9.142"/>
		<polygon style="fill:#2C1F49;" points="73.257,0 749.998,67.013 749.998,0 		"/>
		<rect x="663.934" style="fill:#2C1F49;" width="11.955" height="329.515"/>
		<rect x="405.65" style="fill:#2C1F49;" width="11.955" height="329.515"/>
		<rect x="147.366" style="fill:#2C1F49;" width="11.955" height="329.515"/>
	</g>
	<g>
		<g>
			<g>
				<path style="fill:#2C1F49;" d="M311.728,61.4v149.25c0,4.37-3.54,7.91-7.9,7.91H53.339c-4.37,0-7.91-3.54-7.91-7.91V61.4
					c0-4.37,3.54-7.91,7.91-7.91h250.49C308.188,53.49,311.728,57.03,311.728,61.4z"/>
				<g>
					<g>
						<rect x="99.475" y="47.515" style="fill:#2C1F49;" width="19.426" height="10.856"/>
						<rect x="106.617" style="fill:#2C1F49;" width="5.142" height="52.943"/>
					</g>
					<g>
						<rect x="238.262" y="47.515" style="fill:#2C1F49;" width="19.426" height="10.856"/>
						<rect x="245.404" style="fill:#2C1F49;" width="5.142" height="52.943"/>
					</g>
				</g>
				<rect x="55.909" y="95.215" style="fill:#392D54;" width="245.344" height="22.56"/>
				<rect x="55.909" y="124.417" style="fill:#392D54;" width="245.344" height="22.56"/>
				<rect x="55.909" y="153.619" style="fill:#392D54;" width="245.344" height="22.56"/>
				<rect x="55.909" y="182.821" style="fill:#392D54;" width="245.344" height="22.56"/>
				<path style="fill:#FFBE62;" d="M311.728,61.4v27.17h-266.3V61.4c0-4.37,3.54-7.91,7.91-7.91h250.49
					C308.188,53.49,311.728,57.03,311.728,61.4z"/>
			</g>
			<g>
				
					<text transform="matrix(1 0 0 1 207.6582 111.0565)" style="fill:#FF4D61; font-family:'Montserrat-Bold'; font-size:13.5074px;">cancelled</text>
				
					<text transform="matrix(1 0 0 1 106.6172 111.0565)" style="fill:#FFFFFF; font-family:'Montserrat-Regular'; font-size:13.5074px;">paris</text>
				
					<text transform="matrix(1 0 0 1 61.4797 111.0565)" style="fill:#FFFFFF; font-family:'Montserrat-Regular'; font-size:13.5074px;">09.10</text>
			</g>
			<g>
				
					<text transform="matrix(1 0 0 1 207.6582 140.6194)" style="fill:#FF4D61; font-family:'Montserrat-Bold'; font-size:13.5074px;">cancelled</text>
				
					<text transform="matrix(1 0 0 1 106.6172 140.6194)" style="fill:#FFFFFF; font-family:'Montserrat-Regular'; font-size:13.5074px;">lisbon</text>
				
					<text transform="matrix(1 0 0 1 61.4797 140.6194)" style="fill:#FFFFFF; font-family:'Montserrat-Regular'; font-size:13.5074px;">10.40</text>
			</g>
			<g>
				
					<text transform="matrix(1 0 0 1 207.6582 169.1822)" style="fill:#FF4D61; font-family:'Montserrat-Bold'; font-size:13.5074px;">cancelled</text>
				
					<text transform="matrix(1 0 0 1 106.6172 169.1822)" style="fill:#FFFFFF; font-family:'Montserrat-Regular'; font-size:13.5074px;">milan</text>
				
					<text transform="matrix(1 0 0 1 61.4797 169.1822)" style="fill:#FFFFFF; font-family:'Montserrat-Regular'; font-size:13.5074px;">12.20</text>
			</g>
			<g>
				
					<text transform="matrix(1 0 0 1 207.6582 197.745)" style="fill:#FF4D61; font-family:'Montserrat-Bold'; font-size:13.5074px;">cancelled</text>
				
					<text transform="matrix(1 0 0 1 106.6172 197.745)" style="fill:#FFFFFF; font-family:'Montserrat-Regular'; font-size:13.5074px;">new york</text>
				
					<text transform="matrix(1 0 0 1 61.4797 197.745)" style="fill:#FFFFFF; font-family:'Montserrat-Regular'; font-size:13.5074px;">13.30</text>
			</g>
		</g>
		<text transform="matrix(1 0 0 1 109.956 79.4934)" style="fill:#2C1F49; font-family:'Montserrat-Bold'; font-size:19.1159px;">departures</text>
	</g>
	<g>
		<g>
			<path style="fill:#60C2E9;" d="M128.216,291.279v49.971H37.001v-49.971c0-3.45,1.015-6.647,2.761-9.337
				c3.065-4.729,8.382-7.855,14.431-7.855h56.842C120.523,274.087,128.216,281.79,128.216,291.279z"/>
			<path style="opacity:0.2;fill:#5E2655;" d="M107.025,341.25H37.001v-49.971c0-3.45,1.015-6.647,2.761-9.337
				C48.57,298.241,67.517,322.536,107.025,341.25z"/>
			<path style="fill:#FFFFFF;" d="M119.063,422.393c-2.134,0-3.864-1.73-3.864-3.863v-42.473c0-11.391-9.267-20.659-20.659-20.659
				h-23.86c-11.391,0-20.658,9.267-20.658,20.659v42.473c0,2.134-1.73,3.863-3.863,3.863c-2.134,0-3.864-1.73-3.864-3.863v-42.473
				c0-15.652,12.734-28.386,28.385-28.386h23.86c15.652,0,28.386,12.734,28.386,28.386v42.473
				C122.926,420.663,121.197,422.393,119.063,422.393z"/>
			<path style="fill:#4E93BE;" d="M129.061,358.803H36.161c-1.991,0-3.604-1.614-3.604-3.604v-10.348
				c0-1.991,1.614-3.604,3.604-3.604h92.899c1.991,0,3.604,1.614,3.604,3.604v10.348
				C132.665,357.19,131.051,358.803,129.061,358.803z"/>
		</g>
		<g>
			<path style="fill:#60C2E9;" d="M236.043,291.279v49.971h-91.215v-49.971c0-3.45,1.015-6.647,2.761-9.337
				c3.065-4.729,8.382-7.855,14.431-7.855h56.842C228.35,274.087,236.043,281.79,236.043,291.279z"/>
			<path style="opacity:0.2;fill:#5E2655;" d="M214.853,341.25h-70.025v-49.971c0-3.45,1.015-6.647,2.761-9.337
				C156.398,298.241,175.345,322.536,214.853,341.25z"/>
			<path style="fill:#FFFFFF;" d="M226.89,422.393c-2.134,0-3.863-1.73-3.863-3.863v-42.473c0-11.391-9.267-20.659-20.659-20.659
				h-23.86c-11.391,0-20.658,9.267-20.658,20.659v42.473c0,2.134-1.73,3.863-3.864,3.863c-2.133,0-3.863-1.73-3.863-3.863v-42.473
				c0-15.652,12.734-28.386,28.385-28.386h23.86c15.652,0,28.385,12.734,28.385,28.386v42.473
				C230.754,420.663,229.024,422.393,226.89,422.393z"/>
			<path style="fill:#4E93BE;" d="M236.888,358.803h-92.899c-1.991,0-3.604-1.614-3.604-3.604v-10.348
				c0-1.991,1.614-3.604,3.604-3.604h92.899c1.991,0,3.604,1.614,3.604,3.604v10.348
				C240.492,357.19,238.879,358.803,236.888,358.803z"/>
		</g>
		<g>
			<path style="fill:#60C2E9;" d="M343.87,291.279v49.971h-91.215v-49.971c0-3.45,1.015-6.647,2.761-9.337
				c3.065-4.729,8.382-7.855,14.431-7.855h56.842C336.178,274.087,343.87,281.79,343.87,291.279z"/>
			<path style="opacity:0.2;fill:#5E2655;" d="M322.68,341.25h-70.025v-49.971c0-3.45,1.015-6.647,2.761-9.337
				C264.225,298.241,283.172,322.536,322.68,341.25z"/>
			<g>
				<path style="fill:#FFAC83;" d="M329.619,266.916c0,0-13.357-4.183-14.794-3.687c-1.438,0.496-11.943,7.643-11.45,8.78
					c0.493,1.137,1.245,2.386,1.245,2.386l5.892-4.146c0,0-0.514,8.122,1.358,8.884c1.872,0.762,2.606-0.9,2.606-0.9l0.46-4.785
					c0,0,5.72,6.372,12.109,5.071C333.433,277.219,329.619,266.916,329.619,266.916z"/>
				<polyline style="fill:#FFFFFF;" points="331.309,282.407 325.683,278.988 329.619,266.916 334.967,269.216 				"/>
				<path style="fill:#2C1F49;" d="M288.532,274.659c0,0-1.825-19.886,10.02-21.316c11.845-1.43,12.28,16.582,12.28,16.582
					l-4.712-1.437c0,0,0.339-11.606-6.7-11.657c-7.039-0.051-5.315,14.698-5.315,14.698"/>
				<path style="fill:#2C1F49;" d="M290.154,265.31c-19.347,10.339-27.581,64.361-20.074,75.893
					c7.508,11.533,62.363,7.321,66.328-3.111C341.274,325.293,326.301,245.993,290.154,265.31z"/>
				<path style="fill:#3C3061;" d="M295.306,292.241c0,3.411-2.765,6.176-6.176,6.176c-3.411,0-6.176-2.765-6.176-6.176
					c0-3.411,2.765-6.176,6.176-6.176C292.54,286.065,295.306,288.83,295.306,292.241z"/>
				<path style="fill:#3C3061;" d="M283.093,308.628c-0.297,3.104-0.383,18.05,2.575,19.96c2.958,1.91,30.413,1.852,34.387-0.793
					s2.802-18.889,1.021-21.926C319.294,302.832,283.577,303.561,283.093,308.628z"/>
			</g>
			<path style="fill:#FFFFFF;" d="M334.718,422.393c-2.134,0-3.863-1.73-3.863-3.863v-42.473c0-11.391-9.267-20.659-20.659-20.659
				h-23.86c-11.391,0-20.658,9.267-20.658,20.659v42.473c0,2.134-1.73,3.863-3.864,3.863c-2.134,0-3.863-1.73-3.863-3.863v-42.473
				c0-15.652,12.734-28.386,28.385-28.386h23.86c15.652,0,28.385,12.734,28.385,28.386v42.473
				C338.581,420.663,336.851,422.393,334.718,422.393z"/>
			<path style="fill:#4E93BE;" d="M344.715,358.803h-92.899c-1.991,0-3.604-1.614-3.604-3.604v-10.348
				c0-1.991,1.614-3.604,3.604-3.604h92.899c1.991,0,3.604,1.614,3.604,3.604v10.348C348.32,357.19,346.706,358.803,344.715,358.803
				z"/>
		</g>
		<g>
			<path style="fill:#60C2E9;" d="M451.698,291.279v49.971h-91.215v-49.971c0-3.45,1.015-6.647,2.761-9.337
				c3.065-4.729,8.382-7.855,14.431-7.855h56.842C444.005,274.087,451.698,281.79,451.698,291.279z"/>
			<path style="opacity:0.2;fill:#5E2655;" d="M430.508,341.25h-70.025v-49.971c0-3.45,1.015-6.647,2.761-9.337
				C372.052,298.241,391,322.536,430.508,341.25z"/>
			<path style="fill:#FFFFFF;" d="M442.545,422.393c-2.134,0-3.863-1.73-3.863-3.863v-42.473c0-11.391-9.267-20.659-20.659-20.659
				h-23.86c-11.391,0-20.658,9.267-20.658,20.659v42.473c0,2.134-1.73,3.863-3.863,3.863c-2.134,0-3.863-1.73-3.863-3.863v-42.473
				c0-15.652,12.734-28.386,28.385-28.386h23.86c15.652,0,28.385,12.734,28.385,28.386v42.473
				C446.409,420.663,444.679,422.393,442.545,422.393z"/>
			<path style="fill:#4E93BE;" d="M452.543,358.803h-92.899c-1.991,0-3.604-1.614-3.604-3.604v-10.348
				c0-1.991,1.614-3.604,3.604-3.604h92.899c1.991,0,3.604,1.614,3.604,3.604v10.348
				C456.147,357.19,454.533,358.803,452.543,358.803z"/>
		</g>
		<g>
			<path style="fill:#60C2E9;" d="M559.525,291.279v49.971H468.31v-49.971c0-3.45,1.015-6.647,2.761-9.337
				c3.065-4.729,8.383-7.855,14.431-7.855h56.842C551.833,274.087,559.525,281.79,559.525,291.279z"/>
			<path style="opacity:0.2;fill:#5E2655;" d="M538.335,341.25H468.31v-49.971c0-3.45,1.015-6.647,2.761-9.337
				C479.88,298.241,498.827,322.536,538.335,341.25z"/>
			<path style="fill:#FFFFFF;" d="M550.372,422.393c-2.134,0-3.863-1.73-3.863-3.863v-42.473c0-11.391-9.267-20.659-20.659-20.659
				h-23.86c-11.391,0-20.658,9.267-20.658,20.659v42.473c0,2.134-1.73,3.863-3.863,3.863s-3.863-1.73-3.863-3.863v-42.473
				c0-15.652,12.734-28.386,28.385-28.386h23.86c15.652,0,28.386,12.734,28.386,28.386v42.473
				C554.236,420.663,552.506,422.393,550.372,422.393z"/>
			<path style="fill:#4E93BE;" d="M560.37,358.803h-92.899c-1.991,0-3.604-1.614-3.604-3.604v-10.348
				c0-1.991,1.614-3.604,3.604-3.604h92.899c1.991,0,3.604,1.614,3.604,3.604v10.348C563.974,357.19,562.361,358.803,560.37,358.803
				z"/>
		</g>
	</g>
	<g>
		<g>
			<path style="fill:#2C1F49;" d="M413.93,253.48c0,0,22.138,7.132,25.147,9.041c3.009,1.908,7.332,33.849,7.332,38.581
				s-4.157,13.055-11.83,17.434l0.529,10.003l-31.894,10.754l-27.645-12.233l1.073-31.479c0,0-12.744,9.62-17.405,8.906
				c-6.373-0.976-28.561-20.825-28.561-20.825l3.848-15.747c0,0,25.561,15.561,26.282,15.204
				c0.697-0.345,11.122-19.91,14.191-21.327c3.07-1.417,19.255-7.503,19.255-7.503L413.93,253.48z"/>
			<path style="fill:#FF6133;" d="M383.134,224.065c0,0-8.839-8.806-3.248-15.256c-3.727-2.007-0.877-10.607,4.793-9.317
				c-3.79-5.734,8.432-11.181,12.212-5.017c4.64-7.74,13.67-5.034,13.24,0.636c8.138-5.51,12.041,0.51,12.328,4.954
				c6.307-2.15,8.447,7.024,6.015,9.891c4.449,2.724,3.823,18.257-7.977,15.866C407.302,229.203,383.134,224.065,383.134,224.065z"
				/>
			<path style="fill:#FFFFFF;" d="M406.458,289.51c-1.76,3.99-3.93,8.1-6.59,12.21c-1.61-3.49-2.87-6.97-3.84-10.37
				c-5.7-19.88-1.78-37.06-1.78-37.06l19.68-0.81C413.928,253.48,415.018,270.08,406.458,289.51z"/>
			<g>
				<polygon style="fill:#FFAC83;" points="394.252,254.29 403.454,261.793 413.93,253.48 412.977,246.584 412.553,242.422 
					395.669,244.587 394.252,252.405 				"/>
				<path style="fill:#FF906E;" d="M394.252,252.405c11.378-0.541,16.483-3.23,18.725-5.822l-0.424-4.162l-16.884,2.165
					L394.252,252.405z"/>
				<path style="fill:#FFAC83;" d="M419.343,220.681v6.229c0,0,5.493,3.862,8.756,0.594c1.73-1.73,1.664-4.63,0.91-7.087
					c-0.66-2.178-1.867-4.008-2.839-4.376c-2.079-0.787-5.597,3.112-5.597,3.112L419.343,220.681z"/>
				<path style="fill:#FF906E;" d="M419.343,223.77v3.14c0,0,5.493,3.862,8.756,0.594c1.73-1.73,1.664-4.63,0.91-7.087
					C425.312,218.767,421.46,221.695,419.343,223.77z"/>
				<path style="fill:#FFAC83;" d="M385.739,219.267v6.229c0,0-5.493,3.862-8.756,0.594c-1.73-1.73-1.664-4.63-0.91-7.087
					c0.66-2.178,1.867-4.008,2.839-4.376c2.079-0.787,5.597,3.112,5.597,3.112L385.739,219.267z"/>
				<path style="fill:#FF906E;" d="M385.739,222.355v3.14c0,0-5.493,3.862-8.756,0.594c-1.73-1.73-1.664-4.63-0.91-7.087
					C379.77,217.352,383.622,220.281,385.739,222.355z"/>
				<path style="fill:#FFAC83;" d="M420.574,219.156c0,0,0.87,17.328-3.868,22.56c-7.874,8.696-27.603,6.941-32.576-2.883
					s-0.795-27.294-0.795-27.294s3.887-7.805,12.845-9.068C408.383,200.749,419.343,205.57,420.574,219.156z"/>
				<path style="fill:#FF906E;" d="M399.789,216.118c0,0-5.051,11.926-6.036,14.166c-0.985,2.24,6.188,1.661,6.188,1.661
					S400.436,221.327,399.789,216.118z"/>
				<path style="fill:#3F2C4E;" d="M408.238,218.518c0.259,0.311,0.131,3.15-0.065,3.56s-1.309,0.572-1.702,0.262
					c-0.393-0.31-0.262-3.274,0-3.822C406.732,217.971,407.714,217.887,408.238,218.518z"/>
				<path style="fill:#3F2C4E;" d="M391.87,218.518c0.259,0.311,0.131,3.15-0.066,3.56c-0.196,0.41-1.309,0.572-1.702,0.262
					c-0.393-0.31-0.262-3.274,0-3.822C390.364,217.971,391.346,217.887,391.87,218.518z"/>
				<path style="fill:#FFFFFF;" d="M397.762,222.96c-2.108-0.15-9.69,3.063-12.374,6.73c-2.369,3.236,0.355,10.083,4.859,12.963
					s17.467,3.797,22.705-1.048c5.238-4.845,0.125-10.141-2.75-12.505C406.222,225.827,401.38,223.217,397.762,222.96z"/>
				<path style="fill:#FFFFFF;" d="M407.302,229.203c0,0,12.39-12.005,12.669-11.127c0.279,0.878-10.337,12.802-10.337,12.802
					s10.923,0.279,11.002,0.931c0.079,0.651-11.002,1.303-11.002,1.303L407.302,229.203z"/>
				<path style="fill:#FF6133;" d="M411.826,214.781c0.244,0.561-6.206,2.641-6.773,1.62
					C403.959,214.435,410.768,212.344,411.826,214.781z"/>
				<path style="fill:#FF6133;" d="M387.93,214.857c-0.128,0.598,6.606,1.358,6.96,0.245
					C395.572,212.957,388.484,212.258,387.93,214.857z"/>
				<path style="fill:#FFFFFF;" d="M389.854,228.014c0,0-6.113-14.192-7.537-13.662c-1.424,0.53,6.069,15.469,6.069,15.469
					s-7.875,0.964-7.732,1.687c0.143,0.723,5.564,0,5.564,0"/>
			</g>
			<path style="fill:#FF265A;" d="M403.454,261.793l-3.09,3.222c0,0,1.176,1.628,2.849,1.628c1.673,0,2.849-1.266,2.849-1.266
				L403.454,261.793z"/>
			<path style="fill:#FF265A;" d="M406.458,289.51c-1.76,3.99-3.93,8.1-6.59,12.21c-1.61-3.49-2.87-6.97-3.84-10.37l5.51-25.56
				l2.55-0.59L406.458,289.51z"/>
			<path style="fill:#FF6133;" d="M382.466,210.816c0,0,5.94-0.017,8.468-3.87c2.426,4.444,8.885,3.297,10.027,0
				c1.142,6.164,10.994,3.297,10.87-1.003c0.736,5.447,5.753,10.914,10.34,8.395c-2.15-11.979-11.037-16.566-11.037-16.566
				s-14.177-0.573-19.703,2.294C385.907,202.932,383.44,206.425,382.466,210.816z"/>
		</g>
		<path style="fill:#2C1F49;" d="M388.834,419.058l0.675,3.335c0,0-12.422,10.738-12.422,12.425c0,1.687,2.025,3.375,2.025,3.375
			l25.902-11.021l-3.116-11.021L388.834,419.058z"/>
		<polyline style="fill:#FFFFFF;" points="388.834,419.058 386.958,413.659 399.8,408.56 401.897,416.151 		"/>
		<path style="fill:#2C1F49;" d="M414.047,429.03l-2.564,10.986l24.251,10.18c0,0,1.548-2.194,1.042-3.881
			c-0.506-1.688-10.669-10.889-10.669-10.889l0.616-4.068L414.047,429.03z"/>
		<polyline style="fill:#FFFFFF;" points="414.047,429.03 415.813,421.083 428.975,423.108 426.723,431.359 		"/>
		<path style="fill:#3C3061;" d="M435.435,328.538c0,0,10.373,14.724,9.043,22.02c-1.33,7.296-14.813,78.173-14.813,78.173
			l-16.103-2.958l1.651-77.608l-26.786-0.493l15.297,64.208l-17.961,3.977c0,0-30.566-65.9-27.86-74.606
			c2.906-9.351,17.992-14.19,17.992-14.19s9.403,2.758,27.318,7.027C417.606,329.515,435.435,328.538,435.435,328.538z"/>
		<polygon style="opacity:0.2;fill:#5E2655;" points="388.428,347.671 403.214,342.931 415.214,348.165 		"/>
		<polygon style="fill:#FFFFFF;" points="399.647,312.589 402.864,323 406.214,323 402.776,311.591 		"/>
		<polyline style="opacity:0.2;fill:#5E2655;" points="409.983,307.668 429.08,300.192 427.108,274.659 425.681,297.388 
			420.637,296.387 424.407,300.192 408.383,307.668 		"/>
		<path style="fill:#FFAC83;" d="M399.647,312.589l-6.713,0.744c0,0-4.03-3.492-4.756-3.492c-0.726,0-1.059,1.746-1.059,1.746
			l2.389,2.962c0,0-9.895,1.112-9.966,1.777c-0.071,0.665,0.348,1.518,0.348,1.518l4.8,0.218c0,0-5.062,1.527-5.324,1.746
			c-0.262,0.218-0.348,1.396,0.263,1.615c0.61,0.218,5.411-0.524,5.411-0.524s-3.753,2.138-4.059,2.4
			c-0.305,0.262,0.131,1.658,0.742,1.658c0.611,0,4.146-1.484,4.146-1.484s-2.789,2.025-2.877,2.411
			c-0.087,0.386,0.829,1.171,1.527,0.866c0.698-0.306,7.532-1.778,7.532-1.778L402.864,323L399.647,312.589z"/>
	</g>
	<g>
		<ellipse style="opacity:0.2;fill:#EB2655;" cx="543.533" cy="458.63" rx="58.562" ry="4.632"/>
		<g>
			
				<ellipse transform="matrix(0.7071 -0.7071 0.7071 0.7071 -166.1878 500.7271)" style="fill:#2C1F49;" cx="521.337" cy="450.97" rx="7.66" ry="7.66"/>
			
				<ellipse transform="matrix(0.2298 -0.9732 0.9732 0.2298 7.4517 911.3556)" style="fill:#2C1F49;" cx="579.5" cy="450.97" rx="7.66" ry="7.66"/>
			<path style="fill:#2C1F49;" d="M581,331.899h-3v-23.93c0-3.416-2.779-6.195-6.194-6.195h-35.088
				c-3.416,0-6.195,2.779-6.195,6.195v23.93h-3v-23.93c0-5.07,4.125-9.195,9.195-9.195h35.088c5.07,0,9.194,4.125,9.194,9.195
				V331.899z"/>
			<rect x="539.686" y="296.387" style="fill:#2C1F49;" width="30.641" height="7.681"/>
			<g>
				<path style="fill:#533597;" d="M590.427,450.197h-76.101c-6.444,0-11.667-5.224-11.667-11.667V334.412
					c0-6.444,5.224-11.667,11.667-11.667h76.101c6.444,0,11.667,5.224,11.667,11.667v104.118
					C602.095,444.973,596.871,450.197,590.427,450.197z"/>
				<path style="opacity:0.2;fill:#5E2655;" d="M523.811,436.193L523.811,436.193c-2.864,0-5.186-2.322-5.186-5.186v-86.528
					c0-2.864,2.322-5.186,5.186-5.186l0,0c2.864,0,5.186,2.322,5.186,5.186v86.528C528.997,433.871,526.675,436.193,523.811,436.193
					z"/>
				<path style="opacity:0.2;fill:#5E2655;" d="M543.039,436.193L543.039,436.193c-2.864,0-5.186-2.322-5.186-5.186v-86.528
					c0-2.864,2.322-5.186,5.186-5.186h0c2.864,0,5.186,2.322,5.186,5.186v86.528C548.226,433.871,545.904,436.193,543.039,436.193z"
					/>
				<path style="opacity:0.2;fill:#5E2655;" d="M562.267,436.193L562.267,436.193c-2.864,0-5.186-2.322-5.186-5.186v-86.528
					c0-2.864,2.322-5.186,5.186-5.186l0,0c2.864,0,5.186,2.322,5.186,5.186v86.528C567.453,433.871,565.131,436.193,562.267,436.193
					z"/>
				<path style="opacity:0.2;fill:#5E2655;" d="M581.495,436.193L581.495,436.193c-2.864,0-5.186-2.322-5.186-5.186v-86.528
					c0-2.864,2.322-5.186,5.186-5.186l0,0c2.864,0,5.186,2.322,5.186,5.186v86.528C586.681,433.871,584.359,436.193,581.495,436.193
					z"/>
			</g>
		</g>
	</g>
	<g>
		<g>
			<g>
				<path style="fill:#2CC683;" d="M616.585,346.144c0,0-7.857-20.298,1.362-22.922c-0.542-10.217,5.332-12.439,8.903-6.718
					c6.283-10.55,13.333-9.004,14.96-1.37c7.593-1.586,11.073,20.674,0,33.395C624.456,349.342,616.585,346.144,616.585,346.144z"/>
				<path style="fill:#28986B;" d="M621.26,345.03c0,0-2.815-10.74,2.995-10.973c-1.395-4.416,3.487-12.784,7.903-6.741
					c3.022-6.741,16.735-3.951,6.973,19.524C628.207,351.258,621.26,345.03,621.26,345.03z"/>
				<path style="fill:#2C1F49;" d="M638.435,373.494h-15.396c-2.713,0-5.013-1.997-5.393-4.684l-3.872-27.372H647.7l-3.872,27.372
					C643.448,371.497,641.149,373.494,638.435,373.494z"/>
			</g>
			<rect x="611.24" y="341.438" style="fill:#2C1F49;" width="38.816" height="3.589"/>
		</g>
		<g>
			<path style="fill:#2CC683;" d="M706.537,315.5l4.39-0.796c-0.589-3.498-1.904-6.875-4.031-9.85l-7.708,0.498l5.522-3.111
				c-2.431-2.489-5.577-4.552-9.51-5.96l-3.952,5.413v-6.531c-2.792-0.612-5.883-0.953-9.332-0.929
				c-0.396,2.911-0.641,5.618-0.76,8.145h3.986l-4.073,3.018c-0.018,2.42,0.093,4.649,0.309,6.71l3.763-0.512l-3.334,3.631
				c0.212,1.235,0.466,2.4,0.757,3.497l6.669-4.549l-3.81,11.718c1.289,2.272,2.772,4.072,4.326,5.495l2.809-2.557l-0.545,4.354
				c5.71,3.901,11.519,3.577,11.519,3.577h1.33c4.698-5.292,7.058-13.013,6.286-20.43L706.537,315.5z"/>
			<path style="fill:#28986B;" d="M703.105,347.671c0,0-2.449-28.163-11.546-42.672c10.546,8.609,15.299,34.937,14.967,46.909"/>
			<g>
				<g>
					<path style="fill:#2C1F49;" d="M709.803,373.494h-15.396c-2.713,0-5.013-1.997-5.393-4.684l-3.872-27.372h33.925l-3.872,27.372
						C714.815,371.497,712.516,373.494,709.803,373.494z"/>
				</g>
				<rect x="682.607" y="341.438" style="fill:#2C1F49;" width="38.816" height="3.589"/>
			</g>
		</g>
	</g>
</g>
</svg>
