<?xml version="1.0" encoding="utf-8"?>
<!-- Generator: Adobe Illustrator 27.5.0, SVG Export Plug-In . SVG Version: 6.00 Build 0)  -->
<svg version="1.1" xmlns="http://www.w3.org/2000/svg" xmlns:xlink="http://www.w3.org/1999/xlink" x="0px" y="0px"
	 viewBox="0 0 750 500" style="enable-background:new 0 0 750 500;" xml:space="preserve">
<g id="BACKGROUND">
	<rect style="fill:#E5F3F5;" width="750" height="500"/>
	<rect y="391.644" style="fill:#65C8D0;" width="750" height="108.356"/>
</g>
<g id="OBJECT">
	<g>
		<rect x="26.6" y="257.751" style="fill:#FFFFFF;" width="218.243" height="11.242"/>
		<rect x="235.95" y="263.212" style="fill:#FFFFFF;" width="5.84" height="140.365"/>
		<rect x="201.807" y="263.212" style="fill:#FFFFFF;" width="5.84" height="140.365"/>
		<rect x="167.664" y="263.212" style="fill:#FFFFFF;" width="5.84" height="140.365"/>
		<rect x="133.521" y="263.212" style="fill:#FFFFFF;" width="5.84" height="140.365"/>
		<rect x="99.378" y="263.212" style="fill:#FFFFFF;" width="5.84" height="140.365"/>
		<rect x="65.235" y="263.212" style="fill:#FFFFFF;" width="5.84" height="140.365"/>
		<rect x="31.093" y="263.212" style="fill:#FFFFFF;" width="5.84" height="140.365"/>
		<rect x="23.905" y="397.795" style="fill:#FFFFFF;" width="223.725" height="9.636"/>
	</g>
	<g>
		<path style="fill:#0071BC;" d="M567.979,394.708h136.723c0,0,22.697-38.858,5.808-57.64
			c-16.889-18.782-39.517-29.144-81.958-28.496C586.113,309.22,520.054,346.783,567.979,394.708z"/>
		<path style="opacity:0.49;" d="M609.392,357.085l-29.755,13.66c0,0-13.699-7.902,1.079-28.28
			c20.508-28.28,120.322-31.95,112.08,23.099l-45.1-8.479H609.392z"/>
		<path style="fill:#F2F2F2;" d="M692.797,365.564c0,0-61.996-53.106-113.16,5.181c0,0,37.54-12.953,55.686,0
			c0,0,7.039-7.124,20.688,0C656.01,370.745,676.428,357.793,692.797,365.564z"/>
	</g>
	<path style="opacity:0.4;fill:#140F10;" d="M213.835,466.686H111.931c-3.518,0-6.397-2.879-6.397-6.397l0,0
		c0-3.518,2.879-6.397,6.397-6.397h101.903c3.519,0,6.397,2.879,6.397,6.397l0,0C220.232,463.807,217.353,466.686,213.835,466.686z"
		/>
	<g>
		<path style="fill:#E2872B;" d="M525.956,352.982c0,0,4.818,12.527,1.606,17.987c-3.212,5.46-7.066,5.139-6.103,11.242
			c0.964,6.103,12.848,17.174,12.848,17.174h14.133c0,0-2.106-5.61-9.725-6.253c0,0-5.871-6.745,0-12.527
			c5.871-5.782,20.967-14.454,19.683-27.623C557.112,339.813,525.956,352.982,525.956,352.982z"/>
		<path style="fill:#E2872B;" d="M582.808,346.237l-2.141,53.148h15.944c0,0-2.148-4.309-8.984-3.683
			c0,0,19.914-35.974,18.951-40.953C605.613,349.77,582.808,346.237,582.808,346.237z"/>
		<path style="fill:#F9BB6B;" d="M438.097,328.689c0,0,21.116,8.816,31.525,5.877c10.186-2.875,32.903-44.312,56.445-43.73
			c1.225-0.327,2.487-0.505,3.78-0.505h74.947c1.068,0,2.116,0.119,3.139,0.344c4.929-0.901,22.797-4.201,28.163-5.644
			c6.246-1.679,3.866-9.655,6.841-14.693c2.974-5.038,17.547-3.358,25.577,0c8.03,3.358,6.245,12.174,6.245,12.174
			s22.901-0.84,23.793,2.519c0.892,3.358-2.677,18.891-9.22,23.928c-6.543,5.038-35.392,2.099-35.392,2.099l-31.823,33.164
			c0,0-0.595,20.57-0.297,22.669c0.297,2.099,15.763,2.519,18.142,8.816c2.379,6.297-0.892,18.471-4.461,17.631
			c-3.569-0.84-1.487-13.014-1.487-13.014s-23.495,2.099-31.525-4.198c-3.757-2.946-5.3-11.404-5.879-19.573h-66.763
			c-1.158,0-2.291-0.145-3.396-0.408c-6.19,9.005-13.043,17.318-17.572,17.882c-10.112,1.259-19.332,1.259-19.332,1.259
			s-5.948,10.495-4.164,13.853c1.784,3.358,5.948,7.556,2.379,10.495c-3.569,2.938-11.599-5.877-11.302-11.754
			c0.298-5.877,4.759-28.966,10.112-28.966s13.681-6.297,16.357-13.014c2.436-6.113,3.888-23.349,6.819-30.196
			c0.012-0.146,0.026-0.29,0.039-0.435c-5.799,8.344-39.157,54.774-56.228,44.065C434.826,347.58,438.097,328.689,438.097,328.689z"
			/>
		<g>
			<path style="fill:#F9A243;" d="M639.963,375.706c1.707,4.519,0.505,12.062-1.629,15.654c0.109-4.801,0.2-14.117-0.675-15.868
				c-1.19-2.379-17.845-4.164-20.521-5.651c-2.677-1.487-0.892-30.336-0.892-30.336s4.461-2.677,8.03-5.948
				c3.569-3.272,5.056-32.417,5.056-32.417l5.651-2.379c0,0,4.164,14.276,5.651,18.439c1.487,4.164,2.974-6.245,7.138-9.517
				c4.164-3.272,4.461-1.487,9.814,0.297c5.353,1.784,24.388,2.379,19.926,0.595c-4.461-1.784-6.246-6.245-6.246-6.245
				s10.112,5.948,16.06,1.189c5.948-4.758,5.948-8.922,2.974-12.788c-1.748-2.272-1.645-5.667-1.264-8.086
				c4.841,0.301,9.14,0.969,9.517,2.386c0.892,3.358-2.677,18.891-9.22,23.928c-6.543,5.037-35.392,2.098-35.392,2.098
				l-31.823,33.164c0,0-0.595,20.57-0.297,22.669C622.118,368.989,637.584,369.409,639.963,375.706z"/>
			<path style="fill:#F9A243;" d="M486.341,400.202c-1.428-3.545-3.625-8.968-5.119-12.516c-2.379-5.651,6.543-16.357,6.543-16.357
				s11.004-1.19,19.034-1.487c8.03-0.298,16.357-18.142,16.357-18.142s54.128-1.487,62.158-0.297
				c8.03,1.19,11.296,5.151,11.296,5.151h-66.763c-1.158,0-2.291-0.144-3.396-0.408c-6.19,9.005-13.043,17.318-17.572,17.882
				c-10.112,1.259-19.332,1.259-19.332,1.259s-5.948,10.495-4.164,13.853c1.784,3.359,5.948,7.557,2.379,10.495
				C487.345,399.979,486.863,400.157,486.341,400.202z"/>
			<path style="fill:#F9A243;" d="M438.097,328.689c0.595,8.813,8.922,16.467,8.922,16.467l2.379-5.353
				c0,0-0.595,5.948,11.301,11.896c11.896,5.948,21.116-8.625,21.116-8.625l-6.245-3.867c0,0,1.487,0.892,8.03-1.487
				c6.543-2.379,26.189-22.452,26.189-22.452c-5.799,8.344-39.157,54.774-56.228,44.065
				C434.826,347.58,438.097,328.689,438.097,328.689z"/>
		</g>
		<path style="fill:#231F20;" d="M666.358,283.141c0,2.087,1.198,3.778,2.677,3.778c1.478,0,2.677-1.691,2.677-3.778
			s-1.198-3.778-2.677-3.778C667.556,279.363,666.358,281.055,666.358,283.141z"/>
		<path style="fill:#F94F50;" d="M629.554,285.153v52.483l8.922-8.857l0.446-46.579
			C638.922,282.201,630.892,281.217,629.554,285.153z"/>
		<path style="fill:#FFFFFF;" d="M637.095,340.348L637.095,340.348c1.743-0.613,2.659-2.524,2.045-4.267l-2.628-7.468
			c-0.613-1.743-2.524-2.659-4.267-2.045l0,0c-1.743,0.613-2.659,2.524-2.045,4.267l2.628,7.468
			C633.442,340.045,635.352,340.961,637.095,340.348z"/>
		<path style="fill:#F7941E;" d="M660.41,271.027c0,0-7.584,0.669-4.684,10.707c2.9,10.038,8.476,16.952-1.338,20.298
			c-9.815,3.346-12.937-19.183-11.376-24.759C644.573,271.696,645.911,268.574,660.41,271.027z"/>
		<path style="fill:#F9ED32;" d="M492.3,322.199"/>
		<path style="fill:#231F20;" d="M483.926,330.363"/>
	</g>
	<g>
		<rect x="283.539" y="58.324" style="fill:#65C8D0;" width="100.632" height="147.267"/>
		<path style="fill:#FFFFFF;" d="M387.493,208.913H280.217V55.002h107.276V208.913z M286.861,202.269h93.988V61.646h-93.988V202.269
			z"/>
		<g>
			<defs>
				<rect id="SVGID_1_" x="283.539" y="58.324" width="100.632" height="147.267"/>
			</defs>
			<clipPath id="SVGID_00000171686454153359348670000005927406655088017821_">
				<use xlink:href="#SVGID_1_"  style="overflow:visible;"/>
			</clipPath>
			<g style="clip-path:url(#SVGID_00000171686454153359348670000005927406655088017821_);">
				<polygon style="opacity:0.81;fill:#FFFFFF;" points="384.199,57.357 284.74,148.693 284.74,164.664 383.121,74.319 
					384.199,65.599 				"/>
				<polygon style="opacity:0.81;fill:#FFFFFF;" points="384.199,82.11 284.74,173.445 284.74,189.417 384.199,98.081 				"/>
			</g>
		</g>
	</g>
	<g>
		<rect x="173.054" y="58.324" style="fill:#65C8D0;" width="100.632" height="147.267"/>
		<path style="fill:#FFFFFF;" d="M277.009,208.913H169.732V55.002h107.276V208.913z M176.376,202.269h93.988V61.646h-93.988V202.269
			z"/>
		<g>
			<defs>
				
					<rect id="SVGID_00000041271966095157804750000001169423319089576580_" x="173.054" y="58.324" width="100.632" height="147.267"/>
			</defs>
			<clipPath id="SVGID_00000096770701887259265030000002524803405150376371_">
				<use xlink:href="#SVGID_00000041271966095157804750000001169423319089576580_"  style="overflow:visible;"/>
			</clipPath>
			<g style="clip-path:url(#SVGID_00000096770701887259265030000002524803405150376371_);">
				<polygon style="opacity:0.81;fill:#FFFFFF;" points="273.714,57.357 174.256,148.693 174.256,164.664 272.636,74.319 
					273.714,65.599 				"/>
				<polygon style="opacity:0.81;fill:#FFFFFF;" points="273.714,82.11 174.256,173.445 174.256,189.417 273.714,98.081 				"/>
			</g>
		</g>
	</g>
	<g>
		<path style="fill:#E6E6E6;" d="M675.067,52.127c0.236-0.189,0.446-0.399,0.633-0.622l7.591,9.461
			c-1.936,1.554-2.247,4.383-0.693,6.319c1.554,1.936,4.383,2.247,6.319,0.693c0.304-0.244,0.554-0.528,0.777-0.826
			c1.602,1.195,3.859,1.224,5.49-0.085c1.937-1.554,2.247-4.383,0.693-6.319c-1.161-1.447-3.035-1.984-4.715-1.516l-11.102-13.838
			c0.822-1.539,0.703-3.485-0.458-4.932c-1.554-1.936-4.383-2.247-6.319-0.693c-1.359,1.09-1.897,2.806-1.572,4.403
			c-0.803,0.097-1.591,0.399-2.269,0.943c-1.937,1.554-2.247,4.383-0.693,6.319C670.301,53.371,673.131,53.681,675.067,52.127z"/>
		<g>
			<path style="fill:#7D93B3;" d="M651.37,69.613c-1.044,0-2.07-0.502-2.698-1.432c-1.137-1.667-5.237-6.502-8.985-6.777
				c-1.509-0.111-2.94,0.581-4.355,2.115c-10.003,10.839-35.718,5.473-46.567-3.64c-6.897-5.792-23.285-2.774-29.018-1.123
				c-1.721,0.498-3.529-0.497-4.027-2.223c-0.498-1.725,0.495-3.528,2.22-4.027c0.977-0.282,24.046-6.818,35.01,2.391
				c8.583,7.209,30.402,12.011,37.601,4.209c3.507-3.799,7.18-4.375,9.636-4.189c7.55,0.571,13.25,8.696,13.875,9.621
				c1.006,1.488,0.616,3.511-0.873,4.517C652.631,69.432,651.997,69.613,651.37,69.613z"/>
		</g>
		
			<ellipse transform="matrix(0.7071 -0.7071 0.7071 0.7071 122.1155 406.0745)" style="fill:#7D93B3;" cx="551.233" cy="55.631" rx="15.42" ry="15.42"/>
		<path style="opacity:0.33;" d="M551.233,40.21c-3.024,0-5.837,0.884-8.218,2.388c8.091,0.472,14.513,7.164,14.513,15.374
			c0,5.492-2.88,10.3-7.203,13.032c0.302,0.018,0.601,0.046,0.908,0.046c8.516,0,15.42-6.904,15.42-15.42
			C566.653,47.114,559.749,40.21,551.233,40.21z"/>
		<g>
			<polygon style="fill:#FC6B76;" points="530.019,68.75 466.682,68.75 476.474,53.874 520.227,53.874 			"/>
			<polygon style="opacity:0.33;" points="520.227,53.874 500.708,53.874 510.5,68.75 530.019,68.75 			"/>
		</g>
		<rect x="494.442" y="69.957" style="fill:#CCCCCC;" width="7.808" height="23.245"/>
		<rect x="640.048" y="69.957" style="fill:#CCCCCC;" width="7.808" height="23.245"/>
		<path style="fill:#FFFFFF;" d="M663.827,64.609c0.018-0.302,0.004-0.598-0.036-0.887l12.108,0.728
			c-0.149,2.478,1.739,4.608,4.217,4.757s4.608-1.739,4.757-4.217c0.023-0.39-0.019-0.765-0.091-1.131
			c1.961-0.385,3.498-2.038,3.624-4.126c0.149-2.478-1.739-4.608-4.217-4.757c-1.852-0.111-3.508,0.916-4.289,2.476l-17.709-1.065
			c-0.589-1.642-2.11-2.861-3.962-2.972c-2.478-0.149-4.608,1.739-4.757,4.217c-0.105,1.739,0.805,3.29,2.207,4.122
			c-0.467,0.66-0.773,1.447-0.825,2.314c-0.149,2.478,1.739,4.608,4.217,4.757C661.548,68.976,663.678,67.087,663.827,64.609z"/>
		<rect x="434.854" y="68.75" style="fill:#EFA452;" width="275.202" height="15.509"/>
	</g>
	<g>
		<g>
			<path style="fill:#7D93B3;" d="M648.03,93.272h-40.991v6.637c0,0-7.808,5.856-6.246,14.835
				c1.562,8.979-10.593,12.102-6.663,27.327c3.93,15.225,55.071,10.66,60.927,3.633c5.856-7.027-6.452-21.984-1.767-29.237
				c4.685-7.253-7.211-17.338-7.211-17.338L648.03,93.272z"/>
			
				<ellipse transform="matrix(0.9239 -0.3827 0.3827 0.9239 0.6759 249.4754)" style="fill:none;stroke:#FFFFFF;stroke-width:2.6767;stroke-miterlimit:10;" cx="627.437" cy="123.039" rx="14.737" ry="14.737"/>
			<path style="opacity:0.33;" d="M653.29,116.466c4.685-7.253-7.212-17.339-7.212-17.339l1.952-5.856h-1.163l-2.643,5.433
				l-19.617,1.171c0,0,19.715,0.878,23.13,8.979c3.416,8.101-5.173,16.494-2.245,22.447c2.928,5.953,7.905,2.635,4.392,8.003
				c-3.514,5.368-43.528,5.953-45.773,0c-2.245-5.953,5.368-8.003,0-9.077c-3.814-0.763-8.414,3.745-10.759,6.42
				c0.028,1.626,0.26,3.417,0.778,5.422c3.93,15.225,55.071,10.66,60.927,3.633C660.913,138.676,648.605,123.719,653.29,116.466z"/>
			<path style="fill:#FFFFFF;" d="M636.179,119.802c0,1.788-1.449,3.237-3.237,3.237c-1.788,0-3.237-1.449-3.237-3.237
				c0-1.788,1.449-3.237,3.237-3.237C634.73,116.565,636.179,118.014,636.179,119.802z"/>
			<path style="fill:#FFFFFF;" d="M628.501,120.647c0,1.163-0.943,2.106-2.106,2.106s-2.106-0.943-2.106-2.106
				c0-1.163,0.943-2.106,2.106-2.106S628.501,119.484,628.501,120.647z"/>
			<circle style="fill:#FFFFFF;" cx="630.201" cy="128.569" r="3.806"/>
			<path style="fill:#FFFFFF;" d="M626.311,125.509c0,0.963-0.78,1.743-1.743,1.743c-0.963,0-1.743-0.78-1.743-1.743
				c0-0.963,0.78-1.743,1.743-1.743C625.531,123.765,626.311,124.546,626.311,125.509z"/>
		</g>
		<g>
			<g>
				<path style="fill:#FC6B76;" d="M584.697,94.409h-40.991v6.637c0,0-7.808,5.856-6.246,14.835
					c1.562,8.979-10.593,12.102-6.663,27.327c3.93,15.225,55.071,10.66,60.927,3.633c5.856-7.027-6.452-21.984-1.767-29.237
					c4.685-7.253-7.211-17.338-7.211-17.338L584.697,94.409z"/>
				<circle style="fill:none;stroke:#FFFFFF;stroke-width:2.6767;stroke-miterlimit:10;" cx="564.104" cy="124.176" r="14.737"/>
				<path style="opacity:0.33;" d="M589.957,117.604c4.685-7.253-7.212-17.339-7.212-17.339l1.952-5.856h-1.163l-2.643,5.433
					l-19.617,1.171c0,0,19.715,0.878,23.13,8.979c3.416,8.101-5.172,16.494-2.245,22.447c2.928,5.953,7.905,2.635,4.392,8.003
					c-3.514,5.368-43.528,5.953-45.773,0c-2.245-5.953,5.368-8.003,0-9.077c-3.814-0.763-8.414,3.745-10.759,6.42
					c0.028,1.626,0.26,3.417,0.778,5.422c3.93,15.225,55.071,10.66,60.927,3.633C597.58,139.814,585.272,124.857,589.957,117.604z"
					/>
			</g>
			<path style="fill:#FFFFFF;" d="M572.455,127.572c0,0-1.898-3.721-5.558-4.306c-3.66-0.586-1.195-3.66-2.793-5.563
				c-1.599-1.903-4.234-2.196-4.234-2.196l-2.342,2.196c0,0,4.349-0.085,4.151,3.837c-0.198,3.922,2.876,3.044,5.657,4.947
				c2.781,1.903,3.221,3.513,3.221,3.513L572.455,127.572z"/>
			<path style="fill:#FFFFFF;" d="M568.283,131.744c0,0-1.898-3.721-5.558-4.306c-3.66-0.586-1.195-3.66-2.793-5.563
				c-1.599-1.903-4.234-2.196-4.234-2.196l-2.342,2.196c0,0,4.349-0.085,4.151,3.837c-0.198,3.922,2.876,3.044,5.657,4.947
				c2.782,1.903,3.221,3.513,3.221,3.513L568.283,131.744z"/>
		</g>
		<rect x="486.038" y="158.693" style="fill:#CCCCCC;" width="7.808" height="23.245"/>
		<rect x="636.144" y="158.693" style="fill:#CCCCCC;" width="7.808" height="23.245"/>
		<path style="fill:#7D93B3;" d="M521.368,94.409h-40.991v6.637c0,0-7.808,5.856-6.246,14.835
			c1.562,8.979-10.593,12.102-6.663,27.327c3.93,15.225,55.071,10.66,60.927,3.633c5.856-7.027-6.452-21.984-1.767-29.237
			c4.685-7.253-7.211-17.338-7.211-17.338L521.368,94.409z"/>
		<circle style="fill:none;stroke:#FFFFFF;stroke-width:2.6767;stroke-miterlimit:10;" cx="500.775" cy="124.176" r="14.737"/>
		<path style="fill:#FFFFFF;" d="M500.213,128.863c-0.133-0.127-0.276-0.236-0.426-0.331l5.083-5.342
			c1.093,1.041,2.823,0.998,3.863-0.096c1.04-1.093,0.998-2.823-0.096-3.863c-0.172-0.164-0.363-0.291-0.561-0.401
			c0.59-1.062,0.424-2.424-0.497-3.301c-1.093-1.04-2.823-0.998-3.864,0.096c-0.778,0.817-0.949,1.989-0.53,2.964l-7.435,7.813
			c-0.994-0.37-2.156-0.141-2.934,0.676c-1.04,1.093-0.998,2.823,0.096,3.864c0.767,0.73,1.845,0.915,2.78,0.59
			c0.124,0.476,0.37,0.926,0.752,1.29c1.093,1.04,2.823,0.998,3.864-0.096C501.349,131.634,501.306,129.904,500.213,128.863z"/>
		<path style="opacity:0.33;" d="M526.628,117.604c4.685-7.253-7.212-17.339-7.212-17.339l1.952-5.856h-1.163l-2.643,5.433
			l-19.617,1.171c0,0,19.715,0.878,23.13,8.979c3.416,8.101-5.172,16.494-2.245,22.447c2.928,5.953,7.905,2.635,4.392,8.003
			c-3.514,5.368-43.528,5.953-45.773,0c-2.245-5.953,5.368-8.003,0-9.077c-3.814-0.763-8.414,3.745-10.759,6.42
			c0.028,1.626,0.26,3.417,0.778,5.422c3.93,15.225,55.071,10.66,60.927,3.633C534.251,139.814,521.943,124.857,526.628,117.604z"/>
		<g>
			<rect x="659.371" y="117.703" style="fill:#7D93B3;" width="20.105" height="29.138"/>
			<rect x="670.938" y="117.703" style="opacity:0.33;" width="8.538" height="29.138"/>
			
				<ellipse transform="matrix(0.7071 -0.7071 0.7071 0.7071 102.1968 511.2684)" style="fill:none;stroke:#FFFFFF;stroke-width:2.6767;stroke-miterlimit:10;" cx="668.254" cy="132.272" rx="7.369" ry="7.369"/>
			<path style="fill:#FFFFFF;" d="M667.973,134.615c-0.067-0.063-0.138-0.118-0.213-0.165l2.542-2.671
				c0.547,0.52,1.411,0.499,1.932-0.048c0.52-0.547,0.499-1.411-0.048-1.932c-0.086-0.082-0.181-0.145-0.281-0.2
				c0.295-0.531,0.212-1.212-0.249-1.65c-0.547-0.52-1.412-0.499-1.932,0.048c-0.389,0.409-0.475,0.995-0.265,1.482l-3.718,3.906
				c-0.497-0.185-1.078-0.07-1.467,0.338c-0.52,0.547-0.499,1.411,0.048,1.932c0.383,0.365,0.922,0.458,1.39,0.295
				c0.062,0.238,0.185,0.463,0.376,0.645c0.547,0.52,1.412,0.499,1.932-0.048C668.541,136,668.52,135.135,667.973,134.615z"/>
		</g>
		<g>
			<rect x="680.798" y="117.703" style="fill:#FC6B76;" width="20.105" height="29.138"/>
			<rect x="692.365" y="117.703" style="opacity:0.33;" width="8.538" height="29.138"/>
			
				<ellipse transform="matrix(0.2298 -0.9732 0.9732 0.2298 402.4922 773.1136)" style="fill:none;stroke:#FFFFFF;stroke-width:2.6767;stroke-miterlimit:10;" cx="689.681" cy="132.272" rx="7.369" ry="7.369"/>
			<path style="fill:#FFFFFF;" d="M689.4,134.615c-0.067-0.063-0.138-0.118-0.213-0.165l2.542-2.671
				c0.547,0.52,1.412,0.499,1.932-0.048c0.52-0.547,0.499-1.411-0.048-1.932c-0.086-0.082-0.181-0.145-0.28-0.2
				c0.295-0.531,0.212-1.212-0.249-1.65c-0.547-0.52-1.411-0.499-1.932,0.048c-0.389,0.409-0.474,0.995-0.265,1.482l-3.718,3.906
				c-0.497-0.185-1.078-0.07-1.467,0.338c-0.52,0.547-0.499,1.411,0.048,1.932c0.384,0.365,0.922,0.458,1.39,0.295
				c0.062,0.238,0.185,0.463,0.376,0.645c0.547,0.52,1.412,0.499,1.932-0.048C689.968,136,689.947,135.135,689.4,134.615z"/>
		</g>
		<rect x="434.854" y="146.841" style="fill:#EFA452;" width="275.202" height="15.51"/>
	</g>
	<path style="opacity:0.4;fill:#140F10;" d="M698.771,478.866H530.7c-3.543,0-6.441-2.898-6.441-6.441l0,0
		c0-3.543,2.898-6.441,6.441-6.441h168.071c3.543,0,6.441,2.898,6.441,6.441l0,0C705.212,475.968,702.313,478.866,698.771,478.866z"
		/>
	<path style="opacity:0.4;fill:#140F10;" d="M539.994,449.103H171.881c-4.949,0-8.998-4.049-8.998-8.998l0,0
		c0-4.949,4.049-8.998,8.998-8.998h368.113c4.949,0,8.998,4.049,8.998,8.998l0,0C548.992,445.054,544.943,449.103,539.994,449.103z"
		/>
	<g>
		<g>
			<rect x="97.744" y="111.572" style="fill:#756080;" width="1.142" height="55.166"/>
			<path style="fill:#F9BB6B;" d="M103.105,166.737c0,2.961-2.4,5.36-5.361,5.36s-5.36-2.4-5.36-5.36c0-2.961,2.4-5.36,5.36-5.36
				S103.105,163.777,103.105,166.737z"/>
			<rect x="86.493" y="135.724" style="fill:#756080;" width="1.142" height="55.166"/>
			<rect x="56.466" y="75.483" style="fill:#EFA452;" width="64.802" height="64.802"/>
			<g>
				
					<ellipse transform="matrix(0.1602 -0.9871 0.9871 0.1602 -7.994 158.263)" style="fill:#F9BB6B;" cx="89.011" cy="83.829" rx="33.591" ry="33.591"/>
				
					<ellipse transform="matrix(0.2298 -0.9732 0.9732 0.2298 -13.0265 151.1992)" style="fill:#EFF1F5;" cx="89.011" cy="83.829" rx="28.782" ry="28.782"/>
				<path style="fill:#756080;" d="M90.783,84.372c0,0.869-0.705,1.574-1.574,1.574s-1.574-0.705-1.574-1.574
					s0.705-1.574,1.574-1.574S90.783,83.503,90.783,84.372z"/>
				<polygon style="fill:#756080;" points="89.011,83.829 69.946,65.949 89.011,85.017 				"/>
				<path style="fill:#756080;" d="M89.011,83.829l8.997-9.965l5.876-2.878l-3.957,5.037l-10.718,8.35
					C89.011,83.829,89.011,83.829,89.011,83.829z"/>
				<rect x="58.313" y="84.372" style="fill:#F9BB6B;" width="4.437" height="1.574"/>
				<rect x="115.574" y="84.372" style="fill:#F9BB6B;" width="4.437" height="1.574"/>
				
					<rect x="86.944" y="55.742" transform="matrix(-1.836970e-16 1 -1 -1.836970e-16 145.691 -32.6336)" style="fill:#F9BB6B;" width="4.437" height="1.574"/>
				
					<rect x="86.944" y="113.003" transform="matrix(-1.836970e-16 1 -1 -1.836970e-16 202.9525 24.6279)" style="fill:#F9BB6B;" width="4.437" height="1.574"/>
			</g>
			<rect x="69.946" y="120.614" style="fill:#F9BB6B;" width="38.133" height="14.151"/>
			<path style="fill:#EFF1F5;" d="M91.409,127.629c0,1.358-1.101,2.459-2.459,2.459c-1.358,0-2.458-1.101-2.458-2.459
				c0-1.358,1.101-2.459,2.458-2.459C90.309,125.171,91.409,126.271,91.409,127.629z"/>
			
				<ellipse transform="matrix(0.2298 -0.9732 0.9732 0.2298 -119.98 231.8575)" style="fill:#F9BB6B;" cx="86.492" cy="191.729" rx="7.795" ry="7.795"/>
		</g>
	</g>
	<path style="fill:#FFC19A;" d="M347.696,267.241c0,0-9.096-6.773-14.306-7.294c-5.21-0.521-18.756,3.517-17.323,5.471
		c1.433,1.954,3.777,2.735,7.033,1.823c3.256-0.912,5.992-1.693,5.992-1.693l3.517,2.072c0,0-4.949,0.793-6.773,1.444
		c-1.823,0.651-2.735,1.693-1.954,2.996c0.781,1.302,7.685,0.13,10.68,0.781c2.996,0.651,5.34,1.302,6.773,0l5.731,1.563
		L347.696,267.241z"/>
	<path style="fill:#FC6B76;" d="M346.414,263.272l53.014,4.953c0,0,21.167-40.195,42.991-34.249
		c21.824,5.946-14.861,64.224-42.491,68.637c-27.63,4.413-57.287-25.501-57.287-25.501L346.414,263.272z"/>
	<path style="opacity:0.33;fill:#140F10;" d="M443.636,234.396c-2.971,19.222-28.379,52-48.831,55.266
		c-19.456,3.107-39.917-10.806-50.32-19.31l-1.843,6.76c0,0,29.658,29.914,57.287,25.501
		C427.013,298.287,462.791,242.21,443.636,234.396z"/>
	<path style="fill:#343456;" d="M441.142,183.193c-3.046-10.904-14.131-6.721-14.131-6.721c-8.219-6.613-18.05,0.409-24.167,6.463
		c-2.412-2.333-5.691-3.774-9.312-3.774c-7.404,0-13.405,6.002-13.405,13.405c0,7.404,6.002,13.405,13.405,13.405
		c2.904,0,5.584-0.933,7.779-2.501c3.779,2.129,12.091-2.187,16.738-3.249c5.228-1.195,10.754,18.657,10.754,18.657l9.41-4.122
		C438.214,214.755,444.188,194.096,441.142,183.193z"/>
	<path style="opacity:0.33;fill:#140F10;" d="M441.142,183.193c-3.046-10.904-14.131-6.721-14.131-6.721
		c-8.219-6.613-18.05,0.409-24.167,6.463c-2.412-2.333-5.691-3.774-9.312-3.774c-6.645,0-12.146,4.84-13.206,11.184
		c2.448-3.221,6.309-5.31,10.667-5.31c3.621,0,6.9,1.442,9.312,3.775c6.117-6.055,15.948-13.076,24.167-6.463
		c0,0,11.086-4.182,14.131,6.721c2.072,7.416-0.03,19.34-1.586,26.212l1.196-0.524C438.214,214.755,444.188,194.096,441.142,183.193
		z"/>
	<polygon style="fill:#23233D;" points="524.046,416.23 533.313,416.454 542.737,432.772 541.966,408.209 524.25,407.781 	"/>
	<polygon style="fill:#23233D;" points="403.204,422.086 403.204,431.355 387.119,441.171 411.656,439.807 411.656,422.086 	"/>
	<path style="fill:#1B1B30;" d="M462.672,299.425c0,0,24.106,1.399,29.712,23.396s-18.506,65.458-18.506,65.458
		s32.761-3.856,59.615,16.867l-2.399,13.883c0,0-59.483,4.787-80.585-4.393c-21.101-9.18,0.044-67.502,0.044-67.502L462.672,299.425
		z"/>
	<path style="fill:#2E2E4C;" d="M506.262,338.113c0,0,2.726,23.992-17.994,33.262c-20.721,9.27-67.653-7.089-67.653-7.089
		s9.379,31.626-6.469,61.617h-14.089c0,0-14.846-57.8-9.394-80.156c5.453-22.357,66.524-11.451,66.524-11.451L506.262,338.113z"/>
	<path style="opacity:0.24;fill:#140F10;" d="M506.262,338.113l-10.998-0.855c-1.733,7.389-6.14,16.339-17.042,21.216
		c-20.721,9.27-67.653-7.089-67.653-7.089s6.155,35.518-3.826,74.518h7.402c15.848-29.99,6.469-61.617,6.469-61.617
		s46.933,16.358,67.653,7.089C508.989,362.105,506.262,338.113,506.262,338.113z"/>
	<path style="fill:#FC6B76;" d="M443.507,232.346c4.861,0.66,56.986,11.532,78.61,99.953c0,0-15.526,13.501-33.752,18.901
		l-5.553-15.526l-5.923,15.526c0,0-31.718-6.75-49.274-22.276c0,0,7.43-15.572,0-37.15
		C420.185,270.194,401.349,228.25,443.507,232.346z"/>
	<g style="opacity:0.33;">
		<path style="fill:#140F10;" d="M442.703,324.666c-0.037-0.038,3.117-13.34,3.186-14.364c0.415-6.225-0.536-11.588-2.247-16.72
			c-0.148-0.098-0.294-0.204-0.439-0.32c-4.112-3.319-7.532-8.402-10.952-12.442c-3.619-4.275-6.699-8.938-9.187-13.956
			c-2.276-4.59-4.216-9.316-5.731-14.158c0.257,4.103,0.941,7.969,1.393,10.229c1.979,9.901,5.613,19.322,8.889,28.837
			c7.43,21.579,0,37.15,0,37.15c17.556,15.526,49.274,22.276,49.274,22.276l2.898-7.596
			C468.963,340.175,453.269,334.011,442.703,324.666z"/>
	</g>
	<path style="fill:#F9B28A;" d="M419.268,225.628l5.626,17.232c0,0,11.186-0.884,16.248-5.917l-8.969-15.22L419.268,225.628z"/>
	<path id="XMLID_418_" style="fill:#FFC19A;" d="M395.866,204.963c0,0,1.533,26.759,10.017,30.88
		c8.484,4.12,26.704-13.449,26.704-13.449s15.315-6.605,8.935-13.289c-6.379-6.684-11.201-0.41-11.201-0.41
		s1.676-19.703-6.787-19.033c-8.463,0.671-12.308,8.564-18.204,11.328C399.434,203.753,395.551,200.93,395.866,204.963z"/>
	<path style="fill:#333333;" d="M413.442,209.946c0.307,1.026-0.048,2.039-0.793,2.263c-0.745,0.223-1.599-0.427-1.907-1.454
		s0.048-2.039,0.793-2.263C412.281,208.269,413.134,208.92,413.442,209.946z"/>
	<path style="fill:#333333;" d="M401.356,213.567c0.307,1.026-0.048,2.039-0.793,2.263c-0.746,0.223-1.599-0.428-1.907-1.454
		c-0.307-1.026,0.048-2.039,0.793-2.263C400.194,211.89,401.048,212.541,401.356,213.567z"/>
	<path style="fill:#FC6B76;" d="M403.22,212.183l-1.9,7.926l5.445-1.631c-0.035-0.625-0.305-1.128-0.897-1.463l-1.191,0.282
		L403.22,212.183z"/>
	<g>
		<path style="fill:#FC6B76;" d="M414.776,213.87c0.046,0.152-0.041,0.313-0.193,0.358c-0.152,0.046-0.313-0.041-0.358-0.193
			c-0.046-0.152,0.041-0.313,0.193-0.358C414.57,213.631,414.73,213.718,414.776,213.87z"/>
		<path style="fill:#FC6B76;" d="M415.513,215.857c0.046,0.152-0.041,0.313-0.193,0.358c-0.152,0.046-0.313-0.041-0.358-0.193
			c-0.046-0.152,0.041-0.313,0.193-0.358C415.307,215.619,415.468,215.705,415.513,215.857z"/>
		<path style="fill:#FC6B76;" d="M413.6,215.384c0.039,0.132-0.035,0.271-0.168,0.311c-0.132,0.04-0.271-0.036-0.311-0.167
			c-0.04-0.132,0.035-0.271,0.167-0.311C413.421,215.177,413.56,215.252,413.6,215.384z"/>
		<path style="fill:#FC6B76;" d="M416.869,214.279c0.059,0.195-0.052,0.401-0.248,0.46s-0.401-0.052-0.46-0.248
			c-0.059-0.195,0.052-0.401,0.248-0.46C416.605,213.973,416.811,214.084,416.869,214.279z"/>
	</g>
	<g>
		<path style="fill:#FC6B76;" d="M399.609,216.818c0.01,0.137,0.129,0.24,0.265,0.23c0.137-0.01,0.24-0.129,0.23-0.265
			c-0.01-0.137-0.129-0.24-0.265-0.23C399.702,216.563,399.6,216.682,399.609,216.818z"/>
		<path style="fill:#FC6B76;" d="M399.624,218.647c0.01,0.137,0.129,0.24,0.265,0.23c0.137-0.01,0.24-0.129,0.23-0.265
			c-0.01-0.137-0.129-0.24-0.265-0.23C399.717,218.391,399.614,218.51,399.624,218.647z"/>
		<path style="fill:#FC6B76;" d="M401.022,217.679c0.008,0.119,0.112,0.208,0.23,0.199c0.119-0.008,0.208-0.112,0.199-0.23
			c-0.008-0.119-0.112-0.208-0.23-0.199C401.102,217.457,401.013,217.561,401.022,217.679z"/>
		<path style="fill:#FC6B76;" d="M398.047,217.79c0.013,0.175,0.165,0.308,0.341,0.295c0.176-0.013,0.307-0.165,0.295-0.341
			c-0.013-0.176-0.165-0.308-0.341-0.295C398.167,217.462,398.034,217.614,398.047,217.79z"/>
	</g>
	<path style="fill:#FFC19A;" d="M403.557,329.078c0,0-5.889-2.031-8.128-0.006c-2.239,2.025-9.003,7.058-9.003,7.058
		s1.133,2.038,4.01,1.751c2.878-0.287,6.26-2.803,6.26-2.803l-1.155,3.864c0,0-13.163,5.554-11.191,8.438
		c1.973,2.884,12.585,3.222,16.461,1.005c3.877-2.217,7.6-7.625,7.6-7.625l9.157-3.867l-6.14-12.12L403.557,329.078z"/>
	<path style="fill:#FC6B76;" d="M405.091,326.976l44.918-28.59c0,0-7.922-44.732,12.965-53.415
		c20.887-8.683,27.635,59.848,8.513,80.275c-19.122,20.426-60.892,14.977-60.892,14.977L405.091,326.976z"/>
	<path style="opacity:0.33;fill:#140F10;" d="M468.656,244.522c9.914,16.446,10.177,59.061-4.214,74.433
		c-15.251,16.291-44.908,16.123-56.291,15.387l2.443,5.88c0,0,41.77,5.449,60.892-14.977
		C488.749,306.806,484.927,249.176,468.656,244.522z"/>
	<path style="fill:#343456;" d="M407.37,205.971c0,0,5.923-4.705,9.515-1.12l0.511-1.68c0,0-6.329-3.025-10.026,1.68l-1.064-0.759
		L407.37,205.971z"/>
	<path style="fill:#343456;" d="M402.022,208.369c0,0-6.555-0.899-6.61,3.662l-1.342-1.088c0,0,2.101-5.426,7.27-3.463l0.201-1.111
		L402.022,208.369z"/>
	<path style="fill:#343456;" d="M405.091,225.351l11.055-4.593c0,0,0.813,6.998-1.933,7.842
		C409.834,229.944,405.091,225.351,405.091,225.351z"/>
	<path style="fill:#FC6B76;" d="M416.236,223.922c-0.455-0.153-0.941-0.239-1.447-0.239c-2.513,0-4.55,2.037-4.55,4.55
		c0,0.079,0.008,0.156,0.012,0.234c1.259,0.396,2.627,0.542,3.963,0.132C415.695,228.144,416.14,225.896,416.236,223.922z"/>
	<g>
		<path style="fill:#E2872B;" d="M328.85,351.626l-4.16,68.823c0,0,3.605,6.933,4.16,6.933c0.555,0,9.845-1.664,10.539,4.853h-3.559
			c0,0-0.185,1.941-2.265,3.467c-2.08,1.525-6.795-1.941-10.261-2.773c-3.467-0.832-10.955-11.371-10.955-11.371l-7.211-50.336
			L328.85,351.626z"/>
		<path style="fill:#FC6B76;" d="M347.148,290.577c0,0,8.624,1.299,11.183,5.728c2.559,4.429,0.169,7.566,0.916,11.3
			s7.916,4.481,8.812,0c0.896-4.481-2.24-17.411-12.696-19.758C344.908,285.499,347.148,290.577,347.148,290.577z"/>
		<path style="fill:#F7BF74;" d="M304.25,363.142c0,0,16.085,18.304,25.237,19.413c9.152,1.109,19.691-2.496,19.691-2.496
			l-1.387-4.16l24.524-40.491c0,0,11.945,7.211,18.046,1.109c0,0,6.517,0.139,7.349-4.576s-3.744-6.795-8.043-6.101
			c-4.299,0.693-16.501-5.685-21.771-4.437c-5.269,1.248-27.248,26.693-32.656,24.613c0,0-5.2-11.232-12.48-15.392
			c-7.28-4.16-19.344-11.024-27.456,2.08S304.25,363.142,304.25,363.142z"/>
		<path style="fill:#F7BF74;" d="M298.704,265.798c0,0-2.773-1.664-1.664-10.816c1.109-9.152,6.101-15.808,4.715-21.355
			c0,0,9.984,8.32,10.816,23.851c0,0,22.464-0.555,25.237,4.437c2.773,4.992,3.051,8.043,3.051,8.043s22.741-2.496,27.733,0
			c4.992,2.496-1.941,20.8-19.968,20.245c0,0,8.597,0.277,9.707,6.101c0,0-3.328,4.437-11.371,4.16
			c-8.043-0.277-9.152,10.261-9.152,10.261l-4.336,2.773c0,0,11.916,13.867,2.718,28.565c0,0-35.545-5.547-56.345-35.221
			l-2.219-11.371C277.626,295.473,283.173,278.001,298.704,265.798z"/>
		<path style="fill:#F7BF74;" d="M298.704,265.798c0,0-2.773-1.664-1.664-10.816c1.109-9.152,6.101-15.808,4.715-21.355
			c0,0,9.984,8.32,10.816,23.851c0,0,22.464-0.555,25.237,4.437c2.773,4.992,3.051,8.043,3.051,8.043s22.741-2.496,27.733,0
			c4.992,2.496-1.941,20.8-19.968,20.245c0,0,8.597,0.277,9.707,6.101c0,0-3.328,4.437-11.371,4.16
			c-8.043-0.277-9.152,10.261-9.152,10.261l-4.336,2.773c0,0,11.916,13.867,2.718,28.565c0,0-35.545-5.547-56.345-35.221
			l-2.219-11.371C277.626,295.473,283.173,278.001,298.704,265.798z"/>
		<path style="fill:#F7BF74;" d="M285.115,303.238c0,0-7.488,16.085-34.667,33.557c-27.179,17.472-39.936,54.08-34.667,77.099
			c5.269,23.019,31.893,26.347,44.928,23.851c13.035-2.496,24.96-6.656,35.499-19.691c10.539-13.035,17.195-36.331,23.851-43.541
			c6.656-7.211-3.883-45.205-3.883-45.205l-31.893-27.456"/>
		<path style="fill:#F7BF74;" d="M221.883,411.953c0,0-18.581,14.421-33.28,0c-14.699-14.421-6.379-26.015-10.539-41.018
			c-4.16-15.003-22.741-18.93-22.741-18.93s4.16,7.533,0,13.911c-4.16,6.379,0,17.749,0,17.749l-5.269-2.219
			c0,0-3.883,8.043,0,18.859c3.883,10.816,14.699,14.976,14.699,14.976l-6.933-1.109c0,0,5.824,11.648,15.808,16.917
			c9.984,5.269,28.288,0,28.288,0l-0.832,4.437c0,0,18.151,2.219,27.241-8.875C237.413,415.558,221.883,411.953,221.883,411.953z"/>
		<path style="fill:#754C24;" d="M297.04,254.982c-1.109,9.152,1.664,10.816,1.664,10.816
			c-15.531,12.203-21.077,29.675-21.077,29.675l2.219,11.371c4.593,6.553,9.906,11.928,15.396,16.328
			c1.633-6.494,5.661-10.041,5.661-10.041l3.303,8.11c0,0,4.481-2.509,4.481-14.159c0-11.65-6.945-25.989-6.945-25.989l-1.847,2.913
			c-2.295-8.962,0-14.154,0-14.154c3.064,2.516,6.776-1.064,6.776-1.064c-4.033-2.896-9.812-11.919-5.825-17.269
			c3.987-5.35,0.909-17.891,0.909-17.891C303.141,239.174,298.149,245.83,297.04,254.982z"/>
		<path style="fill:#754C24;" d="M285.115,303.238c0,0-7.488,16.085-34.667,33.557c-27.179,17.472-39.936,54.08-34.667,77.099
			c5.084,22.211,30.047,26.087,43.503,24.089c-0.573-5.103-1.307-10.446-1.307-10.446s9.559-35.99,6.871-49.433
			c-2.689-13.443,7.468-17.924,7.468-17.924l2.688,5.676c0.95-5.184,11.352-21.508,11.352-21.508l1.494,5.078
			c0,0,8.066-18.222,7.391-26.255c-0.303-3.612-1.345-9.054-2.4-13.952l-8.559-7.368L285.115,303.238z"/>
		<path style="fill:#F7BF74;" d="M252.389,374.79c0,0,37.717-11.648,50.197,5.547c12.48,17.195-12.203,47.147-12.203,47.147
			s37.995-5.269,39.936,8.043h-5.269c0,0,1.358,2.496-2.788,4.16c-4.146,1.664-8.86-1.24-8.86-1.24s-64.619,6.525-65.173,0
			c-0.555-6.525-9.984,1.518-16.64-11.794C224.933,413.339,226.874,383.665,252.389,374.79z"/>
		<path style="fill:#F7BF74;" d="M252.389,374.79c0,0,37.717-11.648,50.197,5.547c12.48,17.195-12.203,47.147-12.203,47.147
			s37.995-5.269,39.936,8.043h-5.269c0,0,1.358,2.496-2.788,4.16c-4.146,1.664-8.86-1.24-8.86-1.24s-64.619,6.525-65.173,0
			c-0.555-6.525-9.984,1.518-16.64-11.794C224.933,413.339,226.874,383.665,252.389,374.79z"/>
		<path style="fill:#F7BF74;" d="M268.439,363.1"/>
		<path style="fill:#754C24;" d="M279.321,400.21l-3.121-6.354c0,0,13.301-1.711,16.957,4.263
			c3.656,5.974-0.038,12.845-0.038,12.845l5.188-4.824c0,0-5.389,17.848-7.922,21.343c0,0,24.683-29.952,12.203-47.147
			c-12.48-17.195-50.197-5.547-50.197-5.547c-25.515,8.875-27.456,38.549-20.8,51.861c2.575,5.15,5.565,7.099,8.295,7.937
			c0.284-4.783,1.021-10.544,2.858-14.065c3.585-6.871,14.936-5.974,14.936-5.974l-6.572-5.078
			C251.107,409.47,267.506,396.028,279.321,400.21z"/>
		<path style="fill:#754C24;" d="M221.883,411.953c0,0-18.581,14.421-33.28,0c-14.699-14.421-6.379-26.015-10.539-41.018
			c-4.16-15.003-22.741-18.93-22.741-18.93s15.576,10.865,17.369,22.515c1.792,11.65-3.585,21.508-3.585,21.508l-5.825-9.858
			c0,0-0.896,12.159,3.585,19.97c4.481,7.811,13.443,10.948,13.443,10.948l-9.858,2.24c0,0,17.753,12.154,31.814,4.392v3.817
			c0,0,14.339,3.89,19.268-8.657c0.932-2.371,1.51-4.534,1.837-6.483C222.48,412.092,221.883,411.953,221.883,411.953z"/>
		<path style="fill:#343456;" d="M337.81,271.259c0.438,1.628-0.176,3.209-1.371,3.53c-1.195,0.321-2.519-0.738-2.956-2.367
			s0.176-3.209,1.371-3.53C336.049,268.57,337.373,269.63,337.81,271.259z"/>
		<path style="fill:#FFFFFF;" d="M335.22,271.366c0.155,0.668,0.011,1.271-0.32,1.348c-0.331,0.077-0.726-0.402-0.88-1.07
			s-0.011-1.271,0.32-1.348C334.672,270.22,335.066,270.699,335.22,271.366z"/>
		<path style="opacity:0.57;fill:#FFFFFF;" d="M336.41,272.229c0.091,0.395,0.33,0.677,0.532,0.63
			c0.202-0.047,0.292-0.405,0.201-0.8c-0.091-0.395-0.33-0.677-0.532-0.63C336.409,271.475,336.319,271.834,336.41,272.229z"/>
		<path style="opacity:0.39;" d="M368.592,269.958c-0.674-0.337-1.681-0.581-2.903-0.754c0.116,2.097-0.162,4.39-1.065,6.835
			c-4.204,11.38-22.106,13.045-22.106,13.045s10.494,1.763,7.468,6.572c-3.026,4.809-13.741-2.843-16.729,6.196
			c-2.987,9.039-14.04,11.13-14.04,11.13s8.763,2.719,11.103,15.534l-6.423-5.344c0,0-4.944,5.662,0.352,15.71
			c7.123,2.429,11.941,3.183,11.941,3.183c9.198-14.699-2.718-28.565-2.718-28.565l4.335-2.773c0,0,1.109-10.539,9.152-10.261
			c8.043,0.277,11.371-4.16,11.371-4.16c-1.109-5.824-9.707-6.101-9.707-6.101C366.651,290.758,373.584,272.454,368.592,269.958z"/>
		<path style="fill:#754C24;" d="M370.16,273.591c0,0-6.022,0.444-6.919-2.468c-0.896-2.913,2.755-5.153,4.962-3.809
			C370.411,268.658,371.478,271.69,370.16,273.591z"/>
		<path style="opacity:0.39;" d="M390.362,336.518c0,0,6.517,0.139,7.349-4.576c0.387-2.191-0.402-3.805-1.78-4.844
			c-1.323,1.82-3.574,3.447-7.41,3.807c0,0,1.195,4.182-5.975,4.182c-7.169,0-15.628-5.377-15.628-5.377
			s-15.123,35.188-27.17,41.224c-7.71,3.863-23.761-1.867-34.322-6.493c3.865,4.192,16.393,17.185,24.06,18.114
			c9.152,1.109,19.691-2.496,19.691-2.496l-1.387-4.16l24.524-40.491C372.316,335.409,384.261,342.619,390.362,336.518z"/>
	</g>
	<g>
		<g>
			<path style="fill:#E2872B;" d="M635.989,450.953c0,0,18.799,10.995,24.474,10.286c5.675-0.709,7.803-2.838,7.803-2.838
				s12.414,11.705,15.607,6.03c3.192-5.675-17.38-18.089-17.38-18.089l-6.384,2.128C660.109,448.47,648.049,438.539,635.989,450.953
				z"/>
			<path style="fill:#E2872B;" d="M555.12,441.022l-11.705,24.474c0,0-9.222-1.064-7.094,3.902c2.128,4.966,8.158,3.192,8.158,3.192
				l30.503-22.7C574.982,449.889,562.923,438.184,555.12,441.022z"/>
			<path style="fill:#CC6A00;" d="M663.393,409.809c0,0,32.986,10.995,35.469-6.03c0,0,3.902,10.286-7.803,13.833
				c-11.705,3.547-27.311-3.192-27.311-3.192L663.393,409.809z"/>
			<path style="fill:#F7BF74;" d="M538.515,413.697c1.267-0.565,2.719,0.11,2.921,1.482c1.218,8.25,5.829,28.469,22.289,36.838
				c20.927,10.641,77.323,12.06,95.767-3.547c0,0,12.414,9.577,21.991,5.32s9.222-6.03,9.222-6.03s13.833,14.897,19.508,9.931
				s-18.799-22.346-18.799-22.346s-6.739,2.128-8.867-0.355c-2.128-2.483-7.094-23.41-21.991-27.666
				c-14.897-4.256-39.726,7.449-58.17,7.449c-18.444,0-31.213-6.739-34.051-13.124c-2.837-6.384-7.803-15.252-14.188-17.025
				c-6.384-1.773-23.764-2.483-23.764,3.192c0,0-15.961,3.547-21.282,0.709c-5.32-2.838-3.902,7.449,0.709,11.35
				c4.611,3.902,4.256,2.837,4.256,2.837s-1.064,3.902,2.483,6.385C519.591,411.227,532.273,416.483,538.515,413.697z"/>
			
				<radialGradient id="SVGID_00000109714727618099172870000006255705661272487307_" cx="608.3783" cy="424.0706" r="76.9518" gradientUnits="userSpaceOnUse">
				<stop  offset="0.5744" style="stop-color:#130C0E"/>
				<stop  offset="0.7977" style="stop-color:#130C0E"/>
				<stop  offset="1" style="stop-color:#130C0E"/>
			</radialGradient>
			<path style="opacity:0.47;fill:url(#SVGID_00000109714727618099172870000006255705661272487307_);" d="M689.759,443.485
				c0,0-2.078,4.345-11.146,6.612c-9.068,2.267-20.025-9.257-20.025-9.257c-3.967,3.589-9.446,5.667-9.446,5.667
				c-38.728,19.647-94.457-8.501-97.669-15.302c-3.212-6.801-2.267-14.169-6.234-18.702c-3.967-4.534-6.423-1.889-11.713,0
				c-5.29,1.889-18.325-3.212-12.657-5.29c5.667-2.078,6.234-5.29,6.234-5.29s-9.635,0.567-13.98-2.645
				c-2.715-2.007-2.406-6.742-1.792-10.013c-0.856-0.173-1.616-0.412-2.23-0.739c-5.32-2.837-3.902,7.449,0.709,11.35
				c3.399,2.876,4.097,3.053,4.231,2.948c-0.136,0.624-0.704,4.026,2.508,6.275c3.04,2.128,15.722,7.383,21.964,4.598
				c1.267-0.565,2.719,0.11,2.921,1.482c1.218,8.25,5.829,28.469,22.289,36.838c20.927,10.641,77.323,12.06,95.767-3.547
				c0,0,12.414,9.577,21.991,5.32s9.222-6.03,9.222-6.03s13.833,14.897,19.508,9.931c0.887-0.776,1.037-1.856,0.66-3.126
				C698.291,455.165,689.759,443.485,689.759,443.485z"/>
			<path style="fill:#F7BF74;" d="M554.857,426.834l-32.632,17.38c0,0-0.709-6.385-6.739-3.192c-6.03,3.192,6.385,12.06,6.385,12.06
				l51.139-9.974C573.01,443.107,566.917,426.479,554.857,426.834z"/>
			
				<rect x="535.704" y="408.745" transform="matrix(0.8469 -0.5318 0.5318 0.8469 -134.1935 358.8677)" style="fill:#E25E5A;" width="40.79" height="7.449"/>
			<path style="fill:#CC6A00;" d="M540.122,387.957c0,0-3.547,31.568,13.478,33.341c17.025,1.773,18.089-6.739,8.513-14.188
				c-9.577-7.449-10.286-18.444-10.286-18.444C552.086,384.397,540.381,383.687,540.122,387.957z"/>
			<path style="fill:#E25E5A;" d="M514.068,402.715c0,0-7.934,7.143-0.944,12.244c6.99,5.101,12.657,0.189,10.768-1.7
				c-1.889-1.889-5.856-2.267-6.234-4.912c-0.378-2.645,3.023-5.101,3.023-5.101S518.601,401.995,514.068,402.715z"/>
			
				<radialGradient id="SVGID_00000031892818874825487710000005242797282152658598_" cx="518.3166" cy="409.8407" r="6.6827" gradientUnits="userSpaceOnUse">
				<stop  offset="0.5744" style="stop-color:#130C0E"/>
				<stop  offset="0.7977" style="stop-color:#130C0E"/>
				<stop  offset="1" style="stop-color:#130C0E"/>
			</radialGradient>
			<path style="opacity:0.44;fill:url(#SVGID_00000031892818874825487710000005242797282152658598_);" d="M523.892,413.259
				c-1.889-1.889-5.856-2.267-6.234-4.912c-0.378-2.645,3.023-5.101,3.023-5.101s-2.079-1.251-6.613-0.531
				c0,0-0.337,0.305-0.809,0.829c0.632-0.03,1.044,0.112,0.935,0.584c-0.378,1.637-3.652,8.06-0.378,8.564
				c0,0-1.133-4.912,1.259-6.297c0,0-2.141,4.786,2.015,6.675c1.992,0.905,2.068,2.59,1.614,4.101
				C522.754,417.45,525.234,414.601,523.892,413.259z"/>
		</g>
		<path style="fill:#343456;" d="M535.093,390.423c0,1.317-0.637,2.384-1.423,2.384c-0.786,0-1.423-1.068-1.423-2.384
			c0-1.317,0.637-2.384,1.423-2.384C534.456,388.039,535.093,389.106,535.093,390.423z"/>
		<path style="fill:#F2F2F2;" d="M533.671,390.054c0,0.56-0.259,1.014-0.578,1.014s-0.578-0.454-0.578-1.014
			c0-0.56,0.259-1.014,0.578-1.014S533.671,389.494,533.671,390.054z"/>
	</g>
	<g>
		<g>
			<path style="fill:#F9AD82;" d="M278.672,228.342c0,0,3.485-2.723,5.456-1.88c1.971,0.843,7.674,2.661,7.674,2.661
				s-0.29,1.63-2.289,2.101c-1.998,0.471-4.85-0.438-4.85-0.438l1.667,2.328c0,0,10.12,0.692,9.461,3.083s-7.707,5.067-10.821,4.473
				c-3.115-0.594-6.863-3.366-6.863-3.366l-7.04-0.483l1.326-9.555L278.672,228.342z"/>
			<path style="fill:#F9B28A;" d="M278.672,228.342l-61.335-16.708c0,0-7.048-44.899-29.634-46.323
				c-22.585-1.424-9.072,51.595,15.661,64.704c24.733,13.109,74.744,7.29,74.744,7.29L278.672,228.342z"/>
		</g>
		<path style="fill:#0071BC;" d="M220.335,209.164l-19.689,24.363c0,0-18.952-28.364-23.462-44.006
			c-4.51-15.642-1.296-26.251,7.287-27.487C193.055,160.799,212.635,176.313,220.335,209.164z"/>
		<polygon style="fill:#F9B28A;" points="177.185,437.913 179.215,450.646 184.539,449.474 184.422,434.786 		"/>
		<path style="fill:#4360AA;" d="M198.362,281.379c0,0,5.398,47.333-4.567,83.04l-6.228,77.228h-11.626
			c0,0-14.947-49.409-6.228-74.736c0,0-20.76-64.356-13.702-85.531C163.07,260.204,198.362,281.379,198.362,281.379z"/>
		<path style="fill:#343456;" d="M178.567,446.583c0,0,1.422,2.693,3.135,1.915c1.713-0.779,1.158-3.425,2.837-3.737
			c1.679-0.311,1.679,2.429,3.703,5.885c2.024,3.457,14.48,9.373,14.48,9.373s-13.546,1.557-16.193-1.09
			c-2.647-2.647-4.204-4.36-4.204-4.36v5.138l-3.758-0.311C178.567,459.397,175.899,449.651,178.567,446.583z"/>
		<polygon style="fill:#F9B28A;" points="132.268,434.739 131.528,447.612 136.979,447.606 140.007,433.232 		"/>
		<path style="fill:#4E6FD8;" d="M186.436,286.357c0,0-4.851,47.392-22.223,80.142l-22.602,74.108l-11.357-2.487
			c0,0-4.034-51.463,9.901-74.339c0,0-8.853-78.694,2.571-97.87C154.151,246.737,186.436,286.357,186.436,286.357z"/>
		<path style="opacity:0.26;" d="M148.801,367.916c0,0-5.606-78.992,6.598-97.681c2.285-3.499,5.216-4.908,8.471-4.888
			c-8.109-5.232-16.413-7.374-21.143,0.565c-11.424,19.176-2.571,97.87-2.571,97.87c-13.935,22.876-9.901,74.339-9.901,74.339
			l5.536,1.212C135.634,428.841,135.871,387.298,148.801,367.916z"/>
		<path style="fill:#343456;" d="M131.764,443.504c0,0,0.813,2.935,2.653,2.541c1.84-0.394,1.864-3.099,3.57-3.044
			c1.706,0.055,1.12,2.732,2.358,6.541c1.238,3.81,12.14,12.253,12.14,12.253s-13.565-1.376-15.585-4.528
			c-2.02-3.152-3.174-5.158-3.174-5.158l-1.099,5.019l-3.604-1.108C129.023,456.021,128.502,445.93,131.764,443.504z"/>
		<path style="fill:#0071BC;" d="M209.596,184.761c-7.785-9.654-15.518-12.147-16.678-18.332c0,0-15.985-11.522-29.064-4.048
			c-13.079,7.474,6.034,55.64-4.057,68.293c-21.901,27.463-25.146,48.553-25.146,48.553s5.319,4.655,15.598,8.665l5.667-12.315
			c0,0,0.587,8.232,1.198,14.627c10.789,3.1,25.348,4.875,43.485,1.721c0,0-4.118-72.655,4.29-83.242
			C213.298,198.095,217.382,194.415,209.596,184.761z"/>
		<path style="fill:#343456;" d="M167.812,115.249c0.147-1.546,0.477-3.097,1.048-4.62c3.49-9.312,13.868-14.031,23.18-10.541
			c1.035,0.388,2.004,0.873,2.921,1.421c4.638-6.398,13.122-9.203,20.88-6.295c9.312,3.49,14.031,13.868,10.541,23.18
			c-0.012,0.032-0.028,0.062-0.041,0.094c8.139,4.067,12.058,13.706,8.794,22.415c-3.49,9.312-13.868,14.031-23.18,10.541
			c-9.311-3.49-14.031-13.868-10.541-23.18c0.012-0.033,0.029-0.062,0.041-0.094c-0.404-0.202-0.79-0.428-1.173-0.656
			c-2.145,2.959-5.105,5.149-8.446,6.358c-0.147,1.546-0.477,3.097-1.048,4.62c-3.49,9.312-13.868,14.031-23.18,10.541
			c-9.311-3.49-14.031-13.868-10.541-23.18C158.994,120.712,163.025,116.982,167.812,115.249z"/>
		<path style="opacity:0.26;" d="M226.342,118.488c0.012-0.032,0.029-0.062,0.041-0.094c3.49-9.312-1.23-19.69-10.541-23.18
			c-7.758-2.908-16.242-0.103-20.88,6.295c-0.917-0.548-1.886-1.033-2.921-1.421c-9.312-3.49-19.69,1.229-23.18,10.541
			c-0.571,1.523-0.901,3.074-1.048,4.62c-4.787,1.733-8.818,5.463-10.745,10.604c-1.969,5.253-1.324,10.845,1.283,15.348
			c0.09-2.097,0.498-4.248,1.293-6.367c1.927-5.141,5.623-8.997,9.884-10.927c0.202-1.525,0.564-3.064,1.135-4.587
			c3.49-9.312,12.772-14.442,20.733-11.458c0.885,0.332,1.707,0.762,2.482,1.256c4.353-6.505,11.891-9.664,18.524-7.178
			c7.961,2.984,11.585,12.951,8.095,22.263c-0.012,0.032-0.028,0.062-0.04,0.095c6.909,3.606,9.87,12.886,6.606,21.595
			c-0.828,2.21-1.99,4.175-3.376,5.861c5.096-1.61,9.429-5.457,11.451-10.85C238.4,132.194,234.481,122.554,226.342,118.488z"/>
		<path style="fill:#F9B28A;" d="M197.043,152.746l-6.467,19.806c0,0-12.857-1.016-18.675-6.801l10.308-17.494L197.043,152.746z"/>
		<path id="XMLID_6_" style="fill:#FFC19A;" d="M219.356,134.094c0,0,3.126,27.89-15.433,33.441
			c-10.386,3.107-24.645-18.511-24.645-18.511s-18.973-2.612-11.803-10.446c7.17-7.834,12.862-0.741,12.862-0.741
			s2.864-15.331,12.605-14.763c9.741,0.568,9.087,2.275,15.929,5.309C215.714,131.418,217.882,127.647,219.356,134.094z"/>
		<path style="fill:#333333;" d="M199.765,138.871c-0.329,1.187,0.104,2.342,0.966,2.581c0.862,0.239,1.827-0.53,2.156-1.716
			c0.329-1.187-0.104-2.342-0.966-2.581C201.059,136.916,200.094,137.684,199.765,138.871z"/>
		<path style="fill:#333333;" d="M213.741,142.742c-0.329,1.187,0.104,2.342,0.966,2.581c0.862,0.239,1.827-0.53,2.156-1.716
			c0.329-1.187-0.104-2.342-0.966-2.581C215.035,140.787,214.07,141.555,213.741,142.742z"/>
		<path style="fill:#FC6B76;" d="M211.565,141.197l2.374,9.063l-6.296-1.744c0.025-0.719,0.324-1.303,0.996-1.703l1.375,0.295
			L211.565,141.197z"/>
		<g>
			<path style="fill:#FC6B76;" d="M198.326,143.413c-0.049,0.176,0.054,0.358,0.23,0.407c0.176,0.049,0.358-0.054,0.407-0.23
				c0.049-0.176-0.055-0.358-0.23-0.407C198.557,143.133,198.375,143.236,198.326,143.413z"/>
			<path style="fill:#FC6B76;" d="M197.527,145.714c-0.049,0.176,0.054,0.358,0.23,0.407c0.176,0.049,0.358-0.054,0.407-0.23
				c0.049-0.176-0.054-0.358-0.23-0.407C197.758,145.435,197.576,145.538,197.527,145.714z"/>
			<path style="fill:#FC6B76;" d="M199.714,145.124c-0.042,0.153,0.047,0.311,0.2,0.353c0.153,0.042,0.311-0.047,0.353-0.2
				c0.042-0.153-0.047-0.311-0.2-0.353C199.914,144.882,199.756,144.971,199.714,145.124z"/>
			<path style="fill:#FC6B76;" d="M195.931,143.933c-0.063,0.226,0.07,0.46,0.296,0.522c0.226,0.063,0.46-0.07,0.522-0.296
				c0.063-0.226-0.07-0.46-0.296-0.522C196.227,143.575,195.993,143.708,195.931,143.933z"/>
		</g>
		<g>
			<path style="fill:#FC6B76;" d="M215.826,146.436c-0.008,0.157-0.142,0.278-0.299,0.27c-0.157-0.008-0.278-0.142-0.27-0.299
				c0.008-0.157,0.142-0.278,0.299-0.27C215.713,146.145,215.834,146.279,215.826,146.436z"/>
			<path style="fill:#FC6B76;" d="M215.853,148.538c-0.008,0.157-0.142,0.278-0.299,0.27c-0.157-0.008-0.278-0.142-0.27-0.299
				c0.008-0.157,0.142-0.278,0.299-0.27C215.74,148.247,215.861,148.381,215.853,148.538z"/>
			<path style="fill:#FC6B76;" d="M214.224,147.459c-0.007,0.136-0.123,0.241-0.26,0.234c-0.137-0.007-0.242-0.123-0.234-0.26
				c0.007-0.136,0.123-0.241,0.26-0.234C214.126,147.207,214.231,147.323,214.224,147.459z"/>
			<path style="fill:#FC6B76;" d="M217.644,147.515c-0.01,0.202-0.182,0.357-0.384,0.347c-0.202-0.01-0.357-0.182-0.347-0.384
				c0.01-0.202,0.182-0.357,0.384-0.347C217.499,147.141,217.655,147.313,217.644,147.515z"/>
		</g>
		<path style="fill:#343456;" d="M207.638,133.589c0,0-4.925-11.174-13.983-3.806l0.963,1.437
			C194.618,131.22,199.458,124.782,207.638,133.589z"/>
		<path style="fill:#343456;" d="M213.084,135.63c0,0,7.624-6.47,7.237,4.148l-1.105,0.662
			C219.216,140.439,220.714,132.749,213.084,135.63z"/>
		<path style="fill:#343456;" d="M198.816,149.151l5.665,7.447c0,0-6.227,3.779-8.516,0.16
			C193.676,153.14,198.816,149.151,198.816,149.151z"/>
		<path style="fill:#FC6B76;" d="M201.885,157.786c-1.988,0.686-4.603,1.054-5.92-1.027c-0.593-0.938-0.682-1.899-0.496-2.81
			C197.27,153.96,199.728,154.681,201.885,157.786z"/>
		<path style="opacity:0.26;" d="M174.199,212.307c-4.668-16.629-5.378-31.229-5.378-31.229l-7.734,16.443
			c1.77,13.622,3.418,27.252-1.289,33.154c-21.901,27.463-25.146,48.553-25.146,48.553s2.887,2.519,8.498,5.446
			c1.29-8.425,4.563-19.952,12.767-29.375C170.748,238.264,178.866,228.936,174.199,212.307z"/>
		<rect x="179.874" y="201.938" style="fill:#F7931E;" width="33.872" height="48.443"/>
		<path style="opacity:0.26;" d="M179.874,249.049l33.872-15.351v-9.16c-6.041,1.035-23.513,2.579-33.872,3.445V249.049z"/>
		<path style="fill:#FFC19A;" d="M200.762,222.967c0,0,1.598-4.124,3.722-4.41c2.124-0.286,7.953-1.647,7.953-1.647
			s0.586,1.548-0.889,2.977s-4.389,2.109-4.389,2.109l2.625,1.145c0,0,9.045-4.592,9.704-2.201c0.66,2.392-4.021,8.3-7,9.386
			c-2.979,1.086-7.618,0.626-7.618,0.626l-9.231,0.112l-0.82-5.803L200.762,222.967z"/>
		<path style="fill:#FFC19A;" d="M200.762,222.967l-44.086-4.66c0,0,29.109-34.904,15.287-52.823
			c-13.821-17.919-44.772,27.199-38.32,54.438c6.452,27.239,71.227,11.031,71.227,11.031L200.762,222.967z"/>
		<path style="fill:#0071BC;" d="M162.871,216.91c-14.582,2.122-27.866,2.912-37.547,0c0,0,14.499-63.16,42.18-57.05
			C195.184,165.971,162.87,216.91,162.871,216.91"/>
		<rect x="189.1" y="200.039" style="fill:#E6E6E6;" width="15.771" height="5.171"/>
		<circle style="fill:#808080;" cx="191.8" cy="202.282" r="1.027"/>
		<path style="fill:#808080;" d="M203.663,202.282c0,0.567-0.46,1.027-1.027,1.027c-0.567,0-1.027-0.46-1.027-1.027
			s0.46-1.027,1.027-1.027C203.203,201.256,203.663,201.715,203.663,202.282z"/>
		<path style="fill:#FFFFFF;" d="M174.199,161.393l13.608,10.81c0,0-2.425,11.295-9.539,7.956
			C171.154,176.82,169.538,164.014,174.199,161.393z"/>
		<path style="fill:#FFFFFF;" d="M190.576,172.552c0,0,6.818,7.512,8.4,3.253c1.582-4.258-6.057-9.376-6.057-9.376L190.576,172.552z
			"/>
		<g>
			<path style="fill:#7D93B3;" d="M188.231,189.306c1.277,3.678-0.425,7.61-3.801,8.781c-3.376,1.171-7.147-0.861-8.423-4.539
				c-1.276-3.678,0.425-7.61,3.801-8.781C183.183,183.595,186.955,185.627,188.231,189.306z"/>
			<g>
				<path style="fill:#FFFFFF;" d="M184.623,198.642c-3.729,1.294-7.91-0.959-9.321-5.023c-1.41-4.064,0.477-8.423,4.206-9.717
					c3.729-1.294,7.911,0.959,9.321,5.023C190.239,192.989,188.352,197.348,184.623,198.642z M179.929,185.115
					c-3.115,1.081-4.692,4.723-3.514,8.117c1.178,3.395,4.671,5.277,7.787,4.196c3.115-1.081,4.692-4.722,3.514-8.117
					S183.044,184.034,179.929,185.115z"/>
			</g>
			<g>
				<path style="fill:#FFFFFF;" d="M181.79,188.759c0.352,1.016,0.198,1.992-0.344,2.18c-0.543,0.188-1.268-0.482-1.621-1.498
					c-0.352-1.016-0.198-1.992,0.344-2.18C180.712,187.073,181.438,187.744,181.79,188.759z"/>
				<path style="fill:#FFFFFF;" d="M185.025,188.795c0.352,1.016,0.198,1.992-0.345,2.18c-0.543,0.188-1.268-0.482-1.621-1.498
					c-0.352-1.016-0.198-1.992,0.344-2.18C183.947,187.109,184.672,187.779,185.025,188.795z"/>
				<path style="fill:#FFFFFF;" d="M186.611,193.091c-0.211,0.831-0.754,1.377-1.214,1.22c-0.459-0.157-0.661-0.958-0.45-1.789
					c0.211-0.831,0.754-1.377,1.214-1.219C186.62,191.459,186.822,192.26,186.611,193.091z"/>
				<path style="fill:#FFFFFF;" d="M180.065,191.684c0.352,1.016,0.198,1.992-0.344,2.18c-0.543,0.188-1.268-0.482-1.621-1.498
					c-0.353-1.015-0.198-1.992,0.344-2.18S179.712,190.669,180.065,191.684z"/>
				<path style="fill:#FFFFFF;" d="M182.701,194.556c0,0-0.935,1.306-1.676,0.689c-0.741-0.617-1.094-1.635-0.163-1.988
					c0,0,0.132-1.276,0.874-1.481c0.743-0.205,1.068,0.456,1.068,0.456s0.678-1.094,1.386-0.282
					C184.898,192.763,184.712,194.833,182.701,194.556z"/>
			</g>
		</g>
	</g>
</g>
</svg>
