<?xml version="1.0" encoding="utf-8"?>
<!-- Generator: Adobe Illustrator 27.5.0, SVG Export Plug-In . SVG Version: 6.00 Build 0)  -->
<svg version="1.1" xmlns="http://www.w3.org/2000/svg" xmlns:xlink="http://www.w3.org/1999/xlink" x="0px" y="0px"
	 viewBox="0 0 750 500" style="enable-background:new 0 0 750 500;" xml:space="preserve">
<g id="BACKGROUND">
	<rect style="fill:#EEE5DF;" width="750" height="500"/>
</g>
<g id="OBJECTS">
	<g>
		<path style="fill:#EAC2AC;" d="M673.841,253.57c-13.205-33.523-50.568-52.875-50.568-52.875s-69.126,154.991-62.663,181.745
			c6.463,26.754,24.515,63.489,47.815,88.187c8.577,9.092,14.938,19.652,19.56,29.373H750v-18.199c0,0-43.599-89.885-44.772-126.085
			C704.054,319.516,687.045,287.094,673.841,253.57z"/>
		<path style="fill:#EAC2AC;" d="M135.904,475.381c17.427-16.509,45.762-79.796,47.596-81.172
			c1.835-1.376,15.691-64.204,15.691-65.58c0-1.376-59.159-77.503-72.917-64.662c-13.758,12.841-60.994,44.943-77.045,75.669
			C33.178,370.362,0,449.852,0,449.852V500h113.57C121.259,490.79,129.418,481.526,135.904,475.381z"/>
		<path style="fill:#594345;" d="M129.566,397.538h487.937c8.699,0,15.752-7.052,15.752-15.752V158.081
			c0-8.699-7.052-15.752-15.752-15.752H129.566c-8.699,0-15.752,7.052-15.752,15.752v223.706
			C113.815,390.486,120.867,397.538,129.566,397.538z"/>
		<path style="fill:#C1D3E7;" d="M137.364,386.896h469.591c7.307,0,13.23-5.923,13.23-13.23V167.424
			c0-7.307-5.924-13.23-13.23-13.23H137.364c-7.307,0-13.23,5.923-13.23,13.23v206.242
			C124.133,380.973,130.057,386.896,137.364,386.896z"/>
		<path style="fill:#A7BCD3;" d="M509.885,221.273c-0.371-1.828-2.86-1.506-3.39,0c-4.339,12.324-7.748,24.955-11.841,37.356
			c-1.969,5.965-4.654,11.995-7.241,17.731c-2.769,6.139-6.561,11.897-8.923,18.185c-2.478,6.598,7.561,12.521,12.05,7.015
			c8.876-10.888,13.357-26.083,17.084-39.355C511.375,248.843,512.668,234.984,509.885,221.273z"/>
		<path style="fill:#A7BCD3;" d="M498.516,322.227c-4.2-4.057-11.477-4.824-16.94-6.153c-6.734-1.637-13.48-3.237-20.201-4.929
			c-6.453-1.624-12.826-3.46-19.124-5.612c-6.019-2.057-12.238-5.533-18.449-6.71c-5.757-1.091-12.037,6.474-6.415,11.02
			c5.441,4.4,12.748,6.815,19.283,9.207c6.802,2.489,13.818,4.369,20.846,6.092c7.34,1.8,14.69,3.725,22.223,4.508
			c5.902,0.614,14.608,0.893,18.777-4.191C499.288,324.517,499.474,323.153,498.516,322.227z"/>
		<path style="fill:#A7BCD3;" d="M315.817,236.714c-0.197-1.806-0.52-3.558-0.92-5.163c-0.875-3.514-3.297-6.506-4.076-9.976
			c-0.879-3.912,0.35-8.702,0.356-12.699c0.024-17.405-5.419-34.782-3.531-52.193c0.162-1.493-1.948-1.501-2.417-0.327
			c-6.548,16.408-5.64,33.337-6.005,50.677c-0.17,8.057-1.776,15.123,1.878,22.654c1.536,3.167,2.421,5.977,2.598,9.331
			c-2.493,1.606-4.795,3.559-6.708,5.144c-5.371,4.45-9.83,9.851-13.968,15.435c-4.686,6.323-8.223,13.456-12.336,20.151
			c-1.806,2.94-3.81,5.724-5.501,8.732c-1.444,2.569-3.625,4.908-4.624,7.638c-0.218,0.595,0.247,1.284,0.819,1.442
			c5.093,1.406,11.2-3.577,14.456-6.999c5.193-5.459,9.489-11.681,14.225-17.512c4.376-5.388,8.276-11.046,13.35-15.836
			c1.315-1.241,2.682-2.408,4.11-3.499c1.353,0.495,2.952,0.23,4.091-0.86c1.011-0.968,1.817-2.084,2.449-3.303
			c1.935-1.165,3.68-2.499,4.674-4.771C320.217,241.391,319.142,238.2,315.817,236.714z"/>
		<path style="fill:#A7BCD3;" d="M330.577,301.91c-9.235-4.144-17.898,1.361-26.317,5.158c-8.688,3.918-17.464,7.617-26.322,11.134
			c-7.389,2.934-17.084,7.689-25.215,5.485c-3.389-0.919-4.201-3.32-5.241-6.489c-1.479-4.506-2.799-9.068-4.055-13.641
			c-2.429-8.844-4.515-17.781-6.248-26.787c-1.626-8.449-2.18-17.695-5.315-25.773c-2.994-7.715-9.981-12.102-16.363-16.83
			c-2.981-2.209-6.029-4.656-8.433-7.503c-2.312-2.737-3.502-6.356-6.483-8.429c-0.475-0.33-1.147,0.014-1.291,0.525
			c-1.385,4.917,2.681,11.647,5.117,15.757c3.18,5.365,9.764,9.275,11.907,15.003c2.4,6.414,2.991,13.435,3.974,20.151
			c1.189,8.128,2.835,16.215,4.671,24.219c1.768,7.707,3.799,15.351,6.076,22.923c2.171,7.22,4.237,14.725,10.859,19.143
			c13.223,8.822,30.783,1.641,43.907-3.571c7.333-2.913,14.613-5.965,21.842-9.13c0.021,0.917,0.042,1.836,0.043,2.754
			c0.009,5.719,0.123,11.459-0.181,17.172c-0.62,11.635-3.523,22.78-6.617,33.96c-2.458,8.882,11.296,12.659,13.786,3.801
			c3.309-11.772,6.401-23.588,7.026-35.858c0.291-5.716,0.247-11.472-0.341-17.165c-0.333-3.217-0.452-6.86-1.122-10.281
			c5.386-2.765,10.135-6.403,11.603-12.618C332.099,303.938,331.698,302.413,330.577,301.91z"/>
		<path style="fill:#EAC2AC;" d="M625.229,426.311c0,0-0.917-49.987-6.42-66.497c-5.503-16.509-28.892-35.159-32.102-64.051
			s13.299-34.854,22.013-31.185c8.713,3.669,49.987,51.669,57.325,59.923"/>
		
			<ellipse transform="matrix(0.2298 -0.9732 0.9732 0.2298 -154.6768 344.425)" style="fill:#594345;" cx="140.261" cy="269.934" rx="7.338" ry="7.338"/>
		<path style="fill:#FFFFFF;" d="M611.073,369.77H135.997c-1.611,0-2.917-1.306-2.917-2.917l0,0c0-1.611,1.306-2.917,2.917-2.917
			h475.076c1.611,0,2.917,1.306,2.917,2.917l0,0C613.99,368.464,612.684,369.77,611.073,369.77z"/>
		<path style="fill:#FFFFFF;" d="M601.662,177.898h5.544c3.482,0,6.305-2.823,6.305-6.305v-5.544c0-3.482-2.823-6.305-6.305-6.305
			h-5.544c-3.482,0-6.305,2.823-6.305,6.305v5.544C595.357,175.075,598.18,177.898,601.662,177.898z"/>
		<path style="fill:#FFFFFF;" d="M604.046,373.491c-2.166,0-3.922,1.756-3.922,3.922c0,2.166,1.756,3.922,3.922,3.922
			c2.166,0,3.922-1.756,3.922-3.922C607.967,375.247,606.212,373.491,604.046,373.491z"/>
		<path style="fill:#FFFFFF;" d="M591.817,373.491c-2.166,0-3.922,1.756-3.922,3.922c0,2.166,1.756,3.922,3.922,3.922
			c2.166,0,3.922-1.756,3.922-3.922C595.738,375.247,593.982,373.491,591.817,373.491z"/>
		<path style="fill:#FFFFFF;" d="M579.587,373.491c-2.166,0-3.922,1.756-3.922,3.922c0,2.166,1.756,3.922,3.922,3.922
			c2.166,0,3.922-1.756,3.922-3.922C583.509,375.247,581.753,373.491,579.587,373.491z"/>
		<path style="fill:#F7E8D9;" d="M623.845,285.198c-0.383-1.998-1.49-3.825-2.907-5.279c-0.265-0.423-0.535-0.829-0.802-1.211
			c-1.696-2.429-3.643-4.577-6.032-6.339c-4.723-3.484-13.874-5.018-16.366,1.934c-0.999,2.786-1.05,6.235-0.877,9.163
			c0.194,3.276,0.807,6.578,1.985,9.648c0.251,0.655,0.543,1.303,0.878,1.925c1.355,3.073,3.692,5.742,6.882,6.928
			c1.013,0.376,2.247,0.602,3.322,0.535c1.332-0.083,2.605-0.76,3.724-1.44c1.83-1.112,3.625-2.317,5.256-3.708
			C622.384,294.389,624.734,289.836,623.845,285.198z"/>
		<path style="fill:#E0A489;" d="M111.61,336.979c-0.025,0.011-0.05,0.022-0.075,0.032c-0.686-0.217-1.304,0.179-1.902,0.569
			c-0.076,0.05-0.148,0.105-0.223,0.156c-0.084-0.009-0.169-0.006-0.251,0.022c-0.46,0.159-0.773,0.525-1.06,0.91
			c-0.307,0.229-0.613,0.46-0.92,0.688c-1.632,1.215-3.207,2.508-4.802,3.77c-1.551,1.228-3.102,2.455-4.654,3.682
			c-0.799,0.632-1.58,1.266-2.324,1.963c-0.609,0.57-1.484,1.431-1.401,2.34c0.027,0.297,0.183,0.528,0.473,0.621
			c0.83,0.268,1.76-0.291,2.435-0.733c0.857-0.561,1.656-1.198,2.449-1.845c1.298-1.059,2.595-2.118,3.893-3.178
			c-0.333,0.5-0.664,1-0.98,1.513c-0.691,1.122-1.46,2.237-1.941,3.468c-0.164,0.419,0.392,0.795,0.746,0.573
			c1.119-0.702,2.046-1.734,2.922-2.709c0.936-1.042,1.742-2.164,2.533-3.319c0.757-1.105,1.435-2.239,2.076-3.414
			c0.171-0.313,0.347-0.627,0.517-0.945c0.615-0.525,1.233-1.048,1.81-1.612c0.328-0.321,0.749-0.653,0.965-1.068
			c0.085-0.164,0.127-0.333,0.149-0.515c0.033-0.258,0.006-0.306,0.101-0.438C112.401,337.158,111.922,336.844,111.61,336.979z"/>
		<path style="fill:#E0A489;" d="M638.603,434.379c-0.776-1.408-1.503-2.842-2.291-4.245c-1.413-2.517-2.617-5.143-3.622-7.848
			c-2.09-5.627-3.447-11.5-4.453-17.409c-2.126-12.481-2.69-25.243-5.869-37.535c-0.899-3.475-1.98-6.906-3.328-10.233
			c-1.252-3.092-2.758-6.641-5.096-9.063c-0.492-0.509-1.358,0.015-1.175,0.684c0.409,1.501,1.103,2.901,1.678,4.349
			c0.63,1.586,1.182,3.204,1.724,4.822c1.003,2.99,1.797,6.047,2.439,9.134c1.308,6.286,2.087,12.688,2.753,19.069
			c1.288,12.34,2.395,24.883,6.589,36.654c1.124,3.155,2.457,6.253,4.058,9.196c0.831,1.527,1.8,2.93,2.911,4.265
			c1.046,1.257,2.268,2.513,3.928,2.841c0.498,0.098,0.981-0.217,0.989-0.753C639.857,436.905,639.271,435.59,638.603,434.379z"/>
		<path style="fill:#E0A489;" d="M662.259,338.595c-0.586-2.102-1.273-4.183-1.963-6.253c-1.424-4.271-3.023-8.464-4.798-12.601
			c-3.469-8.088-7.62-15.886-12.267-23.358c-1.246-2.003-2.463-4.075-3.967-5.898c-1.13-1.371-2.967-2.994-4.867-2.225
			c-0.643,0.26-0.908,1.178-0.205,1.571c1.539,0.862,2.435,1.819,3.301,3.365c0.993,1.775,2.033,3.522,3.018,5.302
			c2.044,3.695,3.962,7.46,5.75,11.286c3.488,7.464,6.512,15.164,9.134,22.973c0.744,2.214,1.439,4.443,2.104,6.681
			c0.654,2.199,1.458,4.694,3.094,6.37c0.678,0.695,1.903,0.36,2.154-0.569C663.326,343.112,662.84,340.675,662.259,338.595z"/>
		<path style="fill:#E0A489;" d="M650.993,295.941c-0.104-1.534-0.517-3.056-0.889-4.543c-0.731-2.919-1.74-5.786-2.928-8.549
			c-1.15-2.676-2.559-5.228-4.351-7.531c-0.836-1.075-1.737-2.093-2.732-3.025c-0.528-0.494-1.071-0.985-1.682-1.374
			c-0.903-0.576-1.386-0.713-2.435-0.361c-0.185,0.062-0.31,0.217-0.315,0.414c-0.046,1.631,1.17,2.434,2.223,3.532
			c0.89,0.927,1.695,1.923,2.415,2.987c1.5,2.215,2.709,4.613,3.65,7.116c0.963,2.563,1.649,5.198,2.317,7.848
			c0.334,1.325,0.577,2.694,1.03,3.985c0.481,1.372,1.297,2.591,2.097,3.794c0.267,0.402,0.995,0.398,1.107-0.145
			C650.777,298.745,651.086,297.32,650.993,295.941z"/>
		<path style="fill:#E0A489;" d="M644.824,311.853c-1.618-0.575-3.051,0.649-4.34,1.456c-1.217,0.762-2.396,1.579-3.583,2.388
			c-2.395,1.633-4.714,3.308-6.792,5.335c-0.244,0.237-0.347,0.618-0.25,0.945c-0.108,0.04-0.171,0.125-0.19,0.256
			c-0.062,0.112,0.015,0.271,0.152,0.264c0.154,0.063,0.25,0.032,0.288-0.092c0.243,0.226,0.615,0.365,0.945,0.25
			c2.501-0.872,4.84-2.02,7.15-3.31c1.125-0.628,2.266-1.236,3.378-1.887c0.577-0.337,1.142-0.698,1.712-1.046
			c0.245-0.149,0.489-0.3,0.734-0.448c0.143-0.09,0.288-0.176,0.435-0.26c0.9-0.062,1.666-0.808,1.771-1.693
			C646.354,313,645.771,312.189,644.824,311.853z"/>
		<path style="fill:#735659;" d="M203.919,214.869c-0.014-0.014-0.036,0.008-0.022,0.022c0.075,0.077,0.15,0.155,0.226,0.233
			c0.014,0.014,0.036-0.008,0.022-0.022C204.07,215.025,203.995,214.947,203.919,214.869z"/>
		<g>
			<rect x="571.515" y="223.611" style="fill:#6E5255;" width="1.468" height="3.253"/>
			<circle style="fill:#876569;" cx="228.847" cy="180.175" r="23.259"/>
			<circle style="fill:#E7F2FC;" cx="228.847" cy="180.175" r="19.211"/>
			<path style="fill:#EAC2AC;" d="M476.643,282.769c0,0,9.631,5.503,13.529,6.65c3.898,1.146,19.49-46.318,19.949-50.675
				c0.459-4.357-0.917-12.382-1.147-13.758s34.166,2.064,34.166,2.064s-7.338,10.777-9.401,14.217
				c-2.064,3.439-17.885,72.229-29.35,82.777c-11.465,10.548-38.064-7.108-41.962-9.631c-3.898-2.522,2.981-19.261,2.981-19.261
				L476.643,282.769z"/>
			<path style="fill:#EAC2AC;" d="M277.009,286.645c0,0-9.865,5.072-13.81,6.044c-3.945,0.973-17.421-47.136-17.687-51.508
				c-0.265-4.373,1.464-12.329,1.754-13.694c0.29-1.364-34.223,0.55-34.223,0.55s6.853,11.091,8.763,14.619
				c1.91,3.527,14.671,72.95,25.658,83.995c10.987,11.045,38.341-5.417,42.347-7.764c4.006-2.347-2.126-19.374-2.126-19.374
				L277.009,286.645z"/>
			<path style="fill:#CC5862;" d="M374.834,65.852c-76.127,0-72,79.796-69.248,105.478c2.752,25.682-3.451,41.559,2.293,50.446
				s-4.586,21.554,7.796,32.561c12.382,11.006,116.025,8.713,124.28,0c8.255-8.713,8.713-23.847,4.127-30.726
				c-4.586-6.879-0.459-15.592-4.127-28.433C436.287,182.336,460.439,65.852,374.834,65.852z"/>
			<path style="fill:#FDF9EF;" d="M446.07,246.54c-5.503-3.975-9.172-7.643-20.943-10.701c-11.771-3.057-70.777,3.363-72.306,3.669
				c-1.529,0.306-26.015,0.034-26.015,0.034c-16.635,3.941-24.125,9.597-30.087,15.253c-5.962,5.656-25.223,31.643-26.14,33.019
				c-0.917,1.376,7.949,35.465,20.637,41.732c0,0,22.869-15.286,27.608-16.814c0,0-4.7,50.243-12.28,73.553h134.762
				c-3.223-13.08-11.347-49.459-9.911-78.598c0,0,26.904,11.006,31.185,11.924c0,0,14.064-26.293,16.204-37.299
				C478.783,282.311,451.573,250.515,446.07,246.54z"/>
			<path style="fill:#EAC2AC;" d="M358.783,207.101c0,0,3.669,8.943-8.713,20.178c-12.382,11.236-23.263,12.263-23.263,12.263
				s10.881,30.845,50.321,30.387c39.44-0.459,48-34.089,48-34.089s-19.567-3.975-25.987-9.936c-6.42-5.962-7.338-19.72-8.255-24.076
				C389.968,197.47,358.783,207.101,358.783,207.101z"/>
			<path style="fill:#6E5255;" d="M498.109,210.224l-12.983,15.215c-1.184,1.388-0.198,3.526,1.626,3.526h84.088
				c1.758,0,2.765-2.003,1.716-3.414l-11.874-15.968c-0.409-0.55-1.057-0.871-1.743-0.862l-59.231,0.753
				C499.092,209.482,498.509,209.755,498.109,210.224z"/>
			<path style="fill:#876569;" d="M498.729,204.384l-0.153-26.712c-0.005-0.965,0.775-1.75,1.74-1.75h57.731
				c0.955,0,1.731,0.77,1.74,1.725l0.229,25.977c0.008,0.958-0.76,1.743-1.718,1.755l-57.808,0.735
				C499.525,206.126,498.734,205.35,498.729,204.384z"/>
			<polygon style="fill:#E7F2FC;" points="501.838,203.02 501.682,179.04 556.681,179.04 556.915,202.401 			"/>
			<path style="fill:#E0A489;" d="M392.238,209.941c-0.653-3.434-1.004-6.456-1.353-8.115c-0.038-0.179-0.144-0.327-0.281-0.461
				l-1.225-0.532c-6.364-1.215-30.596,6.266-30.596,6.266s2.695,6.594-4.377,15.57c2.423,0.377,4.895,0.518,7.341,0.471
				C373.142,222.924,385.012,218.451,392.238,209.941z"/>
			<path style="fill:#EAC2AC;" d="M332.796,142.438c0,0-11.541,0.841-12.229,11.159c-0.688,10.318,7.873,15.669,13.376,14.293
				c5.503-1.376,5.274-11.236,5.274-11.924s-1.605-6.191-2.293-7.567C336.236,147.024,332.796,142.438,332.796,142.438z"/>
			<path style="fill:#EAC2AC;" d="M413.778,142.438c0,0,11.541,0.841,12.229,11.159c0.688,10.318-7.873,15.669-13.376,14.293
				c-5.503-1.376-5.274-11.236-5.274-11.924s1.605-6.191,2.293-7.567C410.338,147.024,413.778,142.438,413.778,142.438z"/>
			<path style="fill:#E0A489;" d="M419.529,150.806c0.694-0.465,1.438-0.674,2.204-0.929c0.089-0.03,0.138-0.14,0.088-0.23
				c-0.642-1.137-2.243-0.513-3.075,0.037c-0.949,0.628-1.751,1.524-2.29,2.564c-1.185,2.285-0.989,5.119,0.368,7.274
				c0.317,0.503,0.678,0.98,1.208,1.234c0.599,0.288,1.302,0.205,1.864-0.142c1.169-0.722,1.41-2.493,1.43-3.797
				c0.021-1.39-0.622-2.874-1.989-3.239c-0.794-0.212-1.548,0.109-2.09,0.684c0.141-0.657,0.392-1.289,0.744-1.856
				C418.388,151.768,418.919,151.215,419.529,150.806z"/>
			<path style="fill:#E0A489;" d="M327.986,150.806c-0.694-0.465-1.438-0.674-2.204-0.929c-0.089-0.03-0.138-0.14-0.088-0.23
				c0.642-1.137,2.243-0.513,3.075,0.037c0.949,0.628,1.751,1.524,2.29,2.564c1.185,2.285,0.989,5.119-0.368,7.274
				c-0.317,0.503-0.678,0.98-1.208,1.234c-0.599,0.288-1.302,0.205-1.864-0.142c-1.169-0.722-1.41-2.493-1.43-3.797
				c-0.021-1.39,0.622-2.874,1.989-3.239c0.794-0.212,1.548,0.109,2.09,0.684c-0.141-0.657-0.392-1.289-0.744-1.856
				C329.128,151.768,328.596,151.215,327.986,150.806z"/>
			<path style="fill:#D27379;" d="M321.16,234.273c-0.286-1.216-0.4-2.463-0.794-3.651c-0.445-1.341-0.859-2.669-1.137-4.057
				c-0.525-2.618-0.644-5.304-0.623-7.969c0.049-6.116,1.053-12.183,1.026-18.302c-0.027-6.059-0.959-12.037-2.082-17.976
				c-1.132-5.988-2.267-11.962-3.141-17.994c-0.503-3.473-0.905-6.961-1.214-10.457c-0.307-3.464-0.354-6.963-0.859-10.403
				c-0.063-0.43-0.645-0.259-0.691,0.093c-0.411,3.162-0.265,6.391-0.176,9.574c0.086,3.104,0.249,6.207,0.485,9.303
				c0.474,6.214,1.431,12.357,2.377,18.513c0.933,6.071,1.778,12.225,1.812,18.378c0.034,6.231-1.066,12.387-1.28,18.604
				c-0.106,3.087,0.078,6.183,0.653,9.221c0.286,1.512,0.667,3.035,1.233,4.468c0.584,1.477,1.573,2.563,2.713,3.642
				C320.208,235.968,321.393,235.262,321.16,234.273z"/>
			<path style="fill:#D27379;" d="M333.744,219.361c-0.192-2.079-0.659-4.126-1.026-6.177c-0.736-4.113-1.384-8.255-1.918-12.399
				c-0.536-4.158-1.037-8.332-1.435-12.506c-0.385-4.031-0.319-8.188-1.109-12.159c-0.072-0.36-0.636-0.348-0.716,0
				c-0.934,4.073-0.737,8.479-0.739,12.641c-0.002,4.186,0.177,8.336,0.574,12.503c0.397,4.169,0.954,8.307,1.68,12.431
				c0.361,2.051,0.68,4.136,1.326,6.121c0.671,2.061,1.615,3.999,2.563,5.939c0.242,0.495,1.029,0.247,1.019-0.276
				C333.924,223.437,333.932,221.4,333.744,219.361z"/>
			<path style="fill:#D27379;" d="M344.873,214.694c-0.064,0-0.064,0.1,0,0.1C344.937,214.794,344.937,214.694,344.873,214.694z"/>
			<path style="fill:#D27379;" d="M407.182,216.591c-0.102-1.476-0.418-2.958-0.642-4.421c-0.217-1.416-0.515-2.818-0.793-4.223
				c-0.139-0.704-0.317-1.389-0.507-2.081c-0.194-0.703-0.399-1.179-0.846-1.753c-0.405-0.521-1.112-0.125-1.306,0.345
				c-0.517,1.256-0.283,2.844-0.182,4.183c0.104,1.378,0.196,2.756,0.36,4.128c0.17,1.419,0.259,2.878,0.543,4.279
				c0.255,1.255,0.669,2.725,1.778,3.481c0.224,0.153,0.626,0.108,0.805-0.104C407.262,219.393,407.271,217.876,407.182,216.591z"/>
			<path style="fill:#D27379;" d="M421.942,198.917c-0.372-4.041-0.886-8.071-1.541-12.076c-0.653-3.992-1.34-7.986-2.848-11.753
				c-0.27-0.674-1.346-0.646-1.343,0.182c0.014,3.942,0.593,7.844,0.909,11.771c0.318,3.95,0.493,7.913,0.525,11.876
				c0.031,3.888,0.016,7.789-0.095,11.675c-0.056,1.946-0.202,3.889-0.256,5.835c-0.058,2.105,0.014,4.046,1.337,5.762
				c0.338,0.439,0.878,0.568,1.319,0.17c1.638-1.478,1.972-3.329,2.188-5.447c0.198-1.933,0.206-3.892,0.237-5.834
				C422.438,207.008,422.315,202.971,421.942,198.917z"/>
			<path style="fill:#D27379;" d="M434.551,224.269c-0.199-1.58-0.335-3.165-0.465-4.753c-0.248-3.025-0.381-6.054-0.401-9.089
				c-0.043-6.343,0.423-12.659,0.63-18.994c0.425-13.006,0.238-26-0.24-39.002c-0.131-3.576-0.28-7.152-0.437-10.727
				c-0.081-1.829-0.154-3.659-0.253-5.488c-0.096-1.782-0.061-3.619-0.481-5.357c-0.101-0.42-0.775-0.437-0.866,0
				c-0.64,3.064-0.344,6.472-0.398,9.598c-0.058,3.326-0.123,6.653-0.202,9.979c-0.153,6.487-0.359,12.973-0.668,19.455
				c-0.615,12.878-2.064,25.726-2.359,38.616c-0.08,3.51-0.054,7.029,0.181,10.533c0.128,1.91,0.373,3.813,0.644,5.708
				c0.271,1.89,0.769,3.609,2.034,5.072c0.965,1.116,2.653,0.398,3.069-0.81C434.87,227.461,434.754,225.876,434.551,224.269z"/>
			<path style="fill:#B9ABAD;" d="M426.577,235.972c-0.066-1.237-1.696-1.424-2.11-0.286c-0.683,1.878-1.019,3.853-1.666,5.749
				c-0.638,1.872-1.464,3.67-2.435,5.392c-1.906,3.382-4.365,6.411-7.188,9.07c-5.872,5.53-13.258,9.437-21.045,11.474
				c-15.748,4.119-33.054,0.578-46.703-8.01c-7.992-5.029-13.686-11.882-18.639-19.795c-0.094-0.15-0.194-0.306-0.351-0.389
				c-1.368-0.726-1.924,1.549-1.702,2.388c0.348,1.314,1.824,2.182,2.365,3.413c0.026,0.058,0.046,0.118,0.072,0.177
				c1.48,3.331,4.501,5.768,7.021,8.296c2.826,2.834,5.995,5.354,9.328,7.565c6.505,4.315,13.803,7.443,21.421,9.148
				c16.67,3.73,34.661,0.546,47.983-10.486c3.617-2.996,6.796-6.567,9.23-10.591c1.202-1.987,2.207-4.096,3.006-6.277
				C425.962,240.636,426.702,238.304,426.577,235.972z"/>
			<path style="fill:#EAC2AC;" d="M374.649,111.024c-4.771,12.611-28.095,29.579-42.649,31.514l-0.001-0.002
				c-0.168,0.094-0.336,0.181-0.502,0.246c0,0,0.917,68.216,43.338,68.216c38.293,0,39.363-68.369,39.363-68.369
				C386.834,137.776,374.649,111.024,374.649,111.024z"/>
			<path style="fill:#CC5862;" d="M360.462,143.343c-0.762-1.106-2.111-1.718-3.405-1.968c-1.283-0.248-2.529-0.245-3.813-0.009
				c-1.084,0.199-2.173,0.628-3.097,1.228c-0.505,0.328-1.012,0.704-1.429,1.142c-0.399,0.418-0.743,0.962-0.716,1.568
				c0.032,0.717,0.407,1.387,1.114,1.618c0.527,0.172,1.13,0.125,1.615-0.159c0.28-0.164,0.51-0.416,0.755-0.627
				c0.044-0.038,0.094-0.08,0.144-0.119c0.019-0.01,0.037-0.021,0.051-0.03c0.183-0.117,0.362-0.235,0.552-0.34
				c0.133-0.073,0.37-0.258,0.524-0.261c-0.225,0.092-0.273,0.113-0.144,0.062c0.06-0.024,0.121-0.047,0.182-0.069
				c0.082-0.03,0.164-0.058,0.246-0.084c0.207-0.067,0.417-0.124,0.63-0.173c0.107-0.024,0.214-0.044,0.321-0.066
				c0.043-0.008,0.086-0.016,0.129-0.023c0.146-0.023,0.086-0.017-0.179,0.02c0.116-0.081,0.447-0.043,0.586-0.049
				c0.218-0.01,0.436-0.011,0.654-0.002c0.109,0.004,0.218,0.011,0.327,0.02c0.08,0.007,0.433,0.092,0.134,0.009
				c-0.31-0.086,0.086,0.019,0.13,0.027c0.085,0.016,0.17,0.034,0.255,0.053c0.424,0.097,0.827,0.25,1.24,0.382
				c0.043,0.014,0.054,0.015,0.07,0.018c0.047,0.026,0.094,0.055,0.125,0.07c0.323,0.15,0.636,0.307,0.986,0.381
				c0.715,0.152,1.418-0.048,1.875-0.639C360.732,144.794,360.865,143.928,360.462,143.343z"/>
			<path style="fill:#8B4045;" d="M357.631,152.825c-0.107-0.253-0.214-0.507-0.321-0.76c-0.2-0.371-0.473-0.669-0.82-0.893
				c-0.537-0.415-1.232-0.715-1.929-0.684c-0.565,0.025-1.106,0.17-1.607,0.435c-0.371,0.2-0.669,0.473-0.893,0.82
				c-0.281,0.307-0.471,0.668-0.57,1.082c-0.539,2.263-1.237,10.689,3.421,9.437c0.439-0.02,0.848-0.15,1.226-0.391
				c0.69-0.445,1.354-1.135,1.516-1.971c0.225-1.164,0.377-2.36,0.371-3.548C358.02,155.171,357.867,153.979,357.631,152.825z"/>
			<path style="fill:#CC5862;" d="M385.543,143.343c0.762-1.106,2.111-1.718,3.405-1.968c1.283-0.248,2.529-0.245,3.813-0.009
				c1.084,0.199,2.173,0.628,3.097,1.228c0.505,0.328,1.012,0.704,1.429,1.142c0.399,0.418,0.743,0.962,0.716,1.568
				c-0.032,0.717-0.407,1.387-1.114,1.618c-0.527,0.172-1.13,0.125-1.615-0.159c-0.28-0.164-0.51-0.416-0.755-0.627
				c-0.044-0.038-0.094-0.08-0.144-0.119c-0.019-0.01-0.037-0.021-0.051-0.03c-0.183-0.117-0.362-0.235-0.552-0.34
				c-0.133-0.073-0.37-0.258-0.524-0.261c0.225,0.092,0.273,0.113,0.144,0.062c-0.06-0.024-0.121-0.047-0.182-0.069
				c-0.082-0.03-0.164-0.058-0.246-0.084c-0.207-0.067-0.417-0.124-0.63-0.173c-0.107-0.024-0.214-0.044-0.321-0.066
				c-0.043-0.008-0.086-0.016-0.129-0.023c-0.146-0.023-0.086-0.017,0.179,0.02c-0.116-0.081-0.447-0.043-0.586-0.049
				c-0.218-0.01-0.436-0.011-0.654-0.002c-0.109,0.004-0.218,0.011-0.327,0.02c-0.08,0.007-0.433,0.092-0.134,0.009
				c0.31-0.086-0.086,0.019-0.13,0.027c-0.085,0.016-0.17,0.034-0.255,0.053c-0.424,0.097-0.827,0.25-1.24,0.382
				c-0.043,0.014-0.054,0.015-0.07,0.018c-0.047,0.026-0.094,0.055-0.125,0.07c-0.323,0.15-0.636,0.307-0.986,0.381
				c-0.715,0.152-1.418-0.048-1.875-0.639C385.273,144.794,385.14,143.928,385.543,143.343z"/>
			<path style="fill:#8B4045;" d="M388.374,152.825c0.107-0.253,0.214-0.507,0.321-0.76c0.2-0.371,0.473-0.669,0.82-0.893
				c0.537-0.415,1.231-0.715,1.929-0.684c0.565,0.025,1.107,0.17,1.607,0.435c0.371,0.2,0.669,0.473,0.893,0.82
				c0.281,0.307,0.471,0.668,0.57,1.082c0.539,2.263,1.237,10.689-3.42,9.437c-0.439-0.02-0.848-0.15-1.226-0.391
				c-0.69-0.445-1.354-1.135-1.516-1.971c-0.225-1.164-0.377-2.36-0.371-3.548C387.985,155.171,388.137,153.979,388.374,152.825z"/>
			<g>
				<path style="fill:#E0A489;" d="M375.119,173.846C375.171,173.806,375.178,173.797,375.119,173.846L375.119,173.846z"/>
				<path style="fill:#E0A489;" d="M377.875,173.252c-0.126-0.237-0.358-0.38-0.625-0.378c-0.275-0.037-0.516,0.042-0.785,0.15
					c0.223-0.089-0.13,0.052-0.156,0.063c-0.13,0.055-0.226,0.111-0.345,0.183c-0.188,0.113-0.381,0.205-0.555,0.34
					c-0.114,0.088-0.223,0.179-0.331,0.273c0.021-0.018,0.029-0.025,0.042-0.036c-0.021,0.016-0.046,0.035-0.076,0.056
					c-0.148,0.102-0.301,0.196-0.459,0.282c-0.088,0.047-0.178,0.089-0.268,0.132c-0.011,0.004-0.016,0.006-0.032,0.011
					c-0.364,0.12-0.735,0.206-1.112,0.279c-0.009,0-0.012,0.001-0.023,0.001c-0.102,0.005-0.204,0.011-0.306,0.012
					c-0.102,0-0.203-0.002-0.305-0.008c-0.021-0.001-0.138-0.016-0.197-0.021c-0.069-0.014-0.172-0.034-0.169-0.033
					c-0.1-0.022-0.199-0.048-0.297-0.076c-0.098-0.028-0.194-0.061-0.291-0.093c-0.026-0.009-0.052-0.018-0.071-0.026
					c-0.176-0.079-0.342-0.177-0.516-0.261c-0.095-0.04-0.191-0.081-0.286-0.121c0.08,0.032,0.082,0.031,0.007-0.003
					c-0.09-0.045-0.18-0.089-0.268-0.139c-0.357-0.201-0.686-0.413-1.07-0.566c-0.411-0.164-0.838,0.249-0.841,0.64
					c-0.006,1.095,0.872,2.077,1.742,2.629c0.935,0.593,2.067,0.921,3.173,0.924c1.086,0.003,2.197-0.383,3.088-0.999
					c0.537-0.37,0.985-0.753,1.269-1.349C378.083,174.544,378.263,173.8,377.875,173.252z"/>
			</g>
			<g>
				<path style="fill:#FDF9EF;" d="M371.801,185.732C371.403,185.639,371.568,185.686,371.801,185.732L371.801,185.732z"/>
				<path style="fill:#FDF9EF;" d="M380.912,186.371c-0.68-0.88-1.732-1.329-2.839-1.371c-1.167-0.045-2.23,0.49-3.356,0.698
					c-0.005,0.001-0.01,0.002-0.015,0.003c-0.179,0.016-0.411,0.036-0.448,0.038c-0.469,0.026-0.938,0.065-1.409,0.065
					c-0.249,0-0.498-0.009-0.746-0.026c-0.083-0.006-0.196-0.025-0.299-0.045c0.067,0.016,0.142,0.033,0.244,0.058
					c-0.449-0.108-0.967-0.162-1.408-0.216c-0.002,0-0.003,0-0.005-0.001c-0.476-0.104-0.956-0.18-1.435-0.267
					c-0.315-0.057-0.62-0.132-0.937-0.174c-0.253-0.034-0.497-0.023-0.745,0.013c-0.683-0.091-1.356,0.101-1.788,0.68
					c-0.484,0.648-0.459,1.346-0.145,2.064c0.158,0.361-0.089-0.238,0.006,0.197c0.112,0.513,0.433,0.886,0.749,1.287
					c0.391,0.496,0.785,0.877,1.291,1.264c0.877,0.671,1.808,1.152,2.865,1.492c2.213,0.711,4.485,0.733,6.745,0.247
					c1.64-0.352,3.283-1.106,3.974-2.742C381.669,188.547,381.655,187.331,380.912,186.371z"/>
			</g>
			<path style="fill:#DE9D97;" d="M408.457,168.594c-0.446-1.791-1.702-3.368-3.406-4.121c-1.716-0.759-3.471-0.925-5.317-0.631
				c-3.114,0.496-6.548,3.041-6.512,6.474c0.019,1.85,1.135,3.533,2.794,4.33c0.02,0.01,0.041,0.014,0.061,0.024
				c0.297,0.225,0.618,0.422,0.966,0.578c4.234,1.894,11.024,0.995,11.565-4.687C408.671,169.896,408.615,169.232,408.457,168.594z"
				/>
			<path style="fill:#DE9D97;" d="M354.801,168.594c-0.446-1.791-1.702-3.368-3.406-4.121c-1.716-0.759-3.471-0.925-5.317-0.631
				c-3.114,0.496-6.547,3.041-6.512,6.474c0.019,1.85,1.135,3.533,2.794,4.33c0.02,0.01,0.041,0.014,0.061,0.024
				c0.297,0.225,0.618,0.422,0.966,0.578c4.234,1.894,11.024,0.995,11.565-4.687C355.015,169.896,354.959,169.232,354.801,168.594z"
				/>
			<path style="fill:#D27379;" d="M427.682,141.151c-1.843-0.83-3.904,0.017-5.801,0.289c-2.071,0.298-4.189,0.328-6.273,0.175
				c-4.283-0.313-8.575-1.506-12.443-3.363c-7.599-3.647-13.881-9.463-19.347-15.787c-1.691-1.956-3.313-3.971-4.855-6.046
				c-0.699-0.94-1.36-1.909-2.062-2.846c-0.598-0.798-1.178-1.946-2.166-2.286c-0.181-0.67-1.012-0.97-1.639-0.646
				c-1.877,0.971-2.887,3.174-4.181,4.778c-1.379,1.709-2.856,3.337-4.398,4.899c-3.131,3.173-6.511,6.13-10.029,8.865
				c-6.97,5.418-14.958,9.895-23.766,11.331c-5.034,0.821-10.2,0.565-15.168-0.546c-0.66-0.147-1.143,0.808-0.482,1.143
				c8.565,4.325,18.956,2.815,27.47-0.88c8.575-3.723,16.188-9.759,22.891-16.197c1.901-1.826,3.72-3.739,5.405-5.767
				c1.147-1.381,2.678-2.948,3.448-4.697c0.117,0.195,0.242,0.39,0.362,0.59c0.632,1.052,1.339,2.053,2.054,3.051
				c1.353,1.891,2.767,3.74,4.233,5.544c2.834,3.488,5.873,6.825,9.224,9.824c6.625,5.93,14.617,10.616,23.536,11.85
				c2.569,0.355,5.164,0.457,7.748,0.192c2.138-0.219,5.341-0.398,6.485-2.535C428.087,141.787,428.029,141.307,427.682,141.151z"/>
			<path style="fill:#D27379;" d="M368.06,99.882c-2.452,2.505-4.571,5.328-6.9,7.946c-2.319,2.608-4.868,5.014-7.61,7.173
				c-5.615,4.422-12.061,7.392-18.873,9.461c-1.917,0.582-3.855,1.106-5.824,1.477c-1.053,0.199-2.109,0.389-3.171,0.53
				c-0.566,0.074-1.112,0.196-1.674,0.291c-0.6,0.101-1.252,0.415-1.843,0.454c-0.477,0.031-0.763,0.603-0.401,0.967
				c0.708,0.711,1.078,1.268,2.047,1.675c1.117,0.47,2.234,0.617,3.443,0.571c2.088-0.08,4.163-0.66,6.161-1.234
				c3.688-1.058,7.277-2.56,10.633-4.42c6.611-3.663,12.795-8.435,17.811-14.098c2.749-3.104,5.34-6.575,6.528-10.604
				C368.442,99.885,368.196,99.744,368.06,99.882z"/>
			<path style="fill:#D27379;" d="M360.099,92.068c-0.538,0.55-1.094,0.985-1.514,1.636c-0.469,0.726-0.933,1.451-1.422,2.164
				c-0.983,1.432-2.019,2.817-3.153,4.134c-2.156,2.505-4.573,4.809-7.202,6.813c-5.347,4.077-11.342,7.082-17.847,8.801
				c-1.786,0.472-3.599,0.799-5.411,1.148c-1.606,0.309-3.705,0.857-5.002,1.899c-0.266,0.213-0.131,0.605,0.099,0.767
				c1.2,0.844,3.419,1.147,4.85,1.047c1.766-0.124,3.505-0.461,5.223-0.877c3.447-0.834,6.783-2.095,9.967-3.654
				c6.389-3.127,12.082-7.616,16.572-13.137c1.237-1.521,2.395-3.105,3.445-4.761c0.528-0.833,1.013-1.688,1.47-2.561
				c0.52-0.995,0.692-1.769,0.873-2.869C361.132,92.095,360.528,91.63,360.099,92.068z"/>
			<path style="fill:#D27379;" d="M354.952,86.281c-0.067-0.327-0.432-0.391-0.689-0.28c-1.276,0.55-2.167,1.992-3.091,2.988
				c-1.066,1.148-2.249,2.183-3.457,3.178c-2.456,2.024-5.036,3.899-7.752,5.559c-2.643,1.615-5.405,3.045-8.26,4.247
				c-2.861,1.204-5.612,2.617-8.456,3.849c-0.386,0.167-0.196,0.841,0.217,0.801c1.6-0.157,3.17-0.317,4.753-0.615
				c1.645-0.309,3.185-0.918,4.721-1.569c3.104-1.315,6.103-2.864,8.963-4.65c2.837-1.772,5.542-3.763,8.033-5.997
				c1.218-1.093,2.408-2.231,3.439-3.505C354.256,89.197,355.256,87.75,354.952,86.281z"/>
			<path style="fill:#D27379;" d="M423.812,129.969c-3.632-1.395-7.182-2.949-10.829-4.307c-3.602-1.342-7.071-3.037-10.371-5.007
				c-6.65-3.968-12.678-8.925-17.621-14.898c-1.367-1.652-2.645-3.385-3.88-5.138c-1.208-1.714-2.146-3.932-3.752-5.294
				c-0.247-0.21-0.727-0.094-0.7,0.29c0.133,1.882,1.301,3.621,2.2,5.238c0.971,1.746,2.04,3.417,3.217,5.032
				c2.38,3.265,5.049,6.294,7.942,9.113c5.862,5.712,12.763,10.152,20.308,13.306c4.338,1.814,8.66,2.646,13.357,2.623
				C424.262,130.926,424.307,130.159,423.812,129.969z"/>
			<path style="fill:#D27379;" d="M422.904,115.137c-0.133-0.292-0.523-0.327-0.775-0.203c-0.03,0.002-0.042,0.006-0.064,0.009
				c-0.13-0.092-0.269-0.17-0.427-0.214c-0.197-0.1-0.451-0.192-0.654-0.288c-0.918-0.433-1.823-0.899-2.74-1.338
				c-1.837-0.878-3.647-1.814-5.426-2.804c-3.43-1.909-6.762-3.991-9.956-6.274c-3.209-2.294-6.291-4.795-9.267-7.383
				c-2.875-2.5-5.833-5.151-7.418-8.692c-0.224-0.5-0.976-0.136-0.857,0.361c1.008,4.193,3.836,7.432,6.804,10.418
				c3.271,3.291,6.862,6.219,10.629,8.925c3.783,2.718,7.753,5.158,11.893,7.293c1.77,0.913,4.026,2.455,6.065,2.527
				C421.932,117.517,423.533,116.513,422.904,115.137z"/>
			<path style="fill:#D27379;" d="M419.036,99.959c-1.937-2.064-4.374-3.153-6.861-4.428c-2.554-1.309-5.07-2.703-7.528-4.185
				c-4.873-2.939-9.021-6.586-12.892-10.735c-0.312-0.335-0.813,0.091-0.613,0.473c2.658,5.1,7.248,8.989,11.867,12.278
				c2.398,1.707,4.926,3.199,7.504,4.617c2.603,1.431,5.077,2.787,8.068,3.081C419.168,101.117,419.387,100.333,419.036,99.959z"/>
			<path style="fill:#EEE5DF;" d="M419.886,330.118c-1.765-0.064-3.24-0.542-5.032-0.206c-1.89,0.355-3.57,1.422-5.432,1.91
				c-3.797,0.994-7.887,0.773-11.61-0.408c-7.545-2.392-12.806-9.058-21.405-8.328c-8.066,0.685-13.009,7.963-20.965,8.936
				c-7.408,0.905-13.847-2.653-19.837-6.427c-2.115-1.333-4.646,1.003-4.023,3.137c2.366,8.107,10.385,12.328,18.625,13.423
				c4.324,0.574,8.718,0.259,12.83-1.228c4.622-1.671,8.174-5.659,12.749-7.114c4.633-1.474,8.909,3.036,12.568,5.157
				c4.057,2.352,8.612,3.754,13.305,4.237c4.646,0.477,9.451,0.035,13.838-1.591c4.762-1.764,6.388-4.512,6.866-9.211
				C422.496,331.09,421.064,330.16,419.886,330.118z"/>
			<g>
				<path style="fill:#FFFFFF;" d="M244.602,169.187c-1.595-2.283-3.672-4.201-6.085-5.61c-9.404,7.803-18.546,15.966-27.107,24.659
					c1.241,2.68,3.079,5.025,5.347,6.865c2.16-2.184,4.335-4.353,6.539-6.492c5.903-5.728,11.972-11.28,18.156-16.702
					C242.494,170.992,243.55,170.092,244.602,169.187z"/>
				<path style="fill:#FFFFFF;" d="M209.636,180.175c0,0.511,0.026,1.016,0.065,1.517c2.958-2.609,5.934-5.202,8.935-7.762
					c4.929-4.204,9.908-8.353,14.993-12.366c-1.529-0.392-3.131-0.6-4.782-0.6c-0.492,0-0.979,0.025-1.462,0.061
					c-0.306,0.252-0.616,0.498-0.92,0.751c-5.697,4.73-11.221,9.665-16.498,14.86C209.753,177.784,209.636,178.965,209.636,180.175z
					"/>
			</g>
			<g>
				<path style="fill:#FFFFFF;" d="M521.8,193.691c4.48-2.946,8.902-5.976,13.336-8.99c2.179-1.481,4.357-2.961,6.536-4.442
					c0.605-0.411,1.223-0.815,1.843-1.22h-19.363c-2.668,1.849-5.332,3.704-7.974,5.591c-4.474,3.195-9.086,6.276-13.32,9.787
					c-0.365,0.303-0.711,0.619-1.07,0.926l0.05,7.675l5.257-0.059c0.387-0.205,0.772-0.406,1.167-0.627
					C512.93,199.727,517.335,196.628,521.8,193.691z"/>
				<path style="fill:#FFFFFF;" d="M501.758,190.676c0.392-0.267,0.781-0.538,1.174-0.804c3.132-2.121,6.255-4.257,9.401-6.357
					c2.247-1.501,4.498-2.997,6.76-4.475h-9.25c-0.132,0.102-0.267,0.199-0.398,0.301c-2.632,2.055-5.203,4.168-7.719,6.359
					L501.758,190.676z"/>
			</g>
			<rect x="484.61" y="223.611" style="fill:#6E5255;" width="1.468" height="3.421"/>
			<path style="fill:#876569;" d="M498.109,206.874l-12.983,15.215c-1.184,1.388-0.198,3.526,1.626,3.526h84.088
				c1.758,0,2.765-2.003,1.716-3.414l-11.874-15.968c-0.409-0.55-1.057-0.871-1.743-0.862l-59.231,0.753
				C499.092,206.132,498.509,206.405,498.109,206.874z"/>
			<g>
				<path style="fill:#8FB6C7;" d="M523.276,213.607c4.398-0.002,8.796-0.001,13.193-0.002c-0.345-0.926-0.681-1.856-0.995-2.793
					c-0.279-0.834-0.56-1.679-0.75-2.539l-9.727,0.095c-0.19,0.827-0.457,1.641-0.726,2.444
					C523.958,211.75,523.621,212.68,523.276,213.607z"/>
				<path style="fill:#8BA2BA;" d="M520.98,213.607c0.391-1.033,0.783-2.065,1.191-3.09c0.284-0.713,0.575-1.425,0.878-2.13
					l-9.859,0.096c-0.458,1.007-1.096,1.965-1.668,2.824c-0.514,0.773-1.041,1.538-1.57,2.302
					C513.628,213.605,517.304,213.609,520.98,213.607z"/>
				<path style="fill:#DE9D82;" d="M520.154,215.772c0.13-0.334,0.255-0.67,0.383-1.005c-3.795-0.002-7.59-0.003-11.385-0.005
					c-0.308,0.443-0.617,0.886-0.924,1.329c-1.139,1.646-2.315,3.268-3.475,4.899c-0.46,0.647-0.921,1.294-1.381,1.941h13.934
					c0.28-0.684,0.559-1.368,0.834-2.054C518.822,219.179,519.492,217.477,520.154,215.772z"/>
				<path style="fill:#B36670;" d="M555.512,220.99c-1.161-1.631-2.336-3.253-3.475-4.899c-0.303-0.438-0.608-0.875-0.912-1.312
					c-1.198,0-2.396,0.002-3.594,0.002c-2.773,0-5.546-0.004-8.319-0.004c0.127,0.332,0.251,0.664,0.38,0.995
					c0.663,1.705,1.332,3.408,2.014,5.105c0.276,0.686,0.555,1.37,0.834,2.054h14.453
					C556.432,222.284,555.972,221.637,555.512,220.99z"/>
				<path style="fill:#A6B0BF;" d="M548.742,211.307c-0.634-0.953-1.345-2.026-1.805-3.153l-10.295,0.1
					c0.325,0.748,0.631,1.505,0.932,2.262c0.408,1.025,0.8,2.057,1.19,3.088c3.848,0,7.696-0.002,11.544-0.001
					C549.781,212.842,549.256,212.078,548.742,211.307z"/>
				<path style="fill:#EAC2AC;" d="M501.412,222.1c0.568-0.796,1.135-1.593,1.703-2.389c1.108-1.555,2.204-3.12,3.333-4.66
					c0.071-0.097,0.143-0.193,0.214-0.29c-4.068-0.003-8.137-0.003-12.205-0.006l-6.971,8.177h13.29
					C500.987,222.645,501.22,222.37,501.412,222.1z"/>
				<path style="fill:#91AA93;" d="M507.508,213.609c0.793-1.087,1.583-2.176,2.392-3.251c0.468-0.622,0.946-1.236,1.414-1.858
					l-11.623,0.113l-4.268,5.006C499.452,213.616,503.48,213.613,507.508,213.609z"/>
				<path style="fill:#D6827A;" d="M563.34,214.415c-0.074,0.199-0.247,0.358-0.523,0.358c-3.067,0.002-6.135,0.003-9.202,0.004
					c0.067,0.091,0.134,0.182,0.201,0.273c1.129,1.54,2.224,3.106,3.333,4.66c0.568,0.796,1.135,1.593,1.703,2.389
					c0.192,0.27,0.425,0.545,0.638,0.831h10.237L563.34,214.415z"/>
				<path style="fill:#BE96AA;" d="M548.742,208.227c0.531,0.717,1.085,1.419,1.622,2.132c0.808,1.072,1.596,2.16,2.388,3.244
					c3.326,0.001,6.653-0.003,9.979-0.001l-4.171-5.561l-9.881,0.096C548.7,208.166,548.72,208.198,548.742,208.227z"/>
				<path style="fill:#D06959;" d="M539.831,222.214c-0.776-1.906-1.536-3.819-2.272-5.741c-0.216-0.565-0.431-1.132-0.646-1.698
					c-4.693-0.001-9.385-0.005-14.078-0.007c-0.216,0.569-0.431,1.137-0.649,1.705c-0.736,1.922-1.496,3.834-2.272,5.741
					c-0.097,0.239-0.197,0.478-0.295,0.717h20.508C540.029,222.692,539.929,222.454,539.831,222.214z"/>
				<g>
					<path style="fill:#DC9692;" d="M560.859,216.529c-0.059-0.277-0.402-0.387-0.631-0.257c-0.014,0.008-0.038,0.025-0.059,0.041
						c-0.009,0.006-0.022,0.014-0.027,0.017l0.009-0.004c-0.03,0.023-0.045,0.036,0,0.002c0.007-0.005,0.001-0.001,0.006-0.005
						c0.033-0.014,0.065-0.027,0.098-0.041c-0.106,0.034-0.183,0.078-0.262,0.156c-0.029,0.03-0.057,0.061-0.086,0.091
						c-0.057,0.06-0.114,0.121-0.171,0.182c-0.111,0.118-0.218,0.237-0.32,0.363c-0.118,0.146-0.23,0.295-0.336,0.45
						c-0.1,0.146-0.192,0.299-0.242,0.47c-0.057,0.198,0.141,0.416,0.346,0.346c0.169-0.058,0.313-0.15,0.455-0.257
						c0.149-0.113,0.295-0.227,0.435-0.351c0.122-0.107,0.235-0.22,0.347-0.336c0.143-0.148,0.326-0.303,0.395-0.501
						C560.862,216.778,560.89,216.671,560.859,216.529z"/>
					<path style="fill:#DC9692;" d="M560.787,216.976c0.016-0.038,0.032-0.075,0.048-0.113c-0.003,0.012-0.015,0.02-0.019,0.032
						C560.805,216.922,560.8,216.947,560.787,216.976z"/>
				</g>
				<path style="fill:#DC9692;" d="M564.259,216.524c-0.15-0.194-0.456-0.336-0.703-0.24c-0.477,0.186-0.841,0.576-1.219,0.912
					c-0.345,0.308-0.672,0.635-1.005,0.956c-0.323,0.312-0.631,0.636-0.939,0.962c-0.155,0.163-0.301,0.334-0.443,0.508
					c-0.067,0.082-0.13,0.173-0.197,0.251c-0.016,0.018-0.043,0.036-0.059,0.059c-0.024,0.033-0.034,0.04-0.036,0.042
					c-0.121,0.004-0.24,0.095-0.19,0.234c0.165,0.464,0.662,0.342,0.993,0.142c0.449-0.272,0.879-0.577,1.301-0.89
					c0.439-0.325,0.867-0.67,1.296-1.009c0.209-0.165,0.41-0.343,0.613-0.515c0.236-0.2,0.486-0.395,0.64-0.67
					C564.444,217.03,564.425,216.739,564.259,216.524z"/>
				<g>
					<path style="fill:#DC9692;" d="M564.199,219.302c-0.017-0.089-0.05-0.167-0.122-0.238c0.007,0.017,0.014,0.034,0.021,0.05
						c-0.025-0.064-0.08-0.094-0.148-0.082c0.02-0.002,0.039-0.005,0.059-0.008c-0.097-0.038-0.192-0.046-0.291-0.014h0.209
						c-0.118-0.022-0.222-0.032-0.339,0.016c-0.055,0.023-0.098,0.062-0.144,0.098c-0.11,0.085-0.221,0.174-0.309,0.282
						c-0.078,0.096-0.163,0.185-0.249,0.273c-0.083,0.084-0.155,0.179-0.233,0.268c-0.091,0.104-0.154,0.225-0.234,0.337
						c-0.107,0.149,0.039,0.341,0.199,0.346c0.159,0.005,0.314,0.005,0.467-0.042c0.161-0.05,0.319-0.12,0.458-0.216
						c0.142-0.099,0.297-0.2,0.408-0.335c0.068-0.083,0.144-0.165,0.191-0.262c0.021-0.044,0.041-0.089,0.06-0.135
						C564.253,219.521,564.237,219.411,564.199,219.302z"/>
					<path style="fill:#DC9692;" d="M563.385,219.165c0.019-0.015,0.04-0.025,0.059-0.04c0.014-0.011,0.026-0.025,0.04-0.036
						C563.451,219.114,563.418,219.14,563.385,219.165z"/>
				</g>
				<path style="fill:#BA838B;" d="M545.547,216.555c-0.271-0.072-0.505,0.084-0.721,0.225c-0.131,0.086-0.264,0.17-0.394,0.258
					c-0.151,0.102-0.294,0.225-0.435,0.341c-0.074,0.061-0.143,0.139-0.192,0.222c-0.02,0.034-0.037,0.07-0.054,0.106
					c-0.028,0.061-0.034,0.132-0.048,0.171c-0.033,0.096,0.039,0.242,0.146,0.256c0.034,0.005,0.103,0.034,0.17,0.039
					c0.034,0.002,0.067,0.002,0.1,0.001c0.137-0.006,0.251-0.041,0.376-0.095c0.143-0.063,0.292-0.123,0.429-0.197
					c0.138-0.075,0.272-0.156,0.408-0.234c0.212-0.121,0.482-0.26,0.538-0.521C545.924,216.883,545.8,216.622,545.547,216.555z"/>
				<path style="fill:#BA838B;" d="M550.446,216.557c-0.134-0.229-0.43-0.356-0.687-0.28c-0.635,0.188-1.173,0.619-1.706,1
					c-0.496,0.355-0.993,0.71-1.478,1.081c-0.49,0.375-0.993,0.738-1.464,1.137c-0.355,0.301-0.844,0.622-1.089,1.043
					c-0.004,0.001-0.008,0.002-0.012,0.003c-0.151,0.005-0.226,0.184-0.122,0.295c0.399,0.424,1.006-0.01,1.404-0.224
					c0.589-0.317,1.162-0.656,1.734-1.002c0.555-0.335,1.099-0.686,1.644-1.037c0.574-0.369,1.256-0.737,1.681-1.279
					C550.52,217.078,550.594,216.811,550.446,216.557z"/>
				<g>
					<path style="fill:#BA838B;" d="M550.605,218.951c0.004,0.025,0.006,0.023,0.006-0.006c0.012-0.152-0.14-0.289-0.286-0.286
						c-0.034,0-0.033,0.001,0.004,0.003c-0.042-0.008-0.085-0.014-0.128-0.018c-0.093,0-0.158,0.037-0.24,0.07
						c0.112-0.044-0.02,0.008-0.041,0.016c-0.059,0.023-0.121,0.044-0.177,0.073c-0.069,0.035-0.137,0.078-0.202,0.12
						c-0.038,0.024-0.075,0.051-0.112,0.076c-0.032,0.021-0.241,0.171-0.137,0.1c0.075-0.051-0.042,0.031-0.055,0.04
						c-0.032,0.023-0.064,0.046-0.097,0.069c-0.091,0.063-0.18,0.123-0.267,0.192c-0.022,0.018-0.11,0.102-0.022,0.018
						c-0.028,0.027-0.064,0.048-0.095,0.071c-0.032,0.023-0.065,0.045-0.097,0.068c-0.045,0.033-0.075,0.065-0.103,0.1
						c-0.017,0.014-0.103,0.079-0.048,0.039c-0.049,0.037-0.097,0.073-0.141,0.115c-0.073,0.068-0.134,0.12-0.175,0.21
						c-0.06,0.105-0.041,0.238,0.09,0.277c0.047,0.014,0.107,0.038,0.178,0.041c0.048,0.002,0.096,0.005,0.143,0.008
						c0.047,0.003,0.095-0.006,0.142-0.011c0.01-0.001,0.021-0.002,0.031-0.004c0.039-0.002,0.042-0.005,0.007-0.008
						c-0.043-0.007-0.032-0.006,0.031,0.003c0.037,0.01,0.074,0.01,0.111,0c0.253-0.034,0.501-0.129,0.728-0.241
						c0.218-0.107,0.426-0.232,0.6-0.403c0.094-0.092,0.172-0.192,0.241-0.304c0.039-0.064,0.091-0.137,0.108-0.209
						c0.01-0.043,0.014-0.089,0.013-0.133C550.597,218.928,550.594,218.9,550.605,218.951z"/>
					<path style="fill:#BA838B;" d="M548.18,220.038c0.003-0.008,0.008-0.011,0.011-0.018c0-0.001,0-0.002,0.001-0.002
						C548.188,220.024,548.184,220.031,548.18,220.038z"/>
					<path style="fill:#BA838B;" d="M548.199,219.987c-0.007,0.009-0.002,0.021-0.008,0.031c0.015-0.026,0.03-0.052,0.045-0.078
						C548.225,219.955,548.212,219.971,548.199,219.987z"/>
				</g>
				<path style="fill:#D78571;" d="M527.662,216.449c-0.085-0.201-0.27-0.315-0.486-0.327c-0.042-0.002-0.083,0.008-0.125,0.014
					c-0.104,0.004-0.203,0.023-0.31,0.065c-0.126,0.05-0.251,0.102-0.375,0.155c-0.19,0.08-0.382,0.16-0.563,0.259
					c-0.175,0.096-0.347,0.196-0.518,0.3c-0.109,0.067-0.209,0.145-0.305,0.231c-0.09,0.082-0.195,0.164-0.244,0.279
					c-0.126,0.293,0.024,0.561,0.343,0.598c0.12,0.014,0.237-0.031,0.351-0.063c0.126-0.036,0.242-0.081,0.361-0.135
					c0.052-0.023,0.105-0.046,0.158-0.069c0.012-0.006,0.01-0.005,0.015-0.007c0.006-0.002,0.003-0.001,0.014-0.005
					c0.092-0.037,0.184-0.074,0.276-0.11c0.072-0.028,0.143-0.058,0.214-0.089c0.025-0.011,0.049-0.021,0.074-0.032
					c0.076-0.048,0.183-0.075,0.265-0.107c0.093-0.036,0.187-0.071,0.28-0.105c0.04-0.015,0.081-0.028,0.121-0.043
					c0.07-0.027,0.119-0.059,0.168-0.095l-0.001,0.001c0.001-0.001,0.001-0.001,0.002-0.002c0.018-0.013,0.041-0.028,0.058-0.043
					c0.04-0.028,0.081-0.055,0.117-0.087C527.709,216.888,527.741,216.637,527.662,216.449z"/>
				<path style="fill:#D78571;" d="M531.936,216.545c-0.778,0.299-1.545,0.619-2.305,0.96c-0.744,0.333-1.476,0.687-2.203,1.057
					c-0.363,0.185-0.716,0.386-1.065,0.596c-0.31,0.186-0.615,0.449-0.941,0.596c-0.256,0.116-0.186,0.457,0,0.59
					c0.288,0.206,0.626,0.055,0.93-0.046c0.383-0.127,0.768-0.254,1.147-0.393c0.763-0.278,1.521-0.578,2.278-0.872
					c0.761-0.295,1.526-0.58,2.287-0.875c0.599-0.233,1.875-0.493,1.81-1.346C533.798,215.84,532.448,216.349,531.936,216.545z"/>
				<path style="fill:#D78571;" d="M533.815,218.685c-0.031,0.002-0.061,0.007-0.091,0.012c-0.059-0.01-0.118-0.023-0.177-0.022
					c-0.052,0.005-0.103,0.013-0.154,0.024c0.143,0.022,0.134,0.021-0.027-0.001c-0.14,0.011-0.171,0.017-0.091,0.019
					c-0.064,0.004-0.127,0.011-0.19,0.023c-0.104,0.017-0.194,0.055-0.291,0.098c-0.244,0.111-0.483,0.236-0.715,0.37
					c-0.231,0.135-0.467,0.258-0.687,0.41c-0.115,0.08-0.254,0.181-0.347,0.247c-0.116,0.083-0.22,0.179-0.338,0.258
					c-0.219,0.148-0.161,0.558,0.146,0.537c0.138-0.009,0.266-0.001,0.404-0.015c0.163-0.016,0.324-0.036,0.484-0.067
					c0.29-0.055,0.557-0.162,0.83-0.276c0.297-0.124,0.581-0.274,0.839-0.467c0.102-0.076,0.17-0.147,0.246-0.245
					c-0.01,0.013,0.083-0.12,0.059-0.084c-0.021,0.027-0.011,0.015,0.029-0.038c0.03-0.03,0.05-0.065,0.062-0.106
					c0.004-0.01,0.001-0.007,0.004-0.014c0.005-0.005,0.003,0,0.012-0.011c0.035-0.042,0.057-0.078,0.079-0.127
					c0.033-0.074,0.051-0.154,0.084-0.228C534.044,218.857,533.98,218.676,533.815,218.685z"/>
				<path style="fill:#E5B199;" d="M513.302,216.233c-0.017-0.01-0.036-0.007-0.053-0.014c-0.151-0.067-0.278-0.105-0.442-0.064
					c-0.062,0.016-0.121,0.044-0.18,0.069c-0.151,0.063-0.289,0.136-0.43,0.218c-0.232,0.135-0.459,0.279-0.679,0.433
					c-0.237,0.166-0.467,0.342-0.675,0.544c-0.235,0.228-0.56,0.667-0.196,0.93c0.261,0.188,0.63-0.073,0.85-0.223
					c0.209-0.143,0.417-0.287,0.629-0.426c0.206-0.135,0.418-0.262,0.634-0.381c0.115-0.063,0.23-0.122,0.341-0.192
					c0.199-0.124,0.336-0.278,0.37-0.477C513.499,216.485,513.453,216.32,513.302,216.233z"/>
				<path style="fill:#E5B199;" d="M516.374,216.68c-1.192,0.393-2.347,1.016-3.471,1.573c-0.561,0.278-1.124,0.555-1.675,0.852
					c-0.276,0.148-0.548,0.3-0.812,0.47c-0.111,0.071-0.234,0.14-0.335,0.224c-0.126,0.104-0.216,0.234-0.336,0.345
					c-0.148,0.137-0.041,0.445,0.175,0.423c0.303-0.031,0.566-0.037,0.864-0.121c0.3-0.085,0.593-0.188,0.885-0.297
					c0.585-0.217,1.164-0.456,1.743-0.692c0.594-0.242,1.182-0.504,1.771-0.757c0.577-0.248,1.164-0.48,1.707-0.798
					C517.527,217.527,517.109,216.437,516.374,216.68z"/>
				<path style="fill:#E5B199;" d="M516.199,219.178c-0.05-0.085-0.142-0.152-0.235-0.177c-0.052-0.017-0.104-0.019-0.156-0.007
					c-0.059,0.011-0.069,0.011-0.031,0.001c-0.024,0.001-0.047,0.007-0.071,0.009c-0.249-0.024-0.493,0.108-0.719,0.226
					c-0.208,0.109-0.417,0.212-0.623,0.325c-0.197,0.108-0.403,0.202-0.6,0.311c-0.219,0.121-0.408,0.268-0.584,0.443
					c-0.211,0.211-0.04,0.528,0.228,0.551c0.259,0.023,0.518-0.002,0.768-0.08c0.214-0.066,0.424-0.152,0.632-0.235
					c0.241-0.096,0.472-0.206,0.7-0.328c0.234-0.126,0.488-0.273,0.598-0.511c0.014-0.02,0.031-0.039,0.045-0.059
					c-0.039,0.058,0.06-0.1,0.067-0.117C516.264,219.419,516.261,219.283,516.199,219.178z"/>
				<path style="fill:#F1D7C4;" d="M498.111,216.524c-0.042-0.015-0.086-0.023-0.132-0.023c-0.05-0.003-0.042,0,0.023,0.008
					c-0.063-0.012-0.144-0.023-0.211-0.023c-0.128,0.001-0.236,0.036-0.352,0.082c-0.186,0.074-0.374,0.148-0.549,0.243
					c-0.329,0.18-0.65,0.374-0.923,0.633c-0.163,0.154-0.167,0.418-0.035,0.589c0.145,0.188,0.372,0.21,0.578,0.116
					c0.305-0.139,0.593-0.31,0.898-0.45c0.152-0.069,0.3-0.146,0.452-0.215c0.104-0.047,0.185-0.09,0.272-0.171
					c0.073-0.068,0.151-0.15,0.204-0.233C498.475,216.866,498.334,216.596,498.111,216.524z"/>
				<path style="fill:#F1D7C4;" d="M500.149,217.563c-0.529-0.115-1.021,0.207-1.488,0.42c-0.39,0.177-0.773,0.37-1.157,0.561
					c-0.383,0.191-0.752,0.407-1.125,0.615c-0.331,0.184-0.855,0.457-0.935,0.865c-0.018,0.091,0.012,0.186,0.095,0.235
					c0.363,0.212,0.891,0.011,1.253-0.119c0.401-0.144,0.804-0.28,1.198-0.442c0.42-0.173,0.842-0.342,1.256-0.53
					c0.429-0.195,0.994-0.35,1.234-0.788C500.645,218.081,500.51,217.641,500.149,217.563z"/>
				<path style="fill:#F1D7C4;" d="M500.097,219.603c-0.203-0.046-0.41,0.044-0.59,0.139c-0.145,0.077-0.289,0.152-0.434,0.23
					c-0.142,0.076-0.286,0.149-0.428,0.223c-0.065,0.034-0.132,0.065-0.2,0.094c-0.086,0.036-0.183,0.063-0.237,0.159l0.074-0.074
					c-0.025,0.016-0.051,0.033-0.077,0.048c-0.122,0.076-0.096,0.258,0.039,0.301c0.029,0.009,0.058,0.018,0.087,0.026
					c-0.03-0.018-0.06-0.035-0.091-0.053c0.136,0.128,0.388,0.089,0.563,0.081c0.197-0.009,0.38-0.04,0.569-0.097
					c0.193-0.058,0.37-0.137,0.542-0.244c0.095-0.059,0.178-0.125,0.251-0.21c0.087-0.101,0.133-0.195,0.147-0.315
					c0.002-0.005,0.005-0.01,0.007-0.016C500.39,219.733,500.273,219.577,500.097,219.603z"/>
			</g>
			<g>
				<path style="fill:#DE9D97;" d="M396.219,147.65c-0.11-0.124-0.261-0.223-0.432-0.232c-0.157-0.009-0.356,0.021-0.47,0.141
					c-0.267,0.281-0.535,0.561-0.79,0.854c-0.11,0.127-0.206,0.266-0.306,0.401c-0.07,0.096-0.121,0.203-0.174,0.309
					c-0.019,0.037-0.039,0.074-0.054,0.113c-0.009,0.024-0.006,0.047-0.011,0.07c-0.012,0.027-0.024,0.054-0.037,0.08
					c-0.07,0.143-0.006,0.334,0.101,0.435c0.109,0.104,0.302,0.154,0.441,0.076c0.025-0.014,0.051-0.027,0.077-0.04
					c0.024-0.006,0.047-0.004,0.071-0.015c0.039-0.017,0.074-0.04,0.111-0.06c0.098-0.056,0.197-0.109,0.285-0.179
					c0.131-0.104,0.265-0.21,0.386-0.326c0.244-0.236,0.477-0.48,0.711-0.726c0.122-0.129,0.214-0.247,0.232-0.432
					C396.376,147.964,396.325,147.77,396.219,147.65z"/>
				<path style="fill:#DE9D97;" d="M398.275,149.86c-0.069-0.135-0.188-0.28-0.341-0.321c-0.189-0.051-0.343-0.071-0.529,0.008
					c-0.037,0.016-0.072,0.035-0.108,0.054c-0.083,0.045-0.165,0.09-0.248,0.135c-0.206,0.112-0.418,0.218-0.612,0.351
					c-0.152,0.105-0.308,0.205-0.456,0.315c-0.086,0.064-0.168,0.132-0.241,0.21c-0.055,0.059-0.059,0.062-0.011,0.01
					c-0.019,0.018-0.039,0.036-0.058,0.054c-0.058,0.057-0.094,0.113-0.122,0.175c-0.039,0.055-0.073,0.11-0.104,0.173
					c-0.098,0.198,0.079,0.406,0.267,0.436c-0.088-0.014,0.08,0.017,0.1,0.017c0.03,0.001,0.059-0.004,0.089-0.006
					c0.21,0.027,0.463-0.065,0.645-0.124c0.179-0.057,0.354-0.129,0.53-0.195c0.175-0.065,0.341-0.159,0.508-0.242
					c0.276-0.137,0.59-0.25,0.704-0.567C398.342,150.195,398.348,150.003,398.275,149.86z"/>
				<path style="fill:#DE9D97;" d="M399.067,152.476c0.018,0.021,0.036,0.041,0.055,0.062c-0.188-0.196-0.488-0.308-0.749-0.174
					c-0.014,0.007-0.023,0.018-0.036,0.026c-0.298,0.033-0.594,0.078-0.89,0.122c-0.186,0.027-0.367,0.067-0.55,0.108
					c-0.125,0.028-0.253,0.051-0.37,0.105c-0.095,0.043-0.185,0.096-0.277,0.145c-0.167,0.089-0.273,0.244-0.267,0.437
					c0.005,0.164,0.117,0.374,0.292,0.417c0.122,0.03,0.244,0.061,0.367,0.089c0.095,0.022,0.176,0.023,0.273,0.02
					c0.235-0.005,0.47-0.006,0.705-0.029c0.186-0.018,0.373-0.036,0.56-0.054c0.2-0.019,0.408-0.025,0.605-0.067
					c0.265-0.056,0.472-0.241,0.535-0.508C399.376,152.937,399.296,152.607,399.067,152.476z"/>
			</g>
			<g>
				<path style="fill:#DE9D97;" d="M350.104,147.65c0.11-0.124,0.261-0.223,0.432-0.232c0.157-0.009,0.356,0.021,0.47,0.141
					c0.267,0.281,0.535,0.561,0.789,0.854c0.11,0.127,0.206,0.266,0.306,0.401c0.07,0.096,0.121,0.203,0.174,0.309
					c0.019,0.037,0.039,0.074,0.054,0.113c0.009,0.024,0.006,0.047,0.011,0.07c0.012,0.027,0.024,0.054,0.037,0.08
					c0.07,0.143,0.006,0.334-0.101,0.435c-0.109,0.104-0.302,0.154-0.441,0.076c-0.025-0.014-0.051-0.027-0.077-0.04
					c-0.024-0.006-0.047-0.004-0.071-0.015c-0.038-0.017-0.074-0.04-0.111-0.06c-0.098-0.056-0.197-0.109-0.285-0.179
					c-0.131-0.104-0.265-0.21-0.386-0.326c-0.244-0.236-0.477-0.48-0.711-0.726c-0.123-0.129-0.214-0.247-0.232-0.432
					C349.947,147.964,349.998,147.77,350.104,147.65z"/>
				<path style="fill:#DE9D97;" d="M348.048,149.86c0.069-0.135,0.188-0.28,0.341-0.321c0.189-0.051,0.343-0.071,0.529,0.008
					c0.037,0.016,0.072,0.035,0.108,0.054c0.083,0.045,0.165,0.09,0.248,0.135c0.206,0.112,0.418,0.218,0.612,0.351
					c0.152,0.105,0.308,0.205,0.455,0.315c0.086,0.064,0.168,0.132,0.241,0.21c0.055,0.059,0.059,0.062,0.012,0.01
					c0.019,0.018,0.038,0.036,0.058,0.054c0.058,0.057,0.094,0.113,0.122,0.175c0.039,0.055,0.073,0.11,0.104,0.173
					c0.098,0.198-0.079,0.406-0.267,0.436c0.088-0.014-0.08,0.017-0.1,0.017c-0.03,0.001-0.059-0.004-0.089-0.006
					c-0.21,0.027-0.463-0.065-0.645-0.124c-0.179-0.057-0.354-0.129-0.53-0.195c-0.175-0.065-0.341-0.159-0.508-0.242
					c-0.276-0.137-0.59-0.25-0.704-0.567C347.981,150.195,347.975,150.003,348.048,149.86z"/>
				<path style="fill:#DE9D97;" d="M347.004,153.174c0.064,0.267,0.27,0.452,0.535,0.508c0.197,0.042,0.404,0.048,0.605,0.067
					c0.186,0.018,0.373,0.036,0.559,0.054c0.234,0.022,0.47,0.023,0.705,0.029c0.098,0.002,0.178,0.001,0.273-0.02
					c0.123-0.028,0.245-0.059,0.367-0.089c0.175-0.043,0.286-0.253,0.292-0.417c0.006-0.194-0.099-0.349-0.267-0.437
					c-0.092-0.049-0.182-0.102-0.277-0.145c-0.118-0.053-0.245-0.077-0.37-0.105c-0.183-0.041-0.365-0.081-0.55-0.108
					c-0.296-0.044-0.592-0.089-0.89-0.122c-0.013-0.008-0.022-0.019-0.036-0.026c-0.261-0.133-0.56-0.021-0.748,0.174
					c0.018-0.021,0.036-0.041,0.054-0.062C347.027,152.607,346.947,152.937,347.004,153.174z"/>
			</g>
			<path style="fill:#EAC2AC;" d="M221.806,242.655c-4.271-4.829-16.424-10.79-19.863-14.23s-6.191-9.631-5.962-12.611
				c0.229-2.981,3.975-3.516,4.815-1.146c0,0-2.522-5.962,0.459-7.796c2.981-1.834,4.815,1.146,5.045,2.522
				c0,0-1.605-5.274,1.605-6.191c3.21-0.917,4.357,0,6.191,3.439c1.834,3.439,19.949,11.694,20.637,11.694
				s7.567,13.299,7.567,13.299l-20.408,11.923"/>
			<ellipse style="fill:#876569;" cx="228.847" cy="217.037" rx="27.21" ry="15.592"/>
			<ellipse style="fill:#EAC2AC;" cx="229" cy="215.088" rx="21.019" ry="10.968"/>
			<path style="fill:#F1D7C7;" d="M228.063,208.634c-0.069-0.248-0.194-0.496-0.378-0.68c-0.121-0.121-0.279-0.21-0.416-0.314
				c0.118,0.091,0.236,0.182,0.354,0.274c-0.424-0.342-0.764-0.516-1.317-0.553c-0.082-0.005-0.163-0.008-0.245-0.01
				c-0.084-0.002-0.168-0.008-0.251-0.011c-0.365-0.013-0.637,0.07-0.931,0.189c0.063-0.027,0.127-0.054,0.19-0.08
				c-0.36,0.152-0.721,0.301-1.082,0.452c-0.537,0.225-1.024,0.478-1.53,0.759c-0.469,0.26-0.916,0.502-1.297,0.893
				c-0.131,0.134-0.265,0.266-0.389,0.407c-0.205,0.235-0.369,0.49-0.435,0.797c-0.001,0.006-0.003,0.012-0.004,0.018
				c-0.167,0.322-0.212,0.698-0.059,1.061c0.164,0.388,0.505,0.639,0.893,0.728c0.044,0.025,0.086,0.051,0.136,0.072
				c0.284,0.12,0.582,0.149,0.888,0.143c0.459-0.009,0.902-0.021,1.344-0.164c0.753-0.243,1.498-0.475,2.221-0.8
				c0.281-0.126,0.563-0.253,0.843-0.38c0.517-0.234,0.844-0.66,1.168-1.111C228.114,209.842,228.221,209.206,228.063,208.634z"/>
			<path style="fill:#F1D7C7;" d="M239.434,209.536c-0.399-0.501-0.878-0.743-1.421-0.819c-1.669-0.507-3.43,0.445-4.933,1.161
				c-1.324,0.63-2.603,1.348-3.893,2.044c-1.291,0.696-2.555,1.434-3.77,2.256c-0.65,0.44-1.281,0.877-1.85,1.421
				c-0.279,0.267-0.536,0.541-0.79,0.831c-0.126,0.144-0.253,0.288-0.379,0.431c-0.168,0.186-0.221,0.26-0.183,0.246
				c-0.417,0.37-0.492,1.126-0.047,1.508c0.574,0.492,1.242,0.44,1.959,0.4c0.845-0.047,1.706-0.153,2.519-0.389
				c1.442-0.418,2.861-0.914,4.247-1.491c1.532-0.638,3.09-1.238,4.595-1.936c0.731-0.339,1.49-0.66,2.17-1.091
				c0.452-0.286,0.895-0.597,1.254-0.994c0.202-0.237,0.388-0.486,0.557-0.748c0.288-0.692,0.335-0.799,0.142-0.322
				C240.13,211.33,239.944,210.177,239.434,209.536z"/>
			<path style="fill:#735659;" d="M254.966,215.583c-0.114-0.425-0.829-0.475-0.911,0c-0.154,0.889-0.198,1.794-0.44,2.668
				c-0.239,0.864-0.611,1.678-1.08,2.442c-0.975,1.587-2.352,2.918-3.925,3.908c-3.567,2.245-7.868,3.001-11.952,3.734
				c-4.569,0.82-9.098,1.061-13.725,0.663c-4.22-0.363-8.518-1.123-12.292-3.136c-1.778-0.949-3.407-2.122-4.759-3.624
				c-0.681-0.756-1.29-1.592-1.818-2.462c-0.527-0.871-0.881-1.82-1.301-2.743c-0.063-0.138-0.307-0.073-0.291,0.079
				c0.19,1.76,1.145,3.496,2.212,4.879c1.137,1.474,2.566,2.811,4.112,3.849c3.62,2.43,7.961,3.436,12.229,3.975
				c2.358,0.298,4.75,0.54,7.126,0.611c2.481,0.074,4.964-0.222,7.409-0.617c4.379-0.706,9.026-1.48,12.94-3.68
				c1.925-1.082,3.616-2.564,4.849-4.404C254.478,220.04,255.513,217.629,254.966,215.583z"/>
		</g>
		<path style="fill:#B9ABAD;" d="M444.529,369.77H135.997c-1.611,0-2.917-1.306-2.917-2.917l0,0c0-1.611,1.306-2.917,2.917-2.917
			h308.532c1.611,0,2.917,1.306,2.917,2.917l0,0C447.446,368.464,446.14,369.77,444.529,369.77z"/>
		<path style="fill:#CC5862;" d="M333.395,369.77H135.997c-1.611,0-2.917-1.306-2.917-2.917l0,0c0-1.611,1.306-2.917,2.917-2.917
			h197.398c1.611,0,2.917,1.306,2.917,2.917l0,0C336.312,368.464,335.006,369.77,333.395,369.77z"/>
		
			<ellipse transform="matrix(0.9288 -0.3706 0.3706 0.9288 -112.1388 150.0808)" style="fill:#594345;" cx="334.478" cy="366.853" rx="7.465" ry="7.465"/>
		<path style="fill:#EAC2AC;" d="M100.134,374.948c0,0,39.439-51.363,60.535-61.911c21.096-10.548,29.809,13.299,16.51,39.439
			c-13.299,26.14-22.93,46.777-31.185,68.79c-8.255,22.013-16.051,44.943-28.892,55.949"/>
		<path style="fill:#F7E8D9;" d="M176.978,320.036c-2.029-3.416-5.603-4.699-9.429-4.195c-6.697,0.882-13.273,5.149-17.237,10.544
			c-0.394,0.537-0.756,1.084-1.103,1.639c-2.291,2.819-3.843,6.464-2.476,10.075c1.865,4.93,14.069,15.681,19.677,12.306
			c1.602-0.964,3.036-2.478,4.35-3.797c1.411-1.416,2.701-2.943,3.881-4.557c2.258-3.09,3.783-6.697,4.312-10.493
			C179.497,327.66,179.019,323.473,176.978,320.036z"/>
		<path style="fill:#E0A489;" d="M153.457,401.762c-3.223,2.245-3.657,6.344-4.286,9.936c-0.751,4.288-1.506,8.58-2.34,12.852
			c-1.585,8.112-3.274,16.398-5.942,24.234c-0.628,1.843-1.409,3.434-2.011,5.239c-0.553,1.658-1.158,3.68-2.273,5.044
			c-0.479,0.586-0.053,1.776,0.836,1.436c1.595-0.61,3.236-1.148,4.581-2.237c1.455-1.178,2.556-2.615,3.375-4.292
			c1.668-3.415,2.466-7.144,3.252-10.837c1.893-8.891,3.58-17.96,4.401-27.02c0.212-2.335,0.326-4.684,0.586-7.014
			c0.23-2.068,0.803-4.125,1.427-6.105C155.339,402.127,154.245,401.213,153.457,401.762z"/>
		<path style="fill:#E0A489;" d="M144.034,368.388c-0.785-0.637-1.577-1.25-2.399-1.839c-0.381-0.273-0.758-0.551-1.132-0.833
			c-0.053-0.04-0.586-0.455-0.145-0.109c-0.158-0.125-0.317-0.248-0.475-0.374c-0.319-0.254-0.638-0.507-0.962-0.754
			c-0.059-0.045-0.09-0.069-0.11-0.083c-0.015-0.012-0.022-0.017-0.041-0.033c-0.317-0.25-0.633-0.501-0.946-0.757
			c-0.364-0.298-0.725-0.6-1.081-0.907c-0.153-0.132-0.303-0.266-0.459-0.394c-0.202-0.158-0.405-0.315-0.61-0.469
			c-0.139-0.107-0.162-0.124-0.121-0.092c-0.026-0.02-0.032-0.025-0.073-0.057c-0.106-0.083-0.212-0.167-0.318-0.251
			c-0.158-0.126-0.316-0.252-0.473-0.38c-0.41-0.333-0.809-0.68-1.247-0.976c-1.01-0.682-2.573-0.697-3.132,0.579
			c-0.307,0.701-0.017,1.528,0.573,1.89c0.055,0.086,0.117,0.173,0.144,0.216c0.14,0.221,0.306,0.426,0.465,0.635
			c0.429,0.565,0.864,1.126,1.309,1.678c0.733,0.91,1.605,1.717,2.456,2.515c1.79,1.678,3.779,3.303,5.939,4.473
			c0.829,0.449,2.072,0.428,2.769-0.299c0.47-0.376,0.779-0.916,0.726-1.57C144.744,369.524,144.562,368.816,144.034,368.388z"/>
		<path style="fill:#E0A489;" d="M111.147,360.119c-3.991,3.247-7.471,6.873-10.809,10.78c-1.631,1.909-3.231,3.845-4.799,5.807
			c-1.367,1.711-3.355,4.138-3.151,6.457c0.03,0.341,0.299,0.562,0.643,0.49c2.196-0.459,3.949-2.881,5.246-4.57
			c1.565-2.039,3.171-4.047,4.806-6.029c3.226-3.909,6.452-7.775,9.475-11.846C113.213,360.327,111.873,359.528,111.147,360.119z"/>
		<path style="fill:#EDE9F4;" d="M477.06,187.526c-1.413-1.828-3.862-2.264-5.893-1.176c-1.014,0.543-1.928,1.348-2.83,2.05
			c-0.571,0.443-1.129,0.902-1.683,1.366c-0.868-1.263-1.701-2.552-2.674-3.736c-0.515-0.625-1.421-0.943-2.184-1.046
			c-0.811-0.109-1.717-0.005-2.425,0.451c-0.55,0.355-1.01,0.814-1.364,1.365c-0.465,0.721-0.715,2.111-0.383,2.93
			c0.676,1.671,1.561,3.234,2.366,4.845c0.693,1.386,1.449,2.737,2.2,4.093c1.05,1.897,3.282,2.468,5.21,1.86
			c-0.036,0.015-0.072,0.03-0.108,0.045c0.245-0.091,0.463-0.178,0.668-0.269c0.061-0.028,0.126-0.044,0.186-0.074
			c0.067-0.034,0.135-0.068,0.202-0.102c-0.074,0.031-0.148,0.063-0.222,0.094c0.503-0.24,0.933-0.515,1.435-0.958
			c0.174-0.154,0.344-0.312,0.517-0.466c0.376-0.335,0.755-0.665,1.138-0.991c0.631-0.536,1.278-1.051,1.928-1.564
			c1.199-0.886,2.459-1.721,3.559-2.717C478.391,191.996,478.383,189.238,477.06,187.526z"/>
		<path style="fill:#EDE9F4;" d="M596.987,234.901c-1.969-1.808-4.951-1.906-6.906,0c-0.633,0.618-1.286,1.214-1.955,1.792
			c-0.245-0.457-0.51-0.908-0.793-1.327c-0.734-1.085-1.634-2.165-2.816-2.741c-0.091-0.062-0.18-0.132-0.274-0.185
			c-1.861-1.063-4.461-0.125-4.994,2.032c-0.033,0.133-0.053,0.272-0.078,0.41c-0.209,0.585-0.311,1.196-0.24,1.836
			c0.075,0.675,0.106,1.437,0.26,2.079c0.176,0.735,0.376,1.495,0.657,2.197c0.587,1.465,1.174,2.93,1.762,4.395
			c0.229,0.818,0.643,1.529,1.242,2.131c0.438,0.471,0.956,0.804,1.555,0.999c1.396,0.589,2.971,0.551,4.299-0.243
			c3.009-1.802,5.785-4.006,8.28-6.47C598.807,240.009,598.922,236.678,596.987,234.901z"/>
		<path style="fill:#EDE9F4;" d="M541.832,298.873c-0.528-0.833-1.409-1.62-2.4-1.846c-1.001-0.228-2.223-0.213-3.095,0.405
			c-0.784,0.555-1.364,1.068-1.83,1.932c-0.34,0.631-0.496,1.229-0.682,1.891c-0.119,0.426-0.264,0.843-0.419,1.256
			c-0.076,0.166-0.158,0.329-0.24,0.493c-0.958-0.482-1.919-0.941-2.914-1.36l-0.737-0.099c-0.382-0.014-0.738,0.065-1.068,0.239
			c-0.533,0.225-1.048,0.609-1.326,1.134c-0.585,1.106-0.451,2.446,0.433,3.361c1.503,1.554,3.211,2.888,4.78,4.374
			c0.67,0.635,1.67,1.127,2.618,1.085c1.021-0.046,1.845-0.413,2.618-1.085c0.018-0.016,0.036-0.031,0.054-0.047
			c0.967-0.597,1.846-1.562,2.423-2.413c0.38-0.56,0.693-1.173,0.975-1.788C542.069,304.131,543.342,301.259,541.832,298.873z"/>
		<path style="fill:#EDE9F4;" d="M482.155,345.92c-1.307-1.206-3.357-1.284-4.894-0.494c-0.598,0.307-1.121,0.773-1.636,1.198
			c-0.06,0.049-0.12,0.099-0.18,0.148c-0.081,0.054-0.168,0.095-0.25,0.145c-0.033-0.033-0.067-0.065-0.1-0.101
			c-0.007-0.008-0.013-0.015-0.02-0.022c-0.043-0.066-0.086-0.132-0.125-0.201c-0.028-0.11-0.085-0.237-0.108-0.329
			c-0.015-0.06-0.021-0.122-0.033-0.182c-0.07-0.836-0.035-1.693-0.003-2.528c0.039-1-0.795-1.848-1.744-1.976
			c-1.025-0.138-1.876,0.483-2.207,1.441c-0.413,1.194-0.747,2.443-0.639,3.721c0.122,1.433,0.59,2.855,1.68,3.854
			c1.203,1.102,2.666,1.559,4.277,1.281c1.091-0.188,1.968-0.861,2.815-1.529c0.134-0.101,0.271-0.2,0.411-0.292
			c0.084,0.028,0.167,0.057,0.255,0.081c1.298,0.356,2.822-0.405,3.151-1.756C483.013,347.523,482.825,346.538,482.155,345.92z"/>
		<path style="fill:#EDE9F4;" d="M596.649,345.926c-0.27-1.066-1.166-1.927-2.216-2.216c-1.117-0.308-2.256,0.034-3.087,0.816
			c-0.567,0.534-0.807,1.204-1.059,1.891c-0.178,0.381-0.386,0.746-0.618,1.096c-0.063-0.066-0.126-0.134-0.189-0.199
			c-0.53-0.544-1.086-1.045-1.658-1.545c-0.88-0.77-2.102-0.92-3.057-0.182c-0.917,0.708-1.176,1.983-0.6,3.003
			c0.609,1.078,1.28,2.101,1.98,3.123c0.518,0.756,1.051,1.432,1.854,1.905c0.971,0.572,2.25,0.689,3.31,0.31
			c0.947-0.339,1.65-0.837,2.427-1.459c0.593-0.475,1.01-1.026,1.465-1.643c0.301-0.408,0.563-0.845,0.781-1.302
			C596.545,348.34,596.992,347.278,596.649,345.926z"/>
		<path style="fill:#EDE9F4;" d="M276.232,349.743c-0.722-0.934-1.581-1.21-2.712-1.361c-1.056-0.141-2.291,0.43-3.13,1.017
			c-0.527,0.369-1.055,0.738-1.582,1.108c-0.489,0.343-0.973,0.7-1.468,1.039c-0.077-0.207-0.153-0.416-0.234-0.621
			c-0.784-1.975-2.283-4.092-4.67-3.945c-0.816,0.05-1.513,0.465-1.839,1.237c-0.294,0.697-0.142,1.363,0.253,1.952
			c0.006,0.021,0.011,0.04,0.023,0.076c-0.18-0.215-0.06-0.053,0.032,0.077c0.042,0.116,0.096,0.226,0.147,0.338
			c0.018,0.083,0.062,0.174,0.083,0.249c0.027,0.095,0.045,0.193,0.065,0.289c-0.08,0.267,0.117,0.865,0.14,1.007
			c0.022,0.138,0.047,0.277,0.069,0.415c0.22,1.379,0.355,2.729,1.035,3.985c1.456,2.692,4.756,3.346,7.407,2.075
			c0.965-0.463,1.843-1.12,2.738-1.703c1.126-0.733,2.328-1.393,3.216-2.396l-0.074,0.096c0.537-0.58,0.927-1.142,1.12-1.922
			C277.118,351.668,276.911,350.623,276.232,349.743z"/>
		<path style="fill:#EDE9F4;" d="M191.763,286.966c-2.359,0.553-3.601,2.654-4.948,4.456c-0.319,0.427-0.629,0.859-0.942,1.291
			c-1.186-0.953-2.577-2.124-4.183-1.983c-1.126,0.099-2.277,0.747-2.548,1.94c-0.247,1.087-0.119,1.898,0.331,2.882
			c0.176,0.384,0.356,0.776,0.555,1.149c0.239,0.449,0.538,0.864,0.787,1.307c0.203,0.361,0.339,0.743,0.58,1.081
			c0.882,1.239,1.875,2.258,3.299,2.859c1.852,0.781,3.711,0.555,5.462-0.365c-0.361,0.152-0.722,0.305-1.082,0.457
			c1.259-0.486,2.252-1.02,3.132-2.058c0.549-0.647,1.087-1.303,1.616-1.967c1.575-1.979,3.712-3.993,3.64-6.708
			C197.381,288.306,194.656,286.288,191.763,286.966z"/>
		<path style="fill:#EDE9F4;" d="M166.168,196.433c-0.081-0.105-0.162-0.21-0.243-0.314c-0.675-0.531-0.835-0.653-0.481-0.365
			c0.391,0.318,0.193,0.168-0.592-0.45l-0.873-0.369c-1.081-0.35-2.327,0.021-3.398,0.237c-0.683,0.137-1.35,0.293-2.019,0.485
			c-0.829,0.238-1.66,0.47-2.489,0.709c-0.058-1.206-0.13-2.413-0.194-3.618c-0.077-1.44-1.215-2.831-2.762-2.762
			c-1.587,0.071-2.649,1.215-2.762,2.762c-0.098,1.346-0.196,2.691-0.295,4.036c-0.111,1.522-0.241,3.076,0.528,4.467
			c0.97,1.753,2.91,2.184,4.741,2.031c1.323-0.111,2.642-0.301,3.96-0.458c1.53-0.182,3.231-0.296,4.692-0.838
			c0.593-0.22,1.171-0.459,1.613-0.94c0.095-0.123,0.191-0.247,0.286-0.37c0.231-0.268,0.308-0.372,0.265-0.35
			c0.267-0.362,0.567-1.134,0.581-1.184c0.062-0.22,0.111-1.113,0.121-0.874C166.814,197.573,166.587,196.977,166.168,196.433z"/>
		<path style="fill:#EDE9F4;" d="M283.149,194.439c-0.814-1.548-3.139-2.6-4.837-1.968c-1.88,0.699-2.969,1.888-3.615,3.769
			c-0.188,0.546-0.331,1.11-0.487,1.666c-0.252,0.898-0.542,1.784-0.867,2.657c-0.137,0.259-0.289,0.511-0.458,0.752
			c-0.132,0.134-0.252,0.285-0.386,0.415c-0.011,0.011-0.024,0.021-0.035,0.032c-0.091-0.101-0.185-0.201-0.273-0.304
			c-0.462-0.537-0.869-0.983-1.458-1.4c-1.18-0.836-2.594-1.127-3.991-0.701c-1.047,0.319-1.944,1.341-1.893,2.486
			c0.046,1.028,0.741,2.281,1.854,2.475c0.126,0.245,0.243,0.516,0.298,0.616c0.526,0.967,1.074,1.936,1.93,2.656
			c1.945,1.637,4.784,2.08,7.197,1.286c2.909-0.956,4.951-3.231,6.083-6.009c0.38-0.932,0.669-1.89,0.957-2.854
			C283.753,198.063,284.176,196.391,283.149,194.439z"/>
	</g>
	<g>
		<path style="fill:#FFFFFF;" d="M625.459,44.112H472.287c-7.978,0-14.446,6.468-14.446,14.446v37.834
			c0,0.687,0.065,1.357,0.157,2.018c-0.219,0.521-0.386,1.094-0.538,1.573c-0.354,1.112-0.675,2.237-1.012,3.355
			c-1.307,4.332-2.564,8.685-3.588,13.094c-0.371,1.597,1.435,3.34,2.974,2.286c2.582-1.768,5.248-3.408,7.989-4.917
			c1.115-0.388,2.229-0.778,3.329-1.203c1.475-0.57,2.98-1.151,4.453-1.795c0.228,0.011,0.452,0.034,0.683,0.034h153.172
			c7.978,0,14.446-6.468,14.446-14.446V58.557C639.904,50.579,633.437,44.112,625.459,44.112z"/>
		<path style="fill:#CC5862;" d="M611.93,94.739H485.815c-5.319,0-9.631-4.312-9.631-9.631V69.354c0-5.319,4.312-9.631,9.631-9.631
			H611.93c5.319,0,9.631,4.312,9.631,9.631v15.755C621.56,90.427,617.249,94.739,611.93,94.739z"/>
		<text transform="matrix(1 0 0 1 481.98 84.9327)" style="fill:#FFFFFF; font-family:'Quicksand-Bold'; font-size:23.2912px;">SUBSCRIBE</text>
		<path style="fill:#594345;" d="M614.203,100.836c-1.5-1.301-2.871-2.739-4.112-4.287c-0.172-0.229-0.333-0.466-0.5-0.699
			c0.75-0.741,1.473-1.506,2.115-2.332c0.47-0.606,0.75-1.236,0.534-2.021c-0.196-0.712-0.752-1.24-1.451-1.451
			c-2.144-0.647-4.288-1.293-6.432-1.94c-2.005-0.605-5.065-2.032-6.865-0.25c-1.034,1.024-0.779,2.351-0.664,3.645l0.285,3.218
			c0.14,1.583,0.1,3.33,0.81,4.711c0.067,0.686,0.151,1.37,0.287,2.031c0.301,1.458,1.708,2.484,3.175,1.844
			c1.081-0.471,1.972-1.543,2.825-2.366c0.583,0.618,1.179,1.223,1.793,1.81c0.516,0.493,1.035,0.984,1.581,1.444
			c0.66,0.556,1.359,1.28,2.161,1.673c0.61,0.447,1.261,0.746,2.066,0.746c0.83,0,1.82-0.368,2.391-0.991
			c0.592-0.645,1.031-1.491,0.991-2.392C615.154,102.356,614.869,101.439,614.203,100.836z"/>
	</g>
	<g>
		<path style="fill:#FFFFFF;" d="M110.925,44.112h153.172c7.978,0,14.446,6.468,14.446,14.446v37.834
			c0,0.687-0.065,1.357-0.157,2.018c0.219,0.521,0.386,1.094,0.538,1.573c0.354,1.112,0.675,2.237,1.012,3.355
			c1.306,4.332,2.564,8.685,3.588,13.094c0.371,1.597-1.435,3.34-2.974,2.286c-2.582-1.768-5.248-3.408-7.989-4.917
			c-1.115-0.388-2.229-0.778-3.329-1.203c-1.475-0.57-2.98-1.151-4.453-1.795c-0.228,0.011-0.452,0.034-0.683,0.034H110.925
			c-7.978,0-14.446-6.468-14.446-14.446V58.557C96.479,50.579,102.947,44.112,110.925,44.112z"/>
		<text transform="matrix(1 0 0 1 173.4445 89.9222)" style="fill:#594345; font-family:'Quicksand-Bold'; font-size:35.5519px;">LIKE</text>
		<g>
			<path style="fill:#FFFFFF;" d="M166.046,81.166c1.935-2.519,0.713-6.04-1.791-7.647c-0.793-0.363-0.95-1.464-0.536-2.142
				c0.487-0.8,1.418-1.143,1.94-1.917c0.438-0.651,0.603-1.436,0.405-2.202c-0.512-1.971-2.422-2.302-4.19-2.283
				c-2.516,0.026-5.048,0.302-7.529,0.709c-1.309,0.215-2.617,0.413-3.927,0.62c-0.555,0.088-1.179,0.233-1.768,0.232
				c-0.449,0.238-0.949,0.363-1.515,0.277c-0.299-0.045-0.549-0.141-0.812-0.289c0.01,0.006-0.159-0.144-0.256-0.225
				c0.025,0.033,0.034,0.048-0.001,0.015c-0.106-0.102-0.067-0.072,0.001-0.015c-0.061-0.082-0.243-0.303-0.3-0.408
				c-0.031-0.057-0.039-0.059-0.049-0.066c0.015,0.117-0.032-0.022,0,0c-0.005-0.035-0.008-0.065-0.031-0.167
				c-0.037-0.161-0.065-0.262-0.087-0.418c-0.066-0.482,0.028-0.908,0.215-1.349c0.344-0.814,0.905-1.48,1.192-2.324
				c0.245-0.72,0.332-1.457,0.364-2.215c0.073-1.723-0.166-3.533-0.494-5.225c-0.196-1.012-0.558-2.626-1.851-2.667
				c-3.162-0.1-3.952,4.704-4.566,6.893c-0.966,3.445-2.546,7.089-5.339,9.454c-1.272,1.077-2.837,1.863-4.48,2.186
				c0.27,0.535,0.474,1.097,0.584,1.681l1.694,9.022c0.836,4.359,1.639,8.725,2.458,13.086c0.173,0.921,0.139,1.824-0.052,2.693
				c0.756,0.112,1.49,0.246,2.114,0.292c2.132,0.157,4.27,0.221,6.407,0.191c4.121-0.058,8.238-0.497,12.285-1.275
				c2.02-0.388,4.083-0.795,6.005-1.546c0.857-0.335,1.704-0.73,2.477-1.231c0.285-0.185,0.904-0.478,1.035-0.811
				c0.109-0.278-0.018-0.603-0.041-0.955c-0.112-1.723,1.204-2.445,1.685-3.925c0.479-1.474-0.035-2.933-1.126-3.962
				C165.643,82.757,165.625,81.714,166.046,81.166z"/>
			<path style="fill:#FFFFFF;" d="M146.066,66.312c0.034,0.033,0.025,0.018,0.001-0.015C145.999,66.24,145.96,66.21,146.066,66.312z
				"/>
			<path style="fill:#CC5862;" d="M170.33,88.91c0.376-0.835,0.576-1.768,0.578-2.684c0.004-1.557-0.468-3.069-1.381-4.304
				c1.492-3.088,0.771-7.188-1.817-9.373c1.171-1.14,1.934-2.897,1.992-4.342c0.124-3.082-2.054-5.836-5.031-6.522
				c-1.568-0.361-3.175-0.253-4.768-0.153c-1.699,0.107-3.394,0.307-5.074,0.579c-1.259,0.204-2.475,0.497-3.685,0.842
				c0.579-1.72,0.658-3.546,0.552-5.346c-0.193-3.267-0.507-7.55-3.501-9.559c-3.085-2.069-7.09-0.518-9.187,2.205
				c-2.438,3.167-2.538,7.503-4.252,11.028c-0.841,1.731-2.048,3.202-3.595,4.345c-0.678,0.501-1.464,0.955-2.26,1.24
				c-0.27,0.097-0.549,0.158-0.83,0.212c-2.085-1.467-4.921-2.171-7.751-1.528c-5.07,1.15-8.773,5.237-7.942,9.661l1.694,9.018
				c0.803,4.367,1.639,8.728,2.458,13.09c0.775,4.128,5.853,7.268,10.906,6.122c2.517-0.571,4.695-1.867,6.151-3.567
				c1.389,0.267,2.946,0.235,4.103,0.314c2.488,0.17,4.984,0.212,7.476,0.127c5.013-0.172,10.044-0.769,14.917-1.98
				c2.248-0.559,4.47-1.3,6.422-2.572c0.84-0.548,1.658-1.135,2.185-2.006c0.248-0.409,0.425-0.873,0.474-1.353
				c0.043-0.418-0.205-1.007-0.109-1.387C169.227,90.325,170.011,89.617,170.33,88.91z M167.292,87.211
				c-0.48,1.479-1.796,2.202-1.685,3.925c0.023,0.352,0.15,0.677,0.041,0.955c-0.132,0.334-0.75,0.627-1.035,0.811
				c-0.773,0.501-1.62,0.896-2.477,1.231c-1.922,0.751-3.985,1.158-6.005,1.546c-4.047,0.777-8.164,1.217-12.285,1.275
				c-2.137,0.03-4.276-0.034-6.407-0.191c-0.624-0.046-1.358-0.18-2.114-0.292c0.191-0.868,0.225-1.772,0.052-2.693
				c-0.819-4.361-1.621-8.727-2.458-13.086l-1.694-9.022c-0.11-0.585-0.314-1.146-0.584-1.681c1.643-0.323,3.207-1.108,4.48-2.186
				c2.793-2.365,4.374-6.009,5.339-9.454c0.614-2.189,1.404-6.993,4.566-6.893c1.293,0.041,1.655,1.655,1.851,2.667
				c0.328,1.692,0.567,3.502,0.494,5.225c-0.032,0.758-0.119,1.495-0.364,2.215c-0.287,0.844-0.848,1.511-1.192,2.324
				c-0.187,0.441-0.28,0.867-0.215,1.349c0.022,0.157,0.05,0.258,0.087,0.418c0.023,0.102,0.027,0.133,0.031,0.167
				c0.009,0.007,0.018,0.009,0.049,0.066c0.057,0.105,0.239,0.327,0.3,0.408c0.097,0.082,0.265,0.231,0.256,0.225
				c0.263,0.148,0.513,0.244,0.812,0.289c0.567,0.085,1.067-0.039,1.515-0.277c0.588,0.001,1.213-0.145,1.768-0.232
				c1.31-0.207,2.618-0.405,3.927-0.62c2.481-0.407,5.013-0.683,7.529-0.709c1.768-0.018,3.678,0.313,4.19,2.283
				c0.199,0.766,0.034,1.551-0.405,2.202c-0.522,0.775-1.452,1.118-1.94,1.917c-0.413,0.678-0.256,1.779,0.536,2.142
				c2.504,1.606,3.726,5.127,1.791,7.647c-0.42,0.547-0.403,1.59,0.12,2.082C167.257,84.277,167.77,85.737,167.292,87.211z"/>
			<path style="fill:#FFFFFF;" d="M145.718,65.823C145.686,65.802,145.733,65.94,145.718,65.823L145.718,65.823z"/>
		</g>
	</g>
</g>
</svg>
