<?xml version="1.0" encoding="utf-8"?>
<!-- Generator: Adobe Illustrator 27.5.0, SVG Export Plug-In . SVG Version: 6.00 Build 0)  -->
<svg version="1.1" xmlns="http://www.w3.org/2000/svg" xmlns:xlink="http://www.w3.org/1999/xlink" x="0px" y="0px"
	 viewBox="0 0 500 500" style="enable-background:new 0 0 500 500;" xml:space="preserve">
<g id="Background_Complete">
	<g>
		<g>
			<path style="fill:#E0E0E0;" d="M155.941,41.592h-4.013l-0.649,1.642h-2.49l3.987-9.285h2.49l3.894,9.285h-2.583L155.941,41.592z
				 M155.226,39.738l-1.271-3.311l-1.298,3.311H155.226z"/>
		</g>
		<g>
			<path style="fill:#E0E0E0;" d="M48.029,402.31c-3.313,0-5.971-1.346-8.005-3.707l2.756-4.102
				c1.673,1.739,3.478,2.592,4.822,2.592c1.477,0,2.395-0.918,2.395-2.657v-10.433h-7.874v-4.953h13.91v15.518
				C56.034,399.489,52.95,402.31,48.029,402.31z"/>
		</g>
		<g>
			<path style="fill:#E0E0E0;" d="M158.095,314.377l-4.179-6.224l-2.067,2.297v3.927h-4.203V298.28h4.203v6.751l6.04-6.751h4.869
				l-5.971,6.659l6.338,9.438H158.095z"/>
		</g>
		<g>
			<path style="fill:#E0E0E0;" d="M48.429,306.661l7.579,10.059v-10.059h4.052v16.708h-3.813l-7.58-10.011v10.011h-4.076v-16.708
				H48.429z"/>
		</g>
		<g>
			<path style="fill:#E0E0E0;" d="M399.248,272.131l2.463,5.417l2.464-5.417h2.648v9.284h-2.145l-0.013-5.881l-2.159,4.954h-1.589
				l-2.159-4.954v5.881h-2.159v-9.284H399.248z"/>
		</g>
		<g>
			<path style="fill:#E0E0E0;" d="M324.237,31.978l2.463,5.418l2.464-5.418h2.649v9.285h-2.146l-0.013-5.881l-2.159,4.954h-1.589
				l-2.159-4.954v5.881h-2.159v-9.285H324.237z"/>
		</g>
		<g>
			<path style="fill:#E0E0E0;" d="M473.218,315.138v13.264h7.229v3.797h-11.682v-17.061H473.218z"/>
		</g>
		<g>
			<path style="fill:#E0E0E0;" d="M407.235,33.95v7.218h3.934v2.066h-6.357V33.95H407.235z"/>
		</g>
		<g>
			<path style="fill:#E0E0E0;" d="M234.238,77.253v7.218h3.934v2.066h-6.357v-9.285H234.238z"/>
		</g>
		<g>
			<path style="fill:#E0E0E0;" d="M458.051,165.36c-2.08,0-3.452,0.756-3.452,2.27c0,5.485,17.449,2.364,17.449,14.281
				c0,6.762-5.958,10.214-13.335,10.214c-5.532,0-11.302-2.033-15.273-5.296l3.357-6.762c3.404,2.932,8.559,5.012,12.011,5.012
				c2.554,0,4.161-0.946,4.161-2.695c0-5.627-17.449-2.222-17.449-13.95c0-6.194,5.249-10.119,13.24-10.119
				c4.871,0,9.789,1.513,13.241,3.735l-3.264,6.857C465.239,166.92,460.795,165.36,458.051,165.36z"/>
		</g>
		<g>
			<path style="fill:#E0E0E0;" d="M359.023,328.241c-2.08,0-3.452,0.757-3.452,2.27c0,5.485,17.449,2.364,17.449,14.28
				c0,6.763-5.958,10.215-13.335,10.215c-5.532,0-11.302-2.034-15.273-5.297l3.357-6.762c3.404,2.932,8.559,5.013,12.011,5.013
				c2.554,0,4.161-0.946,4.161-2.695c0-5.628-17.449-2.223-17.449-13.95c0-6.194,5.249-10.119,13.24-10.119
				c4.871,0,9.789,1.513,13.241,3.735l-3.264,6.856C366.211,329.802,361.766,328.241,359.023,328.241z"/>
		</g>
		<g>
			<path style="fill:#E0E0E0;" d="M262.854,125.89c0,8.444-6.182,14.182-15.354,14.182h-11.919v-28.324h12.202
				C256.753,111.748,262.854,117.486,262.854,125.89z M255.298,125.97c0-4.889-3.192-8.202-7.677-8.202h-4.647v16.324h5.01
				C252.268,134.092,255.298,130.819,255.298,125.97z"/>
		</g>
		<g>
			<path style="fill:#E0E0E0;" d="M409.355,224.81l-2.507-4.769h-0.099h-3.245v4.769h-4.498v-17.232h7.743
				c4.572,0,7.178,2.213,7.178,6.047c0,2.605-1.082,4.523-3.072,5.555l3.589,5.629H409.355z M403.504,216.452h3.27
				c1.819,0,2.876-0.934,2.876-2.679c0-1.696-1.057-2.606-2.876-2.606h-3.27V216.452z"/>
		</g>
		<g>
			<path style="fill:#E0E0E0;" d="M426.457,315.934v5.797h-8.063v21.115h-7.025v-21.115h-7.985v-5.797H426.457z"/>
		</g>
		<g>
			<path style="fill:#E0E0E0;" d="M361.717,260.625c0,2.291-1.475,4.142-3.797,4.77c2.793,0.564,4.518,2.729,4.518,5.553
				c0,3.765-3.294,6.117-8.47,6.117h-10.854v-21.992h10.446C358.548,255.073,361.717,257.238,361.717,260.625z M355.819,261.629
				c0-1.317-0.973-2.102-2.572-2.07h-4.393v4.267h4.393C354.846,263.826,355.819,263.01,355.819,261.629z M356.509,270.226
				c0-1.381-1.255-2.259-3.263-2.227h-4.393v4.611h4.393C355.254,272.61,356.509,271.732,356.509,270.226z"/>
		</g>
		<g>
			<path style="fill:#E0E0E0;" d="M457.379,57.383c0,2.29-1.475,4.141-3.796,4.769c2.792,0.564,4.518,2.73,4.518,5.553
				c0,3.765-3.295,6.118-8.471,6.118h-10.855V51.83h10.447C454.21,51.83,457.379,53.995,457.379,57.383z M451.48,58.387
				c0-1.317-0.973-2.102-2.572-2.07h-4.393v4.267h4.393C450.507,60.583,451.48,59.767,451.48,58.387z M452.171,66.983
				c0-1.38-1.255-2.259-3.263-2.227h-4.393v4.612h4.393C450.916,69.368,452.171,68.489,452.171,66.983z"/>
		</g>
		<g>
			<path style="fill:#E0E0E0;" d="M198.913,267.736c-3.388,0-5.96,2.667-5.96,6.181c0,3.545,2.572,6.243,5.96,6.243
				c1.82,0,3.922-1.004,5.459-2.573l3.357,3.608c-2.353,2.479-5.866,4.078-9.129,4.078c-6.62,0-11.545-4.831-11.545-11.294
				c0-6.337,5.051-11.105,11.765-11.105c3.263,0,6.682,1.443,8.878,3.765l-3.325,3.984
				C202.928,268.866,200.827,267.736,198.913,267.736z"/>
		</g>
		<g>
			<path style="fill:#E0E0E0;" d="M444.801,383.05c-3.388,0-5.961,2.667-5.961,6.181c0,3.545,2.573,6.243,5.961,6.243
				c1.819,0,3.922-1.004,5.459-2.573l3.356,3.608c-2.353,2.479-5.866,4.078-9.129,4.078c-6.62,0-11.545-4.831-11.545-11.294
				c0-6.337,5.051-11.105,11.765-11.105c3.263,0,6.682,1.443,8.878,3.765l-3.325,3.984
				C448.817,384.18,446.715,383.05,444.801,383.05z"/>
		</g>
		<g>
			<path style="fill:#E0E0E0;" d="M380.686,88.286h-14.328l-2.317,5.864h-8.89l14.233-33.148h8.89l13.902,33.148h-9.221
				L380.686,88.286z M378.132,81.666l-4.54-11.822l-4.634,11.822H378.132z"/>
		</g>
		<g>
			<path style="fill:#E0E0E0;" d="M305.074,73.059v6.986h-5.708v-6.83l-8.047-15.033h5.708l5.177,9.388l5.053-9.388h5.708
				L305.074,73.059z"/>
		</g>
		<g>
			<path style="fill:#E0E0E0;" d="M189.732,109.011c2.829,0,4.785-1.921,4.785-5.099V89.697h6.392v14.215
				c0,6.461-4.331,10.548-11.212,10.548c-6.915,0-11.351-4.086-11.351-10.548V89.697h6.392v14.215
				C184.737,107.055,186.833,109.011,189.732,109.011z"/>
		</g>
		<g>
			<path style="fill:#E0E0E0;" d="M111.04,324.769l-0.039,5.563H98.047v5.944h11.964v5.563H98.047v9.64h-6.973v-26.709H111.04z"/>
		</g>
		<g>
			<path style="fill:#E0E0E0;" d="M27.64,238.867v8.134h8.049v-8.134h5.205v19.938h-5.205v-7.651H27.64v7.651h-5.205v-19.938H27.64z
				"/>
		</g>
		<g>
			<path style="fill:#E0E0E0;" d="M395.464,132.033v19.831h-5.177v-19.831H395.464z"/>
		</g>
		<g>
			<path style="fill:#E0E0E0;" d="M243.384,40.751c0,6.916-5.465,12.112-12.786,12.112c-7.321,0-12.787-5.196-12.787-12.112
				c0-6.882,5.465-11.977,12.787-11.977C237.919,28.774,243.384,33.902,243.384,40.751z M224.154,40.785
				c0,3.846,3.002,6.815,6.511,6.815c3.542,0,6.376-2.969,6.376-6.815c0-3.846-2.834-6.748-6.376-6.748
				S224.154,36.939,224.154,40.785z"/>
		</g>
		<g>
			<path style="fill:#E0E0E0;" d="M449.262,244.869l5.903,17.105l5.938-17.105h6.342l-9.243,23.65h-6.41l-9.177-23.65H449.262z"/>
		</g>
		<g>
			<path style="fill:#E0E0E0;" d="M331.735,127.011l3.261,9.446l3.279-9.446h3.502l-5.105,13.061h-3.54l-5.067-13.061H331.735z"/>
		</g>
		<g>
			<path style="fill:#E0E0E0;" d="M43.195,75.137c0,4.134-2.581,6.539-7.066,6.539h-3.132v4.861h-4.585V68.974h7.717
				C40.614,68.974,43.195,71.228,43.195,75.137z M38.836,75.287c0-1.729-1.077-2.656-2.931-2.656h-2.907v5.387h2.907
				C37.758,78.018,38.836,77.066,38.836,75.287z"/>
		</g>
		<g>
			<path style="fill:#E0E0E0;" d="M459.082,106.281l3.636,7.995l3.636-7.995h3.909v13.702h-3.166l-0.02-8.679l-3.186,7.311h-2.346
				l-3.186-7.311v8.679h-3.187v-13.702H459.082z"/>
		</g>
		<g>
			<path style="fill:#E0E0E0;" d="M72.336,158.692v6.904H54.84v6.194h15.794v6.857l-15.794,0.047v6.242h17.969v6.904H46.186v-33.148
				H72.336z"/>
		</g>
		<g>
			<path style="fill:#E0E0E0;" d="M115.962,46.898v5.674L98.465,73.095h17.78v6.951H86.88v-5.627l17.496-20.57H87.495v-6.951
				H115.962z"/>
		</g>
	</g>
</g>
<g id="Background_Simple" style="display:none;">
	<path style="display:inline;fill:#F5F5F5;" d="M395.837,124.245l-1.991-3.28c-16.781-27.653-47.12-44.323-79.108-42.3
		c-4.112,0.26-8.206,0.817-12.246,1.681c-29.084,6.226-54.39,28.219-64.88,56.386c-6.169,16.566-7.893,35.639-19.599,48.788
		c-15.236,17.113-41.102,17.65-63.844,16.941c-22.742-0.709-48.625-0.104-63.787,17.076c-9.495,10.76-12.513,26.061-11.748,40.47
		c2.027,38.15,28.61,72.261,62.417,89.216c33.807,16.955,73.611,18.474,110.611,11.015c51.832-10.448,101.124-39.142,130.753-83.461
		C412.045,232.458,419.543,172.079,395.837,124.245z"/>
	
		<ellipse transform="matrix(0.2203 -0.9754 0.9754 0.2203 18.1898 645.9409)" style="display:inline;fill:#F5F5F5;" cx="413.158" cy="311.592" rx="20.929" ry="20.929"/>
</g>
<g id="Table">
	<g>
		<path style="fill:#263238;" d="M477.312,449.404c0,0.144-102.269,0.26-228.395,0.26c-126.17,0-228.417-0.117-228.417-0.26
			c0-0.144,102.247-0.26,228.417-0.26C375.043,449.144,477.312,449.26,477.312,449.404z"/>
	</g>
</g>
<g id="Dictionary">
	<g>
		<g>
			<path style="fill:#FF725E;" d="M185.492,78.555c-0.311-1.03-1.403-1.607-2.429-1.283l-8.764,2.761L54.156,111.875L96.939,278.6
				l14.89,7.835l122.281-33.991c1.992-0.554,3.139-2.637,2.54-4.617L185.492,78.555z"/>
			<g>
				<polygon style="fill:#F5F5F5;" points="171.904,71.951 183.871,78.969 235.116,249.732 111.627,284.986 97.604,277.374 				"/>
				<path style="fill:#FF725E;" d="M218.33,242.63L96.938,278.6L47.861,112.975c-0.645-2.177,0.575-4.469,2.742-5.149
					l120.084-37.698c1.241-0.39,2.559,0.32,2.916,1.571l47.449,165.976C221.656,239.793,220.443,242.004,218.33,242.63z"/>
				<g>
					<path style="fill:#263238;" d="M112.473,271.593c-0.138,0.041-11.434-37.044-25.227-82.821
						c-13.798-45.793-24.868-82.938-24.73-82.979c0.138-0.042,11.431,37.035,25.229,82.829
						C101.538,234.399,112.611,271.551,112.473,271.593z"/>
				</g>
				<g>
					<path style="fill:#263238;" d="M108.192,275.874c-0.138,0.042-11.434-37.043-25.227-82.821
						c-13.798-45.793-24.868-82.938-24.73-82.979c0.138-0.042,11.431,37.035,25.229,82.829
						C97.258,238.68,108.33,275.832,108.192,275.874z"/>
				</g>
				<g>
					<path style="fill:#FFFFFF;" d="M102.879,150.999c0.809,2.564-0.519,4.898-3.305,5.775l-3.619,1.141l-2.71-8.6l3.705-1.168
						C99.674,147.289,102.075,148.447,102.879,150.999z M100.593,151.747c-0.468-1.485-1.754-2.186-3.116-1.756l-1.41,0.444
						l1.562,4.957l1.521-0.48C100.45,154.503,101.057,153.219,100.593,151.747z"/>
					<path style="fill:#FFFFFF;" d="M104.892,145.645l2.711,8.6l-2.245,0.707l-2.711-8.6L104.892,145.645z"/>
					<path style="fill:#FFFFFF;" d="M111.228,145.67c-1.325,0.418-2.002,1.778-1.569,3.152c0.438,1.387,1.775,2.124,3.1,1.706
						c0.712-0.224,1.41-0.875,1.818-1.679l1.757,0.998c-0.614,1.26-1.791,2.318-3.067,2.72c-2.588,0.815-5.109-0.466-5.906-2.994
						c-0.781-2.478,0.606-4.964,3.232-5.792c1.276-0.402,2.791-0.259,3.936,0.377l-0.809,1.968
						C112.937,145.617,111.976,145.434,111.228,145.67z"/>
					<path style="fill:#FFFFFF;" d="M121.681,140.353l0.583,1.852l-2.577,0.813l2.127,6.748l-2.245,0.708l-2.127-6.748l-2.552,0.804
						l-0.584-1.852L121.681,140.353z"/>
					<path style="fill:#FFFFFF;" d="M124.837,139.358l2.711,8.6l-2.245,0.708l-2.711-8.6L124.837,139.358z"/>
					<path style="fill:#FFFFFF;" d="M136.608,140.369c0.792,2.515-0.599,5.03-3.262,5.869c-2.662,0.839-5.245-0.423-6.037-2.938
						c-0.789-2.503,0.615-4.982,3.276-5.821C133.248,136.64,135.823,137.878,136.608,140.369z M129.619,142.584
						c0.441,1.398,1.873,2.135,3.149,1.732c1.288-0.406,1.978-1.811,1.537-3.21c-0.441-1.398-1.804-2.129-3.092-1.723
						C129.925,139.79,129.178,141.186,129.619,142.584z"/>
					<path style="fill:#FFFFFF;" d="M138.35,135.099l5.533,3.947l-1.632-5.177l2.085-0.657l2.711,8.6l-1.963,0.619l-5.525-3.923
						l1.624,5.152l-2.098,0.662l-2.711-8.6L138.35,135.099z"/>
					<path style="fill:#FFFFFF;" d="M153.983,137.953l-3.717,1.171l-0.122,1.711l-2.307,0.727l0.983-9.764l2.306-0.727l6.317,7.463
						l-2.392,0.754L153.983,137.953z M152.779,136.445l-2.145-2.696l-0.235,3.446L152.779,136.445z"/>
					<path style="fill:#FFFFFF;" d="M163.385,136.662l-2.001-1.986l-0.049,0.016l-1.62,0.51l0.75,2.38l-2.245,0.708l-2.71-8.6
						l3.864-1.218c2.282-0.719,3.93-0.026,4.533,1.888c0.41,1.301,0.172,2.427-0.659,3.256l2.677,2.245L163.385,136.662z
						 M159.151,133.411l1.632-0.514c0.908-0.286,1.288-0.919,1.014-1.79c-0.267-0.846-0.937-1.133-1.845-0.847l-1.632,0.514
						L159.151,133.411z"/>
					<path style="fill:#FFFFFF;" d="M170.682,131.34l0.866,2.749l-2.245,0.708l-0.847-2.688l-5.029-4.915l2.245-0.707l3.2,3.05
						l0.824-4.319l2.245-0.708L170.682,131.34z"/>
				</g>
				<g>
					<path style="fill:#FFFFFF;" d="M131.468,177.418l-9.771,3.08l-0.32,4.497l-6.063,1.911l2.582-25.667l6.063-1.911l16.607,19.619
						l-6.289,1.982L131.468,177.418z M128.304,173.452l-5.637-7.087l-0.619,9.059L128.304,173.452z"/>
					<path style="fill:#FFFFFF;" d="M147.02,164.008l1.158,3.676l-8.546,2.693l-1.158-3.676L147.02,164.008z"/>
					<path style="fill:#FFFFFF;" d="M166.07,146.055l1.22,3.87l-7.52,17.757l12.126-3.822l1.494,4.741l-20.027,6.312l-1.209-3.838
						l7.51-17.789l-11.513,3.629l-1.494-4.741L166.07,146.055z"/>
				</g>
				<g>
					<path style="fill:#263238;" d="M224.679,246.967c0.003,0.009-0.093,0.047-0.283,0.114c-0.218,0.073-0.496,0.167-0.845,0.285
						c-0.78,0.25-1.872,0.601-3.262,1.047c-2.875,0.898-6.974,2.179-12.024,3.756c-10.198,3.133-24.228,7.443-39.726,12.204
						c-15.521,4.706-29.568,8.965-39.777,12.06c-5.071,1.511-9.186,2.738-12.072,3.598c-1.401,0.406-2.503,0.725-3.29,0.953
						c-0.355,0.097-0.638,0.175-0.859,0.235c-0.195,0.05-0.295,0.072-0.298,0.063c-0.003-0.009,0.093-0.047,0.282-0.114
						c0.217-0.073,0.496-0.167,0.844-0.285c0.78-0.25,1.872-0.601,3.261-1.046c2.874-0.898,6.973-2.178,12.023-3.756
						c10.198-3.133,24.23-7.444,39.734-12.206c15.516-4.704,29.563-8.963,39.772-12.058c5.071-1.511,9.186-2.738,12.072-3.598
						c1.401-0.406,2.503-0.725,3.29-0.953c0.355-0.097,0.638-0.175,0.859-0.235C224.575,246.979,224.676,246.958,224.679,246.967z"
						/>
				</g>
				<path style="fill:#455A64;" d="M156.614,264.715l-18.411,5.647c4.302,7.763,7.413,16.641,9.112,25.352
					c2.609-4.009,4.06-8.762,4.134-13.544c3.11,3.73,6.506,7.222,10.148,10.435C161.748,282.8,160.261,273.816,156.614,264.715z"/>
			</g>
			<g>
				<path style="fill:#263238;" d="M222.434,244.722c0.003,0.009-0.093,0.047-0.283,0.114c-0.218,0.073-0.496,0.167-0.844,0.285
					c-0.78,0.25-1.872,0.601-3.262,1.047c-2.875,0.898-6.974,2.179-12.024,3.756c-10.198,3.133-24.228,7.443-39.726,12.204
					c-15.521,4.706-29.568,8.965-39.777,12.06c-5.071,1.511-9.186,2.738-12.072,3.598c-1.401,0.406-2.503,0.725-3.29,0.953
					c-0.355,0.097-0.638,0.175-0.859,0.235c-0.194,0.05-0.295,0.072-0.298,0.063c-0.003-0.009,0.093-0.047,0.282-0.114
					c0.217-0.073,0.496-0.167,0.844-0.285c0.78-0.25,1.872-0.601,3.261-1.046c2.874-0.898,6.973-2.178,12.023-3.756
					c10.198-3.133,24.23-7.444,39.734-12.207c15.516-4.704,29.563-8.963,39.772-12.058c5.071-1.511,9.186-2.738,12.072-3.598
					c1.402-0.406,2.503-0.725,3.29-0.953c0.355-0.097,0.638-0.175,0.859-0.235C222.331,244.735,222.432,244.714,222.434,244.722z"/>
			</g>
			<g>
				<path style="fill:#263238;" d="M226.156,240.005c-0.009,0.002-0.057-0.138-0.143-0.416c-0.09-0.301-0.212-0.71-0.369-1.235
					c-0.32-1.114-0.78-2.713-1.369-4.761c-1.182-4.164-2.881-10.146-4.976-17.528c-4.202-14.8-10.048-35.234-16.64-57.762
					c-6.598-22.535-12.693-42.898-17.134-57.628c-2.215-7.347-4.01-13.3-5.26-17.444c-0.608-2.042-1.083-3.637-1.414-4.748
					c-0.151-0.526-0.269-0.937-0.355-1.239c-0.077-0.28-0.113-0.425-0.104-0.427c0.009-0.003,0.061,0.137,0.155,0.411
					c0.099,0.298,0.233,0.704,0.405,1.223c0.353,1.104,0.859,2.689,1.507,4.719c1.287,4.132,3.136,10.069,5.418,17.396
					c4.532,14.703,10.684,35.051,17.282,57.589c6.593,22.531,12.383,42.982,16.495,57.809c2.029,7.401,3.673,13.399,4.817,17.573
					c0.548,2.059,0.977,3.668,1.275,4.788c0.135,0.53,0.241,0.944,0.319,1.249C226.133,239.857,226.165,240.003,226.156,240.005z"/>
			</g>
		</g>
		<g>
			<path style="fill:#FFFFFF;" d="M173.321,108.793c0,0-0.048-0.121-0.124-0.348c-0.08-0.244-0.189-0.577-0.331-1.008
				c-0.29-0.902-0.71-2.207-1.252-3.896c-1.082-3.405-2.654-8.351-4.639-14.599l0.186,0.097
				c-20.007,6.265-53.426,16.728-91.262,28.575l-0.005,0.002l0.171-0.326c2.124,6.816,4.203,13.488,6.2,19.896l-0.321-0.168
				c25.949-8.044,48.75-15.111,65.083-20.174c8.173-2.516,14.727-4.533,19.257-5.927c2.252-0.687,3.999-1.22,5.204-1.587
				c0.584-0.175,1.034-0.309,1.358-0.406C173.153,108.834,173.321,108.793,173.321,108.793s-0.14,0.055-0.434,0.153
				c-0.314,0.102-0.75,0.244-1.317,0.428c-1.188,0.379-2.911,0.928-5.13,1.635c-4.507,1.424-11.026,3.483-19.156,6.051
				c-16.36,5.132-39.197,12.295-65.187,20.447l-0.244,0.077l-0.076-0.245c-1.999-6.408-4.081-13.079-6.208-19.894l-0.078-0.249
				l0.249-0.078l0.005-0.002c37.864-11.758,71.307-22.144,91.329-28.361l0.143-0.044l0.043,0.142
				c1.929,6.304,3.456,11.296,4.507,14.731c0.509,1.684,0.902,2.986,1.174,3.885c0.126,0.425,0.223,0.753,0.294,0.993
				C173.297,108.685,173.327,108.796,173.321,108.793z"/>
		</g>
	</g>
</g>
<g id="Speech_Bubble">
	<g>
		<g>
			<g>
				<g>
					<g>
						<g>
							<g>
								<g>
									<g>
										<g>
											
												<ellipse transform="matrix(0.9261 -0.3773 0.3773 0.9261 -20.3044 160.675)" style="fill:#FFFFFF;" cx="399.933" cy="132.16" rx="41.538" ry="41.538"/>
										</g>
									</g>
								</g>
							</g>
						</g>
						<g>
							<g>
								<g>
									<g>
										<g>
											<g>
												<g>
													<g>
														<g>
															<g>
																<g>
																	<g>
																		<g>
																			<path style="fill:#263238;" d="M365.995,173.234c-0.043,0.003-0.028-0.455-0.264-1.219
																				c-0.23-0.754-0.792-1.828-1.92-2.697c-0.561-0.425-1.261-0.797-2.069-0.965
																				c-0.805-0.161-1.713-0.123-2.576,0.222c-1.712,0.641-3.304,2.411-3.391,4.563
																				c-0.047,2.155,1.433,4.021,3.102,4.767c0.839,0.398,1.743,0.493,2.557,0.382
																				c0.817-0.119,1.538-0.446,2.125-0.835c1.18-0.796,1.808-1.834,2.084-2.572c0.282-0.748,0.296-1.206,0.339-1.2
																				c0.013,0.001,0.012,0.113-0.003,0.328c-0.003,0.108-0.02,0.241-0.056,0.395
																				c-0.028,0.156-0.067,0.334-0.137,0.528c-0.241,0.777-0.853,1.882-2.071,2.748
																				c-0.606,0.423-1.36,0.786-2.231,0.927c-0.868,0.134-1.85,0.043-2.753-0.373
																				c-0.907-0.396-1.746-1.076-2.358-1.961c-0.626-0.875-1.007-1.987-0.985-3.143
																				c0.05-1.155,0.499-2.241,1.178-3.075c0.667-0.845,1.546-1.471,2.475-1.81c0.927-0.36,1.912-0.39,2.77-0.202
																				c0.861,0.195,1.591,0.604,2.17,1.064c1.162,0.94,1.704,2.081,1.896,2.871c0.058,0.198,0.086,0.378,0.104,0.536
																				c0.026,0.156,0.036,0.289,0.032,0.397C366.014,173.122,366.008,173.234,365.995,173.234z"/>
																		</g>
																	</g>
																</g>
															</g>
														</g>
													</g>
												</g>
											</g>
										</g>
									</g>
									<g>
										<g>
											<g>
												<g>
													<g>
														<g>
															<g>
																<g>
																	<g>
																		<g>
																			<g>
																				<path style="fill:#263238;" d="M392.92,173.474c0,0,0.23,0.014,0.677,0.06c0.456,0.049,1.116,0.121,1.979,0.214
																					c0.435,0.049,0.921,0.103,1.456,0.163c0.538,0.035,1.13,0.021,1.768,0.035c0.639,0.008,1.327,0.016,2.063,0.026
																					c0.368,0.018,0.747-0.006,1.137-0.049c0.39-0.034,0.792-0.069,1.205-0.105
																					c3.312-0.181,7.335-1.029,11.731-2.701c4.382-1.694,9.122-4.409,13.445-8.471
																					c0.536-0.512,1.078-1.029,1.626-1.552c0.516-0.555,1.003-1.149,1.514-1.731
																					c0.253-0.293,0.508-0.588,0.764-0.885c0.259-0.294,0.519-0.59,0.736-0.923c0.457-0.647,0.919-1.3,1.387-1.96
																					c0.231-0.331,0.473-0.658,0.699-0.997c0.202-0.355,0.405-0.711,0.609-1.07c0.408-0.716,0.82-1.439,1.236-2.169
																					c0.393-0.741,0.7-1.535,1.06-2.311c0.174-0.391,0.349-0.783,0.524-1.178c0.085-0.198,0.182-0.392,0.258-0.595
																					l0.204-0.619c0.53-1.658,1.172-3.315,1.484-5.093c0.181-0.881,0.419-1.759,0.558-2.66
																					c0.107-0.908,0.214-1.822,0.322-2.743c0.046-0.461,0.127-0.921,0.144-1.387
																					c0.007-0.467,0.015-0.936,0.022-1.406c0.004-0.94,0.055-1.888,0.021-2.84c-0.185-1.897-0.234-3.838-0.677-5.75
																					c-0.089-0.481-0.178-0.963-0.268-1.447c-0.047-0.241-0.085-0.486-0.14-0.726l-0.206-0.712
																					c-0.275-0.951-0.552-1.908-0.83-2.871c-0.323-0.947-0.729-1.872-1.093-2.817
																					c-0.198-0.466-0.351-0.953-0.586-1.405l-0.7-1.363c-0.863-1.864-2.048-3.567-3.168-5.331
																					c-0.645-0.822-1.293-1.648-1.944-2.478l-0.489-0.623c-0.175-0.197-0.363-0.385-0.544-0.578l-1.098-1.154
																					l-1.103-1.159l-1.211-1.056l-1.22-1.056l-0.612-0.53c-0.214-0.164-0.439-0.315-0.658-0.473
																					c-0.883-0.626-1.77-1.255-2.659-1.886c-0.947-0.542-1.898-1.085-2.852-1.631
																					c-3.894-2.039-8.15-3.503-12.595-4.318c-4.466-0.698-8.968-0.722-13.319-0.082
																					c-1.081,0.2-2.158,0.399-3.231,0.598c-1.048,0.302-2.093,0.603-3.133,0.903l-0.778,0.228l-0.753,0.299
																					l-1.5,0.595l-1.492,0.598l-1.424,0.73l-1.418,0.727l-0.705,0.365l-0.667,0.427
																					c-0.889,0.568-1.773,1.135-2.654,1.698c-1.64,1.295-3.322,2.512-4.751,3.988l-1.111,1.056
																					c-0.372,0.349-0.677,0.759-1.018,1.133c-0.655,0.773-1.344,1.511-1.961,2.299
																					c-0.581,0.817-1.157,1.629-1.731,2.437l-0.43,0.604c-0.132,0.209-0.247,0.427-0.371,0.639
																					c-0.245,0.427-0.488,0.853-0.731,1.278c-1.048,1.66-1.735,3.476-2.536,5.206
																					c-0.346,0.887-0.611,1.799-0.917,2.688c-0.148,0.446-0.296,0.891-0.443,1.334
																					c-0.138,0.446-0.213,0.907-0.322,1.358c-0.202,0.905-0.402,1.804-0.601,2.695
																					c-0.166,0.897-0.231,1.805-0.351,2.696c-0.292,1.781-0.232,3.558-0.279,5.298l-0.012,0.651
																					c0.006,0.216,0.032,0.432,0.047,0.647c0.036,0.43,0.071,0.858,0.106,1.284c0.084,0.851,0.111,1.702,0.238,2.531
																					c0.152,0.826,0.302,1.645,0.451,2.456c0.074,0.406,0.148,0.809,0.222,1.211
																					c0.111,0.392,0.221,0.783,0.331,1.172c0.223,0.777,0.444,1.546,0.662,2.307c0.095,0.386,0.243,0.751,0.39,1.114
																					c0.144,0.364,0.288,0.727,0.43,1.087c0.291,0.719,0.554,1.44,0.858,2.134c0.345,0.675,0.686,1.342,1.023,2.002
																					c2.741,5.261,6.32,9.387,9.898,12.432c0.446,0.384,0.876,0.773,1.314,1.134
																					c0.463,0.329,0.917,0.654,1.363,0.971c0.446,0.318,0.883,0.63,1.311,0.935c0.216,0.149,0.421,0.312,0.641,0.446
																					c0.223,0.128,0.445,0.255,0.663,0.381c0.875,0.503,1.712,0.984,2.51,1.443c0.81,0.436,1.63,0.754,2.38,1.107
																					c0.378,0.17,0.746,0.336,1.103,0.497c0.354,0.169,0.704,0.317,1.057,0.421c0.697,0.234,1.349,0.453,1.955,0.657
																					c0.608,0.197,1.161,0.406,1.68,0.55c0.525,0.12,1.002,0.229,1.429,0.327c0.845,0.196,1.492,0.347,1.938,0.45
																					C392.698,173.411,392.92,173.474,392.92,173.474s-0.227-0.037-0.666-0.128
																					c-0.449-0.095-1.099-0.233-1.949-0.413c-0.429-0.093-0.908-0.196-1.436-0.309
																					c-0.522-0.138-1.079-0.342-1.69-0.534c-0.61-0.199-1.266-0.413-1.967-0.641
																					c-0.356-0.102-0.708-0.247-1.064-0.414c-0.359-0.159-0.73-0.322-1.11-0.491
																					c-0.755-0.35-1.581-0.663-2.396-1.096c-0.804-0.456-1.648-0.935-2.529-1.435
																					c-0.221-0.125-0.443-0.252-0.669-0.379c-0.221-0.134-0.428-0.296-0.646-0.445
																					c-0.432-0.305-0.873-0.616-1.322-0.933c-0.45-0.318-0.907-0.641-1.374-0.97
																					c-0.442-0.361-0.875-0.75-1.326-1.134c-3.61-3.044-7.226-7.182-10-12.469c-0.341-0.663-0.686-1.334-1.036-2.012
																					c-0.308-0.697-0.576-1.423-0.87-2.146c-0.145-0.362-0.29-0.727-0.436-1.094
																					c-0.149-0.366-0.299-0.733-0.396-1.121c-0.222-0.766-0.446-1.54-0.673-2.322
																					c-0.111-0.392-0.232-0.783-0.336-1.18c-0.075-0.404-0.151-0.81-0.227-1.219
																					c-0.152-0.816-0.305-1.641-0.46-2.473c-0.13-0.836-0.16-1.692-0.246-2.549c-0.036-0.43-0.073-0.861-0.11-1.295
																					c-0.015-0.216-0.043-0.433-0.049-0.651l0.01-0.657c0.043-1.753-0.019-3.544,0.271-5.34
																					c0.118-0.899,0.183-1.813,0.349-2.718c0.199-0.899,0.4-1.806,0.601-2.718c0.109-0.454,0.185-0.919,0.322-1.369
																					c0.148-0.447,0.296-0.896,0.444-1.346c0.308-0.896,0.574-1.816,0.921-2.712c0.804-1.746,1.495-3.578,2.55-5.254
																					c0.244-0.429,0.49-0.859,0.736-1.29c0.125-0.214,0.242-0.435,0.374-0.645l0.433-0.611
																					c0.578-0.815,1.159-1.635,1.743-2.46c0.622-0.795,1.316-1.542,1.976-2.321c0.343-0.379,0.651-0.792,1.026-1.144
																					l1.119-1.066c1.441-1.489,3.135-2.72,4.79-4.027c0.888-0.569,1.78-1.141,2.676-1.715l0.673-0.431l0.711-0.369
																					l1.43-0.735l1.437-0.737l1.505-0.604l1.514-0.601l0.759-0.301l0.785-0.231c1.05-0.303,2.104-0.607,3.162-0.913
																					c1.083-0.201,2.17-0.402,3.261-0.605c4.391-0.647,8.935-0.623,13.442,0.081
																					c4.486,0.822,8.781,2.301,12.711,4.36c0.963,0.551,1.922,1.1,2.878,1.647c0.898,0.637,1.792,1.272,2.683,1.904
																					c0.222,0.16,0.449,0.312,0.665,0.478l0.617,0.535l1.231,1.067l1.221,1.067l1.113,1.17l1.108,1.165
																					c0.183,0.195,0.372,0.385,0.548,0.584l0.493,0.629c0.657,0.838,1.31,1.672,1.96,2.502
																					c1.13,1.78,2.323,3.5,3.192,5.381l0.705,1.375c0.237,0.456,0.392,0.948,0.59,1.419
																					c0.366,0.954,0.775,1.887,1.099,2.843c0.28,0.971,0.558,1.937,0.834,2.897l0.207,0.719
																					c0.056,0.242,0.093,0.489,0.141,0.732c0.09,0.488,0.18,0.975,0.269,1.46c0.443,1.93,0.491,3.887,0.674,5.8
																					c0.033,0.96-0.019,1.916-0.025,2.864c-0.008,0.474-0.017,0.946-0.025,1.417
																					c-0.018,0.47-0.101,0.934-0.147,1.399c-0.111,0.928-0.22,1.85-0.329,2.764c-0.142,0.909-0.383,1.794-0.567,2.68
																					c-0.319,1.791-0.968,3.461-1.506,5.13l-0.207,0.623c-0.077,0.204-0.175,0.4-0.261,0.599
																					c-0.177,0.397-0.354,0.792-0.53,1.186c-0.364,0.781-0.675,1.58-1.073,2.326
																					c-0.421,0.734-0.838,1.462-1.25,2.183c-0.206,0.36-0.412,0.719-0.616,1.076
																					c-0.229,0.341-0.473,0.67-0.706,1.004c-0.472,0.663-0.939,1.32-1.401,1.97
																					c-0.219,0.334-0.482,0.632-0.743,0.928c-0.259,0.298-0.516,0.594-0.772,0.889
																					c-0.516,0.585-1.008,1.181-1.529,1.738c-0.554,0.525-1.101,1.045-1.642,1.558
																					c-4.363,4.076-9.142,6.789-13.554,8.473c-4.427,1.662-8.471,2.491-11.797,2.649
																					c-0.415,0.033-0.818,0.066-1.21,0.097c-0.391,0.04-0.772,0.061-1.141,0.04c-0.738-0.016-1.428-0.03-2.069-0.044
																					c-0.64-0.02-1.233-0.012-1.771-0.053c-0.536-0.067-1.022-0.127-1.458-0.182
																					c-0.862-0.111-1.521-0.195-1.977-0.253C393.146,173.514,392.92,173.474,392.92,173.474z"/>
																			</g>
																		</g>
																	</g>
																</g>
															</g>
														</g>
													</g>
												</g>
											</g>
										</g>
									</g>
								</g>
							</g>
						</g>
					</g>
				</g>
			</g>
		</g>
		<g>
			<g>
				<g>
					<path style="fill:#263238;" d="M389.978,123.039h5.858c0,0,0-4.919,5.112-5.007c2.655-0.046,4.031,1.693,4.591,3.026
						c0.649,1.547,0.453,3.31-0.417,4.745c-0.994,1.638-3.171,3.128-7.119,2.432l0,13.209h5.793v-7.738c0,0,8.124-2.1,8.124-11.054
						c0-8.567-7.682-10.556-10.971-10.556C398.434,112.095,389.867,112.703,389.978,123.039z"/>
				</g>
			</g>
			<g>
				<g>
					<rect x="397.986" y="144.164" style="fill:#263238;" width="5.879" height="5.491"/>
				</g>
			</g>
		</g>
	</g>
</g>
<g id="Character">
	<g>
		<g>
			<g>
				<g>
					<g>
						<g>
							<g>
								<g>
									<g>
										<g>
											<g>
												<path style="fill:#263238;" d="M252.187,143.182c-5.843-4.475-6.534-13.72-2.605-19.943
													c3.929-6.222,11.396-9.553,18.736-10.083c10.624-0.767,21.498,3.933,28.219,12.196
													c3.632,4.466,6.394,10.117,11.644,12.479c4.614,2.076,10.013,1.045,14.954,2.134c6.624,1.459,11.947,6.729,14.871,12.85
													c2.923,6.121,3.742,13.031,3.944,19.811c0.186,6.222,0.071,13.023,3.947,17.894c3.78,4.75,10.28,6.259,15.186,9.834
													c9.231,6.725,11.109,21.535,3.849,30.352c-2.315,2.811-5.501,5.295-6.058,8.894c-0.509,3.285,1.367,6.416,2.09,9.662
													c1.858,8.356-5.648,17.426-14.203,17.164c-4.319-0.132-8.776-2.214-12.798-0.631c-3.995,1.571-5.826,6.06-8.583,9.351
													c-5.423,6.472-15.724,8.186-22.949,3.816c-3.024-1.829-5.784-4.651-9.318-4.725c-3.527-0.073-6.55,2.677-10.058,3.04
													c-4.593,0.475-8.588-3.229-10.944-7.2c-2.355-3.971-3.839-8.536-7.006-11.895c-4.147-4.399-10.382-5.946-15.903-8.409
													c-12.186-5.436-21.809-16.337-25.692-29.104c-3.883-12.767-1.958-27.18,5.138-38.48"/>
											</g>
										</g>
									</g>
								</g>
							</g>
						</g>
					</g>
				</g>
			</g>
			<g>
				<g>
					<g>
						<g>
							<g>
								<g>
									<g>
										<g>
											<g>
												<path style="fill:#455A64;" d="M310.535,229.884c1.407-1.271,3.368-2.403,5.315-2.862l-0.382-0.057
													c0.363-0.066,0.728-0.075,1.092-0.087c1.414-0.205,2.783-0.014,3.883,0.831l-0.037-0.006
													c2.08,0.981,3.837,2.724,4.692,4.872c1.489,3.737,0.416,8.244-2.295,11.217c-2.356,2.583-6.147,4.079-9.459,2.958
													c-3.043-1.029-5.1-4.053-5.71-7.206C306.967,236.094,307.927,232.241,310.535,229.884z"/>
											</g>
										</g>
									</g>
								</g>
							</g>
						</g>
					</g>
				</g>
			</g>
			<g>
				<path style="fill:#FFBF9D;" d="M320.179,187.746c-0.059-17.583-10.384-39.768-27.948-38.962l-55.324,10.527
					c-5.336,0.244-9.597,4.531-9.81,9.869l-7.632,148.292l62.618-0.334c0.758-10.603,3.56-40.48,3.561-40.381
					c0,0,24.361-2.316,30.738-31.239C319.555,231.133,320.245,207.28,320.179,187.746z"/>
				<g>
					<g>
						<g>
							<g>
								<path style="fill:#263238;" d="M307.053,211.69c-0.048,1.982-1.765,3.575-3.836,3.562c-2.066-0.012-3.707-1.624-3.659-3.607
									c0.048-1.981,1.766-3.577,3.832-3.565C305.461,208.092,307.101,209.708,307.053,211.69z"/>
							</g>
						</g>
					</g>
				</g>
				<g>
					<g>
						<g>
							<g>
								<path style="fill:#263238;" d="M314.31,197.84c-0.493,0.461-3.205-1.808-7.236-2.038c-4.022-0.287-7.103,1.61-7.511,1.091
									c-0.202-0.232,0.324-1.085,1.667-1.946c1.323-0.858,3.539-1.637,6.049-1.477c2.509,0.164,4.566,1.214,5.723,2.232
									C314.185,196.727,314.552,197.635,314.31,197.84z"/>
							</g>
						</g>
					</g>
				</g>
				<g>
					<g>
						<g>
							<g>
								<path style="fill:#263238;" d="M270.805,209.197c-0.048,1.982-1.765,3.575-3.836,3.563
									c-2.065-0.013-3.706-1.625-3.658-3.606c0.048-1.982,1.766-3.577,3.833-3.565C269.213,205.6,270.854,207.215,270.805,209.197
									z"/>
							</g>
						</g>
					</g>
				</g>
				<g>
					<g>
						<g>
							<g>
								<path style="fill:#263238;" d="M274.657,196.23c-0.495,0.46-3.21-1.808-7.238-2.037c-4.022-0.287-7.103,1.609-7.511,1.09
									c-0.201-0.232,0.319-1.084,1.668-1.945c1.323-0.858,3.539-1.637,6.048-1.478c2.509,0.164,4.565,1.214,5.723,2.232
									C274.527,195.117,274.897,196.025,274.657,196.23z"/>
							</g>
						</g>
					</g>
				</g>
				<g>
					<g>
						<g>
							<g>
								<path style="fill:#263238;" d="M287.499,226.987c-0.005-0.23,2.526-0.514,6.615-0.791c1.035-0.045,2.021-0.191,2.237-0.883
									c0.287-0.73-0.077-1.863-0.505-3.091c-0.819-2.548-1.676-5.218-2.576-8.016c-3.561-11.408-6.073-20.763-5.612-20.902
									c0.461-0.14,3.721,8.994,7.281,20.401c0.853,2.812,1.67,5.492,2.445,8.056c0.32,1.192,0.911,2.559,0.293,4.07
									c-0.323,0.752-1.112,1.265-1.782,1.404c-0.672,0.162-1.251,0.139-1.762,0.138
									C290.036,227.349,287.5,227.217,287.499,226.987z"/>
							</g>
						</g>
					</g>
				</g>
				<g>
					<g>
						<g>
							<g>
								<path style="fill:#FF9A6C;" d="M285.894,276.367c0,0-17.96,0.161-36.724-12.698c0,0,6.521,22.408,35.909,21.418
									L285.894,276.367z"/>
							</g>
						</g>
					</g>
				</g>
				<g>
					<g>
						<g>
							<g>
								<path style="fill:#FF9A6C;" d="M286.33,236.532c-1.786-2.873-4.869-4.752-7.905-4.816c-2.106-0.045-4.221,0.803-5.474,2.568
									c-1.253,1.764-1.483,4.493-0.291,6.518c1.341,2.282,4.089,3.157,6.399,2.742c2.309-0.415,4.281-1.862,6.152-3.316
									c0.518-0.402,1.047-0.824,1.365-1.432c0.319-0.607,0.377-1.453-0.036-2.053"/>
							</g>
						</g>
					</g>
				</g>
				<g>
					<g>
						<g>
							<g>
								<path style="fill:#263238;" d="M275.473,229.067c0.657,0.001,0.405,4.375,3.965,7.703c3.551,3.338,8.243,3.124,8.241,3.738
									c0.045,0.279-1.089,0.788-3.06,0.724c-1.935-0.048-4.716-0.837-6.894-2.873c-2.171-2.04-3.001-4.639-3.043-6.442
									C274.623,230.079,275.176,229.024,275.473,229.067z"/>
							</g>
						</g>
					</g>
				</g>
				<g>
					<g>
						<g>
							<g>
								<path style="fill:#263238;" d="M277.425,179.747c-0.462,1.072-4.455,0.313-9.216,0.601
									c-4.768,0.192-8.663,1.349-9.232,0.328c-0.251-0.487,0.474-1.477,2.079-2.447c1.591-0.968,4.089-1.829,6.946-1.976
									c2.857-0.141,5.428,0.464,7.109,1.268C276.805,178.324,277.627,179.237,277.425,179.747z"/>
							</g>
						</g>
					</g>
				</g>
				<g>
					<g>
						<g>
							<g>
								<path style="fill:#263238;" d="M313.719,183.888c-0.763,0.873-3.483-0.242-6.818-0.486
									c-3.326-0.361-6.202,0.247-6.795-0.749c-0.258-0.482,0.242-1.372,1.529-2.165c1.269-0.791,3.346-1.375,5.637-1.169
									c2.288,0.21,4.227,1.157,5.331,2.164C313.727,182.494,314.058,183.46,313.719,183.888z"/>
							</g>
						</g>
					</g>
				</g>
			</g>
			<g>
				<g>
					<g>
						<g>
							<g>
								<g>
									<path style="fill:#263238;" d="M340.389,181.375c-0.972-4.483-3.101-8.868-6.711-11.7c-1.978-1.552-4.342-2.6-6.152-4.345
										c-3.91-3.769-4.363-9.769-6.543-14.742c-2.811-6.41-8.905-11.275-15.778-12.595c-5.72-1.099-11.819,0.108-17.32-1.806
										c-4.066-1.415-7.461-4.435-11.603-5.607c-8.067-2.283-16.214,2.932-22.679,8.271c-0.54,5.871,3.793,10.211,7.964,14.378
										c4.171,4.166,10.239,6.354,16.109,5.807c4.555-0.424,9.667-2.257,13.336,0.474c3.86,2.872,3.486,9.038,6.827,12.499
										c4.777,4.945,13.372,1.458,19.766,3.985c4.938,1.951,7.678,7.077,10.687,11.451c3.009,4.374,7.713,8.696,12.916,7.638
										C341.287,190.493,341.361,185.858,340.389,181.375z"/>
								</g>
							</g>
						</g>
					</g>
				</g>
			</g>
			<g>
				<g>
					<g>
						<g>
							<g>
								<g>
									<path style="fill:#263238;" d="M280.971,151.118c-3.585-1.377-10.902-4.422-12.593-7.786
										c-3.673-7.307-10.81-12.704-18.566-12.963c-7.756-0.259-15.702,5.183-18,13.194c-9.345-0.753-18.974,4.309-24.235,12.74
										c-0.657,1.054-1.244,2.156-1.758,3.294c-3.361,4.861-4.485,11.232-2.861,16.923c0.98,3.434,2.822,7.321,0.838,10.29
										c-2.019,3.022-6.424,2.734-9.951,3.612c-6.137,1.527-10.601,8.03-9.818,14.306c0.281,2.252,1.143,4.552,0.487,6.725
										c-0.682,2.261-2.798,3.714-4.471,5.382c-4.157,4.14-5.895,10.552-4.399,16.225c1.496,5.673,6.17,10.393,11.828,11.946
										c2.575,0.706,5.421,0.847,7.564,2.441c2.456,1.827,3.317,5.052,4.935,7.651c3.102,4.984,9.533,7.638,15.247,6.292
										c1.158-0.273,2.25-0.742,3.291-1.307c1.538,2.586,4.143,4.474,8.846,4.889l4.336-61.51
										c0.471,1.346,1.491,2.611,3.465,3.245c9.66,3.099,12.892-17.086,11.178-22.786c3.845-2.852,7.733-5.745,10.809-9.527
										c3.075-3.783,6.438-14.539,6.294-19.528C266.971,155.386,282.546,151.723,280.971,151.118z"/>
								</g>
							</g>
						</g>
					</g>
				</g>
			</g>
			<g>
				<g>
					<g>
						<g>
							<g>
								<g>
									<g>
										<g>
											<g>
												<g>
													<g>
														<g>
															<g>
																<g>
																	<g>
																		<g>
																			<g>
																				<g>
																					<path style="fill:#FFBF9D;" d="M233.965,208.696c0.239-6.27-7.282-8.278-12.969-5.628
																						c-3.122,1.455-5.698,4.707-6.01,11.359c-0.831,17.737,17.148,14.912,17.203,14.405
																						C232.223,228.517,233.686,216.037,233.965,208.696z"/>
																				</g>
																			</g>
																		</g>
																	</g>
																</g>
															</g>
														</g>
													</g>
												</g>
											</g>
										</g>
									</g>
								</g>
							</g>
						</g>
					</g>
				</g>
			</g>
			<g>
				<g>
					<g>
						<g>
							<g>
								<g>
									<g>
										<g>
											<g>
												<g>
													<g>
														<g>
															<g>
																<g>
																	<g>
																		<g>
																			<g>
																				<g>
																					<g>
																						<path style="fill:#FF9A6C;" d="M227.086,221.858c-0.075-0.06-0.32,0.202-0.853,0.417
																							c-0.52,0.21-1.403,0.329-2.312-0.06c-1.842-0.776-3.28-3.824-3.217-7.026
																							c0.031-1.616,0.441-3.137,1.072-4.383c0.602-1.272,1.483-2.14,2.435-2.263
																							c0.949-0.173,1.59,0.423,1.784,0.932c0.215,0.507,0.085,0.856,0.178,0.891
																							c0.048,0.046,0.394-0.28,0.286-1.019c-0.057-0.356-0.245-0.784-0.646-1.144
																							c-0.409-0.366-1.027-0.572-1.687-0.531c-1.372,0.031-2.662,1.231-3.357,2.598
																							c-0.77,1.371-1.269,3.079-1.303,4.894c-0.054,3.579,1.619,7.009,4.149,7.87
																							c1.232,0.384,2.291,0.057,2.848-0.337C227.034,222.285,227.145,221.893,227.086,221.858z"/>
																					</g>
																				</g>
																			</g>
																		</g>
																	</g>
																</g>
															</g>
														</g>
													</g>
												</g>
											</g>
										</g>
									</g>
								</g>
							</g>
						</g>
					</g>
				</g>
			</g>
			<g>
				<g>
					<g>
						<g>
							<g>
								<g>
									<g>
										<g>
											<g>
												<path style="fill:#455A64;" d="M257.059,144.2c0.114,0.199-1.826,0.349-3.786,2.642
													c-1.962,2.253-3.028,6.81-2.378,12.107l0.056,0.455l-0.445,0.07c-4.467,0.704-9.588,3.755-12.27,9.027
													c-0.638,1.303-1.122,2.765-1.295,4.23c-0.14,1.496-0.008,3.087,0.141,4.719c0.145,1.632,0.325,3.321,0.23,5.088
													c-0.032,1.738-0.671,3.702-1.86,5.091c-2.493,3.151-6.172,4.485-9.348,5.814c-3.259,1.275-6.286,2.603-8.68,4.651
													c-4.863,4.012-7.363,9.532-7.906,14.227c-0.592,4.754,0.419,8.641,1.366,11.127c0.961,2.516,1.845,3.754,1.739,3.818
													c-0.036,0.024-0.27-0.272-0.685-0.861c-0.389-0.605-0.955-1.511-1.504-2.772c-1.105-2.483-2.293-6.452-1.795-11.413
													c0.452-4.908,2.973-10.742,8.047-15.012c2.497-2.183,5.731-3.625,8.957-4.901c3.176-1.329,6.649-2.666,8.823-5.449
													c2.194-2.51,1.628-6.091,1.392-9.302c-0.139-1.638-0.277-3.287-0.112-4.953c0.214-1.682,0.745-3.207,1.449-4.625
													c2.949-5.651,8.415-8.768,13.173-9.422l-0.389,0.524c-0.566-5.541,0.684-10.246,2.906-12.577
													c1.077-1.162,2.197-1.743,2.964-2.01C256.636,144.255,257.047,144.156,257.059,144.2z"/>
											</g>
										</g>
									</g>
								</g>
							</g>
						</g>
					</g>
				</g>
			</g>
			<g>
				<g>
					<g>
						<g>
							<g>
								<g>
									<g>
										<path style="fill:#455A64;" d="M219.901,227.891c1.407-1.272,3.368-2.403,5.315-2.862l-0.382-0.057
											c0.362-0.066,0.727-0.076,1.092-0.088c1.414-0.205,2.783-0.014,3.882,0.831l-0.037-0.006
											c2.08,0.98,3.837,2.724,4.691,4.871c1.489,3.737,0.416,8.245-2.295,11.217c-2.356,2.583-6.147,4.078-9.459,2.958
											c-3.042-1.028-5.099-4.052-5.709-7.205C216.333,234.101,217.293,230.247,219.901,227.891z"/>
									</g>
								</g>
							</g>
						</g>
					</g>
				</g>
			</g>
		</g>
		<g>
			<path style="fill:#FF725E;" d="M156.381,308.333c0,0-76.346,74.118-75.691,98.048c0.011,0.397-0.166,0.778-0.235,1.171
				c-2.787,15.716,8.635,30.445,24.475,32.417l29.526,3.675l63.055-81.337L180.44,316.87L156.381,308.333z"/>
			<path style="fill:#FF725E;" d="M129.992,344.831c0,0,12.315-20.844,26.389-36.498c13.316-14.811,31.049-19.034,34.979-19.219
				c14.603-0.69,76.159,3.465,115.651,5.039c14.67,0.585,29.159,9.107,38.747,20.226c21.476,24.906,59.119,69.282,66.687,82.952
				c10.718,19.361,3.193,63.441-4.326,69.323c-7.52,5.883-238.261-4.136-238.261-4.136L129.992,344.831z"/>
			<g>
				<path style="fill:#263238;" d="M389.46,397.34c-0.002,0.018-0.169,0.023-0.484,0.017c-0.375-0.014-0.829-0.031-1.375-0.052
					c-0.305-0.015-0.636-0.032-0.991-0.05c-0.362-0.006-0.757,0.018-1.18,0.025c-0.846,0.034-1.811,0.005-2.869,0.15
					c-0.531,0.054-1.086,0.11-1.662,0.168c-0.577,0.064-1.168,0.199-1.785,0.301c-1.24,0.178-2.527,0.547-3.89,0.892
					c-2.693,0.805-5.584,1.933-8.438,3.481c-2.834,1.588-5.332,3.43-7.451,5.277c-1.02,0.968-2.019,1.859-2.832,2.812
					c-0.415,0.468-0.845,0.895-1.207,1.349c-0.357,0.456-0.701,0.895-1.03,1.315c-0.687,0.817-1.178,1.649-1.658,2.346
					c-0.232,0.354-0.463,0.675-0.651,0.984c-0.175,0.31-0.337,0.598-0.487,0.865c-0.275,0.473-0.502,0.866-0.691,1.19
					c-0.163,0.27-0.257,0.408-0.273,0.401c-0.016-0.008,0.046-0.161,0.179-0.447c0.166-0.338,0.366-0.748,0.607-1.241
					c0.139-0.275,0.289-0.572,0.451-0.893c0.177-0.32,0.397-0.65,0.619-1.014c0.461-0.718,0.935-1.572,1.609-2.411
					c0.324-0.432,0.663-0.882,1.014-1.35c0.358-0.466,0.785-0.905,1.198-1.384c0.809-0.977,1.808-1.891,2.831-2.88
					c2.127-1.89,4.649-3.769,7.52-5.376c2.891-1.568,5.826-2.698,8.559-3.487c1.383-0.337,2.689-0.694,3.946-0.856
					c0.626-0.093,1.225-0.22,1.809-0.274c0.583-0.047,1.145-0.093,1.683-0.137c1.07-0.122,2.045-0.067,2.898-0.073
					c0.427,0.007,0.824-0.003,1.188,0.018c0.357,0.034,0.689,0.066,0.995,0.096c0.546,0.059,0.999,0.109,1.374,0.149
					C389.299,397.292,389.462,397.322,389.46,397.34z"/>
			</g>
			<g>
				<path style="fill:#263238;" d="M185.568,394.204c-0.018,0.003-0.08-0.238-0.183-0.698c-0.107-0.511-0.248-1.18-0.423-2.014
					c-0.393-1.743-1.014-4.253-1.908-7.32c-1.798-6.131-4.743-14.468-8.514-23.463c-3.758-9.005-7.622-16.956-10.633-22.594
					c-0.739-1.418-1.437-2.683-2.066-3.786c-0.618-1.109-1.149-2.066-1.615-2.828c-0.43-0.737-0.775-1.328-1.038-1.779
					c-0.232-0.41-0.347-0.63-0.332-0.64c0.015-0.01,0.16,0.191,0.421,0.583c0.285,0.439,0.658,1.013,1.122,1.73
					c0.494,0.748,1.051,1.691,1.694,2.788c0.654,1.091,1.377,2.346,2.138,3.755c3.1,5.604,7.026,13.546,10.79,22.568
					c3.778,9.011,6.675,17.389,8.387,23.562c0.852,3.089,1.42,5.621,1.753,7.381c0.136,0.844,0.245,1.521,0.328,2.037
					C185.558,393.955,185.585,394.201,185.568,394.204z"/>
			</g>
			<g>
				<path style="fill:#263238;" d="M337.968,329.706c0.009,0,0.015,0.085,0.019,0.251c0.001,0.196,0.002,0.438,0.003,0.734
					c-0.009,0.688-0.023,1.63-0.039,2.823c-0.039,2.451-0.151,5.997-0.336,10.377c-0.367,8.759-1.126,20.853-2.464,34.164
					c-1.347,13.316-3.02,25.318-4.409,33.974c-0.693,4.328-1.292,7.825-1.743,10.234c-0.222,1.172-0.397,2.098-0.525,2.773
					c-0.06,0.291-0.11,0.527-0.149,0.719c-0.037,0.161-0.06,0.243-0.069,0.242c-0.009-0.001-0.003-0.086,0.016-0.251
					c0.026-0.194,0.059-0.434,0.099-0.728c0.104-0.679,0.247-1.611,0.429-2.789c0.38-2.466,0.917-5.958,1.579-10.257
					c1.295-8.666,2.909-20.665,4.255-33.97c1.337-13.301,2.153-25.38,2.615-34.13c0.21-4.344,0.381-7.874,0.501-10.366
					c0.058-1.191,0.104-2.133,0.137-2.819c0.02-0.296,0.036-0.537,0.049-0.733C337.947,329.79,337.959,329.706,337.968,329.706z"/>
			</g>
			<path style="fill:#FF725E;" d="M295.455,286.829c-0.808-0.569-1.837-0.694-2.819-0.801c-22.879-2.507-45.757-5.015-68.636-7.522
				c-2.345-0.257-4.99-0.427-6.778,1.112c-2.268,1.953-1.917,5.566-0.893,8.378c1.025,2.812,2.553,5.684,2.001,8.625l73.656,4.618
				c-0.457-2.657,1.656-4.963,3.214-7.163C296.76,291.878,297.659,288.382,295.455,286.829z"/>
			<g>
				<path style="fill:#263238;" d="M298.743,299.822c0.004,0.018-0.274,0.09-0.808,0.213c-0.581,0.127-1.36,0.298-2.339,0.512
					c-1.015,0.226-2.262,0.481-3.722,0.708c-1.458,0.236-3.112,0.553-4.962,0.759c-0.924,0.117-1.891,0.239-2.897,0.365
					c-1.008,0.123-2.063,0.19-3.152,0.293c-2.177,0.226-4.514,0.31-6.971,0.431c-4.918,0.142-10.334,0.066-15.996-0.386
					c-5.661-0.49-11.016-1.312-15.844-2.264c-2.404-0.525-4.695-0.995-6.805-1.578c-1.057-0.281-2.086-0.522-3.06-0.81
					c-0.971-0.292-1.905-0.572-2.797-0.839c-1.79-0.508-3.369-1.095-4.768-1.569c-1.402-0.465-2.59-0.923-3.553-1.314
					c-0.93-0.373-1.67-0.67-2.222-0.892c-0.506-0.209-0.768-0.327-0.761-0.344c0.007-0.017,0.282,0.069,0.799,0.246
					c0.56,0.198,1.311,0.465,2.254,0.799c0.973,0.361,2.168,0.79,3.577,1.228c1.405,0.446,2.988,1.007,4.78,1.492
					c0.893,0.257,1.826,0.525,2.798,0.805c0.974,0.277,2.002,0.507,3.059,0.778c2.108,0.563,4.395,1.015,6.793,1.526
					c4.816,0.924,10.153,1.728,15.793,2.216c5.641,0.451,11.036,0.54,15.938,0.425c2.449-0.107,4.779-0.175,6.951-0.382
					c1.086-0.093,2.139-0.15,3.145-0.262c1.005-0.115,1.97-0.225,2.893-0.331c1.847-0.181,3.501-0.473,4.961-0.681
					c1.461-0.199,2.711-0.424,3.731-0.62c0.986-0.174,1.771-0.313,2.356-0.416C298.454,299.843,298.739,299.804,298.743,299.822z"/>
			</g>
			<g style="opacity:0.3;">
				<path d="M130.927,372.584c-13.137,2.124-24.642,12.255-28.411,25.017c3.435-1.135,6.707-4.081,9.203-6.7
					c6.508-6.83,14.544-11.398,23.924-12.406c6.453-0.693,12.634,1.005,18.673,3.376c2.739,1.075,5.79,1.679,8.226,3.331
					l3.232,0.735C158.175,375.012,144.064,370.46,130.927,372.584z"/>
			</g>
			<g style="opacity:0.3;">
				<path d="M223.181,295.026c9.751,8.848,22.515,15.127,35.648,16.074c13.132,0.947,25.708-3.248,36.628-10.606
					C268.787,304.642,244.523,303.218,223.181,295.026z"/>
			</g>
			<g style="opacity:0.3;">
				<path d="M390.687,389.742c-2.146-1.365-4.879-1.336-7.404-1.037c-15.858,1.881-31.216,12.686-32.779,30.106l0,0
					c6.674-12.917,20.421-22.393,34.906-21.14c2.44,0.211,5.336,0.494,6.904-1.388C393.941,394.329,392.832,391.107,390.687,389.742
					z"/>
			</g>
		</g>
		<g>
			<g>
				<path style="fill:#455A64;" d="M86.759,472.957l130.063-0.655c0,0-0.859,2.51,4.532,2.51l43-0.301c0,0,3.174,0.301,3.231-2.209
					c0,0,100.829,1.698,125.733,2.393c1.866,0.052,5.163-1.077,3.608-3.443l-8.689-10.411l-143.859-13.972l-102.048,10.718
					l-34.993-12.639h-1.157c-0.957,0-1.856,0.461-2.415,1.238l-17.969,24.99C85.29,471.942,85.841,472.962,86.759,472.957z"/>
				<polygon style="opacity:0.2;" points="141.754,469.985 373.452,471.78 318.96,454.903 251.03,456.806 183.065,454.104 				"/>
				<path style="fill:#FFFFFF;" d="M243.085,465.412l1.294-28.511c0,0,0.259-15.681-18.627-20.908s-42.428,1.426-64.418,2.613
					c-21.99,1.188-21.731-0.475-21.731-0.475l-17.851,27.561l70.11,10.216c0,0,40.617,2.376,41.393,2.613
					C234.03,458.76,243.085,465.412,243.085,465.412z"/>
				<path style="fill:#FFFFFF;" d="M242.858,466.425l1.521-26.791c0,0-0.259-15.681,18.627-20.908
					c18.886-5.227,42.428,1.426,64.418,2.613c15.383,0.831,20.154,0.692,21.632,0.533c0.431-0.046,0.85,0.15,1.071,0.492
					l16.879,26.061l-70.11,10.216c0,0-40.617,2.376-41.393,2.613C254.727,461.492,242.858,466.425,242.858,466.425z"/>
				<path style="fill:#E0E0E0;" d="M91.223,470.877l30.528-25.185c0,0,63.229-10.692,84.702-6.89
					c21.473,3.801,33.682,11.167,36.632,26.848l-20.592,5.227c0,0-11.901-6.653-27.423-6.89c-15.522-0.238-54.329,6.89-54.329,6.89
					H91.223z"/>
				<path style="fill:#E0E0E0;" d="M264.935,470.877l-21.731-5.465c0,0,1.549-24.917,36.852-29.075c0,0,9.974-3.238,45.417,3.415
					c35.443,6.653,39.065,6.415,39.065,6.415l29.493,26.135c0,0-17.592,1.426-32.08-1.426c-14.488-2.851-39.841-12.592-67.264-9.741
					C267.264,463.987,264.935,470.877,264.935,470.877z"/>
				<polygon style="fill:#E0E0E0;" points="121.751,445.692 139.026,419.021 108.378,443.476 89.021,470.877 91.223,470.877 				"/>
				<path style="fill:#E0E0E0;" d="M364.419,446.167l-14.076-23.659c0,0,28.043,24.387,28.291,25.07
					c0.248,0.684,15.277,24.724,15.277,24.724L364.419,446.167z"/>
				<polyline style="fill:#263238;" points="221.354,470.877 264.817,470.877 243.085,465.412 241.946,465.65 				"/>
				<g>
					<path style="fill:#263238;" d="M243.085,465.412c-0.144-0.006,0.003-6.227,0.328-13.894c0.325-7.669,0.705-13.879,0.849-13.873
						c0.144,0.006-0.003,6.226-0.328,13.895C243.609,459.207,243.229,465.418,243.085,465.412z"/>
				</g>
				<g>
					<path style="fill:#263238;" d="M152.212,441.289c0.002,0.016-0.202,0.062-0.594,0.134c-0.442,0.076-1.014,0.173-1.726,0.295
						c-1.563,0.245-3.735,0.586-6.416,1.007c-5.509,0.819-13.098,1.946-21.687,3.223l0.12-0.051c-1.337,1.03-2.739,2.11-4.166,3.209
						c-7.886,6.031-15.023,11.488-20.244,15.481c-2.571,1.935-4.667,3.512-6.171,4.644c-0.702,0.515-1.265,0.928-1.694,1.242
						c-0.391,0.279-0.601,0.419-0.612,0.405c-0.011-0.014,0.178-0.182,0.548-0.488c0.413-0.334,0.956-0.772,1.634-1.319
						c1.479-1.164,3.541-2.786,6.07-4.775c5.197-4.024,12.301-9.524,20.151-15.602c1.428-1.098,2.832-2.176,4.169-3.205l0.054-0.042
						l0.066-0.009c8.599-1.208,16.197-2.276,21.712-3.051c2.691-0.356,4.871-0.644,6.439-0.852c0.717-0.085,1.293-0.153,1.739-0.206
						C152,441.287,152.209,441.273,152.212,441.289z"/>
				</g>
				<g>
					<path style="fill:#263238;" d="M240.231,450.453c-0.007,0.005-0.073-0.064-0.194-0.206c-0.138-0.165-0.311-0.374-0.527-0.633
						c-0.461-0.557-1.162-1.363-2.129-2.337c-1.932-1.938-5.003-4.532-9.363-6.795c-4.328-2.307-9.93-4.181-16.333-5.229
						c-6.403-1.076-13.566-1.364-21.064-1.398c-15.018-0.087-28.572,1.369-38.285,2.897c-4.86,0.759-8.77,1.512-11.469,2.048
						c-1.319,0.269-2.358,0.48-3.105,0.632c-0.332,0.063-0.598,0.114-0.81,0.154c-0.183,0.032-0.278,0.044-0.28,0.035
						c-0.002-0.009,0.089-0.038,0.268-0.087c0.209-0.053,0.472-0.121,0.799-0.204c0.705-0.17,1.742-0.431,3.087-0.728
						c2.688-0.597,6.593-1.406,11.453-2.213c9.712-1.623,23.293-3.142,38.345-3.054c7.512,0.035,14.7,0.337,21.142,1.446
						c6.44,1.081,12.084,3.008,16.426,5.377c4.375,2.325,7.437,4.986,9.335,6.979c0.951,1.002,1.63,1.833,2.066,2.413
						c0.2,0.273,0.36,0.493,0.487,0.667C240.187,450.367,240.238,450.448,240.231,450.453z"/>
				</g>
				<g>
					<path style="fill:#263238;" d="M240.231,446.973c-0.007,0.005-0.069-0.059-0.181-0.189c-0.13-0.155-0.291-0.348-0.49-0.586
						c-0.207-0.264-0.48-0.576-0.81-0.939c-0.32-0.372-0.704-0.786-1.154-1.236c-1.761-1.828-4.592-4.242-8.56-6.465
						c-3.952-2.242-9.074-4.168-14.971-5.345c-5.896-1.201-12.524-1.66-19.473-1.79c-13.915-0.307-26.505,0.712-35.544,1.87
						c-4.523,0.573-8.17,1.146-10.686,1.566c-1.226,0.206-2.195,0.368-2.897,0.486c-0.307,0.047-0.555,0.085-0.756,0.116
						c-0.171,0.023-0.259,0.031-0.261,0.022c-0.002-0.009,0.083-0.034,0.251-0.074c0.198-0.044,0.443-0.099,0.746-0.167
						c0.658-0.137,1.626-0.35,2.881-0.582c2.507-0.482,6.149-1.111,10.673-1.731c9.041-1.253,21.656-2.333,35.603-2.025
						c6.963,0.131,13.624,0.605,19.558,1.841c5.933,1.211,11.093,3.193,15.056,5.495c3.98,2.283,6.798,4.763,8.525,6.645
						c0.442,0.463,0.816,0.891,1.125,1.275c0.319,0.375,0.58,0.7,0.775,0.975c0.183,0.251,0.331,0.455,0.45,0.619
						C240.191,446.893,240.238,446.968,240.231,446.973z"/>
				</g>
				<g>
					<path style="fill:#263238;" d="M240.231,443.493c-0.007,0.005-0.068-0.058-0.18-0.187c-0.129-0.154-0.288-0.345-0.486-0.58
						c-0.205-0.261-0.475-0.572-0.802-0.931c-0.318-0.367-0.696-0.78-1.142-1.225c-1.745-1.811-4.541-4.21-8.466-6.423
						c-3.911-2.226-8.97-4.172-14.809-5.356c-5.836-1.216-12.399-1.697-19.283-1.839c-13.785-0.329-26.258,0.638-35.218,1.757
						c-4.483,0.552-8.098,1.105-10.591,1.512c-1.215,0.199-2.175,0.355-2.872,0.47c-0.304,0.045-0.55,0.082-0.749,0.112
						c-0.169,0.022-0.257,0.029-0.259,0.021c-0.002-0.009,0.082-0.033,0.249-0.073c0.196-0.043,0.44-0.097,0.74-0.163
						c0.652-0.133,1.612-0.341,2.856-0.566c2.485-0.469,6.095-1.078,10.579-1.678c8.961-1.214,21.46-2.242,35.276-1.912
						c6.898,0.142,13.496,0.639,19.369,1.89c5.876,1.217,10.973,3.219,14.893,5.506c3.936,2.273,6.72,4.738,8.431,6.603
						c0.438,0.459,0.807,0.884,1.113,1.264c0.316,0.371,0.574,0.694,0.767,0.966c0.181,0.249,0.327,0.451,0.446,0.614
						C240.192,443.414,240.238,443.488,240.231,443.493z"/>
				</g>
				<g>
					<path style="fill:#263238;" d="M240.231,440.014c-0.007,0.005-0.067-0.057-0.176-0.183c-0.127-0.152-0.283-0.338-0.475-0.568
						c-0.408-0.506-1.037-1.232-1.891-2.122c-1.702-1.778-4.351-4.215-8.079-6.575c-3.713-2.356-8.517-4.652-14.23-5.835
						c-5.698-1.267-12.153-1.328-18.89-1.246c-13.499,0.088-25.71,0.662-34.504,1.59c-4.397,0.448-7.945,0.917-10.391,1.283
						c-1.191,0.178-2.131,0.318-2.816,0.42c-0.297,0.04-0.539,0.073-0.734,0.1c-0.166,0.02-0.252,0.025-0.253,0.016
						c-0.002-0.009,0.081-0.032,0.244-0.069c0.193-0.04,0.432-0.09,0.726-0.151c0.64-0.121,1.581-0.319,2.803-0.517
						c2.438-0.427,5.984-0.953,10.383-1.449c8.798-1.023,21.031-1.657,34.538-1.744c6.737-0.082,13.243-0.009,18.997,1.297
						c5.765,1.22,10.615,3.581,14.327,5.993c3.732,2.419,6.362,4.916,8.028,6.747c0.835,0.916,1.442,1.666,1.825,2.195
						c0.176,0.243,0.319,0.441,0.435,0.601C240.193,439.936,240.238,440.008,240.231,440.014z"/>
				</g>
				<g>
					<path style="fill:#263238;" d="M240.231,436.534c-0.007,0.005-0.066-0.057-0.173-0.183c-0.125-0.152-0.278-0.339-0.467-0.569
						c-0.403-0.505-1.008-1.242-1.823-2.157c-1.624-1.826-4.102-4.41-7.715-6.882c-1.809-1.221-3.893-2.424-6.278-3.375
						c-2.377-0.962-5.039-1.687-7.881-2.212c-5.69-1.063-12.087-1.35-18.771-1.177c-13.391,0.398-25.471,1.69-34.23,2.368
						c-4.379,0.357-7.926,0.612-10.379,0.751c-1.194,0.06-2.138,0.108-2.826,0.142c-0.298,0.009-0.539,0.017-0.736,0.023
						c-0.166,0.002-0.251-0.001-0.252-0.01c-0.001-0.009,0.084-0.023,0.248-0.043c0.196-0.02,0.436-0.044,0.732-0.074
						c0.686-0.059,1.627-0.139,2.818-0.24c2.491-0.22,6.019-0.532,10.362-0.916c8.747-0.772,20.825-2.123,34.248-2.522
						c6.707-0.173,13.139,0.128,18.873,1.226c2.864,0.543,5.55,1.291,7.956,2.284c2.41,0.981,4.509,2.218,6.323,3.471
						c3.623,2.537,6.076,5.179,7.66,7.053c0.795,0.94,1.376,1.7,1.753,2.226c0.172,0.243,0.312,0.44,0.426,0.601
						C240.194,436.456,240.238,436.529,240.231,436.534z"/>
				</g>
				<g>
					<g>
						<path style="fill:#263238;" d="M246.51,449.499c-0.007-0.005,0.046-0.085,0.156-0.235c0.13-0.172,0.295-0.388,0.499-0.658
							c0.447-0.572,1.141-1.391,2.11-2.375c1.935-1.958,5.045-4.562,9.462-6.806c4.384-2.289,10.063-4.112,16.522-5.074
							c6.461-0.991,13.654-1.16,21.165-1.057c15.051,0.189,28.602,1.957,38.282,3.759c4.845,0.896,8.734,1.777,11.41,2.423
							c1.339,0.322,2.371,0.602,3.073,0.785c0.326,0.09,0.587,0.162,0.795,0.219c0.178,0.052,0.269,0.083,0.267,0.092
							c-0.002,0.009-0.097-0.005-0.279-0.04c-0.211-0.044-0.477-0.1-0.807-0.169c-0.745-0.166-1.779-0.397-3.093-0.689
							c-2.689-0.585-6.585-1.41-11.43-2.258c-9.682-1.706-23.208-3.411-38.225-3.6c-7.498-0.103-14.665,0.053-21.087,1.011
							c-6.421,0.93-12.057,2.701-16.426,4.928c-4.4,2.183-7.519,4.72-9.486,6.622c-0.985,0.956-1.7,1.749-2.171,2.298
							c-0.22,0.255-0.398,0.461-0.538,0.624C246.584,449.436,246.517,449.504,246.51,449.499z"/>
					</g>
					<g>
						<path style="fill:#263238;" d="M246.574,446.02c-0.007-0.005,0.041-0.079,0.143-0.219c0.122-0.162,0.274-0.363,0.461-0.611
							c0.2-0.272,0.467-0.591,0.792-0.961c0.316-0.378,0.698-0.799,1.148-1.254c1.761-1.85,4.625-4.277,8.646-6.487
							c4.004-2.229,9.2-4.115,15.154-5.217c5.956-1.126,12.625-1.478,19.589-1.481c13.951-0.052,26.544,1.26,35.56,2.68
							c4.512,0.703,8.142,1.399,10.64,1.927c1.251,0.255,2.215,0.487,2.87,0.635c0.302,0.073,0.546,0.133,0.743,0.181
							c0.167,0.043,0.251,0.07,0.249,0.079c-0.002,0.009-0.09,0-0.26-0.027c-0.2-0.034-0.447-0.077-0.753-0.13
							c-0.7-0.131-1.665-0.311-2.888-0.539c-2.508-0.466-6.143-1.106-10.655-1.762c-9.017-1.324-21.585-2.574-35.504-2.523
							c-6.95,0.003-13.585,0.34-19.503,1.432c-5.917,1.069-11.073,2.901-15.066,5.069c-4.008,2.149-6.883,4.511-8.677,6.306
							c-0.459,0.441-0.85,0.849-1.176,1.214c-0.336,0.357-0.615,0.664-0.827,0.924c-0.203,0.234-0.368,0.424-0.501,0.577
							C246.644,445.962,246.581,446.025,246.574,446.02z"/>
					</g>
					<g>
						<path style="fill:#263238;" d="M246.638,442.54c-0.007-0.005,0.041-0.079,0.141-0.217c0.121-0.161,0.271-0.36,0.457-0.605
							c0.198-0.269,0.461-0.587,0.784-0.952c0.314-0.374,0.69-0.793,1.136-1.243c1.744-1.833,4.573-4.246,8.55-6.447
							c3.962-2.214,9.095-4.122,14.992-5.231c5.895-1.142,12.501-1.518,19.4-1.533c13.82-0.076,26.298,1.182,35.235,2.561
							c4.472,0.682,8.071,1.357,10.547,1.872c1.24,0.247,2.196,0.474,2.846,0.618c0.299,0.072,0.541,0.129,0.737,0.176
							c0.165,0.042,0.249,0.069,0.247,0.077c-0.002,0.009-0.089,0-0.258-0.025c-0.198-0.033-0.444-0.075-0.747-0.126
							c-0.695-0.127-1.651-0.301-2.863-0.522c-2.486-0.453-6.09-1.072-10.562-1.707c-8.937-1.283-21.391-2.48-35.18-2.404
							c-6.885,0.015-13.457,0.376-19.314,1.484c-5.86,1.076-10.953,2.929-14.905,5.083c-3.965,2.14-6.805,4.488-8.583,6.266
							c-0.455,0.437-0.84,0.842-1.165,1.204c-0.334,0.353-0.609,0.658-0.819,0.916c-0.201,0.232-0.364,0.42-0.496,0.571
							C246.707,442.483,246.645,442.546,246.638,442.54z"/>
					</g>
					<g>
						<path style="fill:#263238;" d="M246.702,436.534c0,0,0.726-1.159,2.504-2.851c1.762-1.701,4.715-3.769,8.74-5.51
							c2.007-0.879,4.265-1.693,6.713-2.474c2.447-0.763,5.081-1.604,7.944-2.091c5.718-1.068,12.126-0.977,18.77-0.77
							c13.341,0.424,25.314,2.068,33.975,3.086c4.299,0.518,7.793,0.939,10.26,1.236c1.178,0.141,2.11,0.253,2.79,0.334
							c0.293,0.04,0.531,0.072,0.724,0.099c0.163,0.025,0.246,0.042,0.245,0.051c-0.001,0.009-0.086,0.009-0.25,0.002
							c-0.195-0.013-0.435-0.028-0.73-0.047c-0.682-0.058-1.618-0.137-2.801-0.237c-2.431-0.221-5.944-0.59-10.281-1.072
							c-8.674-0.925-20.645-2.508-33.948-2.931c-6.645-0.207-13.008-0.31-18.67,0.721c-2.835,0.469-5.446,1.286-7.899,2.031
							c-2.445,0.761-4.696,1.55-6.697,2.401c-4.011,1.685-6.959,3.681-8.748,5.322c-0.463,0.395-0.843,0.778-1.168,1.115
							c-0.337,0.326-0.604,0.619-0.808,0.866c-0.196,0.22-0.356,0.4-0.485,0.546C246.77,436.48,246.709,436.539,246.702,436.534z"/>
					</g>
				</g>
				<path style="fill:#FF725E;" d="M290.144,445.605v16.92l5.603-5.07l5.489,4.803l0.32-16.474
					C301.556,445.784,292.538,445.297,290.144,445.605z"/>
				<g>
					<path style="fill:#263238;" d="M353.566,455.426c-0.002,0.009-0.099-0.008-0.287-0.048c-0.215-0.049-0.488-0.112-0.828-0.19
						c-0.762-0.183-1.824-0.439-3.173-0.763c-2.756-0.658-6.755-1.567-11.727-2.543c-4.969-0.987-10.914-2.017-17.527-3.1
						c-3.308-0.545-6.779-1.116-10.376-1.708c-3.586-0.654-7.325-1.046-11.183-1.205c-3.855-0.144-7.629-0.107-11.256,0.165
						c-3.626,0.26-7.114,0.728-10.345,1.54c-6.49,1.617-11.876,4.534-15.856,7.626c-2.002,1.538-3.7,3.077-5.121,4.496
						c-1.434,1.407-2.602,2.687-3.553,3.736c-0.915,1.043-1.635,1.863-2.151,2.452c-0.231,0.261-0.416,0.471-0.562,0.636
						c-0.129,0.141-0.198,0.211-0.205,0.206c-0.007-0.006,0.049-0.087,0.164-0.239c0.136-0.174,0.308-0.394,0.523-0.669
						c0.459-0.59,1.162-1.437,2.08-2.519c0.93-1.072,2.079-2.375,3.5-3.808c1.408-1.445,3.098-3.012,5.102-4.581
						c3.981-3.154,9.417-6.143,15.961-7.799c3.27-0.835,6.781-1.316,10.428-1.584c3.648-0.28,7.439-0.321,11.315-0.176
						c3.871,0.158,7.656,0.56,11.246,1.222c3.595,0.603,7.064,1.184,10.37,1.738c6.611,1.109,12.555,2.178,17.521,3.212
						c4.968,1.024,8.959,1.989,11.703,2.708c1.374,0.35,2.433,0.654,3.151,0.858c0.335,0.099,0.603,0.178,0.815,0.24
						C353.476,455.384,353.568,455.417,353.566,455.426z"/>
				</g>
			</g>
			<g>
				<path style="fill:#263238;" d="M235.665,466.995c-0.007,0.006-0.092-0.078-0.251-0.247c-0.175-0.191-0.404-0.441-0.695-0.759
					c-0.308-0.331-0.665-0.761-1.126-1.233c-0.473-0.467-1.014-1.002-1.621-1.601c-2.473-2.364-6.411-5.46-11.872-8.246
					c-5.461-2.757-12.46-5.111-20.484-6.223c-8.022-1.14-16.999-0.941-26.279,0.188c-9.292,1.152-18.033,3.003-25.985,4.645
					c-7.951,1.658-15.137,3.065-21.224,3.939c-6.086,0.876-11.055,1.26-14.491,1.364c-1.719,0.049-3.053,0.067-3.958,0.042
					c-0.43-0.008-0.77-0.015-1.029-0.02c-0.232-0.007-0.35-0.016-0.35-0.025c0-0.009,0.119-0.019,0.351-0.029
					c0.259-0.008,0.598-0.019,1.028-0.032c0.904-0.01,2.235-0.06,3.95-0.14c3.427-0.167,8.379-0.605,14.446-1.526
					c6.068-0.919,13.236-2.361,21.181-4.045c7.946-1.667,16.697-3.536,26.02-4.692c9.312-1.133,18.336-1.32,26.409-0.147
					c8.073,1.145,15.109,3.552,20.584,6.37c5.476,2.846,9.404,6.008,11.845,8.427c0.596,0.614,1.128,1.162,1.593,1.642
					c0.451,0.485,0.797,0.928,1.092,1.27c0.274,0.332,0.491,0.594,0.656,0.793C235.601,466.894,235.672,466.989,235.665,466.995z"/>
			</g>
			<g>
				<path style="fill:#263238;" d="M235.665,470.507c-0.007,0.006-0.092-0.078-0.251-0.247c-0.175-0.191-0.404-0.441-0.695-0.759
					c-0.308-0.331-0.665-0.761-1.126-1.233c-0.473-0.467-1.014-1.002-1.621-1.601c-2.473-2.364-6.411-5.46-11.872-8.246
					c-5.461-2.757-12.46-5.111-20.484-6.223c-8.022-1.14-16.999-0.941-26.279,0.188c-9.292,1.152-18.033,3.003-25.985,4.645
					c-7.951,1.658-15.137,3.065-21.224,3.939c-6.086,0.876-11.055,1.26-14.491,1.364c-1.719,0.049-3.053,0.067-3.958,0.043
					c-0.43-0.008-0.77-0.015-1.029-0.02c-0.232-0.007-0.35-0.016-0.35-0.025c0-0.009,0.119-0.019,0.351-0.029
					c0.259-0.008,0.598-0.019,1.028-0.032c0.904-0.01,2.235-0.06,3.95-0.14c3.427-0.167,8.379-0.605,14.446-1.526
					c6.068-0.919,13.236-2.361,21.181-4.045c7.946-1.667,16.697-3.536,26.02-4.692c9.312-1.133,18.336-1.32,26.409-0.147
					c8.073,1.145,15.109,3.552,20.584,6.37c5.476,2.846,9.404,6.008,11.845,8.427c0.596,0.614,1.128,1.162,1.593,1.641
					c0.451,0.485,0.797,0.928,1.092,1.27c0.274,0.332,0.491,0.594,0.656,0.793C235.601,470.407,235.672,470.502,235.665,470.507z"/>
			</g>
			<g>
				<path style="fill:#263238;" d="M225.384,467.528c-0.012,0.013-0.204-0.128-0.557-0.408c-0.362-0.27-0.85-0.722-1.545-1.219
					c-1.35-1.046-3.399-2.443-6.091-3.876c-2.688-1.44-6.061-2.834-9.941-3.936c-3.879-1.102-8.267-1.871-12.91-2.209
					c-9.312-0.623-17.758,0.403-23.814,1.185c-2.986,0.42-5.423,0.763-7.18,1.01c-0.806,0.111-1.455,0.2-1.954,0.269
					c-0.448,0.056-0.684,0.077-0.687,0.059c-0.003-0.018,0.228-0.073,0.67-0.163c0.495-0.093,1.139-0.214,1.939-0.365
					c1.686-0.304,4.129-0.724,7.161-1.175c6.05-0.876,14.522-1.966,23.901-1.34c4.678,0.34,9.1,1.131,13.005,2.267
					c3.906,1.136,7.295,2.579,9.983,4.073c2.692,1.487,4.724,2.941,6.042,4.041c0.68,0.524,1.149,1.003,1.489,1.299
					C225.228,467.348,225.396,467.515,225.384,467.528z"/>
			</g>
		</g>
		<g>
			<g>
				<path style="fill:#FFBF9D;" d="M186.882,396.763l35.318-7.634c0,0,13.236-2.674,15.802-1.26
					c2.566,1.414,17.308,13.213,18.575,14.313c1.267,1.1,15.371,17.986,15.371,17.986s-0.321,5.351-8.061,3.204
					c-3.987-1.106-20.915-15.904-20.915-15.904l-3.941-3.109c0,0,6.174,9.558,6.048,12.7c-0.126,3.142-4.049,9.411-5.395,10.275
					c-1.346,0.864-8.117-0.325-8.117-0.325s-4.797,5.184-8.568,1.099c0,0-6.431,6.693-11.652,2.812l-2.796-5.488l-2.671-2.074
					c0,0-0.414,3.786-3.053,4.205c-2.639,0.419-31.637-5.842-31.637-5.842l10.022-27.33L186.882,396.763z"/>
				<g>
					<path style="fill:#FF9A6C;" d="M224.429,406.425c0.021-0.026,0.316,0.164,0.816,0.55c0.5,0.385,1.206,0.966,2.04,1.729
						c1.655,1.538,3.862,3.762,5.81,6.651c0.469,0.735,0.871,1.499,1.15,2.285c0.134,0.401,0.269,0.765,0.317,1.206
						c0.043,0.419,0.017,0.815-0.027,1.195c-0.199,1.515-0.643,2.8-1.061,3.855c-0.426,1.053-0.865,1.867-1.233,2.39
						c-0.367,0.526-0.658,0.745-0.675,0.723c-0.031-0.032,0.2-0.289,0.504-0.831c0.305-0.541,0.685-1.362,1.06-2.413
						c0.366-1.048,0.766-2.334,0.928-3.777c0.035-0.359,0.051-0.729,0.01-1.084c-0.035-0.337-0.175-0.728-0.302-1.091
						c-0.27-0.739-0.656-1.468-1.109-2.179c-1.895-2.811-4.055-5.08-5.626-6.665C225.438,407.391,224.378,406.487,224.429,406.425z"
						/>
				</g>
				<g>
					<path style="fill:#FF9A6C;" d="M206.202,409.567c-0.008-0.023,0.367-0.191,1.089-0.352c0.718-0.172,1.802-0.277,3.125-0.128
						c2.619,0.293,6.232,1.89,8.71,5.175c1.215,1.647,1.935,3.463,2.452,5.123c0.517,1.666,0.81,3.207,1.021,4.502
						c0.204,1.296,0.316,2.351,0.371,3.082c0.057,0.73,0.063,1.136,0.029,1.14c-0.084,0.01-0.271-1.599-0.762-4.157
						c-0.255-1.275-0.583-2.793-1.116-4.421c-0.532-1.622-1.252-3.385-2.413-4.957c-1.167-1.565-2.654-2.764-4.121-3.606
						c-1.473-0.846-2.956-1.309-4.222-1.515C207.799,409.065,206.219,409.695,206.202,409.567z"/>
				</g>
				<g>
					<path style="fill:#FF9A6C;" d="M227.116,396.052c-0.009-0.035,0.204-0.1,0.608-0.189c0.202-0.064,0.454-0.05,0.748-0.053
						c0.298-0.02,0.625,0.04,0.99,0.107c1.47,0.258,3.281,1.284,4.979,2.701c1.696,1.434,3.008,2.961,3.864,4.126
						c0.862,1.164,1.27,1.967,1.215,2c-0.067,0.042-0.581-0.682-1.504-1.772c-0.918-1.092-2.252-2.555-3.909-3.955
						c-1.659-1.385-3.365-2.412-4.728-2.742C228.021,395.906,227.134,396.159,227.116,396.052z"/>
				</g>
			</g>
			<path style="fill:#FF725E;" d="M180.676,390.692l-17.665-6.889l-32.55,1.67l-16.223,21.877l-6.51,31.509
				c0,0,59.609-13.091,61.5-13.265c1.891-0.174,4.927-3.241,4.927-3.241l6.364,1.329l8.147-27.305L180.676,390.692z"/>
			<g>
				<path style="fill:#263238;" d="M191.334,394.924c-0.003,0.008-0.085-0.014-0.241-0.066c-0.184-0.065-0.41-0.145-0.687-0.244
					c-0.639-0.24-1.516-0.568-2.624-0.984c-2.312-0.892-5.585-2.155-9.612-3.708c-4.064-1.588-8.884-3.472-14.231-5.562
					c-2.676-1.055-5.484-2.161-8.394-3.308c-2.899-1.163-5.915-2.346-9.117-3.135c-3.197-0.803-6.436-1.053-9.525-0.732
					c-3.088,0.312-6.013,1.079-8.678,2.105c-5.353,2.048-9.665,5-13.094,7.637c-3.432,2.658-6.03,5.037-7.847,6.651
					c-0.881,0.789-1.578,1.413-2.087,1.868c-0.222,0.193-0.403,0.35-0.55,0.478c-0.126,0.105-0.194,0.156-0.2,0.15
					c-0.006-0.007,0.049-0.07,0.163-0.189c0.138-0.138,0.307-0.307,0.515-0.516c0.493-0.473,1.168-1.121,2.021-1.94
					c1.776-1.661,4.339-4.085,7.758-6.792c3.415-2.686,7.74-5.696,13.149-7.795c2.693-1.051,5.658-1.841,8.8-2.165
					c3.14-0.335,6.458-0.081,9.699,0.734c3.248,0.8,6.283,1.997,9.184,3.168c2.906,1.157,5.71,2.273,8.383,3.336
					c5.332,2.129,10.137,4.047,14.189,5.665c4.001,1.618,7.254,2.933,9.55,3.862c1.092,0.454,1.956,0.813,2.587,1.074
					c0.27,0.118,0.489,0.214,0.668,0.292C191.263,394.877,191.338,394.916,191.334,394.924z"/>
			</g>
		</g>
		<g>
			<path style="fill:#FFBF9D;" d="M336.439,442.853c-0.709-1.19-0.987-2.886,0.734-4.911l4.76-2.127c0,0,1.114-2.937,2.329-4.051
				c1.215-1.114,3.038-2.532,3.038-2.532s2.633-3.646,5.165-5.165c2.532-1.519,8.709-3.139,10.836-4.962
				c2.127-1.823,8.81-7.696,13.469-5.468c4.658,2.228,8,10.06,11.646,11.714c3.646,1.654,4.962,7.122,6.38,9.35
				c1.418,2.228,2.937,3.848,3.139,5.57c0.202,1.721,4.152,5.165,4.861,9.823c0.709,4.658,0.304,6.279-1.823,8
				c-2.127,1.721-6.279,5.165-10.431,5.772c-2.33,0.341-5.52,0.554-7.872,0.676c-1.91,0.099-3.686-0.97-4.5-2.701l-0.286-0.608
				c0,0-10.633,5.367-15.696,4.658c-5.063-0.709-3.038-5.063-3.038-5.063s-5.165,4.962-8.405,4.051
				c-3.24-0.911-4.962-0.81-5.266-3.646c-0.304-2.835,2.12-6.086,2.12-6.086s-4.854,0.111-5.259-3.13
				c-0.405-3.241,1.316-6.684,1.316-6.684l-3.9-0.441C338.4,444.74,337.136,444.023,336.439,442.853z"/>
			<g>
				<path style="fill:#FF9A6C;" d="M363.648,421.146c0.033,0.015-0.14,0.422-0.483,1.151c-0.165,0.368-0.382,0.811-0.692,1.292
					c-0.302,0.485-0.614,1.062-1.055,1.631c-0.818,1.188-1.937,2.493-3.246,3.871c-1.324,1.363-2.846,2.79-4.459,4.261
					c-1.612,1.472-3.125,2.89-4.44,4.238c-1.293,1.365-2.406,2.646-3.216,3.814c-1.652,2.315-2.297,3.981-2.404,3.932
					c-0.033-0.014,0.125-0.427,0.442-1.167c0.152-0.374,0.354-0.824,0.649-1.314c0.287-0.494,0.581-1.081,1.009-1.661
					c0.784-1.212,1.883-2.536,3.171-3.935c1.309-1.379,2.822-2.818,4.436-4.291c1.614-1.471,3.136-2.879,4.467-4.212
					c1.315-1.346,2.448-2.609,3.292-3.753C362.834,422.73,363.546,421.095,363.648,421.146z"/>
			</g>
			<g>
				<path style="fill:#FF9A6C;" d="M376.835,425.54c0.016,0.007-0.027,0.149-0.126,0.413c-0.097,0.265-0.252,0.651-0.469,1.14
					c-0.434,0.978-1.106,2.379-2.091,4.026c-0.986,1.644-2.278,3.54-3.942,5.461c-1.654,1.928-3.724,3.835-6.052,5.604
					c-2.329,1.772-4.644,3.311-6.716,4.748c-2.075,1.432-3.905,2.772-5.372,3.982c-1.482,1.194-2.56,2.295-3.317,3.043
					c-0.717,0.784-1.125,1.214-1.154,1.191c-0.027-0.022,0.327-0.495,1.004-1.328c0.715-0.795,1.765-1.948,3.229-3.188
					c1.449-1.256,3.27-2.636,5.335-4.093c2.062-1.462,4.364-3.011,6.675-4.769c2.31-1.756,4.352-3.618,6.007-5.506
					c1.663-1.88,2.973-3.733,3.989-5.338c1.016-1.608,1.733-2.973,2.221-3.92C376.545,426.058,376.796,425.523,376.835,425.54z"/>
			</g>
			<g>
				<path style="fill:#FF9A6C;" d="M378.47,426.804c0.095,0.108-0.674,0.942-1.719,1.863c-1.044,0.921-1.968,1.58-2.063,1.472
					c-0.095-0.108,0.674-0.942,1.719-1.863C377.451,427.355,378.375,426.696,378.47,426.804z"/>
			</g>
			<g>
				<path style="fill:#FF9A6C;" d="M384.767,439.017c0.026,0.008-0.087,0.479-0.403,1.293c-0.308,0.817-0.871,1.958-1.74,3.26
					c-1.719,2.623-4.891,5.68-8.91,8.226c-3.996,2.564-7.73,4.662-10.342,6.325c-1.312,0.822-2.36,1.509-3.079,1.992
					c-0.72,0.482-1.121,0.746-1.144,0.715c-0.02-0.027,0.34-0.346,1.026-0.88c0.685-0.535,1.706-1.271,2.997-2.136
					c2.571-1.749,6.286-3.903,10.259-6.453c3.981-2.523,7.125-5.477,8.892-7.999C384.119,440.851,384.662,438.97,384.767,439.017z"
					/>
			</g>
			<g>
				<path style="fill:#FF9A6C;" d="M395.115,445.594c0.031,0.018-0.113,0.318-0.401,0.845c-0.285,0.529-0.74,1.272-1.349,2.158
					c-1.207,1.778-3.081,4.108-5.481,6.358c-1.206,1.118-2.426,2.104-3.578,2.943c-1.172,0.811-2.252,1.508-3.214,1.997
					c-0.47,0.264-0.913,0.467-1.304,0.643c-0.386,0.183-0.726,0.325-1.012,0.423c-0.565,0.208-0.883,0.306-0.896,0.272
					c-0.034-0.085,1.196-0.581,3.031-1.659c0.927-0.522,1.971-1.243,3.111-2.063c1.121-0.849,2.315-1.832,3.505-2.936
					c2.369-2.221,4.264-4.484,5.537-6.193C394.344,446.677,395.042,445.55,395.115,445.594z"/>
			</g>
			<g>
				<path style="fill:#FF9A6C;" d="M346.106,434.138c0.039,0.117-1.939,1-4.406,2.046c-2.476,1.034-4.474,1.851-4.527,1.758
					c-0.087-0.159,1.848-1.204,4.324-2.237C343.968,434.656,346.052,433.982,346.106,434.138z"/>
			</g>
		</g>
	</g>
	<g>
		<path style="fill:#FF725E;" d="M348.996,415.568c2.877,0,5.208,0.074,5.208,0.166s-2.331,0.166-5.208,0.166
			c-2.875,0-5.207-0.074-5.207-0.166S346.121,415.568,348.996,415.568z"/>
	</g>
</g>
</svg>
