<?xml version="1.0" encoding="utf-8"?>
<!-- Generator: Adobe Illustrator 27.5.0, SVG Export Plug-In . SVG Version: 6.00 Build 0)  -->
<svg version="1.1" xmlns="http://www.w3.org/2000/svg" xmlns:xlink="http://www.w3.org/1999/xlink" x="0px" y="0px"
	 viewBox="0 0 500 500" style="enable-background:new 0 0 500 500;" xml:space="preserve">
<g id="BACKGROUND">
	<rect x="-0.001" style="fill:#FFFFFF;" width="500" height="500"/>
</g>
<g id="OBJECTS">
	<g>
		<polygon style="fill:#0D3769;" points="207.268,349.693 193.506,441.694 315.565,441.694 300.496,336.22 		"/>
		<g>
			<polygon style="fill:#F23C55;" points="322.659,227.98 320.799,249.15 319.799,260.47 319.499,263.87 295.699,265.78 
				309.359,362.41 201.959,362.56 214.609,280.1 196.289,285.68 195.399,282.36 192.809,272.74 186.979,251.04 226.449,229.31 
				252.999,230.71 274.659,222.34 			"/>
			<circle style="opacity:0.2;fill:#182339;" cx="255.312" cy="295.61" r="26.92"/>
			<circle style="fill:#0D3769;" cx="255.312" cy="295.61" r="16.62"/>
			<g>
				<circle style="fill:#0D3769;" cx="275.308" cy="118.426" r="17.785"/>
				
					<ellipse transform="matrix(0.2298 -0.9732 0.9732 0.2298 72.6765 363.1559)" style="fill:#F23C55;" cx="265.772" cy="135.663" rx="12.486" ry="12.486"/>
				<path style="fill:#0D3769;" d="M215.268,169.777c0,0-8.356-47.47,34.313-47.647c42.669-0.178,36.624,46.581,36.624,46.581
					L215.268,169.777z"/>
				<path style="fill:#FFE9C4;" d="M274.661,222.339c0,0-7.094,11.915-19.861,13.188c-12.758,1.281-28.354-6.216-28.354-6.216
					l15.384-9.238v-16.306h22.33v16.306L274.661,222.339z"/>
				<circle style="fill:#FFE9C4;" cx="217.757" cy="177.066" r="10.49"/>
				<circle style="fill:#FFE9C4;" cx="283.679" cy="177.066" r="10.49"/>
				<path style="fill:#FFC4A7;" d="M289.14,177.066c0,3.016-2.445,5.462-5.461,5.462s-5.461-2.445-5.461-5.462
					c0-3.016,2.445-5.461,5.461-5.461S289.14,174.05,289.14,177.066z"/>
				<path style="fill:#FFC4A7;" d="M264.16,203.768v7.422c-9.071,3.695-18.072,2.203-22.33,1.102v-8.524H264.16z"/>
				<path style="fill:#FFC4A7;" d="M223.219,177.066c0,3.016-2.445,5.462-5.461,5.462c-3.016,0-5.462-2.445-5.462-5.462
					c0-3.016,2.445-5.461,5.462-5.461C220.773,171.605,223.219,174.05,223.219,177.066z"/>
				<ellipse style="fill:#FFE9C4;" cx="251.003" cy="172.799" rx="31.228" ry="36.98"/>
				<circle style="fill:#0D3769;" cx="237.047" cy="173.066" r="3.289"/>
				<path style="fill:#0D3769;" d="M267.442,173.066c0,1.816-1.473,3.289-3.289,3.289c-1.816,0-3.289-1.473-3.289-3.289
					s1.473-3.289,3.289-3.289C265.97,169.777,267.442,171.249,267.442,173.066z"/>
				<path style="fill:#0D3769;" d="M253.315,184.466h-5.557l1.007-9.462c0.058-0.549,0.552-0.939,1.1-0.889
					c0.549,0.059,0.947,0.551,0.889,1.101l-0.772,7.25h3.333c0.552,0,1,0.448,1,1C254.315,184.019,253.867,184.466,253.315,184.466z
					"/>
				<path style="fill:#0D3769;" d="M251.464,191.683c-0.674,0-1.296-0.042-1.835-0.113c-0.547-0.071-0.933-0.572-0.862-1.12
					c0.07-0.547,0.575-0.935,1.119-0.864c0.343,0.044,8.429,1.008,10.013-4.784c0.145-0.533,0.696-0.85,1.228-0.701
					c0.533,0.146,0.847,0.695,0.701,1.228C260.445,190.392,255.175,191.683,251.464,191.683z"/>
				<path style="fill:#0D3769;" d="M219.895,166.577c0,0,33.419,0,42.936-21.968c11.04,18.567,18.979,22.137,18.979,22.137
					l0.422-16.139l-26.92-20.574l-21.554,2.007l-14.949,16.109L219.895,166.577z"/>
				<ellipse style="fill:#0D3769;" cx="237.213" cy="163.118" rx="6.848" ry="3.628"/>
				<path style="fill:#0D3769;" d="M271.445,162.507c-0.547,1.928-3.94,2.654-7.578,1.622c-3.639-1.032-6.145-3.431-5.599-5.359
					c0.547-1.928,3.94-2.654,7.579-1.622C269.485,158.18,271.992,160.579,271.445,162.507z"/>
			</g>
			<path style="fill:#FFE9C4;" d="M195.399,282.36c0,0-44.67,13.75-50.09,10.13c-0.73-0.48-1.74-2.44-2.94-5.4
				c-6.42-15.95-18.11-61.19-19.12-63.54c-4.69-4.12-6.18-10.05-6.18-10.05s-9.07-5.36-9.74-6.43c-0.67-1.07,0.28-2.76,1.64-3.1
				c1.43-0.36,9.6,4.42,9.6,4.42s-7.77-9.38-7.91-10.86c-0.13-1.48,1.21-2.94,2.55-2.53c1.34,0.4,8.71,10.18,8.71,10.18
				s-4.45-12.9-4.32-14.24c0.13-1.34,2.68-2.6,3.62-2.02c0.94,0.57,5.92,15.85,5.92,15.85s-1.07-13.39-0.8-14.6
				c0.26-1.2,2.76-1.67,3.84-1.13c1.07,0.53,3.93,18.82,3.93,18.82s6.16-5.76,7.1-6.28c0.93-0.52,3.48-0.42,4.15,1.19
				c0.67,1.6-8.28,15.91-8.28,15.91l19.67,46.61l30.23-14.25l5.83,21.7L195.399,282.36z"/>
			<path style="fill:#FFE9C4;" d="M399.029,188.44c0,0,0,5.25-4.55,9.52c-0.83,2.11-9.84,31.5-15.85,47.93
				c-2.02,5.52-3.7,9.59-4.62,10.66c-4.24,4.95-54.21,3.92-54.21,3.92l1-11.32l1.86-21.17v-0.05l33.28,3.06l24.55-37.42
				c0,0-2.19-10.76,2.9-13.92C388.489,176.49,399.029,188.44,399.029,188.44z"/>
			<g>
				<g>
					
						<rect x="342.233" y="78.114" transform="matrix(0.8379 -0.5458 0.5458 0.8379 5.0624 229.8456)" style="fill:#2F5691;" width="94.616" height="56.569"/>
					<polygon style="fill:#FFFFFF;" points="361.854,150.572 365.337,155.919 374.352,150.047 388.711,120.635 390.478,117.017 
						391.28,115.368 393.038,111.768 394.235,109.315 395.57,106.582 395.597,106.526 397.365,102.901 397.552,102.521 
						398.512,100.555 402.791,91.789 405.74,85.745 417.225,62.222 413.745,56.879 404.721,62.756 390.368,92.158 388.6,95.783 
						387.794,97.435 386.041,101.025 384.844,103.479 383.669,105.887 383.48,106.274 381.714,109.892 381.681,109.957 
						380.565,112.245 376.288,121.004 373.337,127.055 					"/>
					<polygon style="fill:#F23C55;" points="388.551,106.754 388.666,106.843 389.475,107.467 390.995,108.631 391.778,109.234 
						393.027,106.677 394.169,104.334 395.009,102.617 395.937,100.709 395.969,100.651 399.132,94.173 402.081,88.129 
						415.797,60.029 413.745,56.879 412.503,57.687 395.572,92.369 393.401,96.816 392.622,98.412 391.634,100.441 391.447,100.821 
						390.487,102.787 390.071,103.637 389.075,105.683 					"/>
					<polygon style="fill:#F23C55;" points="363.083,152.459 365.337,155.919 366.053,155.453 382.98,120.774 385.473,115.663 
						385.935,114.72 387.24,112.046 387.271,111.987 388.387,109.7 389.475,107.467 389.803,106.801 390.301,105.778 
						390.999,104.347 390.071,103.637 389.038,102.843 387.775,101.871 387.27,102.912 386.492,104.501 385.855,105.803 
						384.707,108.157 383.867,109.874 382.94,111.774 382.752,112.161 379.439,118.952 376.484,125.005 					"/>
					<polygon style="fill:#FFFFFF;" points="334.463,108.518 337.943,113.861 364.097,112.869 370.818,112.615 380.565,112.245 
						382.752,112.161 383.182,112.146 387.205,111.993 387.271,111.987 390.306,111.873 393.038,111.768 397.038,111.618 
						398.867,111.547 402.897,111.395 435.604,110.152 444.619,104.28 441.139,98.937 414.984,99.928 408.253,100.184 
						398.512,100.555 395.969,100.651 395.9,100.652 391.873,100.808 391.447,100.821 388.769,100.922 386.041,101.025 
						382.044,101.18 380.208,101.249 376.185,101.402 343.487,102.64 					"/>
					<polygon style="fill:#F23C55;" points="334.463,108.518 336.515,111.669 367.757,110.486 374.481,110.228 381.681,109.957 
						381.754,109.954 383.867,109.874 385.777,109.801 388.387,109.7 391.226,109.594 390.995,108.631 390.54,106.774 
						390.301,105.778 390.266,105.637 389.075,105.683 386.801,105.767 385.855,105.803 383.669,105.887 383.238,105.903 
						380.991,105.989 379.216,106.056 374.266,106.246 335.7,107.712 					"/>
					<polygon style="fill:#F23C55;" points="387.075,106.904 388.666,106.843 389.803,106.801 390.54,106.774 393.027,106.677 
						395.57,106.582 395.632,106.579 398.61,106.465 399.659,106.424 405.342,106.209 443.903,104.746 444.619,104.28 
						442.365,100.82 411.838,101.978 405.106,102.234 397.552,102.521 397.126,102.535 395.009,102.617 393.099,102.69 
						390.487,102.787 389.038,102.843 387.27,102.912 386.114,102.954 386.492,104.501 386.801,105.767 					"/>
					
						<rect x="381.075" y="78.116" transform="matrix(-0.8379 0.5458 -0.5458 -0.8379 774.0184 -17.0485)" style="fill:#FFFFFF;" width="16.931" height="56.565"/>
					
						<rect x="381.075" y="59.092" transform="matrix(0.5458 0.8379 -0.8379 0.5458 266.094 -278.0793)" style="fill:#FFFFFF;" width="16.931" height="94.613"/>
					
						<rect x="384.533" y="78.116" transform="matrix(-0.8379 0.5458 -0.5458 -0.8379 774.0184 -17.0484)" style="fill:#F23C55;" width="10.016" height="56.565"/>
					
						<rect x="384.532" y="59.092" transform="matrix(0.5458 0.8379 -0.8379 0.5458 266.0929 -278.0789)" style="fill:#F23C55;" width="10.016" height="94.613"/>
				</g>
				<path style="fill:#0D3769;" d="M403.662,214.76l5.065-3.299l-69.444-106.617c-0.911-1.398-2.783-1.794-4.182-0.883l0,0
					c-1.398,0.911-1.794,2.783-0.883,4.182L403.662,214.76z"/>
			</g>
			<path style="fill:#FFE9C4;" d="M386.002,180.642c-0.186,1.604,1.001,2.589,2.607,2.613c1.607,0.023,7.766-6.782,7.497-8.155
				c-0.269-1.373-3.488-4.326-5.092-2.897C389.41,173.633,386.184,179.077,386.002,180.642z"/>
			<path style="fill:#FFE9C4;" d="M388.973,183.159c-0.704,1.635,0.229,3.055,1.908,3.593c1.679,0.538,9.821-6.1,9.973-7.637
				c0.153-1.536-1.622-5.051-3.758-4.053C394.958,176.062,389.659,181.563,388.973,183.159z"/>
			<path style="fill:#FFE9C4;" d="M391.453,186.213c-0.875,1.356-0.255,2.766,1.165,3.5c1.42,0.733,9.698-3.977,10.066-5.328
				c0.368-1.351-0.69-4.761-2.751-4.189C397.872,180.767,392.307,184.889,391.453,186.213z"/>
			<path style="fill:#FFE9C4;" d="M393.724,189.231c-0.97,0.968-0.71,2.25,0.337,3.114c1.047,0.864,8.765-1.554,9.313-2.609
				c0.548-1.055,0.284-4.075-1.529-3.972C400.032,185.868,394.671,188.287,393.724,189.231z"/>
			<path style="fill:#FFE9C4;" d="M380.391,175.202c1.654-3.881,4.618-2.575,5.22-1.531c0.602,1.044-0.766,8.283-0.766,8.283
				s7.224,7.03,5.909,13.781c-1.315,6.751-6.466-2.297-6.466-2.297l-3.8,0.136C380.488,193.574,376.833,183.554,380.391,175.202z"/>
		</g>
		<path style="opacity:0.2;fill:#9E2339;" d="M217.466,264.882l-2.857,15.218l-18.32,5.58l-0.89-3.32c0,0-44.67,13.75-50.09,10.13
			c-0.73-0.48-1.74-2.44-2.94-5.4l50.44-14.35L217.466,264.882z"/>
		<path style="opacity:0.2;fill:#9E2339;" d="M378.629,245.89c-2.02,5.52-3.7,9.59-4.62,10.66c-4.24,4.95-54.21,3.92-54.21,3.92
			l-0.3,3.4l-23.8,1.91l-2.61-15.07l27.71-1.56L378.629,245.89z"/>
	</g>
	<g>
		<rect x="24.77" y="199.489" style="fill:#4577B6;" width="63.184" height="221.703"/>
		<rect x="29.66" y="207.396" style="opacity:0.2;fill:#182339;" width="6.089" height="6.089"/>
		<rect x="45.431" y="207.396" style="opacity:0.2;fill:#182339;" width="6.089" height="6.089"/>
		<rect x="61.203" y="207.396" style="opacity:0.2;fill:#182339;" width="6.089" height="6.089"/>
		<rect x="76.975" y="207.396" style="opacity:0.2;fill:#182339;" width="6.089" height="6.089"/>
		<rect x="31.469" y="283.104" style="opacity:0.2;fill:#182339;" width="5.866" height="134.234"/>
		<rect x="42.511" y="283.104" style="opacity:0.2;fill:#182339;" width="5.866" height="134.234"/>
		<rect x="53.553" y="283.104" style="opacity:0.2;fill:#182339;" width="5.866" height="134.234"/>
		<rect x="64.595" y="283.104" style="opacity:0.2;fill:#182339;" width="5.866" height="134.234"/>
		<rect x="75.636" y="283.104" style="opacity:0.2;fill:#182339;" width="5.866" height="134.234"/>
		<path style="fill:#0D3769;" d="M84.642,219.21H28.082c-4.346,0-7.868,3.523-7.868,7.868v56.56c0,4.346,3.523,7.868,7.868,7.868
			h56.559c4.346,0,7.868-3.523,7.868-7.868v-56.56C92.51,222.733,88.987,219.21,84.642,219.21z"/>
		<path style="fill:#F23C55;" d="M83.202,286.179h-53.68v-0.5c0-1.919-1.562-3.48-3.481-3.48h-0.5v-53.68h0.5
			c1.919,0,3.481-1.562,3.481-3.481v-0.5h53.68v0.5c0,1.919,1.562,3.481,3.481,3.481h0.5v53.68h-0.5c-1.92,0-3.481,1.562-3.481,3.48
			V286.179z M30.494,285.179H82.23c0.231-2.072,1.881-3.722,3.953-3.953V229.49c-2.072-0.231-3.722-1.881-3.953-3.953H30.494
			c-0.231,2.072-1.881,3.722-3.953,3.953v51.735C28.613,281.457,30.263,283.106,30.494,285.179z"/>
		<rect x="24.77" y="404.949" style="fill:#0D3769;" width="63.184" height="16.243"/>
		<circle style="fill:#FFFFFF;" cx="56.362" cy="255.358" r="18.915"/>
		<path style="fill:#F23C55;" d="M56.362,278.065c-12.521,0-22.708-10.186-22.708-22.707c0-12.521,10.187-22.708,22.708-22.708
			s22.708,10.187,22.708,22.708C79.07,267.879,68.883,278.065,56.362,278.065z M56.362,233.65c-11.97,0-21.708,9.738-21.708,21.708
			s9.738,21.707,21.708,21.707c11.97,0,21.708-9.737,21.708-21.707S68.332,233.65,56.362,233.65z"/>
		<path style="fill:#0D3769;" d="M56.362,85.816L56.362,85.816c-0.489,0-0.886,0.397-0.886,0.886v42.017h1.772V86.702
			C57.248,86.213,56.851,85.816,56.362,85.816z"/>
		<path style="fill:#0D3769;" d="M56.537,256.677l-7.378-4.92c-0.46-0.306-0.583-0.927-0.277-1.386
			c0.306-0.46,0.927-0.585,1.387-0.277l5.919,3.947l8.326-9.516c0.364-0.414,0.995-0.457,1.411-0.094
			c0.415,0.364,0.458,0.995,0.094,1.411L56.537,256.677z"/>
		<path style="fill:#0D3769;" d="M59.945,255.358c0-1.979-1.604-3.583-3.583-3.583c-1.979,0-3.583,1.604-3.583,3.583
			c0,1.979,1.604,3.583,3.583,3.583C58.34,258.941,59.945,257.337,59.945,255.358z"/>
		<polygon style="fill:#F23C55;" points="74.303,177.5 38.42,177.5 24.77,201.58 87.954,201.58 		"/>
		<rect x="38.42" y="157.534" style="fill:#B83450;" width="35.883" height="19.966"/>
		<polygon style="fill:#0D3769;" points="38.42,157.534 56.362,118.898 74.303,157.534 		"/>
		<path style="fill:#0D3769;" d="M90.419,197.397H22.305c-1.155,0-2.091,0.936-2.091,2.091l0,0c0,1.155,0.936,2.091,2.091,2.091
			h68.114c1.155,0,2.091-0.936,2.091-2.091l0,0C92.51,198.334,91.574,197.397,90.419,197.397z"/>
		<path style="opacity:0.2;fill:#182339;" d="M44.222,173.799h-0.789c-0.597,0-1.082-0.484-1.082-1.082v-9.855
			c0-0.597,0.484-1.082,1.082-1.082h0.789c0.597,0,1.082,0.484,1.082,1.082v9.855C45.304,173.314,44.82,173.799,44.222,173.799z"/>
		<path style="opacity:0.2;fill:#182339;" d="M50.568,173.799h-0.79c-0.597,0-1.082-0.484-1.082-1.082v-9.855
			c0-0.597,0.484-1.082,1.082-1.082h0.79c0.597,0,1.082,0.484,1.082,1.082v9.855C51.65,173.314,51.166,173.799,50.568,173.799z"/>
		<path style="opacity:0.2;fill:#182339;" d="M56.915,173.799h-0.789c-0.597,0-1.082-0.484-1.082-1.082v-9.855
			c0-0.597,0.484-1.082,1.082-1.082h0.789c0.597,0,1.082,0.484,1.082,1.082v9.855C57.996,173.314,57.512,173.799,56.915,173.799z"/>
		<path style="opacity:0.2;fill:#182339;" d="M63.261,173.799h-0.789c-0.597,0-1.082-0.484-1.082-1.082v-9.855
			c0-0.597,0.484-1.082,1.082-1.082h0.789c0.597,0,1.082,0.484,1.082,1.082v9.855C64.342,173.314,63.858,173.799,63.261,173.799z"/>
		<path style="opacity:0.2;fill:#182339;" d="M69.607,173.799h-0.79c-0.597,0-1.082-0.484-1.082-1.082v-9.855
			c0-0.597,0.484-1.082,1.082-1.082h0.79c0.597,0,1.082,0.484,1.082,1.082v9.855C70.688,173.314,70.204,173.799,69.607,173.799z"/>
		<circle style="fill:#0D3769;" cx="56.362" cy="120.499" r="5.028"/>
		<circle style="fill:#0D3769;" cx="56.362" cy="114.797" r="2.771"/>
	</g>
	<rect y="421.192" style="fill:#92B8DB;" width="500" height="78.808"/>
	<ellipse style="opacity:0.2;fill:#182339;" cx="250.807" cy="450.566" rx="175.755" ry="15.589"/>
	<g>
		<path style="fill:#DBE6E9;" d="M250.889,436.636c0,0,17.052-125.407-146.578-146.137l-4.997,11.474
			C246.089,324.642,250.889,436.636,250.889,436.636z"/>
		<path style="fill:#C1D4E0;" d="M250.889,414.789c0,0-28.473-94.734-173.808-97.823C64.131,342.98,64.131,342.98,64.131,342.98
			L250.889,414.789z"/>
		<path style="fill:#DBE6E9;" d="M45.162,348.931l10.839-18.145c0,0,116.089-3.252,194.888,84.003c0,16.8,0,21.848,0,21.848
			L45.162,348.931z"/>
		<path style="fill:#DBE6E9;" d="M250.725,436.636c0,0-17.052-125.407,146.578-146.137l4.997,11.474
			C255.525,324.642,250.725,436.636,250.725,436.636z"/>
		<path style="fill:#C1D4E0;" d="M250.725,414.789c0,0,28.473-94.734,173.808-97.823c12.951,26.014,12.951,26.014,12.951,26.014
			L250.725,414.789z"/>
		<path style="fill:#DBE6E9;" d="M456.452,348.931l-10.839-18.145c0,0-116.089-3.252-194.888,84.003c0,16.8,0,21.848,0,21.848
			L456.452,348.931z"/>
		<path style="fill:#0D3769;" d="M472.249,346.308c-1.405-3.459-4.73-5.549-8.25-5.549c-1.124,0-2.261,0.208-3.361,0.66
			l-186.022,75.746h-0.012l-13.519,5.146l-10.28,3.911l-10.28-3.911l-13.519-5.146c-0.001,0.001-0.001,0.003-0.002,0.004
			L40.982,341.414c-4.56-1.857-9.761,0.334-11.618,4.894l0,0c-1.857,4.56,0.334,9.761,4.893,11.618l189.621,77.22
			c2.163,12.907,13.396,22.746,26.927,22.746c13.531,0,24.763-9.84,26.927-22.747l189.628-77.225
			C471.919,356.074,474.107,350.867,472.249,346.308z"/>
		<polyline style="fill:#F23C55;" points="145.128,363.568 127.162,407.023 138.402,406.243 145.986,414.789 163.721,370.331 
			145.128,363.568 		"/>
		<path style="opacity:0.2;fill:#182339;" d="M265.241,439.447c-2.921,4.571-8.055,7.603-13.885,7.603
			c-6.087,0-11.404-3.312-14.252-8.226l13.701-12.602L265.241,439.447z"/>
		<path style="fill:#C1D4E0;" d="M276.192,404.996l126.108-54.7C402.3,350.296,315.281,371.168,276.192,404.996z"/>
		<path style="fill:#C1D4E0;" d="M84.652,343.741l90.703,33.905C175.355,377.646,137.23,344.785,84.652,343.741z"/>
	</g>
	<path style="fill:#92B8DB;" d="M480.759,254.83c0,2.81-0.32,5.55-0.93,8.18c-3.71,16.02-18.06,27.96-35.21,27.96
		c-5.5,0-10.71-1.23-15.38-3.43l-12.82,10.88l3.25-17.45c-3.52-3.36-6.36-7.42-8.3-11.96c-1.86-4.35-2.89-9.14-2.89-14.18
		c0-19.95,16.18-36.13,36.14-36.13C464.579,218.7,480.759,234.88,480.759,254.83z"/>
	<path style="fill:#92B8DB;" d="M103.793,134.486c0,2.81,0.32,5.55,0.93,8.18c3.71,16.02,18.06,27.96,35.21,27.96
		c5.5,0,10.71-1.23,15.38-3.43l12.82,10.88l-3.25-17.45c3.52-3.36,6.36-7.42,8.3-11.96c1.86-4.35,2.89-9.14,2.89-14.18
		c0-19.95-16.18-36.13-36.14-36.13C119.973,98.356,103.793,114.536,103.793,134.486z"/>
	<g>
		<ellipse style="opacity:0.2;fill:#182339;" cx="66.941" cy="474.433" rx="44.665" ry="6.042"/>
		<g>
			<path style="fill:#F23C55;" d="M92.443,393.066V464.9c0,2.312-1.878,4.182-4.182,4.182H45.622c-2.312,0-4.182-1.87-4.182-4.182
				v-71.834H92.443z"/>
			<path style="fill:#0D3769;" d="M96.381,391.632v2.549c0,1.107-0.893,1.999-1.992,1.999H38.807c-1.099,0-1.992-0.893-1.992-1.999
				v-2.549c0-1.099,0.893-1.992,1.992-1.992h55.582C95.488,389.64,96.381,390.533,96.381,391.632z"/>
			<path style="fill:#F23C55;" d="M100.318,407.757c-2.419-1.137-5.075-1.839-7.876-2.007c-0.458-0.031-0.916-0.046-1.374-0.046
				c-12.089,0-21.896,9.799-21.896,21.888c0,12.089,9.807,21.896,21.896,21.896c0.458,0,0.916-0.015,1.374-0.046
				c2.801-0.168,5.457-0.87,7.876-2.007c7.464-3.48,12.638-11.058,12.638-19.842C112.957,418.808,107.782,411.237,100.318,407.757z
				 M100.318,437.773c-2.122,1.931-4.854,3.213-7.876,3.511c-0.45,0.046-0.908,0.069-1.374,0.069
				c-7.593,0-13.752-6.166-13.752-13.76s6.159-13.745,13.752-13.745c0.465,0,0.924,0.023,1.374,0.069
				c3.022,0.298,5.754,1.572,7.876,3.503c2.77,2.518,4.503,6.144,4.503,10.173C104.821,431.622,103.089,435.254,100.318,437.773z"/>
			<g>
				<circle style="fill:#2F5691;" cx="63.799" cy="429.195" r="16.342"/>
				<path style="fill:#FFFFFF;" d="M63.799,436.714l-6.36-6.36c-1.417-1.417-1.417-3.714,0-5.131c1.417-1.417,3.714-1.417,5.131,0
					l1.229,1.229l1.229-1.229c1.417-1.417,3.714-1.417,5.131,0c1.417,1.417,1.417,3.714,0,5.131L63.799,436.714z"/>
			</g>
		</g>
		<path style="opacity:0.2;fill:#182339;" d="M100.318,407.757v9.662c-2.122-1.931-4.854-3.205-7.876-3.503v-8.166
			C95.243,405.918,97.899,406.62,100.318,407.757z"/>
		<path style="opacity:0.2;fill:#182339;" d="M100.318,437.773v9.662c-2.419,1.137-5.075,1.839-7.876,2.007v-8.158
			C95.465,440.986,98.197,439.704,100.318,437.773z"/>
		<path style="opacity:0.2;fill:#182339;" d="M96.381,392.906v1.275c0,1.107-0.893,1.999-1.992,1.999h-1.946v5.266H41.44v-5.266
			h-2.633c-1.099,0-1.992-0.893-1.992-1.999v-1.275H96.381z"/>
		<path style="fill:#0D3769;" d="M102.803,463.731H31.079l0,0c0,5.911,4.792,10.702,10.702,10.702h50.319
			C98.012,474.433,102.803,469.642,102.803,463.731L102.803,463.731z"/>
	</g>
	<ellipse style="opacity:0.2;fill:#182339;" cx="396.502" cy="477.061" rx="84.409" ry="8.67"/>
	<g>
		<g>
			
				<rect x="384.205" y="395.837" transform="matrix(-1.836970e-16 1 -1 -1.836970e-16 861.2662 64.262)" style="fill:#B83450;" width="28.593" height="133.854"/>
			
				<rect x="434.997" y="458.914" transform="matrix(-1.836970e-16 1 -1 -1.836970e-16 912.058 13.4702)" style="fill:#F23C55;" width="28.593" height="7.7"/>
			
				<rect x="421.425" y="458.914" transform="matrix(-1.836970e-16 1 -1 -1.836970e-16 898.486 27.0422)" style="fill:#F23C55;" width="28.593" height="7.7"/>
			<path style="fill:#F23C55;" d="M410.126,466.456v-7.383c-1.833,0-3.319-1.486-3.319-3.319h-50.931
				c0,1.833-1.486,3.319-3.319,3.319v7.383c1.833,0,3.319,1.486,3.319,3.319h50.931
				C406.808,467.941,408.293,466.456,410.126,466.456z"/>
		</g>
		<g>
			<g>
				
					<rect x="407.709" y="375.035" transform="matrix(-1.836970e-16 1 -1 -1.836970e-16 856.1769 20.9333)" style="fill:#0D3769;" width="19.825" height="127.04"/>
				
					<rect x="454.615" y="433.842" transform="matrix(-1.836970e-16 1 -1 -1.836970e-16 903.0826 -25.9725)" style="fill:#2F5691;" width="19.825" height="9.426"/>
				
					<rect x="360.201" y="433.842" transform="matrix(-1.836970e-16 1 -1 -1.836970e-16 808.6685 68.4417)" style="fill:#2F5691;" width="19.825" height="9.426"/>
			</g>
			<rect x="388.495" y="433.429" style="fill:#4577B6;" width="58.253" height="10.252"/>
		</g>
		<g>
			
				<rect x="415.942" y="369.876" transform="matrix(-1.836970e-16 1 -1 -1.836970e-16 844.5847 -16.6193)" style="fill:#F23C55;" width="29.32" height="88.214"/>
			
				<ellipse transform="matrix(0.9732 -0.2298 0.2298 0.9732 -83.4532 111.2188)" style="fill:#B83450;" cx="435.88" cy="413.983" rx="11.59" ry="11.59"/>
			
				<rect x="448.512" y="410.71" transform="matrix(-1.836970e-16 1 -1 -1.836970e-16 877.1552 -49.1898)" style="fill:#B83450;" width="29.32" height="6.545"/>
			
				<rect x="394.602" y="410.71" transform="matrix(-1.836970e-16 1 -1 -1.836970e-16 823.2444 4.721)" style="fill:#B83450;" width="29.32" height="6.545"/>
			
				<rect x="382.953" y="410.71" transform="matrix(-1.836970e-16 1 -1 -1.836970e-16 811.5958 16.3696)" style="fill:#B83450;" width="29.32" height="6.545"/>
		</g>
	</g>
	<ellipse style="opacity:0.2;fill:#182339;" cx="189.435" cy="476.433" rx="65.961" ry="6.042"/>
	<g>
		<path style="fill:#92B8DB;" d="M321.079,147.161c-0.02,2.395-1.978,4.321-4.374,4.301c2.395,0.02,4.321,1.978,4.301,4.374
			c0.02-2.395,1.978-4.321,4.374-4.301C322.985,151.514,321.059,149.556,321.079,147.161z"/>
		<path style="fill:#92B8DB;" d="M172.304,223.229c-0.02,2.395-1.978,4.321-4.374,4.301c2.395,0.02,4.321,1.978,4.301,4.374
			c0.02-2.396,1.978-4.321,4.374-4.301C174.21,227.583,172.284,225.624,172.304,223.229z"/>
		<path style="fill:#92B8DB;" d="M474.745,184.808c-0.02,2.395-1.978,4.321-4.374,4.301c2.395,0.02,4.321,1.978,4.301,4.374
			c0.02-2.395,1.978-4.321,4.374-4.301C476.651,189.162,474.725,187.204,474.745,184.808z"/>
		<path style="fill:#92B8DB;" d="M26.393,78.719c-0.02,2.395-1.978,4.321-4.374,4.301c2.395,0.02,4.321,1.978,4.301,4.374
			c0.02-2.395,1.978-4.321,4.374-4.301C28.299,83.073,26.373,81.115,26.393,78.719z"/>
		<path style="fill:#92B8DB;" d="M445.635,34.07c-0.02,2.395-1.978,4.321-4.374,4.301c2.395,0.02,4.321,1.978,4.301,4.374
			c0.02-2.395,1.978-4.321,4.374-4.301C447.541,38.423,445.615,36.465,445.635,34.07z"/>
		<path style="fill:#92B8DB;" d="M383.235,15.645c-0.02,2.395-1.978,4.321-4.374,4.301c2.395,0.02,4.321,1.978,4.301,4.374
			c0.02-2.395,1.978-4.321,4.374-4.301C385.14,19.999,383.215,18.04,383.235,15.645z"/>
		<path style="fill:#92B8DB;" d="M108.151,34.07c-0.02,2.395-1.978,4.321-4.374,4.301c2.395,0.02,4.321,1.978,4.301,4.374
			c0.02-2.395,1.978-4.321,4.374-4.301C110.057,38.423,108.131,36.465,108.151,34.07z"/>
		<path style="fill:#92B8DB;" d="M341.904,182.254L341.904,182.254c-0.048,5.746-4.745,10.364-10.49,10.316
			c5.745,0.048,10.364,4.745,10.316,10.49c0.048-5.745,4.745-10.364,10.49-10.316C346.475,192.696,341.856,187.999,341.904,182.254z
			"/>
		<path style="fill:#92B8DB;" d="M135.839,53.454L135.839,53.454c-0.048,5.745-4.745,10.364-10.49,10.316
			c5.745,0.048,10.364,4.745,10.316,10.49c0.048-5.745,4.745-10.364,10.491-10.316C140.41,63.896,135.791,59.2,135.839,53.454z"/>
		<path style="fill:#92B8DB;" d="M441.727,142.666L441.727,142.666c-0.034,4.114-3.397,7.421-7.511,7.386
			c4.114,0.035,7.421,3.397,7.386,7.511c0.035-4.114,3.397-7.421,7.512-7.386C445,150.143,441.693,146.78,441.727,142.666z"/>
		<path style="fill:#92B8DB;" d="M65.328,19.982L65.328,19.982c-0.034,4.114-3.397,7.421-7.511,7.386
			c4.114,0.035,7.421,3.397,7.386,7.511c0.035-4.114,3.397-7.421,7.511-7.386C68.601,27.459,65.294,24.096,65.328,19.982z"/>
		<path style="fill:#92B8DB;" d="M474.771,302.892L474.771,302.892c-0.034,4.114-3.397,7.421-7.511,7.386
			c4.114,0.034,7.421,3.397,7.386,7.511c0.035-4.114,3.398-7.421,7.512-7.386C478.044,310.368,474.737,307.005,474.771,302.892z"/>
	</g>
	<g>
		<rect x="155.026" y="457.431" style="fill:#4577B6;" width="72.89" height="19.355"/>
		<rect x="155.026" y="470.505" style="opacity:0.2;fill:#182339;" width="72.89" height="2.219"/>
		<rect x="155.026" y="461.493" style="opacity:0.2;fill:#182339;" width="72.89" height="2.219"/>
		<path style="fill:#FFFFFF;" d="M227.916,476.786c0,0-5.854-8.315,0-19.355l9.656,5.781l6.512,3.9l-6.693,4.006L227.916,476.786z"
			/>
		<path style="fill:#0D3769;" d="M237.39,471.117c-0.438-2.131-0.556-4.8,0.181-7.906l6.512,3.9L237.39,471.117z"/>
		<path style="fill:#F23C55;" d="M145.989,477.342c-1.944,0-3.756-0.538-5.3-1.475c-2.956-1.794-4.937-5.043-4.937-8.762
			c0-3.712,1.981-6.962,4.937-8.756c1.544-0.937,3.356-1.475,5.3-1.475c2.931,0,5.581,1.237,7.437,3.218
			c1.737,1.825,2.794,4.294,2.794,7.012c0,2.725-1.056,5.194-2.794,7.018C151.57,476.105,148.92,477.342,145.989,477.342z"/>
		<path style="fill:#FFFFFF;" d="M155.351,478.642h-9.481c-1.094,0-1.981-0.887-1.981-1.981V457.65c0-1.094,0.887-1.981,1.981-1.981
			h9.481c1.094,0,1.981,0.887,1.981,1.981v19.011C157.332,477.754,156.445,478.642,155.351,478.642z"/>
	</g>
</g>
<g id="TEXTS">
	
		<text transform="matrix(1 0 0 1 211.0603 87.2346)" style="fill:#F23C55; font-family:'Lato-Regular'; font-size:20.6908px; letter-spacing:4;">book</text>
	<text transform="matrix(1 0 0 1 169.4818 59.3335)" style="fill:#0D3769; font-family:'Lato-Black'; font-size:38.6183px;">english</text>
	<text transform="matrix(1 0 0 1 415.6437 261.1639)" style="fill:#0D3769; font-family:'Lato-Regular'; font-size:17.2899px;">hello</text>
	<text transform="matrix(1 0 0 1 120.531 140.8202)" style="fill:#0D3769; font-family:'Lato-Regular'; font-size:17.2899px;">yes!</text>
</g>
</svg>
