<?xml version="1.0" encoding="utf-8"?>
<!-- Generator: Adobe Illustrator 27.5.0, SVG Export Plug-In . SVG Version: 6.00 Build 0)  -->
<svg version="1.1" id="_x5F_" xmlns="http://www.w3.org/2000/svg" xmlns:xlink="http://www.w3.org/1999/xlink" x="0px" y="0px"
	 viewBox="0 0 548 400" style="enable-background:new 0 0 548 400;" xml:space="preserve">
<g>
	<rect style="fill:#C1EDDF;" width="548" height="399.979"/>
	<rect y="331.513" style="fill:#B5977E;" width="548" height="68.487"/>
</g>
<g>
	<polygon style="fill:#E2B596;" points="269.667,177.082 285.191,182.957 292.617,178.427 278.579,169.044 267.667,130.691 
		261,144.503 	"/>
	<polygon style="fill:#F8D9B3;" points="250.333,127.255 250.333,112.592 239,112.592 239,125.19 218.667,130.691 234,177.062 
		230.667,195.336 264.667,195.336 265.333,167.365 270.667,159.065 267.667,130.691 	"/>
	<polygon style="fill:#E2B596;" points="250.333,127.19 250.333,112.592 239,112.592 239,125.19 	"/>
	<path style="fill:#F8D9B3;" d="M226.667,94.688c0,12.897,14.357,23.352,24.667,23.352c5.333,0,12.667-10.455,12.667-23.352
		s-8.357-23.352-18.667-23.352S226.667,81.791,226.667,94.688z"/>
	<path style="fill:#EFC5A5;" d="M250.25,72.173c-1.568-0.535-3.213-0.837-4.917-0.837c-10.309,0-18.667,10.455-18.667,23.352
		c0,12.453,13.381,22.615,23.583,23.3V72.173z"/>
	<path style="fill:#924140;" d="M236.875,96.335c0.093-2.303,22.042-13.999,22.042-13.999c8.75,11.667,1.783,26.404,1.866,26.769
		c0.451,1.877,0.581,2.803,0.635,4.698c0.005,0.054,0.008,0.106,0.013,0.16c3.315-5.019,5.569-14.963,5.569-22.128
		c0-14.53-9.72-23.498-21.667-23.498c-15.333,0-25.666,10-25.666,29.352c0,10.171,11.814,17.297,20.826,21.652
		C237.908,113.557,236.619,102.705,236.875,96.335z"/>
	<path style="fill:#74302C;" d="M236.875,96.335c0.053-1.315,7.226-5.688,13.375-9.201v-18.1c-1.581-0.449-3.225-0.698-4.917-0.698
		c-15.333,0-25.666,10-25.666,29.352c0,10.171,11.814,17.297,20.826,21.652C238.333,113.086,236.619,102.705,236.875,96.335z"/>
	<polygon style="fill:#924140;" points="230.667,195.336 264.667,195.336 265.333,167.365 270.667,159.065 267.667,130.691 
		259.018,129.23 256.5,150.824 230.965,127.364 218.667,130.691 233.71,179.183 	"/>
	<polygon style="fill:#74302C;" points="256.333,150.671 230.965,127.364 218.667,130.691 233.4,178.183 228.667,195.336 
		256.333,195.336 	"/>
	<path style="fill:#F8D9B3;" d="M283.555,184.794c1.892,1.072,6.902-0.063,9.735-2.486c2.833-2.423,3.448-7.758,0.939-9.827
		c-2.758-2.274-5.509-0.031-5.509-0.031s-3.618-2.158-5.115-0.877c-1.588,1.358,0.399,6.774,0.399,6.774
		C282.552,179.943,282.312,184.09,283.555,184.794z"/>
	<path style="fill:#8E3D4F;" d="M287.319,172.26l3.961-20.48l1.899,0.367l-4.518,23.36c-0.174-0.594-0.375-1.176-0.61-1.749
		c-0.115-0.44-0.29-0.853-0.551-1.226c-0.038-0.077-0.07-0.155-0.109-0.232c-0.009,0.004-0.018,0.008-0.028,0.012
		C287.351,172.292,287.333,172.279,287.319,172.26z M286.33,181.141c-0.242-0.091-0.462-0.273-0.633-0.493l-0.319,1.651l0.21,4.008
		l1.689-3.641l0.27-1.395C287.174,181.327,286.779,181.309,286.33,181.141z"/>
	<polygon style="fill:#E2B596;" points="203.234,176.082 237.5,185.003 256.333,185.003 258.833,180.306 245.375,174.856 
		237.5,178.699 216.415,168.836 226.667,147.028 218.667,130.691 	"/>
	<path style="fill:#F8D9B3;" d="M236.636,184.626l-33.402-8.544l13.181-7.246l20.968,9.788
		C237.13,180.626,236.827,182.619,236.636,184.626z M245.375,174.856c0,0-0.745,6.84-1.22,10.146h12.178l2.5-4.696L245.375,174.856z
		"/>
</g>
<g>
	<polygon style="fill:#AE9083;" points="167.375,217.567 91.811,217.567 85.287,162.934 160.851,162.934 	"/>
	<polygon style="fill:#7F817F;" points="94.144,212.459 91.811,217.567 85.287,162.934 89.424,172.934 	"/>
	<polygon style="fill:#C5AC9D;" points="167.375,217.567 159.077,212.237 154.383,172.934 160.851,162.934 	"/>
	<polygon style="fill:#706659;" points="159.103,212.459 94.144,212.459 89.424,172.934 154.383,172.934 	"/>
	<g>
		<g>
			<polygon style="fill:#392A2D;" points="144.446,207.847 143.504,207.847 142.057,195.803 142.999,195.803 			"/>
			<polygon style="fill:#392A2D;" points="146.667,207.847 145.725,207.847 144.278,195.803 145.22,195.803 			"/>
			<polygon style="fill:#392A2D;" points="148.887,207.847 147.945,207.847 146.498,195.803 147.44,195.803 			"/>
			<polygon style="fill:#392A2D;" points="151.108,207.847 150.166,207.847 148.719,195.803 149.661,195.803 			"/>
			<polygon style="fill:#392A2D;" points="153.328,207.847 152.386,207.847 150.939,195.803 151.882,195.803 			"/>
		</g>
		<g>
			<polygon style="fill:#392A2D;" points="133.286,207.847 132.344,207.847 130.898,195.803 131.84,195.803 			"/>
			<polygon style="fill:#392A2D;" points="135.507,207.847 134.565,207.847 133.118,195.803 134.06,195.803 			"/>
			<polygon style="fill:#392A2D;" points="137.727,207.847 136.785,207.847 135.339,195.803 136.281,195.803 			"/>
			<polygon style="fill:#392A2D;" points="139.948,207.847 139.006,207.847 137.559,195.803 138.501,195.803 			"/>
			<polygon style="fill:#392A2D;" points="142.168,207.847 141.226,207.847 139.78,195.803 140.722,195.803 			"/>
		</g>
		<g>
			<polygon style="fill:#392A2D;" points="122.127,207.847 121.185,207.847 119.738,195.803 120.68,195.803 			"/>
			<polygon style="fill:#392A2D;" points="124.347,207.847 123.405,207.847 121.959,195.803 122.9,195.803 			"/>
			<polygon style="fill:#392A2D;" points="126.568,207.847 125.626,207.847 124.179,195.803 125.121,195.803 			"/>
			<polygon style="fill:#392A2D;" points="128.788,207.847 127.846,207.847 126.399,195.803 127.341,195.803 			"/>
			<polygon style="fill:#392A2D;" points="131.009,207.847 130.067,207.847 128.62,195.803 129.562,195.803 			"/>
		</g>
		<g>
			<polygon style="fill:#392A2D;" points="110.967,207.847 110.025,207.847 108.578,195.803 109.52,195.803 			"/>
			<polygon style="fill:#392A2D;" points="113.188,207.847 112.245,207.847 110.799,195.803 111.741,195.803 			"/>
			<polygon style="fill:#392A2D;" points="115.408,207.847 114.466,207.847 113.019,195.803 113.961,195.803 			"/>
			<polygon style="fill:#392A2D;" points="117.629,207.847 116.687,207.847 115.24,195.803 116.182,195.803 			"/>
			<polygon style="fill:#392A2D;" points="119.849,207.847 118.907,207.847 117.46,195.803 118.402,195.803 			"/>
		</g>
		<g>
			<polygon style="fill:#392A2D;" points="99.807,207.847 98.865,207.847 97.419,195.803 98.361,195.803 			"/>
			<polygon style="fill:#392A2D;" points="102.028,207.847 101.086,207.847 99.639,195.803 100.581,195.803 			"/>
			<polygon style="fill:#392A2D;" points="104.248,207.847 103.306,207.847 101.859,195.803 102.802,195.803 			"/>
			<polygon style="fill:#392A2D;" points="106.469,207.847 105.527,207.847 104.08,195.803 105.022,195.803 			"/>
			<polygon style="fill:#392A2D;" points="108.689,207.847 107.747,207.847 106.301,195.803 107.243,195.803 			"/>
		</g>
	</g>
	<polygon style="fill:#706659;" points="128.094,229.337 113.631,229.337 117.629,212.459 132.092,212.459 	"/>
	
		<rect x="113.631" y="229.337" transform="matrix(-1 -1.224647e-16 1.224647e-16 -1 261.0472 460.6731)" style="fill:#AE9083;" width="33.785" height="1.999"/>
	
		<rect x="113.631" y="229.337" transform="matrix(-1 -1.224647e-16 1.224647e-16 -1 241.6426 460.6731)" style="fill:#392A2D;" width="14.381" height="1.999"/>
</g>
<g>
	<path style="fill:#E03D4F;" d="M62.775,221.756L62.775,221.756c0.338,0,0.611-0.274,0.611-0.611v-36.077
		c0-0.338-0.274-0.611-0.611-0.611l0,0c-0.338,0-0.611,0.274-0.611,0.611v36.077C62.163,221.482,62.437,221.756,62.775,221.756z"/>
	
		<rect x="65.017" y="191.998" transform="matrix(0.9973 0.0735 -0.0735 0.9973 15.663 -4.2546)" style="fill:#54455B;" width="1.223" height="37.3"/>
	
		<rect x="59.695" y="188.872" transform="matrix(0.9886 -0.1507 0.1507 0.9886 -30.5747 11.5072)" style="fill:#8E3D4F;" width="1.911" height="37.3"/>
	<path style="fill:#924140;" d="M57.883,203.412h9.784v25.427c0,1.379-1.118,2.497-2.497,2.497h-4.79
		c-1.379,0-2.497-1.118-2.497-2.497V203.412z"/>
	<path style="fill:#FF9984;" d="M62.819,203.412h2.358v26.745c0,0.651-0.528,1.179-1.179,1.179l0,0
		c-0.651,0-1.179-0.528-1.179-1.179V203.412z"/>
</g>
<g>
	
		<rect x="313.383" y="158.456" transform="matrix(0.9884 0.1519 -0.1519 0.9884 30.3532 -45.6564)" style="fill:#54455B;" width="1.137" height="34.692"/>
	
		<rect x="311.586" y="155.019" transform="matrix(0.9924 0.1233 -0.1233 0.9924 23.6444 -37.2231)" style="fill:#8E3D4F;" width="1.777" height="34.692"/>
	<path style="fill:#924140;" d="M307.201,168.697h9.1v23.65c0,1.283-1.04,2.322-2.322,2.322h-4.455c-1.283,0-2.322-1.04-2.322-2.322
		V168.697z"/>
	<path style="fill:#FF9984;" d="M311.792,168.697h2.193v24.875c0,0.606-0.491,1.097-1.097,1.097l0,0
		c-0.606,0-1.096-0.491-1.096-1.097V168.697z"/>
</g>
<g>
	<polygon style="fill:#969A95;" points="455.507,205.91 490.076,205.91 486.569,231.336 452,231.336 	"/>
	<polygon style="fill:#D7C9C2;" points="490.326,205.91 455.757,205.91 459.264,231.336 493.833,231.336 	"/>
	<path style="fill:#F7F7F7;" d="M460.713,219.838l-1.284-9.305c-0.118-0.855,0.546-1.616,1.409-1.616h25.629
		c0.71,0,1.312,0.524,1.409,1.228l1.284,9.305c0.118,0.854-0.546,1.616-1.409,1.616h-25.629
		C461.412,221.066,460.81,220.541,460.713,219.838z"/>
	<polygon style="fill:#B88359;" points="461.531,225.762 461.245,223.696 489.745,223.696 490.03,225.762 	"/>
	<polygon style="fill:#B88359;" points="490.117,226.389 490.384,228.329 461.885,228.329 461.617,226.389 	"/>
</g>
<g>
	<path style="fill:#706659;" d="M222.176,194.669h-21.93l-0.474-4.94c-0.167-1.741,1.303-3.198,3.043-3.015l17.285,2.556
		c1.65,0.174,3.089,1.199,3.792,2.702l0,0C224.479,193.229,223.562,194.669,222.176,194.669z"/>
	<path style="fill:#392A2D;" d="M200.013,192.243l0.233,2.426h21.93c1.288,0,2.154-1.243,1.802-2.426H200.013z"/>
	<path style="fill:#FF5E59;" d="M205.73,190.153c0,0.661,0.536,1.196,1.196,1.196c0.661,0,1.197-0.536,1.197-1.196
		s-0.536-1.197-1.197-1.197C206.265,188.956,205.73,189.492,205.73,190.153z"/>
	<path style="fill:#81FF4D;" d="M201.841,190.153c0,0.661,0.536,1.196,1.197,1.196c0.661,0,1.196-0.536,1.196-1.196
		s-0.536-1.197-1.196-1.197C202.377,188.956,201.841,189.492,201.841,190.153z"/>
</g>
<g>
	<g>
		<rect x="347.205" y="156.753" style="fill:#D7C9C2;" width="9.795" height="23.431"/>
		<rect x="348.214" y="158.469" style="fill:#706659;" width="7.574" height="1.01"/>
		<rect x="348.214" y="160.287" style="fill:#706659;" width="7.574" height="1.01"/>
		<path style="fill:#AE9083;" d="M349.697,166.888h4.608c0.819,0,1.483-0.664,1.483-1.483l0,0c0-0.819-0.664-1.483-1.483-1.483
			h-4.608c-0.819,0-1.483,0.664-1.483,1.483l0,0C348.214,166.223,348.878,166.888,349.697,166.888z"/>
	</g>
	<g>
		<rect x="334.833" y="156.753" style="fill:#D7C9C2;" width="9.795" height="23.431"/>
		<rect x="335.841" y="158.469" style="fill:#706659;" width="7.575" height="1.01"/>
		<rect x="335.841" y="160.287" style="fill:#706659;" width="7.575" height="1.01"/>
		<path style="fill:#AE9083;" d="M337.325,166.888h4.608c0.819,0,1.483-0.664,1.483-1.483l0,0c0-0.819-0.664-1.483-1.483-1.483
			h-4.608c-0.819,0-1.483,0.664-1.483,1.483l0,0C335.841,166.223,336.505,166.888,337.325,166.888z"/>
	</g>
	<polygon style="fill:#924140;" points="328.579,194.669 360.1,194.669 360.1,171.044 332.309,171.044 	"/>
	<rect x="336.226" y="171.044" style="fill:#FF9984;" width="23.874" height="23.626"/>
</g>
<g>
	<g>
		<g>
			<polygon style="fill:#458152;" points="184.252,171.088 181.009,134.788 173.87,117.191 174.797,116.815 181.998,134.625 
				185.248,170.999 			"/>
		</g>
		<g>
			<path style="fill:#458152;" d="M184.335,158.574c-0.818-15.004-3.007-54.242-3.312-55.594l0.925-0.368
				c0.331,0.661,2.263,35.311,3.385,55.907L184.335,158.574z"/>
		</g>
		<g>
			
				<rect x="162.419" y="141.544" transform="matrix(0.0528 -0.9986 0.9986 0.0528 39.0728 325.2812)" style="fill:#458152;" width="57.162" height="1"/>
		</g>
		<path style="fill:#7EC047;" d="M188.731,136.5c0.79,1.785,5.066,1.622,9.551-0.363c4.485-1.985,7.481-5.041,6.691-6.825
			c-0.79-1.785-5.066-1.622-9.551,0.363C190.937,131.66,187.941,134.715,188.731,136.5z"/>
		<path style="fill:#7EC047;" d="M173.454,133.003c-0.418,1.237,1.763,3.091,4.872,4.142c3.109,1.051,5.968,0.9,6.386-0.337
			c0.418-1.237-1.763-3.091-4.872-4.142C176.732,131.615,173.872,131.766,173.454,133.003z"/>
		<path style="fill:#7EC047;" d="M180.839,121.477c0.821,1.015,3.555,0.164,6.106-1.9c2.551-2.064,3.953-4.56,3.132-5.575
			c-0.821-1.015-3.555-0.164-6.106,1.9C181.42,117.966,180.018,120.463,180.839,121.477z"/>
		<g>
			<ellipse style="fill:#FFCF8C;" cx="178.845" cy="100.354" rx="7.125" ry="10"/>
			<path style="fill:#FFE8BC;" d="M177.769,92.723c-2.602,4.871-1.898,10.324,1.573,12.177c3.471,1.854,8.394-0.592,10.996-5.464
				c2.602-4.872,1.898-10.324-1.573-12.178C185.294,85.406,180.371,87.852,177.769,92.723z"/>
			<path style="fill:#E69D77;" d="M175,98.335c0,2.486,1.828,4.501,4.083,4.501c2.255,0,4.083-2.015,4.083-4.501
				s-1.828-4.501-4.083-4.501C176.828,93.834,175,95.849,175,98.335z"/>
			<path style="fill:#FFF8D1;" d="M172.385,95.844c3.243,3.851,7.683,5.447,9.918,3.565c2.235-1.882,1.417-6.529-1.826-10.38
				c-3.243-3.851-7.683-5.447-9.918-3.565C168.325,87.346,169.142,91.994,172.385,95.844z"/>
		</g>
		<g>
			<path style="fill:#FFCF8C;" d="M168.256,117.182c0.253,3.867,2.692,6.856,5.447,6.675c2.755-0.18,4.784-3.462,4.531-7.329
				c-0.253-3.867-2.692-6.856-5.448-6.676C170.031,110.033,168.003,113.314,168.256,117.182z"/>
			<path style="fill:#E69D77;" d="M169.816,121.552c0.921,1.482,2.757,2.006,4.101,1.17c1.344-0.835,1.688-2.713,0.767-4.195
				c-0.921-1.482-2.757-2.006-4.101-1.17C169.239,118.192,168.896,120.07,169.816,121.552z"/>
			<path style="fill:#FFE8BC;" d="M166.203,121.036c3.359,1.094,6.597,0.401,7.232-1.548c0.635-1.949-1.573-4.416-4.932-5.51
				c-3.359-1.094-6.597-0.401-7.232,1.548C160.636,117.474,162.844,119.941,166.203,121.036z"/>
		</g>
		<g>
			
				<ellipse transform="matrix(0.8837 -0.4681 0.4681 0.8837 -29.0721 105.2555)" style="fill:#FFCF8C;" cx="197.256" cy="111.126" rx="7.017" ry="5"/>
			<path style="fill:#E69D77;" d="M192.567,109.92c-0.975,1.446-0.702,3.336,0.611,4.221c1.312,0.884,3.166,0.429,4.141-1.017
				c0.975-1.447,0.702-3.336-0.611-4.221C195.396,108.018,193.542,108.474,192.567,109.92z"/>
			<path style="fill:#FFE8BC;" d="M190.559,106.412c0.377,3.512,2.335,6.183,4.373,5.964c2.038-0.219,3.385-3.243,3.009-6.756
				c-0.377-3.512-2.335-6.183-4.373-5.964C191.529,99.875,190.182,102.899,190.559,106.412z"/>
		</g>
	</g>
	<path style="fill:#924140;" d="M193.25,194.669h-9c-1.519,0-2.75-1.231-2.75-2.75v-45.417H196v45.417
		C196,193.438,194.769,194.669,193.25,194.669z"/>
	<path style="fill:#FF9984;" d="M191,194.669h-0.5c-0.967,0-1.75-0.783-1.75-1.75v-46.417h4v46.417
		C192.75,193.886,191.967,194.669,191,194.669z"/>
</g>
<g>
	<path style="fill:#F0DEBD;" d="M264.044,193.339h-29.07v-5.117c4.302,1.888,24.237-4.969,29.07,0V193.339z"/>
	<path style="fill:#DEC5A2;" d="M264.044,193.339h29.07v-5.117c-4.302,1.888-24.237-4.969-29.07,0V193.339z"/>
	<rect x="232.71" y="193.339" style="fill:#E03D4F;" width="62.338" height="1.33"/>
</g>
<g>
	<rect x="177.333" y="196.669" style="fill:#D7B17C;" width="185.333" height="135.667"/>
	<rect x="38.667" y="241.336" style="fill:#D7B17C;" width="138.667" height="91"/>
	<polygon style="opacity:0.3;fill:#723E42;" points="177.354,241.336 177.333,241.336 38.688,241.336 38.688,253.523 
		149.417,253.523 149.417,332.336 177.333,332.336 	"/>
	<path style="fill:#5C3B2F;" d="M177.167,194.669H363.5c1.565,0,2.833,1.269,2.833,2.833v4.333c0,1.565-1.268,2.833-2.833,2.833
		H177.167c-1.565,0-2.833-1.269-2.833-2.833v-4.333C174.333,195.938,175.602,194.669,177.167,194.669z"/>
	<path style="fill:#5C3B2F;" d="M37.75,231.336h139.583v10H37.75c-1.703,0-3.083-1.38-3.083-3.083v-3.833
		C34.667,232.716,36.047,231.336,37.75,231.336z"/>
	
		<rect x="362.667" y="241.336" transform="matrix(-1 -1.224647e-16 1.224647e-16 -1 864 573.6718)" style="fill:#D7B17C;" width="138.667" height="91"/>
	<path style="fill:#5C3B2F;" d="M502.25,231.336H362.667v10H502.25c1.703,0,3.083-1.38,3.083-3.083v-3.833
		C505.333,232.716,503.953,231.336,502.25,231.336z"/>
	<polygon style="opacity:0.3;fill:#723E42;" points="501.33,253.315 501.333,241.336 362.667,241.336 362.667,253.523 	"/>
	<g>
		<rect x="180" y="207.003" style="fill:#F5D195;" width="57.959" height="57.959"/>
		<rect x="241.071" y="207.003" style="fill:#F5D195;" width="57.959" height="57.959"/>
		<rect x="302.141" y="207.003" style="fill:#F5D195;" width="57.959" height="57.959"/>
		<rect x="180" y="267.733" style="fill:#F5D195;" width="57.959" height="57.959"/>
		<rect x="241.071" y="267.733" style="fill:#F5D195;" width="57.959" height="57.959"/>
		<rect x="302.141" y="267.733" style="fill:#F5D195;" width="57.959" height="57.959"/>
	</g>
	<path style="fill:#FFFFFF;" d="M202.887,246.43H336.5c1.728,0,3.128-1.401,3.128-3.129v-23.799c0-1.728-1.401-3.128-3.128-3.128
		H202.887c-1.728,0-3.129,1.401-3.129,3.128v23.799C199.759,245.029,201.159,246.43,202.887,246.43z"/>
	<g>
		<path style="fill:#9B7565;" d="M216.914,220.502c2.338,0.769,4.676,3.076,4.676,6.644c0,3.076-1.507,5.014-3.261,6.061
			l3.107,8.828h-4.307l-2.615-7.844h-1.63v7.844h-4.153v-21.533H216.914z M212.884,230.746h2.645
			c0.523-0.123,1.784-1.323,1.784-3.354c0-1.723-1.015-3.044-1.6-3.199h-2.83V230.746z"/>
		<path style="fill:#9B7565;" d="M223.801,220.502h11.043v3.691h-6.829v5.136h6.091v3.568h-6.091v5.568h6.952v3.568h-11.167V220.502
			z"/>
		<path style="fill:#9B7565;" d="M248.716,238.467v3.568h-7.813c-2.86-2.707-4.122-7.105-4.122-10.613
			c0-4.307,1.508-8.367,4.644-10.919h7.291v3.691h-5.414c-1.108,1.261-2.03,4.583-2.03,7.136c0,2.553,0.923,5.875,2.03,7.137
			H248.716z"/>
		<path style="fill:#9B7565;" d="M250.958,220.502h11.043v3.691h-6.828v5.136h6.09v3.568h-6.09v5.568h6.951v3.568h-11.166V220.502z"
			/>
		<path style="fill:#9B7565;" d="M264.491,220.502h8.336c2.77,1.2,4.523,3.876,4.523,7.228c0,3.199-1.507,6.521-4.983,7.783h-3.723
			v6.521h-4.152V220.502z M268.644,231.883h2.738c0.984-0.8,1.691-2.338,1.691-4.061c0-1.6-0.768-3.045-1.507-3.629h-2.923V231.883z
			"/>
		<path style="fill:#9B7565;" d="M278.423,224.193v-3.691h13.474v3.691h-4.645v17.841h-4.184v-17.841H278.423z"/>
		<path style="fill:#9B7565;" d="M293.678,220.502h4.214v21.533h-4.214V220.502z"/>
		<path style="fill:#9B7565;" d="M315.117,231.576c0,3.384-1.077,7.537-4.245,10.459h-6.337c-3.169-2.922-4.245-7.075-4.245-10.459
			c0-4.307,1.262-8.613,4.245-11.074h6.337C313.856,222.963,315.117,227.269,315.117,231.576z M308.811,238.467
			c1.015-1.169,1.846-4.092,1.846-7.168c0-3.076-0.801-5.936-1.815-7.105h-2.245c-1.016,1.169-1.846,4.029-1.846,7.105
			c0,3.076,0.83,5.999,1.846,7.168H308.811z"/>
		<path style="fill:#9B7565;" d="M321.358,230.13l-0.153,0.061l0.184,3.631v8.213h-3.876v-21.533h3.106l5.66,12.366l0.154-0.061
			l-0.338-3.783v-8.521h3.875v21.533h-2.86L321.358,230.13z"/>
	</g>
	<polygon style="opacity:0.3;fill:#723E42;" points="177.354,204.669 177.354,216.003 180,216.003 180,212.169 238,212.169 
		238,216.003 241.167,216.003 241.167,212.336 298.833,212.336 298.833,216.003 302.167,216.003 302.167,212.503 360,212.503 
		360,216.003 362.666,216.003 362.666,204.669 	"/>
</g>
<g>
	<polygon style="fill:#924140;" points="406,332.336 406,316.336 394.81,316.336 384,325.669 369.24,328.669 369.24,332.336 	"/>
	<polygon style="fill:#74302C;" points="444,324.336 438.914,310.013 426.605,314.427 422.333,323.336 412.322,328.651 
		412.333,332.336 429.417,332.336 	"/>
	<polygon style="fill:#570D1D;" points="444,324.336 412.333,332.336 429.417,332.336 	"/>
	<polygon style="fill:#EFC5A5;" points="440.75,224.336 439.938,202.336 433.131,200.003 429.5,210.638 433.131,224.336 	"/>
	<polygon style="fill:#70B7DB;" points="393.116,318.131 406,319.806 409.333,280.669 407.333,262.336 408.969,251.386 
		409.969,264.336 426.605,314.427 438.914,310.013 433.131,274.58 425.5,257.503 430.5,214.419 430,191.419 386,191.419 
		387.62,242.003 391.502,261.302 	"/>
	<polygon style="fill:#3C90AE;" points="408.969,251.386 409.969,264.336 426.605,314.427 421.05,274.003 433.131,274.58 
		425.5,257.503 431.5,215.419 431,191.419 414.667,200.003 412.457,219.928 	"/>
	<polygon style="fill:#EFC5A5;" points="373.422,230.836 368,228.503 362.666,217.283 369.924,205.225 375.813,209.657 
		372.919,218.187 	"/>
	<polygon style="fill:#3C90AE;" points="446,163.044 439.938,116.906 425.5,130.739 432.857,172.183 432,203.391 441,204.134 	"/>
	<polygon style="fill:#404954;" points="383,111.988 421.756,110.645 439.938,116.906 436.093,141.02 430.161,170.191 
		432.333,205.857 386.333,201.134 	"/>
	<polygon style="fill:#345B6D;" points="383,111.988 421.756,109.645 439.938,116.906 436.093,141.02 430.161,170.191 
		432.333,205.857 386.333,201.134 	"/>
	<polygon style="fill:#404954;" points="439.938,116.906 421.756,109.645 421.667,109.65 424.667,124.335 419.667,172.335 
		424.667,204.762 432.333,205.857 430.161,170.191 436.093,141.02 	"/>
	<polygon style="fill:#70B7DB;" points="383,111.988 395,131.739 392,165.365 376,210.638 368,208.2 376.5,160.92 	"/>
	<path style="fill:#F8D9B3;" d="M389.207,80.021c0,11.561,1.646,27.498,5.172,27.498c10.258,0,29.858-11.755,31.974-27.498
		c1.755-13.054-8.315-20.933-18.573-20.933S389.207,68.461,389.207,80.021z"/>
	<path style="fill:#EFC5A5;" d="M407.78,59.089c-3.912,0-7.536,1.37-10.53,3.698v44.467c10.664-1.811,27.171-12.856,29.103-27.232
		C428.107,66.967,418.038,59.089,407.78,59.089z"/>
	<rect x="403.894" y="93.172" style="fill:#E2B596;" width="15.347" height="16.053"/>
	<path style="fill:#924140;" d="M424.449,63.611c-4.021-4.598-10.253-7.344-16.669-7.344c-10.891,0-19.585-3.591-20.905,8.11
		c0,3.333-1.125,9.375,2.868,10.637c1.276-0.874,2.907,0.93,4.07,2.59c0.857,1.224,1.164,9.113,1.077,10.328
		c0.506,0.664,2.323,1.411,2.444,1.153c-0.046-4.91,0.475-8.472,1.823-10.622c0.601-0.958,2.098-0.47,2.732,0.352
		c2.779,3.603,0.695,11.27,1.612,14.356c3.38,6.58,13.125,3.83,16.13,5.87c5.392-5.045,8.555-11.468,9.519-18.645
		C430.248,72.222,427.2,66.756,424.449,63.611z"/>
	<path style="fill:#74302C;" d="M424.449,63.611c-4.021-4.598-10.253-7.344-16.669-7.344c-1.537,0-3.012-0.077-4.447-0.167v27.383
		c0.109,1.444,0.061,2.966,0,4.41v4.394c0.039,0.321,0.089,0.624,0.167,0.885c3.38,6.58,13.125,3.83,16.13,5.87
		c5.392-5.045,8.555-11.468,9.519-18.645C430.248,72.221,427.2,66.756,424.449,63.611z"/>
	<polygon style="fill:#70B7DB;" points="400.994,110.9 423.146,110.2 421.833,104.669 402.575,107.214 	"/>
</g>
</svg>
