<?xml version="1.0" encoding="utf-8"?>
<!-- Generator: Adobe Illustrator 27.5.0, SVG Export Plug-In . SVG Version: 6.00 Build 0)  -->
<svg version="1.1" xmlns="http://www.w3.org/2000/svg" xmlns:xlink="http://www.w3.org/1999/xlink" x="0px" y="0px"
	 viewBox="0 0 750 500" style="enable-background:new 0 0 750 500;" xml:space="preserve">
<g id="BACKGROUND">
	<rect style="fill:#F5E5C9;" width="750" height="500"/>
</g>
<g id="OBJECTS">
	<path style="fill:#EBD4AE;" d="M643.456,267.629c-24-110.291-118.956-91.137-158.323-146.005C453.271,77.218,430.22,37.5,346.75,48
		c-87.818,11.047-68.711,101.672-180.756,126.01C58.47,197.366,72,376.463,106.5,449h527.828
		C636.781,444.906,666.086,371.622,643.456,267.629z"/>
	<rect y="449" style="fill:#1F160F;" width="750" height="1"/>
	<g>
		<g>
			<rect x="681.161" style="fill:#D3B78D;" width="1.553" height="449"/>
			<rect x="612.161" style="fill:#D3B78D;" width="1.553" height="449"/>
			<rect x="543.161" style="fill:#D3B78D;" width="1.553" height="449"/>
			<rect x="543.938" y="223.724" style="fill:#D3B78D;" width="138" height="1.553"/>
			<rect x="543.938" y="341.816" style="fill:#D3B78D;" width="138" height="1.553"/>
			<rect x="543.938" y="105.63" style="fill:#D3B78D;" width="138" height="1.553"/>
		</g>
		<g>
			<rect x="67.286" style="fill:#D3B78D;" width="1.553" height="449"/>
			<rect x="136.286" style="fill:#D3B78D;" width="1.553" height="449"/>
			<rect x="205.286" style="fill:#D3B78D;" width="1.553" height="449"/>
			<rect x="68.062" y="223.724" style="fill:#D3B78D;" width="138" height="1.553"/>
			<rect x="68.062" y="341.816" style="fill:#D3B78D;" width="138" height="1.553"/>
			<rect x="68.062" y="105.63" style="fill:#D3B78D;" width="138" height="1.553"/>
		</g>
	</g>
	<g>
		<rect y="119.738" style="fill:#1F160F;" width="148" height="98"/>
		<rect y="119.738" style="fill:#EBD4AE;" width="146" height="96"/>
		
			<rect x="26.5" y="96.237" transform="matrix(-1.836970e-16 1 -1 -1.836970e-16 239.2373 96.2373)" style="fill:#FFFFFF;" width="90" height="143"/>
		<g>
			<polygon style="fill:#1F160F;" points="112.227,144.047 112.227,176.797 90.187,176.797 90.232,144.047 			"/>
			<path style="fill:#F5E5C9;" d="M112.232,144.049c0,7.84-2.7,15.67-3.87,23.51c-0.01,0.02-0.01,0.05-0.01,0.08
				c-0.16,0.53-0.93,2.76-2.9,4.38c-1.93,1.58-3.64,1.93-4.21,2.01c0,0-0.01,0-0.02,0c-0.06,0.01-0.12,0.02-0.18,0.02h-15.21
				c0-10,4.4-20,4.4-30H112.232z"/>
			<path style="fill:#FFFFFF;" d="M108.372,167.549c0,0.02-0.01,0.05-0.02,0.09c-0.16,0.53-0.93,2.76-2.9,4.38
				c-1.93,1.58-3.64,1.93-4.21,2.01c1.43-0.36,2.03-4.55,2.03-4.55c2.33,0,4.14,0.19,5.09-1.92
				C108.362,167.559,108.362,167.559,108.372,167.549z"/>
			<path style="fill:#1F160F;" d="M106.007,148.109c-3.333,0-6.667,0-10,0c0.023-0.234,0.046-0.469,0.067-0.703
				c3.333,0,6.667,0,10,0C106.053,147.64,106.03,147.875,106.007,148.109z"/>
			<path style="fill:#1F160F;" d="M108.534,151.578c-5.334,0-10.667,0-16,0c0.039-0.234,0.077-0.469,0.113-0.703
				c5.333,0,10.667,0,16,0C108.611,151.109,108.573,151.343,108.534,151.578z"/>
			<path style="fill:#1F160F;" d="M108.012,154.422c-5.333,0-10.667,0-16,0c0.047-0.234,0.093-0.469,0.138-0.703
				c5.333,0,10.667,0,16,0C108.105,153.953,108.059,154.187,108.012,154.422z"/>
			<path style="fill:#1F160F;" d="M107.417,157.265c-5.333,0-10.667,0-16,0c0.051-0.234,0.102-0.469,0.152-0.703
				c5.333,0,10.667,0,16,0C107.519,156.797,107.468,157.031,107.417,157.265z"/>
			<path style="fill:#1F160F;" d="M106.794,160.109c-5.333,0-10.667,0-16,0c0.051-0.234,0.103-0.469,0.154-0.703
				c5.333,0,10.667,0,16,0C106.896,159.64,106.845,159.875,106.794,160.109z"/>
			<path style="fill:#1F160F;" d="M100.187,162.953c-3.333,0-6.667,0-10,0c0.048-0.234,0.096-0.469,0.146-0.703
				c3.333,0,6.667,0,10,0C100.284,162.484,100.235,162.719,100.187,162.953z"/>
		</g>
		<g>
			<polygon style="fill:#1F160F;" points="53.179,144.047 53.179,176.797 31.139,176.797 31.179,144.047 			"/>
			<path style="fill:#F5E5C9;" d="M48.779,174.047c-7.333,0-14.667,0-22,0c0-10,4.4-20,4.4-30c7.333,0,14.667,0,22,0
				C53.179,154.047,48.779,164.047,48.779,174.047z"/>
			<path style="fill:#1F160F;" d="M46.959,148.109c-3.333,0-6.667,0-10,0c0.024-0.234,0.046-0.469,0.067-0.703c3.333,0,6.667,0,10,0
				C47.006,147.64,46.983,147.875,46.959,148.109z"/>
			<path style="fill:#1F160F;" d="M49.487,151.578c-5.333,0-10.667,0-16,0c0.039-0.234,0.076-0.469,0.112-0.703
				c5.333,0,10.667,0,16,0C49.563,151.109,49.525,151.343,49.487,151.578z"/>
			<path style="fill:#1F160F;" d="M48.965,154.422c-5.333,0-10.667,0-16,0c0.047-0.234,0.093-0.469,0.138-0.703
				c5.333,0,10.667,0,16,0C49.057,153.953,49.011,154.187,48.965,154.422z"/>
			<path style="fill:#1F160F;" d="M48.369,157.265c-5.333,0-10.667,0-16,0c0.051-0.234,0.101-0.469,0.152-0.703
				c5.333,0,10.667,0,16,0C48.47,156.797,48.42,157.031,48.369,157.265z"/>
			<path style="fill:#1F160F;" d="M47.746,160.109c-5.333,0-10.667,0-16,0c0.051-0.234,0.103-0.469,0.154-0.703
				c5.333,0,10.667,0,16,0C47.849,159.64,47.797,159.875,47.746,160.109z"/>
			<path style="fill:#1F160F;" d="M44.346,162.953c-3.333,0-9.873,0-13.207,0c0.048-0.234,0.097-0.469,0.146-0.703
				c3.333,0,9.873,0,13.207,0C44.442,162.484,44.394,162.719,44.346,162.953z"/>
		</g>
	</g>
	<g>
		<polygon style="fill:#1F160F;" points="294,94.01 456,94.01 450,180.01 300,180.01 		"/>
		<rect x="300" y="92.01" style="fill:#FFFFFF;" width="150" height="86"/>
		<path style="fill:#D3B78D;" d="M300,170.01v-17.573c0,0,85.687-15.75,91.406-15.75c5.719,0,22.955,10.514,22.955,10.514
			s11.266-7.514,15.858-7.514s19.78,8.25,19.78,8.25v22.073H300z"/>
		<g>
			<path style="fill:#E59E47;" d="M343.745,118.808c0,8.28-6.71,15-15,15c-8.28,0-15-6.72-15-15s6.72-15,15-15v15H343.745z"/>
			<path style="fill:#CC4E49;" d="M345.745,116.808h-15v-15C339.035,101.808,345.745,108.528,345.745,116.808z"/>
		</g>
		<g>
			<rect x="300" y="170.01" style="fill:#F5E5C9;" width="150" height="8"/>
			<rect x="365" y="173.26" style="fill:#D3B78D;" width="20" height="1.5"/>
			<rect x="394.361" y="173.26" style="fill:#D3B78D;" width="20" height="1.5"/>
			<rect x="423.723" y="173.26" style="fill:#D3B78D;" width="20" height="1.5"/>
			
				<rect x="335.639" y="173.26" transform="matrix(-1 -1.224647e-16 1.224647e-16 -1 691.2772 348.0206)" style="fill:#D3B78D;" width="20" height="1.5"/>
			
				<rect x="306.277" y="173.26" transform="matrix(-1 -1.224647e-16 1.224647e-16 -1 632.5544 348.0206)" style="fill:#D3B78D;" width="20" height="1.5"/>
		</g>
		<g>
			<rect x="358.863" y="109.989" style="fill:#1F160F;" width="2" height="2"/>
			<rect x="364.25" y="109.989" style="fill:#1F160F;" width="30" height="2"/>
			<rect x="358.863" y="116.808" style="fill:#1F160F;" width="2" height="2"/>
			<rect x="364.25" y="116.808" style="fill:#1F160F;" width="30" height="2"/>
			<rect x="358.863" y="123.627" style="fill:#1F160F;" width="2" height="2"/>
			<rect x="364.25" y="123.627" style="fill:#1F160F;" width="30" height="2"/>
		</g>
		<path style="fill:#CC4E49;" d="M444.454,100.22c0-0.527-0.427-0.954-0.954-0.954c-0.527,0-0.954,0.427-0.954,0.954
			c0,0.527,0.427,0.954,0.954,0.954C444.027,101.174,444.454,100.747,444.454,100.22z"/>
	</g>
	<g>
		<g>
			<rect x="374.224" style="fill:#1F160F;" width="1.553" height="64.125"/>
			<circle style="fill:#FABC5F;" cx="375" cy="70.705" r="7"/>
			<path style="fill:#FFFFFF;" d="M399,70.705h-48v0c0-8.836,7.163-16,16-16h16C391.837,54.705,399,61.869,399,70.705L399,70.705z"
				/>
		</g>
		<g>
			<rect x="582.256" style="fill:#1F160F;" width="1.553" height="64.125"/>
			<circle style="fill:#FABC5F;" cx="583.032" cy="70.705" r="7"/>
			<path style="fill:#FFFFFF;" d="M607.032,70.705h-48v0c0-8.836,7.163-16,16-16h16C599.869,54.705,607.032,61.869,607.032,70.705
				L607.032,70.705z"/>
		</g>
		<g>
			<rect x="166.191" style="fill:#1F160F;" width="1.553" height="64.125"/>
			<circle style="fill:#FABC5F;" cx="166.968" cy="70.705" r="7"/>
			<path style="fill:#FFFFFF;" d="M142.968,70.705h48v0c0-8.836-7.163-16-16-16h-16C150.131,54.705,142.968,61.869,142.968,70.705
				L142.968,70.705z"/>
		</g>
	</g>
	<rect style="fill:#D3B78D;" width="750" height="25"/>
	<g>
		<g>
			<path style="fill:#1C8C4F;" d="M56.824,194.121c-4.207,1.6-2.928,22.243-0.755,27.8c2.743,7.016,7.674,12.921,5.113,23.019
				c-2.995,11.81-1.057,14.56,5.349,23.864c4.288,6.227-1.337,11.026,0.887,18.317c4.615,15.129,14.874,23.638,14.874,23.638
				c18.14-20.26,11.781-46.197,9.776-50.759s-2.12-9.34-2.009-12.75C90.656,228.937,64.781,191.094,56.824,194.121z"/>
			<path style="fill:#1C8C4F;" d="M24.603,276.994c-3.696,2.412-2.946,14.881,3.522,24.069c2.255,3.202,3.312,12.405,3.75,15.469
				c0.844,5.906,4.078,12.219,9.823,16.273c6.75,4.762,4.802,17.195,27.037,23.676c0,0,4.952-19.699-2.548-36.387
				c-4.713-10.486-7.131-10.299-11.057-15.226c-4.191-5.259-5.941-10.993-7.354-13.321
				C42.375,282.649,28.381,274.529,24.603,276.994z"/>
			<path style="fill:#1C8C4F;" d="M135.318,267.178c3.418,2.592-2.678,13.386-7.123,17.612c-4.445,4.226-8.783,16.33-10.286,21.937
				c-5.284,19.711-24.822,16.457-24.822,16.457c-4.962-13.996-0.087-28.3,11.25-38.204c4.291-3.748,12.6-2.855,15.079-8.513
				C123.944,266.135,132.844,265.302,135.318,267.178z"/>
			<path style="fill:#1F160F;" d="M122.11,282.53c3.99-4.75,8.44-9.81,13.4-15.18c-0.06-0.07-0.12-0.12-0.19-0.17
				c-0.07-0.05-0.14-0.1-0.22-0.15c-4.91,5.32-9.32,10.33-13.27,15.04c-0.26-1.37-0.88-5.3-0.4-9.23c-0.22,0.31-0.43,0.64-0.64,0.98
				c-0.32,4.16,0.45,8.02,0.61,8.76c-8.91,10.65-15.52,19.76-20.55,27.41c-0.23-3.18-0.8-15.96,3.97-25.4
				c-0.16,0.12-0.32,0.25-0.48,0.39c-0.16,0.14-0.32,0.28-0.48,0.43c-4.74,10.41-3.58,24.08-3.47,25.28
				c-5.67,8.7-9.29,15.47-11.92,20.41c-2.89,5.41-4.58,8.58-6.51,9.64c0.89-18.06,0.8-35.09-0.25-51.03
				c5.67-3.24,10.49-11.57,12.96-16.47v-0.02c-0.02-0.35-0.05-0.69-0.07-1.03c-2.3,4.63-7.22,13.52-12.93,16.95
				c-0.61-8.98-1.53-17.6-2.75-25.86c5.97-3.63,9.27-13.3,10.9-20.06v-0.01c-0.06-0.46-0.14-0.93-0.23-1.41
				c-1.51,6.62-4.76,17.09-10.75,20.92c-0.43-2.86-0.89-5.69-1.39-8.46c-1.14-6.28-2.48-12.31-4-18.13
				c3.95-7.08,5.33-14.08,5.69-19.45v-0.01c-0.16-0.26-0.32-0.51-0.47-0.77c-0.27,5.27-1.52,12.33-5.41,19.5
				c-4.04-15.18-9.38-28.85-16.2-41.36c-0.08,0.02-0.16,0.05-0.24,0.08c-0.08,0.03-0.17,0.07-0.24,0.12
				c6.65,12.22,11.99,25.97,16.04,41.2c-2.26-1.42-9.78-6.42-16.77-14.14c0.07,0.22,0.15,0.43,0.22,0.62
				c0.09,0.22,0.18,0.45,0.27,0.67c7.35,7.86,15.03,12.7,16.47,13.57c2.19,8.38,4,17.21,5.42,26.48
				c-2.29-1.19-11.36-6.11-18.08-12.91c-0.03,0.22-0.06,0.43-0.09,0.64c7.15,7.11,16.73,12.12,18.27,12.9
				c1.24,8.25,2.16,16.85,2.78,25.79c-1.77-1.06-8.17-5.11-13.4-11.32c-0.04,0.21-0.09,0.43-0.13,0.64
				c5.58,6.53,12.39,10.62,13.57,11.3c1.09,16.02,1.18,33.13,0.28,51.31c-0.12,0.06-0.18,0.19-0.14,0.32
				c0.02,0.06,0.07,0.1,0.12,0.13c-0.55,11-1.47,22.39-2.74,34.16c-3.14-2.89-6.09-10.22-10.11-20.24c-2.32-5.79-5-12.47-8.3-19.83
				c0.2-1.17,2.37-14.44,1.61-23.27c-0.2-0.27-0.4-0.53-0.6-0.78c0.89,7.83-0.87,19.91-1.39,23.19
				c-3.56-7.88-7.85-16.54-13.17-25.73c0.24-1,1.72-8.18-0.64-19.83c-0.22-0.3-0.46-0.58-0.71-0.87
				c2.35,10.85,1.36,17.95,0.96,20.03c-5.8-9.95-12.82-20.52-21.49-31.4c-0.08,0.03-0.16,0.07-0.23,0.12
				c-0.07,0.05-0.14,0.09-0.2,0.16c8.74,10.98,15.81,21.63,21.64,31.67c-4.17,0.99-10.33-0.53-15.92-2.55
				c0.05,0.21,0.1,0.43,0.15,0.64c5.62,2,11.79,3.46,16.05,2.38c5.4,9.34,9.72,18.12,13.32,26.11c-4.24,1.06-12.14-0.96-18.61-3.1
				c0.22,0.18,0.44,0.34,0.67,0.5c0.22,0.15,0.43,0.32,0.63,0.49c4.91,1.55,10.42,2.92,14.52,2.92c1.12,0,2.13-0.1,3-0.33
				c3.27,7.3,5.93,13.92,8.23,19.67c4.32,10.75,7.18,17.89,10.52,20.68c-0.46,4.2-0.96,8.44-1.51,12.74
				c-0.01,0.14,0.08,0.27,0.23,0.29h0.03c0.13,0,0.24-0.1,0.26-0.23c0.55-4.34,1.05-8.62,1.51-12.86c0-0.03,0.01-0.05,0.01-0.07
				c1.3-11.97,2.25-23.57,2.81-34.77c2.19-0.99,3.93-4.26,6.99-9.99c2.62-4.92,6.22-11.67,11.88-20.34
				c5.08-0.75,12.02-3.09,17.32-5.08c0.06-0.2,0.12-0.41,0.18-0.62c-5.16,1.95-12.01,4.28-17.12,5.11
				c5.02-7.65,11.64-16.78,20.57-27.45c2.11,0.82,5.02,0.77,7.79,0.4c0.17-0.2,0.34-0.4,0.51-0.61
				C127.25,283.17,124.25,283.3,122.11,282.53z"/>
		</g>
		<g>
			<path style="fill:#FFFFFF;" d="M95.445,449H62.467c-1.59,0-2.904-1.241-2.995-2.828L55.956,385h46l-3.516,61.172
				C98.349,447.759,97.035,449,95.445,449z"/>
			<g>
				<path style="fill:#1F160F;" d="M94.25,439.009c-0.003,0-0.007,0-0.01,0c-0.143-0.006-0.254-0.126-0.248-0.27l0.788-19.61
					c0.005-0.142,0.121-0.251,0.269-0.248c0.143,0.006,0.254,0.126,0.248,0.27l-0.788,19.61
					C94.503,438.899,94.388,439.009,94.25,439.009z"/>
				<path style="fill:#1F160F;" d="M95.282,413.313c-0.003,0-0.007,0-0.01,0c-0.143-0.006-0.254-0.126-0.248-0.27l0.218-5.429
					c0.005-0.142,0.123-0.246,0.269-0.248c0.143,0.006,0.254,0.126,0.248,0.27l-0.218,5.429
					C95.535,413.203,95.42,413.313,95.282,413.313z"/>
			</g>
			<rect x="54.956" y="385" style="fill:#FFFFFF;" width="48" height="8"/>
			<polygon style="fill:#1F160F;" points="101.354,395.472 101.497,393 56.416,393 56.558,395.472 			"/>
		</g>
	</g>
	<g>
		<rect x="634.276" y="119.382" style="fill:#1F160F;" width="64" height="72"/>
		<rect x="636.276" y="119.382" style="fill:#FFFFFF;" width="62" height="70"/>
		<path style="fill:#F5E5C9;" d="M679.088,135.047h16.537c1.656-8.078-7.656-6.895-7.438-3.145
			c-2.313-0.541-2.094,1.348-2.094,1.348C682.502,131.563,679.088,135.047,679.088,135.047z"/>
		<path style="fill:#F5E5C9;" d="M645.563,128.438h9.797c-1.313-2.625-3.047-1.125-3.047-1.125
			C650.391,123.047,645.281,124.313,645.563,128.438z"/>
		<g>
			<rect x="651.776" y="149.813" style="fill:#F5E5C9;" width="31" height="22"/>
			<path style="fill:#F5E5C9;" d="M689.526,171.813c0-2.938,2.438-2.75,2.438-2.75c0-1.625,1.438-1.25,1.438-1.25
				c-0.375-4.25,4.875-4.57,4.875-4.57v8.57H689.526z"/>
			<path style="fill:#F5E5C9;" d="M648.656,171.813c0-2.528-5.016-2.782-5.016-2.782c-0.746-2.032-2.101-1.326-2.101-1.326
				c-0.782-4.697-5.264-3.267-5.264-3.267v7.375H648.656z"/>
			<rect x="651.776" y="149.813" style="fill:#1F160F;" width="31" height="0.656"/>
			<rect x="657.125" y="160.125" style="fill:#D3B78D;" width="5.125" height="11.688"/>
			<rect x="665.213" y="160.125" style="fill:#D3B78D;" width="14.099" height="6.234"/>
			<rect x="636.275" y="171.554" style="fill:#1F160F;" width="62" height="0.518"/>
			<rect x="651.776" y="137.813" style="fill:#F5E5C9;" width="16" height="12"/>
			<polygon style="fill:#D3B78D;" points="659.776,132.281 649.754,137.813 669.797,137.813 			"/>
			<rect x="657.619" y="142.047" style="fill:#D3B78D;" width="5.849" height="3.141"/>
			<rect x="667.776" y="145.188" style="fill:#F5E5C9;" width="15" height="0.531"/>
			<rect x="682.229" y="145.188" style="fill:#F5E5C9;" width="0.547" height="4.625"/>
			<rect x="678.541" y="145.188" style="fill:#F5E5C9;" width="0.547" height="4.625"/>
			<rect x="674.854" y="145.188" style="fill:#F5E5C9;" width="0.547" height="4.625"/>
			<rect x="671.166" y="145.188" style="fill:#F5E5C9;" width="0.547" height="4.625"/>
		</g>
	</g>
	<g>
		<polygon style="fill:#1F160F;" points="655.161,449 719.161,449 729.135,335 665.135,335 		"/>
		<polygon style="fill:#FABC5F;" points="739.135,449 675.135,449 665.161,335 729.161,335 		"/>
		<g>
			<polygon style="fill:#FFFFFF;" points="723.393,379.375 678.693,379.375 676.074,349.438 720.774,349.438 			"/>
			<path style="fill:#F5E5C9;" d="M704.626,363.531c-1.969,0-8.645,5.131-8.645,5.131s-6.13-3.631-8.568-3.631
				s-9.491,5.531-9.491,5.531l0.771,8.813h44.7l-0.486-5.553C722.908,373.822,706.595,363.531,704.626,363.531z"/>
			<path style="fill:#F5E5C9;" d="M693.369,358.094c-0.074-0.846,0.552-1.531,1.397-1.531s1.591,0.686,1.665,1.531
				c0.074,0.846-0.552,1.531-1.397,1.531C694.189,359.625,693.443,358.939,693.369,358.094z"/>
		</g>
		<polygon style="fill:#E59E47;" points="703.167,395.827 687.167,395.827 686.993,393.827 702.993,393.827 		"/>
		<polygon style="fill:#E59E47;" points="726.664,405.281 679.956,405.281 679.781,403.281 726.489,403.281 		"/>
		<polygon style="fill:#E59E47;" points="727.345,413.063 680.636,413.063 680.461,411.063 727.17,411.063 		"/>
		<polygon style="fill:#E59E47;" points="728.026,420.844 681.317,420.844 681.142,418.844 727.851,418.844 		"/>
		<polygon style="fill:#E59E47;" points="728.707,428.625 681.998,428.625 681.823,426.625 728.532,426.625 		"/>
	</g>
	<g>
		<g>
			<g>
				<polygon style="fill:#D1795C;" points="574.582,440.701 591.598,440.701 593.662,423.375 576.671,423.375 				"/>
				<g>
					<path style="fill:#1F160F;" d="M592.28,434.977c-1.836,1.301-10.171,1.772-11.593,0.783c-1.334-0.928,1.906-2.875-4.219-2.875
						c-1.656,0-2.082,1.639-4.201,3.019c-5.221,3.401-19.639,3.754-22.397,4.33c-3.866,0.807-5.991,4.097-5.673,8.767h25.474
						c3.328,0,12.656-1.438,12.656-1.438V449h9.003C593.504,444.555,592.28,434.977,592.28,434.977z"/>
					<path style="fill:#56545E;" d="M544.224,446.994c-0.06,0.636-0.074,1.303-0.027,2.006h25.474
						c3.328,0,12.656-1.438,12.656-1.438V449h9.003c0.497-1.016,0.81-2.304,1.007-3.68
						C577.873,444.31,574.905,446.88,544.224,446.994z"/>
				</g>
			</g>
			<g>
				<polygon style="fill:#D1795C;" points="630.575,439.263 647.393,439.263 646.328,422.25 628.768,422.25 				"/>
				<g>
					<path style="fill:#1F160F;" d="M638.968,432.884c-7.249,0-4.587,3.147-5.775,3.403c-2.156,0.465-3.007-1.31-3.007-1.31
						s-2.042,8.496,0.389,14.023h17.147c1.984-5.813-0.597-14.023-0.597-14.023s-0.166,1.742-2,1.404
						C643.184,436.022,646.594,432.884,638.968,432.884z"/>
					<path style="fill:#56545E;" d="M648.427,445.104c-0.881,1.615-3.815,1.896-9.146,1.896c-5.333,0-8.342-0.998-9.715-1.902
						c0.173,1.362,0.481,2.702,1.009,3.902h17.147C648.14,447.775,648.348,446.443,648.427,445.104z"/>
				</g>
			</g>
			<g>
				<path style="fill:#56545E;" d="M577.45,292.375h59.245c2.542,10.281,0.279,20.702,0.77,28.165
					c0.491,7.464,10.258,106.517,10.258,106.517c-6.112,2.57-23.273,0.656-23.273,0.656L607.166,336l-12.146,90.447
					c-6.282,2.397-20.438-0.416-20.438-0.416C575.944,324.664,575.939,324.842,577.45,292.375z"/>
				<g>
					<path style="fill:#1F160F;" d="M607.166,336.259c-0.117,0-0.224-0.08-0.252-0.199c-0.069-0.293-6.907-29.353-7.435-36.478
						c-0.011-0.142,0.097-0.267,0.238-0.277c0.173-0.02,0.268,0.097,0.277,0.238c0.524,7.086,7.354,36.105,7.423,36.397
						c0.032,0.14-0.054,0.278-0.192,0.312C607.205,336.257,607.185,336.259,607.166,336.259z"/>
					<path style="fill:#1F160F;" d="M602.757,323.599c-0.666,0-1.299-0.188-1.893-0.563c-3.959-2.504-5.453-13.066-6.009-21.487
						c-0.01-0.143,0.099-0.266,0.241-0.275c0.12-0.024,0.266,0.098,0.274,0.241c0.786,11.903,2.781,19.193,5.771,21.083
						c0.904,0.57,1.88,0.637,2.979,0.202c0.131-0.054,0.283,0.011,0.336,0.145c0.053,0.133-0.012,0.283-0.145,0.336
						C603.775,323.492,603.257,323.599,602.757,323.599z"/>
					<path style="fill:#1F160F;" d="M632.749,310.603c-0.071,0-7.146-0.11-9.715-9.616c-0.037-0.138,0.045-0.28,0.183-0.317
						c0.137-0.037,0.279,0.045,0.317,0.183c2.461,9.109,8.94,9.232,9.215,9.233c0.144,0,0.259,0.116,0.259,0.259
						C633.008,310.487,632.892,310.603,632.749,310.603z"/>
					<path style="fill:#1F160F;" d="M629.017,366.714c-2.283,0-5.011-0.162-7.193-0.773c-0.138-0.038-0.219-0.182-0.18-0.318
						c0.039-0.139,0.187-0.222,0.318-0.18c4.463,1.249,11.522,0.556,11.593,0.549c0.141-0.015,0.269,0.09,0.284,0.231
						c0.014,0.143-0.09,0.27-0.232,0.284C633.454,366.522,631.499,366.714,629.017,366.714z"/>
					<path style="fill:#1F160F;" d="M593.191,365.974c-1.712,0-4.906-0.125-7.501-0.945c-0.136-0.044-0.212-0.188-0.169-0.325
						c0.043-0.136,0.184-0.21,0.325-0.169c3.567,1.13,8.483,0.902,8.534,0.898c0.15,0.004,0.265,0.104,0.271,0.246
						c0.007,0.143-0.104,0.264-0.246,0.271C594.347,365.953,593.894,365.974,593.191,365.974z"/>
				</g>
				<path style="fill:#1F160F;" d="M577.45,292.375c-0.082,1.758-0.188,3.73-0.313,5.867c13.056,3.992,45.468,5.505,60.365,1.365
					c0.004-2.392-0.208-4.815-0.806-7.232H577.45z"/>
			</g>
		</g>
		<g>
			<g>
				<polygon style="fill:#D1795C;" points="595.153,205.874 613.781,206.255 613.781,187.843 595.153,187.843 				"/>
				<path style="fill:#1F160F;" d="M595.153,200.213v-12.37h18.628C613.781,187.843,612.281,201.62,595.153,200.213z"/>
			</g>
			<g>
				<path style="fill:#1F160F;" d="M615.781,155.438c-7.252-5.625-20.57-5.467-20.599-1.796c0,0.004,0.002,0.007,0.002,0.011
					c-8.553,2.843-11.201,11.128-9.306,17.551c0.829,3.289,0.902,8.421,3.149,12.345l28.515-0.564
					C623.779,162.125,621.404,157.396,615.781,155.438z"/>
				<path style="fill:#D1795C;" d="M587.216,179.225c0.242,13.845,2.502,18.981,12.177,18.812
					c9.666-0.169,16.775-5.468,16.534-19.313c-0.242-13.835-9.252-18.335-14.678-18.24
					C595.812,160.579,586.974,165.391,587.216,179.225z"/>
				<g>
					<path style="fill:#D1795C;" d="M621.86,177.786c-0.599-4.497-3.739-5.655-6.972-2.19l0.175,10.051
						C619.165,188.927,622.458,182.283,621.86,177.786z"/>
					<path style="fill:#1F160F;" d="M620.314,178.181c-0.111,0-0.214-0.072-0.248-0.184c-0.269-0.892-0.755-1.417-1.406-1.52
						c-0.738-0.118-1.583,0.34-2.151,1.163c-0.082,0.117-0.243,0.146-0.36,0.065c-0.117-0.081-0.146-0.243-0.065-0.36
						c0.682-0.984,1.725-1.527,2.658-1.379c0.85,0.134,1.496,0.803,1.821,1.882c0.041,0.137-0.037,0.281-0.174,0.322
						C620.364,178.177,620.339,178.181,620.314,178.181z"/>
				</g>
				<path style="fill:#1F160F;" d="M606.685,166.928c-6.975-0.475-17.719,2.495-18.938,0.697
					c-1.719-2.536,0.126-10.013,12.281-10.225c15.195-0.265,15.653,15.015,15.563,17.513c-0.1,2.792-1.605,7.181-2.135,5.287
					C610.892,171.049,608.011,173.465,606.685,166.928z"/>
				<g>
					<path style="fill:#1F160F;" d="M598.107,189.718c-0.71,0-1.45-0.081-2.204-0.246c-0.14-0.031-0.227-0.169-0.197-0.308
						c0.031-0.14,0.173-0.227,0.309-0.198c2.263,0.497,4.382,0.201,5.82-0.81c0.116-0.081,0.277-0.054,0.36,0.063
						c0.082,0.117,0.054,0.278-0.063,0.36C601.063,189.33,599.659,189.718,598.107,189.718z"/>
					<path style="fill:#1F160F;" d="M598.359,185.62c-0.445,0-0.921-0.156-1.376-0.461c-0.483-0.324-0.964-0.855-0.948-1.311
						c0.009-0.241,0.146-0.603,0.353-1.151c0.388-1.027,0.973-2.58,0.945-4.13c-0.003-0.143,0.111-0.261,0.254-0.263
						c0.162-0.013,0.261,0.111,0.264,0.254c0.029,1.649-0.577,3.258-0.979,4.322c-0.162,0.427-0.315,0.831-0.319,0.987
						c-0.006,0.156,0.241,0.543,0.719,0.863c0.265,0.178,0.95,0.558,1.592,0.269c0.128-0.058,0.283-0.001,0.342,0.129
						c0.06,0.13,0.002,0.284-0.129,0.343C598.853,185.57,598.611,185.62,598.359,185.62z"/>
					<path style="fill:#1F160F;" d="M592.17,177.424c0.015,0.857,0.49,1.544,1.062,1.534c0.571-0.01,1.023-0.713,1.008-1.57
						c-0.015-0.857-0.491-1.544-1.062-1.534C592.607,175.863,592.155,176.566,592.17,177.424z"/>
					<path style="fill:#1F160F;" d="M590.577,174.804c-0.281,0-0.552-0.152-0.689-0.419c-0.198-0.38-0.05-0.849,0.331-1.046
						c1.527-0.793,2.854-0.951,4.721-0.567c0.42,0.086,0.69,0.497,0.604,0.917c-0.086,0.419-0.496,0.689-0.916,0.604
						c-1.723-0.355-2.657-0.113-3.693,0.424C590.819,174.775,590.697,174.804,590.577,174.804z"/>
					<path style="fill:#1F160F;" d="M603.944,177.175c0.015,0.857-0.436,1.56-1.008,1.57c-0.572,0.01-1.047-0.677-1.062-1.534
						c-0.015-0.857,0.436-1.56,1.008-1.57S603.929,176.318,603.944,177.175z"/>
					<path style="fill:#1F160F;" d="M605.533,174.465c-0.137,0-0.276-0.037-0.402-0.113c-1.048-0.636-2.031-0.909-4.2-0.526
						c-0.426,0.072-0.825-0.208-0.899-0.63c-0.074-0.422,0.208-0.825,0.63-0.899c2.308-0.405,3.735-0.208,5.276,0.729
						c0.366,0.223,0.482,0.7,0.26,1.066C606.052,174.332,605.796,174.465,605.533,174.465z"/>
				</g>
				<path style="fill:#1F160F;" d="M594.508,186.983c1.664-1.109,6.602-1.327,7.668-0.873c1.066,0.454,1.769,1.758,1.769,1.758
					c-5.248-1.162-10.74,1.006-10.74,1.006S593.555,187.618,594.508,186.983z"/>
			</g>
		</g>
		<g>
			<g>
				<path style="fill:#D1795C;" d="M519.668,215.551c0.428-0.392,1.005-0.332,1.005-0.332c-0.007-1.719,1.625-2.174,1.625-2.174
					s-0.631-0.631-0.608-0.908c0.059-0.703,0.439-1.656,1.616-1.933c0.301-0.071,1.659,0.559,1.659,0.559s0.128-0.053,0.331-0.135
					c-1.707-2.349-5.165-7.167-5.979-8.756c-0.795-1.551,1.424-2.627,2.682-1.238c0.52,0.574,5.061,6.47,6.8,8.731
					c0.823-0.248,1.549-0.412,1.89-0.348c1.049,0.196,4.047,2.668,4.759,3.588c0.712,0.92,1.912,4.58,1.912,4.58l7.384,7.719
					l-8.089,8.254c0,0-6.41-6.612-7.394-6.853c-0.985-0.24-6.93-3.256-7.612-4.214c-0.682-0.957-2.492-5.186-2.492-5.186
					S518.912,216.243,519.668,215.551z"/>
				<g>
					<path style="fill:#1F160F;" d="M529.018,222.238c-0.109,0-0.212-0.07-0.247-0.181c-1.142-3.596,1.002-6.156,1.422-6.611
						c-0.001-0.461-0.634-1.583-1.155-2.348c-0.555,0.102-2.401,0.447-3.562,0.766c-0.827,0.227-1.807,0.042-2.555-0.486
						c-0.584-0.411-0.93-0.956-0.974-1.537c-0.009-0.115,0.06-0.222,0.168-0.262l6.593-2.455c0.132-0.049,0.283,0.018,0.332,0.152
						c0.05,0.134-0.018,0.283-0.152,0.333l-6.394,2.381c0.087,0.353,0.344,0.697,0.725,0.965c0.625,0.44,1.437,0.598,2.12,0.41
						c1.395-0.383,3.748-0.801,3.771-0.806c0.095-0.017,0.199,0.024,0.257,0.106c0.246,0.351,1.471,2.141,1.329,2.939
						c-0.01,0.053-0.036,0.102-0.074,0.141c-0.104,0.101-2.516,2.513-1.357,6.156c0.043,0.136-0.032,0.281-0.169,0.325
						C529.07,222.234,529.043,222.238,529.018,222.238z"/>
					<path style="fill:#1F160F;" d="M529.155,213.072c-0.062,0-0.123-0.021-0.172-0.066c-0.107-0.095-0.116-0.258-0.022-0.365
						c0.233-0.261,0.192-1.253,0.089-1.874c-0.023-0.141,0.071-0.274,0.212-0.298c0.15-0.02,0.275,0.073,0.298,0.213
						c0.049,0.291,0.267,1.767-0.212,2.304C529.297,213.043,529.227,213.072,529.155,213.072z"/>
					<path style="fill:#1F160F;" d="M530.987,215.899c-0.22,0-0.452-0.024-0.641-0.099c-0.133-0.053-0.198-0.203-0.146-0.336
						c0.053-0.132,0.203-0.197,0.335-0.145c0.307,0.121,0.899,0.037,1.104-0.005c0.138-0.027,0.276,0.061,0.306,0.2
						c0.029,0.14-0.06,0.277-0.199,0.307C531.69,215.831,531.354,215.899,530.987,215.899z"/>
					<path style="fill:#1F160F;" d="M529.564,217.012c-0.03,0-0.062-0.005-0.092-0.017c-1.41-0.533-6.936-3.562-7.17-3.69
						c-0.126-0.069-0.172-0.226-0.102-0.352c0.068-0.126,0.227-0.171,0.351-0.102c0.058,0.032,5.727,3.14,7.105,3.66
						c0.134,0.051,0.201,0.2,0.15,0.333C529.768,216.948,529.669,217.012,529.564,217.012z"/>
					<path style="fill:#1F160F;" d="M527.964,219.279c-0.2,0-0.422-0.033-0.658-0.122c-0.556-0.21-6.127-3.354-6.76-3.712
						c-0.125-0.07-0.169-0.228-0.099-0.353c0.07-0.123,0.229-0.169,0.353-0.098c1.712,0.967,6.25,3.513,6.688,3.678
						c0.655,0.248,1.148-0.099,1.169-0.113c0.115-0.083,0.277-0.058,0.361,0.056c0.084,0.114,0.061,0.275-0.054,0.36
						C528.943,218.991,528.549,219.279,527.964,219.279z"/>
					<path style="fill:#1F160F;" d="M525.847,220.454c-0.271,0-2.596-0.772-2.714-0.828c-0.247-0.115-3.717-2.255-4.111-2.499
						c-0.122-0.075-0.159-0.234-0.084-0.356c0.075-0.123,0.237-0.158,0.356-0.085c1.533,0.946,3.879,2.384,4.059,2.47
						c0.233,0.109,2.294,0.752,2.505,0.781c0.227-0.015,0.42-0.102,0.559-0.264c0.302-0.354,0.248-0.96,0.247-0.966
						c-0.015-0.143,0.089-0.27,0.231-0.284c0.139-0.012,0.269,0.089,0.284,0.23c0.003,0.034,0.079,0.829-0.369,1.355
						c-0.232,0.272-0.553,0.422-0.955,0.445C525.852,220.454,525.85,220.454,525.847,220.454z"/>
					<path style="fill:#1F160F;" d="M522.468,221.872c-0.052,0-0.103-0.015-0.148-0.046c-0.117-0.082-0.146-0.243-0.063-0.36
						c0.035-0.052,0.893-1.271,1.96-1.921c0.121-0.074,0.28-0.036,0.356,0.087c0.074,0.122,0.036,0.281-0.086,0.356
						c-0.974,0.592-1.797,1.763-1.806,1.775C522.63,221.833,522.549,221.872,522.468,221.872z"/>
				</g>
			</g>
			<g>
				<path style="fill:#FFFFFF;" d="M637.033,273.189l1.183,24.451c-29.234,3.672-62.1-1.08-62.1-1.08
					c1.33-43.12,1.02-39.448,1.02-39.448s-6.483,9.675-10.197,8.69c-13.131-3.482-32.539-31.596-32.539-31.596
					c4.429-5.516,10.344-11.144,10.344-11.144l20.042,19.639c0-33.014,11.75-36.991,16-37.531c4.62-0.58,11.16-1.34,22.13-1.68
					c7.75-0.25,29.01-0.4,35.04,4.26c6.75,5.21,17.377,33.879,17.337,59.009C655.283,272.009,637.033,273.189,637.033,273.189z"/>
				<path style="fill:#D1795C;" d="M595.153,203.833c0,4.386,1.549,7.151,6.907,7.151c5.358,0,11.721-2.17,11.721-7.595
					c0,0-5.944-0.233-10.088-0.233S595.153,203.833,595.153,203.833z"/>
				<path style="fill:#1C8C4F;" d="M621.488,203.811c-1.563-0.12-3.137-0.209-4.688-0.273c-2.119,5.308-9.624,14.647-14.314,14.187
					c-5.053-0.495-9.268-2.932-9.728-13.737c-2.123,0.147-4.01,0.308-5.696,0.472c-0.37,4.507-2.06,19.563-8.506,26.975
					l-1.42,25.676c0,0,0.31-3.672-1.02,39.448c0,0,26.417,5.244,62.1,1.08l-1.183-24.451c0,0-1.66-27.303-4.192-41.637
					C632.841,231.552,623.428,229.165,621.488,203.811z"/>
				<path style="fill:#FFFFFF;" d="M602.419,211.616c6.75,0,8.561,5.786,10.688,7.009c4.969-6.866,4.205-14.911,4.205-14.911
					c-1.132-1.752-3.53-3.089-3.53-3.089c0,3.375-6.052,10.062-11.721,10.062c-5.732,0-6.907-10.062-6.907-10.062
					c-1.947,1.531-3.541,3.444-3.541,3.444c-0.504,2.427,0.276,8.181,3.167,14.31C596.841,216.328,598.951,211.616,602.419,211.616z
					"/>
			</g>
			<g>
				<g>
					<path style="fill:#1F160F;" d="M592.242,278.415l-19.452,1.541c-0.551,0.044-1.032-0.367-1.076-0.918l-2.728-34.437
						c-0.044-0.551,0.367-1.032,0.918-1.076l19.452-1.541c0.551-0.044,1.032,0.367,1.076,0.918l2.728,34.437
						C593.204,277.889,592.793,278.371,592.242,278.415z"/>
					<path style="fill:#FABC5F;" d="M591.18,279.29l-19.452,1.541c-0.551,0.044-1.032-0.367-1.076-0.918l-2.728-34.437
						c-0.044-0.551,0.367-1.032,0.918-1.076l19.452-1.541c0.551-0.044,1.032,0.367,1.076,0.918l2.728,34.437
						C592.141,278.764,591.73,279.246,591.18,279.29z"/>
					
						<rect x="572.209" y="248.438" transform="matrix(0.9969 -0.079 0.079 0.9969 -17.8941 46.3214)" style="fill:#FFFFFF;" width="8.864" height="1.875"/>
				</g>
				<g>
					<path style="fill:#D1795C;" d="M609.841,272.785c-16.579,2.371-29.063,1.282-30.384,1.293
						c-0.996,0.008-1.014-1.098-0.382-1.336c0.593-0.223,6.825-0.572,6.825-0.572c-0.235-0.181-10.053-0.715-10.434-0.74
						c-1.231-0.082-1.188-1.84-0.109-1.969c0.91-0.109,9.763-0.385,9.763-0.385c-0.168-0.292-10.824-0.772-11.169-0.846
						c-1.094-0.234-0.859-2-0.063-2.047c0.973-0.057,10.734-0.158,10.734-0.158c-0.238-0.705-6.112-0.821-8.156-1.002
						c-1.32-0.117-1.557-1.785,0.146-1.828c3.537-0.089,14.329,0.654,14.698-2.194c0.17-1.307,0.26-1.333,0.12-3.155
						c-0.08-1.047-0.035-2.779-0.035-2.779c1.636,0.262,2.498,2.538,3.165,3.528c0.969,1.438,3.502,3.288,5.195,3.546
						c1.147,0.175,9.93-0.663,9.93-0.663L609.841,272.785z"/>
					<g>
						<path style="fill:#1F160F;" d="M584.623,266.283c-0.102,0-0.198-0.061-0.238-0.159c-0.373-0.402-4.144-0.614-5.96-0.717
							c-0.793-0.044-1.495-0.084-1.981-0.127c-0.865-0.077-1.314-0.702-1.297-1.251c0.016-0.488,0.407-1.067,1.458-1.094
							c0.629-0.017,1.481-0.006,2.467,0.007c3.24,0.036,7.68,0.094,10.211-0.658c0.137-0.039,0.28,0.036,0.321,0.175
							c0.041,0.137-0.037,0.28-0.175,0.321c-2.602,0.773-7.089,0.718-10.363,0.68c-0.981-0.013-1.829-0.023-2.447-0.007
							c-0.578,0.015-0.943,0.241-0.954,0.592c-0.01,0.313,0.275,0.671,0.824,0.72c0.483,0.043,1.18,0.082,1.965,0.126
							c4.357,0.245,6.21,0.445,6.415,1.051c0.046,0.136-0.027,0.282-0.162,0.328C584.679,266.278,584.65,266.283,584.623,266.283z
							 M584.39,266.13L584.39,266.13L584.39,266.13z M584.378,266.107L584.378,266.107L584.378,266.107z"/>
						<path style="fill:#1F160F;" d="M585.12,269.335c-0.055,0-0.109-0.018-0.154-0.051c-0.553-0.186-5.663-0.476-8.424-0.632
							c-1.867-0.106-2.53-0.146-2.646-0.17c-0.713-0.152-0.986-0.818-0.94-1.411c0.049-0.646,0.427-1.118,0.917-1.146
							c0.006-0.001,0.011-0.001,0.016-0.001c0.136,0,0.25,0.107,0.258,0.243c0.009,0.143-0.1,0.266-0.242,0.273
							c-0.249,0.015-0.409,0.357-0.433,0.67c-0.01,0.124-0.028,0.746,0.534,0.866c0.121,0.021,1.309,0.088,2.565,0.159
							c8.587,0.486,8.649,0.595,8.773,0.812c0.071,0.124,0.028,0.282-0.096,0.354C585.208,269.324,585.164,269.335,585.12,269.335z"
							/>
						<path style="fill:#1F160F;" d="M585.9,272.429c-0.039,0-0.078-0.009-0.114-0.026c-0.268-0.073-2.196-0.251-9.752-0.681
							l-0.585-0.034c-0.782-0.052-1.146-0.645-1.161-1.208c-0.016-0.57,0.337-1.191,1.039-1.275
							c0.141-0.014,0.271,0.085,0.287,0.227s-0.084,0.271-0.227,0.287c-0.412,0.05-0.592,0.423-0.583,0.748
							c0.009,0.32,0.191,0.673,0.68,0.706l0.58,0.033c9.726,0.553,9.874,0.668,9.994,0.76c0.113,0.088,0.134,0.25,0.047,0.363
							C586.055,272.394,585.977,272.429,585.9,272.429z"/>
						<path style="fill:#1F160F;" d="M588.204,274.578c-3.551,0-6.176-0.127-7.652-0.198c-0.547-0.026-0.902-0.049-1.092-0.043
							c-0.004,0-0.008,0-0.013,0c-0.664,0-0.977-0.416-1.043-0.773c-0.085-0.458,0.159-0.905,0.581-1.064
							c0.135-0.053,0.283,0.018,0.333,0.151s-0.018,0.283-0.151,0.333c-0.209,0.078-0.286,0.309-0.254,0.484
							c0.041,0.224,0.236,0.35,0.534,0.35c0.01,0,0.021,0,0.03,0c0.187,0,0.559,0.018,1.1,0.044
							c2.044,0.097,6.298,0.302,12.163,0.129c0.138,0.003,0.262,0.108,0.267,0.251c0.004,0.143-0.108,0.262-0.251,0.267
							C591.107,274.559,589.586,274.578,588.204,274.578z"/>
					</g>
				</g>
				<path style="fill:#FFFFFF;" d="M635.741,256.062c0,0-27.244,4.185-27.838,4.81c-0.594,0.626,1.062,14.028,1.5,14.594
					c0.437,0.566,27.629-2.278,27.629-2.278C637.904,264.563,635.741,256.062,635.741,256.062z"/>
			</g>
			<g>
				<path style="fill:#1F160F;" d="M578.557,231.694c-0.003,0-0.005,0-0.008,0c-0.143-0.004-0.255-0.124-0.251-0.267
					c0.171-5.686,0.541-9.324,0.544-9.36c0.015-0.143,0.146-0.245,0.284-0.231c0.143,0.015,0.246,0.142,0.231,0.284
					c-0.004,0.036-0.372,3.657-0.542,9.323C578.81,231.583,578.696,231.694,578.557,231.694z"/>
				<path style="fill:#1F160F;" d="M642.404,256.181c-0.011,0-0.023-0.001-0.034-0.002c-2.873-0.383-6.514-0.003-6.551,0
					c-0.068,0.005-0.142-0.014-0.193-0.059c-0.055-0.046-0.088-0.11-0.092-0.181c-1.434-21.311-4.445-34.128-4.476-34.254
					c-0.033-0.139,0.053-0.279,0.192-0.312c0.137-0.035,0.278,0.053,0.312,0.191c0.03,0.127,3.026,12.876,4.47,34.075
					c0.903-0.08,3.928-0.302,6.406,0.025c0.142,0.02,0.241,0.15,0.223,0.291C642.644,256.086,642.532,256.181,642.404,256.181z"/>
				<path style="fill:#1F160F;" d="M625.529,232.884h-13.563c-0.143,0-0.259-0.116-0.259-0.259s0.116-0.259,0.259-0.259h13.563
					c0.143,0,0.259,0.116,0.259,0.259S625.672,232.884,625.529,232.884z"/>
				<path style="fill:#1F160F;" d="M569.092,247.008c-0.088,0-0.175-0.045-0.223-0.127c-0.009-0.015-0.908-1.499-4.237-3.972
					c-0.114-0.085-0.139-0.247-0.054-0.362c0.085-0.115,0.248-0.139,0.362-0.053c3.434,2.551,4.338,4.063,4.375,4.126
					c0.071,0.123,0.03,0.281-0.093,0.353C569.182,246.997,569.137,247.008,569.092,247.008z"/>
				<path style="fill:#1F160F;" d="M596.911,215.965c-0.057,0-0.114-0.018-0.162-0.057c-0.111-0.089-0.129-0.252-0.04-0.364
					c0.137-0.171,3.379-4.187,5.711-4.187c4.426,0,6.796,2.651,6.895,2.764c0.095,0.107,0.083,0.271-0.023,0.365
					c-0.109,0.095-0.272,0.085-0.365-0.024c-0.023-0.026-2.324-2.587-6.506-2.587c-2.084,0-5.274,3.953-5.307,3.993
					C597.061,215.932,596.987,215.965,596.911,215.965z"/>
			</g>
			<g>
				<path style="fill:#FFFFFF;" d="M623.466,256.386h-10c-0.552,0-1-0.448-1-1v-16c0-0.552,0.448-1,1-1h10c0.552,0,1,0.448,1,1v16
					C624.466,255.938,624.019,256.386,623.466,256.386z"/>
				<path style="fill:#FFFFFF;" d="M618.65,238.436h-0.367c-0.451,0-0.817-0.365-0.817-0.816v-5.367
					c0-0.451,0.366-0.816,0.817-0.816h0.367c0.451,0,0.816,0.366,0.816,0.816v5.367C619.466,238.07,619.101,238.436,618.65,238.436z
					"/>
				<circle style="fill:#1F160F;" cx="618.466" cy="238.436" r="1.5"/>
				<circle style="fill:#FFFFFF;" cx="618.466" cy="238.436" r="0.5"/>
				<path style="fill:#F5E5C9;" d="M624.466,255.386v-5.411c-1.031-0.385-2.738-0.962-4.072-1.105
					c0.352-0.517,0.572-1.168,0.572-1.888c0-1.657-1.119-3-2.5-3c-1.381,0-2.5,1.343-2.5,3c0,0.72,0.22,1.371,0.572,1.888
					c-1.333,0.143-3.04,0.72-4.072,1.105v5.411c0,0.552,0.448,1,1,1h10C624.019,256.386,624.466,255.938,624.466,255.386z"/>
				<rect x="616.466" y="250.853" style="fill:#1F160F;" width="4" height="1"/>
				<rect x="614.466" y="253.009" style="fill:#1F160F;" width="8" height="1"/>
			</g>
		</g>
	</g>
	<g>
		<g>
			<path style="fill:#1F160F;" d="M188.619,152.328c-12.154,0.016-18.427,12.957-15.717,27.71c1.674,9.116-16.509,5.373-11.594,17.4
				c3.209,7.852-17.775,7.469-0.406,30.758c16.754,22.464,80.063,1.963,59.715-28.443c-3.893-5.818,4.504-9.875-1.186-16.262
				c-3.008-3.376-0.034-7.939,0.071-13.296C219.801,154.875,204.596,141.938,188.619,152.328z"/>
			<g>
				<polygon style="fill:#EBA38D;" points="208.148,204.228 189.52,204.609 189.52,186.197 208.148,186.197 				"/>
				<path style="fill:#1F160F;" d="M208.148,199.247l0-13.05h-17.212C190.936,186.197,191.02,200.653,208.148,199.247z"/>
			</g>
			<path style="fill:#EBA38D;" d="M216.086,177.579c-0.242,13.845-2.502,18.981-12.177,18.812
				c-9.666-0.169-16.775-5.468-16.534-19.313c0.241-13.835,9.252-18.335,14.678-18.24
				C207.489,158.932,216.327,163.744,216.086,177.579z"/>
			<g>
				<path style="fill:#EBA38D;" d="M181.441,176.139c0.599-4.497,3.739-5.655,6.972-2.19l-0.175,10.051
					C184.136,187.281,180.843,180.636,181.441,176.139z"/>
				<path style="fill:#1F160F;" d="M182.987,176.535c-0.024,0-0.05-0.003-0.075-0.011c-0.137-0.041-0.214-0.185-0.173-0.322
					c0.325-1.08,0.971-1.748,1.82-1.882c0.932-0.151,1.976,0.394,2.659,1.378c0.081,0.118,0.052,0.279-0.066,0.36
					c-0.116,0.079-0.278,0.053-0.36-0.065c-0.569-0.822-1.411-1.282-2.152-1.162c-0.651,0.103-1.137,0.629-1.406,1.521
					C183.201,176.462,183.099,176.535,182.987,176.535z"/>
			</g>
			<path style="fill:#1F160F;" d="M196.616,165.281c8.53,3.656,14.515,8.484,19.408,5.578c2.634-1.564-0.596-14.894-12.751-15.106
				c-15.195-0.265-15.653,15.015-15.563,17.514c0.1,2.792,1.605,7.181,2.135,5.287C192.409,169.403,195.29,171.819,196.616,165.281z
				"/>
			<g>
				<path style="fill:#1F160F;" d="M204.941,183.974c-0.252,0-0.494-0.05-0.717-0.151c-0.13-0.059-0.188-0.212-0.129-0.343
					c0.06-0.129,0.213-0.188,0.343-0.129c0.638,0.289,1.327-0.091,1.592-0.269c0.478-0.32,0.725-0.707,0.719-0.864
					c-0.005-0.155-0.158-0.559-0.319-0.986c-0.402-1.064-1.009-2.672-0.98-4.322c0.002-0.143,0.1-0.263,0.263-0.254
					c0.143,0.002,0.257,0.121,0.254,0.263c-0.027,1.551,0.559,3.104,0.947,4.131c0.207,0.548,0.343,0.91,0.352,1.15
					c0.016,0.456-0.465,0.988-0.949,1.312C205.863,183.817,205.387,183.974,204.941,183.974z"/>
				<path style="fill:#1F160F;" d="M211.131,175.777c-0.015,0.857-0.49,1.544-1.062,1.534c-0.571-0.01-1.023-0.713-1.008-1.57
					c0.015-0.857,0.491-1.544,1.062-1.534C210.695,174.217,211.146,174.92,211.131,175.777z"/>
				<path style="fill:#1F160F;" d="M212.725,173.157c-0.121,0-0.243-0.028-0.357-0.087c-1.036-0.538-1.973-0.779-3.693-0.424
					c-0.419,0.083-0.831-0.183-0.917-0.604c-0.086-0.419,0.184-0.83,0.604-0.917c1.869-0.385,3.193-0.226,4.721,0.566
					c0.38,0.197,0.529,0.666,0.332,1.046C213.276,173.004,213.005,173.157,212.725,173.157z"/>
				<path style="fill:#1F160F;" d="M199.357,175.529c-0.015,0.857,0.436,1.56,1.007,1.57c0.572,0.01,1.047-0.677,1.062-1.534
					c0.015-0.857-0.436-1.56-1.008-1.57C199.848,173.985,199.372,174.672,199.357,175.529z"/>
				<path style="fill:#1F160F;" d="M197.768,172.818c-0.263,0-0.519-0.133-0.665-0.374c-0.222-0.366-0.105-0.844,0.261-1.066
					c1.54-0.935,2.971-1.132,5.276-0.728c0.422,0.074,0.705,0.477,0.63,0.899c-0.075,0.422-0.477,0.7-0.899,0.63
					c-2.178-0.384-3.156-0.111-4.202,0.526C198.044,172.782,197.905,172.818,197.768,172.818z"/>
				<g>
					<path style="fill:#1F160F;" d="M206.473,187.389c-2.386-0.428-4.063-0.908-5.764-1.948c0,0-1.167,3.642,1.697,4.238
						C204.626,190.142,206.473,187.389,206.473,187.389z"/>
					<path style="fill:#CC4E49;" d="M200.574,187.917c0.186,0.79,0.68,1.523,1.832,1.763c0.967,0.201,1.863-0.208,2.567-0.733
						C203.811,187.694,202.375,187.345,200.574,187.917z"/>
				</g>
			</g>
		</g>
		<g>
			<g>
				<polygon style="fill:#EBA38D;" points="169.479,415.688 166.84,441.25 173.574,447.063 182.088,443.337 185.63,415.587 				"/>
				<path style="fill:#1F160F;" d="M174.187,441.629c2.016,0,5.531,1.265,6.516,0.824c0.984-0.441,2.872-10.766,2.872-10.766
					c1.112,2.938,0,17.313,0,17.313h-18.266c-0.027-10.625,2.519-17.313,2.519-17.313c-0.362,5.614,0.266,11.563,1.673,11.047
					C170.906,442.219,172.324,441.629,174.187,441.629z"/>
			</g>
			<g>
				<path style="fill:#EBA38D;" d="M238.137,430.879l-2.766-15.192h-16.992l2.617,16l10.758,9.013l4.833,4.049h22.063l0.452-3.121
					C250.524,439.688,239.687,437.883,238.137,430.879z"/>
				<g>
					<path style="fill:#1F160F;" d="M259.101,441.629c-6.201,3.496-16.717,2.124-22.826-3.015c-4.437-3.732-8.34-6.927-15.278-6.927
						c-3.224,6.688,0.897,11.625-0.407,17.313h5.372l1.459-5.875l4.351,4.232c1.083,1.054,2.535,1.643,4.046,1.643h28.956
						C265.092,444.33,262.967,442.436,259.101,441.629z"/>
				</g>
			</g>
			<g>
				<path style="fill:#E59E47;" d="M164.79,424.719c0,0,1.229-92.758,1.72-100.222c0.491-7.464-4.947-23-1.504-41.359h59.245
					c5.437,59.454,13.471,140.978,13.471,140.978s-12.18,3.299-21.201,0.766L199.125,326.5c0,0-6.193,76.703-11.063,99.063
					C188.062,425.563,176.744,427.078,164.79,424.719z"/>
				<g>
					<path style="fill:#1F160F;" d="M199.125,326.759c-0.005,0-0.011,0-0.016-0.001c-0.143-0.008-0.251-0.131-0.243-0.273
						c0.008-0.141,0.854-14.202,1.72-21.764c0.016-0.142,0.145-0.245,0.286-0.228c0.142,0.016,0.244,0.145,0.228,0.286
						c-0.864,7.548-1.709,21.595-1.717,21.736C199.375,326.652,199.261,326.759,199.125,326.759z"/>
					<path style="fill:#1F160F;" d="M223.031,420.331c-0.121,0-0.229-0.085-0.253-0.208l-22.536-111.941
						c-0.028-0.14,0.063-0.276,0.202-0.305c0.142-0.024,0.277,0.063,0.305,0.203l22.536,111.941c0.028,0.14-0.063,0.276-0.202,0.305
						C223.065,420.329,223.048,420.331,223.031,420.331z"/>
					<path style="fill:#1F160F;" d="M180.927,420.327c-3.747,0-8.956-0.209-14.13-1.103c-0.141-0.024-0.235-0.158-0.211-0.299
						c0.024-0.141,0.156-0.241,0.299-0.211c9.623,1.661,19.374,0.94,19.471,0.935c0.142-0.021,0.267,0.096,0.278,0.238
						c0.011,0.143-0.096,0.267-0.238,0.277C186.349,420.168,184.194,420.327,180.927,420.327z"/>
					<path style="fill:#1F160F;" d="M225.207,420.446c-2.807,0-5.787-0.168-8.412-0.672c-0.14-0.026-0.232-0.162-0.205-0.303
						c0.027-0.142,0.165-0.23,0.303-0.205c7.743,1.485,18.65,0.013,18.76-0.002c0.14-0.02,0.272,0.079,0.292,0.221
						c0.02,0.142-0.079,0.271-0.221,0.291C235.649,419.787,230.769,420.446,225.207,420.446z"/>
				</g>
				<path style="fill:#1F160F;" d="M165.005,283.139c-0.312,1.661-0.529,3.29-0.706,4.901c15.394,3.139,46.607,1.769,60.256-1.576
					c-0.102-1.115-0.204-2.225-0.305-3.325H165.005z"/>
			</g>
		</g>
		<g>
			<g>
				<path style="fill:#FFFFFF;" d="M136.16,308.577c-0.664,7.73,0.421,17.045,0.951,20.892c0.141,1.021,1.036,1.763,2.066,1.719
					l42.417-1.806c1.075-0.046,1.919-0.935,1.915-2.011c-0.044-10.515-0.432-17.668-0.629-20.642
					c-0.061-0.926-0.748-1.694-1.666-1.837c-12.067-1.887-36.853,1.025-43.315,1.845
					C136.954,306.857,136.242,307.627,136.16,308.577z"/>
				<path style="fill:#1F160F;" d="M158.176,319.489c-0.233,0-0.461-0.004-0.685-0.012c-8.529-0.301-17.368-4.33-21.016-9.58
					c-0.081-0.117-0.053-0.278,0.065-0.36c0.117-0.081,0.277-0.053,0.36,0.065c3.563,5.126,12.23,9.062,20.609,9.357
					c7.567,0.27,20.509-4.086,24.248-9.359c0.083-0.116,0.244-0.145,0.36-0.061s0.145,0.244,0.061,0.36
					C178.466,315.137,165.945,319.489,158.176,319.489z"/>
			</g>
			<g>
				<path style="fill:#EBA38D;" d="M265.586,199.906c0.161-2.414-1.182-5.886-1.4-7.506c-0.281-2.081-0.496-5.176-0.26-6.083
					c0.236-0.907,2.592-6.298,2.592-6.298c1.75-0.004,2.278,2.316,1.996,3.201c-0.282,0.885-0.939,3.787-0.953,4.334
					c-0.08,3.107,1.212,4.158,1.212,4.158c2.127-2.481,4.886-16.536,5.472-17.755c0.586-1.219,2.207-0.8,2.126,0.5
					c-0.074,1.184-1.818,12.557-1.869,12.864c-0.051,0.307,0.227,0.456,0.435,0.11c0.208-0.346,2.955-12.531,3.637-14.255
					c0.759-1.919,2.739-1.308,2.307,1.095c-0.432,2.403-3.283,13.766-3.343,13.979c-0.061,0.213,0.187,0.419,0.381,0.129
					c0.292-0.436,4.428-11.2,4.739-11.78c0.583-1.087,2.445-0.365,2.196,1.019c-0.249,1.384-4.043,11.732-4.101,11.952
					c-0.058,0.22,0.249,0.459,0.426,0.196c0.38-0.564,4.046-6.661,4.844-7.668c0.844-1.066,2.416-0.296,1.445,1.205
					c-0.971,1.501-3.633,7.245-3.785,7.779c-0.152,0.534-1.708,8.88-6.16,14.497c-0.875,1.104-5.704,10.521-5.704,10.521
					l-10.627-6.307L265.586,199.906z"/>
				<g>
					<path style="fill:#1F160F;" d="M276.576,199.327c-0.124,0-0.234-0.091-0.255-0.218c-0.006-0.04-0.662-3.971-2.966-6.195
						c-0.103-0.099-0.106-0.263-0.006-0.366c0.099-0.104,0.262-0.107,0.366-0.006c2.431,2.346,3.091,6.317,3.118,6.485
						c0.022,0.141-0.073,0.274-0.214,0.296C276.604,199.326,276.59,199.327,276.576,199.327z"/>
					<path style="fill:#1F160F;" d="M282.329,190.982c-0.04,0-0.081-0.009-0.12-0.029c-0.034-0.018-3.469-1.797-8.495-3.688
						c-0.134-0.05-0.201-0.2-0.151-0.333c0.051-0.133,0.201-0.2,0.334-0.151c5.057,1.903,8.517,3.695,8.552,3.713
						c0.126,0.066,0.176,0.222,0.11,0.349C282.513,190.931,282.422,190.982,282.329,190.982z"/>
					<path style="fill:#1F160F;" d="M276.419,205.835c-0.009,0-0.018-0.001-0.028-0.002c-2.316-0.245-5.863-1.723-6.013-1.786
						c-0.132-0.055-0.194-0.207-0.139-0.339c0.056-0.131,0.207-0.193,0.339-0.139c0.036,0.015,3.627,1.512,5.867,1.749
						c0.142,0.015,0.245,0.143,0.23,0.285C276.662,205.736,276.549,205.835,276.419,205.835z"/>
				</g>
			</g>
			<g>
				<path style="fill:#EBA38D;" d="M152.7,308.098c-0.631,3.705,2.146,22.506,3.249,23.233c1.103,0.727,2.287,0.25,2.287,0.25
					c0.798,0.719,3.184,0.212,3.184,0.212c1.257,0.445,3.091-0.059,3.091-0.059c1.578,0.23,2.751-0.483,2.751-0.483
					s-0.128,3.128,2.703,3.278c0,0,0.368-3.515,0.613-4.913c0.38-2.177-0.12-4.008-0.457-5.153c-0.336-1.146-3.365-5.514-4.01-6.479
					c-0.645-0.965-2.258-11.763-2.258-11.763L152.7,308.098z"/>
				<g>
					<path style="fill:#1F160F;" d="M167.261,331.51c-0.011,0-0.022-0.001-0.034-0.002c-0.142-0.019-0.241-0.148-0.223-0.29
						c0.311-2.372-0.211-6.729-0.216-6.773c-0.017-0.142,0.084-0.271,0.226-0.288c0.141-0.013,0.271,0.084,0.288,0.225
						c0.022,0.182,0.535,4.466,0.215,6.902C167.5,331.415,167.389,331.51,167.261,331.51z"/>
					<path style="fill:#1F160F;" d="M164.511,331.993c-0.009,0-0.018,0-0.026-0.001c-0.142-0.015-0.246-0.142-0.232-0.284
						c0.061-0.6-0.004-1.625-0.005-1.636c-0.009-0.143,0.099-0.266,0.242-0.274c0.137-0.02,0.266,0.099,0.275,0.241
						c0.003,0.044,0.068,1.078,0.003,1.722C164.754,331.894,164.642,331.993,164.511,331.993z"/>
					<path style="fill:#1F160F;" d="M161.419,332.053c-0.001,0-0.001,0-0.002,0c-0.143-0.001-0.258-0.118-0.257-0.261l0.011-1.464
						c0.001-0.143,0.117-0.257,0.259-0.257c0.001,0,0.001,0,0.002,0c0.143,0.001,0.258,0.118,0.257,0.261l-0.011,1.464
						C161.677,331.939,161.561,332.053,161.419,332.053z"/>
					<path style="fill:#1F160F;" d="M158.236,331.84c-0.003,0-0.006,0-0.01,0c-0.143-0.006-0.254-0.126-0.249-0.269l0.04-1.041
						c0.005-0.144,0.108-0.254,0.268-0.249c0.143,0.006,0.254,0.126,0.249,0.268l-0.04,1.041
						C158.489,331.73,158.374,331.84,158.236,331.84z"/>
				</g>
			</g>
			<g>
				<path style="fill:#FFFFFF;" d="M167.402,284.478c42.903,2.312,55.278-1.08,55.278-1.08c-1.33-43.12,2.152-79.135,2.152-79.135
					c-4.62-0.58-11.16-1.767-22.13-2.107c-7.75-0.25-9.773-0.132-13.016,0.137c-4.69,0.389-15.936,3.534-15.936,3.534
					C167.021,233.345,167.402,284.478,167.402,284.478z"/>
				<path style="fill:#1F160F;" d="M203.571,285.755c-0.141,0-0.256-0.112-0.259-0.254c-0.009-0.447-0.905-45.048-2.814-71.717
					c-0.01-0.143,0.097-0.267,0.24-0.277c0.143,0.002,0.267,0.097,0.277,0.24c1.91,26.683,2.807,71.297,2.815,71.744
					c0.003,0.143-0.111,0.261-0.254,0.264C203.574,285.755,203.572,285.755,203.571,285.755z"/>
				<path style="fill:#EBA38D;" d="M208.148,202.313c0,4.386-1.837,10.094-7.195,10.094s-11.433-4.8-11.433-10.225
					c0,0,5.944-0.359,10.088-0.359C203.751,201.822,208.148,202.313,208.148,202.313z"/>
				<path style="fill:#FFFFFF;" d="M189.52,200.445c2.058,6.879,7.449,11.426,11.433,11.426c3.984,0,7.195-11.526,7.195-11.526
					l3.414,2.223c0.219,5.183-2.465,15.731-2.465,15.731s-4.748-4.532-8.342-4.532c-5.656,0-9.226,4.757-9.226,4.757
					c-4.545-5.77-6.513-15.472-6.513-15.472C187.062,201.469,189.52,200.445,189.52,200.445z"/>
				<path style="fill:#E59E47;" d="M205.979,215.773c-1.231-1.031-3.273-2.007-5.224-2.007c-2.773,0-4.97,0.896-6.209,2.007
					c0.764,1.702,2.394,3.524,3.834,4.527c-0.293,6.679-0.915,43.374-0.915,47.028c0,4.103,6.078,11.719,6.078,11.719
					s4.578-5.531,4.578-11.906c0-5.657-4.346-40.268-5.164-46.653C204.319,219.382,205.749,217.241,205.979,215.773z"/>
				<path style="fill:#496099;" d="M261.66,206.055l-10.839,19.586c-10.8-8.42-21.846-20.285-25.988-21.377
					c-3.957-1.044-6.151-1.231-12.653-1.614c0.647,9.568,0.432,16.449,1.571,22.351c1.156,5.994,0.997,15.352,0,19.359
					c-0.753,3.028,0.034,31.266,0.334,50.534c12.466-0.537,13.354-0.998,13.354-0.998c-3.187-24.902-4.187-50.707-4.187-50.707
					c3.671-2.438,3.135-9.006,3.135-9.006c9.057,10.066,20.666,13.388,26.916,12.218c10.67-2.01,21.755-33.307,21.755-33.307
					C269.781,209.348,261.66,206.055,261.66,206.055z"/>
				<path style="fill:#496099;" d="M166.509,295.1c5.906,0.373,10.959,0.213,21.024-0.207c-3.004-66.422-5.924-91.084-5.924-91.084
					c-8.333,1.222-15.063,2.387-19.422,4.254c-3.81,1.632-10.758,23.014-13.561,40.532c-2.61,16.315-2.609,30.551,0.686,64.155
					c11.104,0.192,18.188-1.688,18.188-1.688S166.509,301.961,166.509,295.1z"/>
			</g>
			<g>
				<path style="fill:#1F160F;" d="M226.385,234.441c-0.135,0-0.249-0.105-0.258-0.242c-0.233-3.6-1.32-6.11-2.371-8.536
					c-0.754-1.741-1.466-3.386-1.869-5.375c-0.028-0.14,0.062-0.276,0.202-0.305c0.137-0.03,0.276,0.062,0.305,0.202
					c0.392,1.936,1.094,3.556,1.837,5.271c1.068,2.467,2.173,5.019,2.413,8.709c0.009,0.143-0.099,0.266-0.242,0.275
					C226.396,234.441,226.391,234.441,226.385,234.441z"/>
				<path style="fill:#1F160F;" d="M251.368,235.219c-0.003,0-0.005,0-0.007,0c-0.143-0.004-0.255-0.123-0.251-0.266
					c0.002-0.067,0.178-6.739-0.539-9.239c-0.04-0.137,0.04-0.281,0.177-0.32c0.139-0.039,0.281,0.04,0.32,0.177
					c0.739,2.576,0.566,9.119,0.559,9.396C251.623,235.108,251.508,235.219,251.368,235.219z"/>
				<path style="fill:#1F160F;" d="M166.509,295.358c-0.137,0-0.252-0.107-0.258-0.246c-1.878-37.825,6.688-72.412,6.775-72.757
					c0.035-0.139,0.174-0.224,0.314-0.188c0.139,0.035,0.223,0.175,0.188,0.314c-0.086,0.344-8.633,34.859-6.76,72.606
					c0.007,0.143-0.103,0.264-0.246,0.271C166.518,295.358,166.513,295.358,166.509,295.358z"/>
				<path style="fill:#1F160F;" d="M191.53,218.781c-0.079,0-0.154-0.037-0.203-0.099c-3.917-4.972-5.924-12.776-6.446-15.049
					c-0.032-0.14,0.055-0.278,0.194-0.31c0.14-0.038,0.278,0.055,0.31,0.194c0.507,2.209,2.431,9.693,6.151,14.59
					c0.862-1.008,4.279-4.601,9.22-4.601c3.149,0,7.049,3.277,8.195,4.305c0.492-2.015,2.543-10.732,2.353-15.234
					c-0.006-0.143,0.105-0.263,0.248-0.269c0.144-0.025,0.263,0.105,0.269,0.248c0.218,5.162-2.362,15.374-2.472,15.806
					c-0.023,0.089-0.091,0.159-0.18,0.185c-0.087,0.025-0.184,0.003-0.25-0.062c-0.047-0.044-4.715-4.46-8.163-4.46
					c-5.456,0-8.984,4.607-9.019,4.653C191.688,218.743,191.622,218.783,191.53,218.781z"/>
				<path style="fill:#1F160F;" d="M192.203,246.808c-1.518,0-3.617-0.065-6.181-0.307c-0.142-0.014-0.247-0.14-0.233-0.282
					c0.013-0.142,0.143-0.241,0.282-0.233c5.486,0.517,8.81,0.221,8.843,0.217c0.134-0.012,0.268,0.091,0.282,0.234
					c0.013,0.142-0.092,0.268-0.234,0.282C194.943,246.72,193.964,246.808,192.203,246.808z"/>
				<path style="fill:#1F160F;" d="M215.937,245.196c-0.134,0-0.248-0.104-0.258-0.24c-0.01-0.143,0.097-0.267,0.24-0.277
					c0.035-0.002,3.507-0.26,6.65-1.273c0.136-0.045,0.282,0.031,0.326,0.166c0.044,0.136-0.031,0.282-0.167,0.326
					c-3.204,1.033-6.737,1.295-6.772,1.298C215.95,245.196,215.943,245.196,215.937,245.196z"/>
			</g>
		</g>
	</g>
	<g>
		<g>
			<g>
				<path style="fill:#1F160F;" d="M382.035,163.392c-11.847-0.149-15.804,13.343-16.362,25.984
					c-0.328,7.435,1.17,12.673-2.301,18.874c-8.434,15.068-1.56,39,20.903,39c31.446,0,23.98-51.731,23.98-51.731
					c2.247-3.924,2.182-9.158,2.399-12.543C411.687,166.875,399.04,154.5,382.035,163.392z"/>
				<g>
					<polygon style="fill:#EBA38D;" points="402.129,217.845 383.5,218.226 383.5,199.814 402.128,199.814 					"/>
					<path style="fill:#1F160F;" d="M402.128,212.184l0-12.37H383.5C383.5,199.814,385,213.591,402.128,212.184z"/>
				</g>
				<path style="fill:#EBA38D;" d="M410.066,191.196c-0.242,13.845-2.502,18.981-12.177,18.812
					c-9.666-0.169-16.775-5.468-16.534-19.313c0.241-13.835,9.252-18.335,14.678-18.24
					C401.469,172.549,410.307,177.361,410.066,191.196z"/>
				<g>
					<path style="fill:#EBA38D;" d="M375.421,189.756c0.599-4.497,3.739-5.655,6.972-2.19l-0.175,10.051
						C378.116,200.898,374.823,194.253,375.421,189.756z"/>
					<path style="fill:#1F160F;" d="M376.968,190.151c-0.024,0-0.05-0.003-0.074-0.011c-0.137-0.041-0.215-0.185-0.174-0.322
						c0.325-1.079,0.971-1.748,1.819-1.882c0.942-0.149,1.977,0.394,2.66,1.378c0.081,0.118,0.052,0.279-0.065,0.36
						c-0.117,0.081-0.278,0.051-0.36-0.065c-0.57-0.824-1.417-1.28-2.153-1.163c-0.65,0.103-1.137,0.629-1.404,1.521
						C377.182,190.079,377.079,190.151,376.968,190.151z"/>
				</g>
				<path style="fill:#1F160F;" d="M390.596,178.898c8.53,3.656,18.256,4.65,19.475,2.852c1.719-2.536-0.663-12.167-12.817-12.38
					c-15.195-0.265-15.653,15.015-15.563,17.513c0.1,2.792,1.279,11.322,1.81,9.429C386.064,187.161,389.27,185.436,390.596,178.898
					z"/>
				<g>
					<path style="fill:#FFFFFF;" d="M400.454,201.006c-2.474,0.075-4.547-0.701-5.764-1.948c0,0-0.378,2.081,1.162,2.845
						C397.882,202.911,400.454,201.006,400.454,201.006z"/>
					<path style="fill:#1F160F;" d="M398.922,197.59c-0.252,0-0.494-0.05-0.717-0.151c-0.131-0.059-0.189-0.212-0.129-0.343
						c0.058-0.13,0.214-0.188,0.342-0.129c0.642,0.29,1.327-0.091,1.593-0.269c0.478-0.32,0.725-0.706,0.719-0.863
						c-0.006-0.155-0.157-0.558-0.318-0.984c-0.402-1.064-1.009-2.673-0.98-4.324c0.003-0.142,0.118-0.254,0.259-0.254
						c0.001,0,0.003,0,0.005,0c0.143,0.002,0.257,0.12,0.254,0.263c-0.027,1.552,0.559,3.104,0.947,4.132
						c0.206,0.547,0.343,0.909,0.352,1.149c0.016,0.456-0.465,0.988-0.948,1.311C399.844,197.434,399.367,197.59,398.922,197.59z"/>
					<path style="fill:#1F160F;" d="M405.111,189.394c-0.015,0.857-0.49,1.544-1.062,1.534c-0.571-0.01-1.023-0.713-1.008-1.57
						c0.015-0.857,0.491-1.544,1.062-1.534C404.675,187.834,405.126,188.537,405.111,189.394z"/>
					<path style="fill:#1F160F;" d="M406.705,186.774c-0.12,0-0.242-0.028-0.357-0.087c-1.036-0.538-1.976-0.779-3.692-0.424
						c-0.421,0.087-0.831-0.183-0.917-0.604c-0.087-0.419,0.183-0.83,0.603-0.917c1.868-0.386,3.191-0.227,4.722,0.566
						c0.381,0.197,0.529,0.666,0.332,1.046C407.257,186.621,406.986,186.774,406.705,186.774z"/>
					<path style="fill:#1F160F;" d="M393.338,189.146c-0.015,0.857,0.436,1.56,1.008,1.57c0.572,0.01,1.047-0.677,1.062-1.534
						c0.015-0.857-0.436-1.56-1.008-1.57C393.828,187.602,393.352,188.289,393.338,189.146z"/>
					<path style="fill:#1F160F;" d="M391.748,186.436c-0.263,0-0.518-0.133-0.664-0.374c-0.223-0.366-0.107-0.844,0.26-1.066
						c1.542-0.935,2.971-1.131,5.276-0.729c0.423,0.074,0.705,0.477,0.631,0.899c-0.074,0.423-0.485,0.705-0.899,0.63
						c-2.178-0.383-3.155-0.109-4.202,0.526C392.024,186.399,391.885,186.436,391.748,186.436z"/>
				</g>
			</g>
			<g>
				<g>
					<path style="fill:#EBA38D;" d="M455.859,220.24c0,0,3.841-7.76,5.771-9.617c3.276-3.153,5.464-5.028,9.808-6.185
						c3.714-0.989,10.83-0.668,10.83-0.668c0.681,0.721,0,2.004,0,2.004s7.595-0.889,8.733-0.367
						c1.052,0.483,0.925,1.329,0.925,1.329c2.575-0.329,2.513,2.171,1.082,2.645c0.353,0.842,0.153,1.589-0.71,1.837
						c-0.803,0.23-2.875,0.674-2.875,0.674c0.201,0.382,0.257,1.208-0.345,1.37c-0.438,0.118-5.354,0.685-7.389,1.052
						c-1.186,0.214-7.943,2.058-9.198,2.807c-1.02,0.609-4.949,8.329-4.949,8.329L455.859,220.24z"/>
					<g>
						<path style="fill:#1F160F;" d="M489.422,212.149c-0.118,0-0.225-0.081-0.252-0.201c-0.12-0.519-3.408-0.759-8.284,0.049
							c-0.138,0.027-0.274-0.073-0.297-0.213c-0.023-0.141,0.071-0.274,0.213-0.298c0.085-0.014,8.473-1.382,8.872,0.346
							c0.032,0.139-0.055,0.278-0.193,0.31C489.461,212.148,489.441,212.149,489.422,212.149z"/>
						<path style="fill:#1F160F;" d="M480.562,209.946c-0.124,0-0.233-0.089-0.255-0.216c-0.024-0.141,0.071-0.274,0.212-0.298
							c2.864-0.485,12.245-1.925,12.737-0.121c0.037,0.138-0.044,0.28-0.182,0.317c-0.142,0.04-0.281-0.044-0.318-0.182
							c-0.25-0.921-6.504-0.46-12.151,0.495C480.591,209.945,480.576,209.946,480.562,209.946z"/>
						<path style="fill:#1F160F;" d="M480.062,208.134c-0.124,0-0.233-0.089-0.255-0.215c-0.024-0.141,0.07-0.275,0.211-0.298
							c0.376-0.064,9.225-1.565,11.946-1.141c0.141,0.022,0.237,0.155,0.216,0.296c-0.023,0.14-0.146,0.238-0.296,0.216
							c-2.631-0.413-11.687,1.123-11.778,1.139C480.091,208.132,480.076,208.134,480.062,208.134z"/>
						<path style="fill:#1F160F;" d="M472.125,206.921c-0.127,0-0.237-0.093-0.256-0.222c-0.021-0.142,0.078-0.272,0.22-0.293
							c0.324-0.046,7.994-1.132,10.207-0.89c0.142,0.016,0.244,0.144,0.229,0.286c-0.016,0.141-0.127,0.248-0.285,0.229
							c-2.148-0.242-9.998,0.877-10.078,0.888C472.149,206.92,472.137,206.921,472.125,206.921z"/>
						<path style="fill:#1F160F;" d="M469.625,218.259c-0.025,0-0.051-0.004-0.076-0.011c-0.227-0.07-5.601-1.744-8.243-4.765
							c-0.095-0.107-0.084-0.271,0.024-0.365c0.107-0.094,0.272-0.083,0.364,0.024c2.546,2.909,7.952,4.594,8.007,4.61
							c0.137,0.042,0.213,0.187,0.171,0.323C469.838,218.187,469.735,218.259,469.625,218.259z"/>
						<path style="fill:#1F160F;" d="M473.125,214.134c-0.067,0-0.135-0.026-0.186-0.079c-0.1-0.103-0.097-0.266,0.006-0.366
							c0.107-0.104,2.603-2.578,1.255-5.712c-0.057-0.131,0.004-0.283,0.135-0.34c0.131-0.057,0.284,0.004,0.34,0.136
							c1.491,3.466-1.341,6.26-1.37,6.288C473.255,214.109,473.189,214.134,473.125,214.134z"/>
					</g>
				</g>
				<g>
					<path style="fill:#FFFFFF;" d="M433.969,235.95l7.828,7.837l14.143-24.455l13.04,5.496c0,0-14.319,37.453-24.886,37.453
						c-11.166,0-18.563-10.438-18.563-10.438L433.969,235.95z"/>
					<path style="fill:#FFFFFF;" d="M344.859,257.797c-1.219,3.984-1.758,6.185-1.924,8.065c-0.166,1.881-1.123,28.138-1.123,28.138
						h17.25c0.125-17.313,2.438-31.718,2.438-31.718L344.859,257.797z"/>
					<path style="fill:#CC4E49;" d="M435.742,237.154c0,0-13.742-17.029-19.764-18.594c-4.274-1.459-10.643-2.759-21.613-3.099
						c-7.75-0.25-26.487,0.833-36.03,7.191c-3.806,2.536-9.836,17.568-14.061,35.653c0,0,7.288,3.978,17.391,5.336
						c0,0-1.711,16.61-0.289,36.143c42.903,2.312,54.186-1.08,54.186-1.08s-2.812-16.202-0.531-35.028
						c0.553-4.561,4.781-6.424,4.875-15.205l5.938,4.663C425.844,253.132,432.797,247.25,435.742,237.154z"/>
					<path style="fill:#EBA38D;" d="M402.129,215.804c0,4.386-1.837,9.636-7.195,9.636s-11.433-4.529-11.433-9.954
						c0,0,5.944-0.358,10.088-0.358S402.129,215.804,402.129,215.804z"/>
					<path style="fill:#FFFFFF;" d="M402.129,212.938c0,4.359-2.191,10.688-5.611,10.688c-7.689,0-13.017-10.688-13.017-10.688
						l-3.871,3.284c2.708,11.482,6.902,14.583,6.902,14.583c4.406-2.867,7.55-4.602,9.986-4.602c2.436,0,8.108,4.602,8.108,4.602
						c3.187-4.32,0.866-14.525,0.866-14.525C404.391,214.297,402.129,212.938,402.129,212.938z"/>
				</g>
				<g>
					<path style="fill:#1F160F;" d="M419.839,247.977c-0.107,0-0.206-0.066-0.244-0.172l-0.313-0.879
						c-1.3-3.642-3.264-9.146-3.264-12.216c0-0.143,0.116-0.259,0.259-0.259c0.142,0,0.259,0.116,0.259,0.259
						c0,2.981,1.946,8.434,3.233,12.042l0.314,0.881c0.048,0.135-0.023,0.283-0.157,0.33
						C419.896,247.973,419.867,247.977,419.839,247.977z"/>
					<path style="fill:#1F160F;" d="M442.625,252.952c-0.105,0-0.203-0.063-0.242-0.167c-0.069-0.185-1.703-4.573-0.84-9.046
						c0.026-0.14,0.153-0.236,0.303-0.205c0.141,0.027,0.232,0.163,0.205,0.303c-0.835,4.326,0.8,8.721,0.816,8.765
						c0.051,0.134-0.017,0.283-0.15,0.334C442.686,252.946,442.655,252.952,442.625,252.952z"/>
					<path style="fill:#1F160F;" d="M361.666,263.898c-0.007,0-0.013,0-0.02-0.001c-0.142-0.011-0.249-0.135-0.238-0.277
						c1.284-17.097,3.815-27.205,3.841-27.306c0.035-0.138,0.179-0.223,0.314-0.188c0.139,0.035,0.223,0.176,0.188,0.314
						c-0.025,0.1-2.547,10.17-3.827,27.218C361.914,263.795,361.8,263.898,361.666,263.898z"/>
					<path style="fill:#1F160F;" d="M381.626,263.247c-5.856,0-8.993-1.824-9.173-1.933c-0.122-0.073-0.163-0.232-0.089-0.355
						c0.073-0.122,0.23-0.164,0.355-0.089c0.059,0.035,6.158,3.565,17.159,0.756c0.142-0.033,0.279,0.05,0.316,0.186
						c0.035,0.139-0.049,0.28-0.187,0.315C386.783,262.951,383.983,263.247,381.626,263.247z"/>
					<path style="fill:#1F160F;" d="M407.484,264.077c-3.584,0-6.282-0.86-6.326-0.875c-0.136-0.045-0.21-0.19-0.166-0.326
						c0.045-0.136,0.191-0.211,0.326-0.166c0.071,0.024,7.182,2.29,13.573-0.663c0.13-0.058,0.284-0.003,0.344,0.127
						c0.06,0.13,0.003,0.283-0.127,0.344C412.517,263.714,409.813,264.077,407.484,264.077z"/>
				</g>
				<g>
					<path style="fill:#FFFFFF;" d="M402.406,261.67h-10c-0.552,0-1-0.448-1-1v-16c0-0.552,0.448-1,1-1h10c0.552,0,1,0.448,1,1v16
						C403.406,261.222,402.958,261.67,402.406,261.67z"/>
					<path style="fill:#1F160F;" d="M397.102,237.902c-13.482,0-20.411-10.48-21.298-20.867c-0.012-0.143,0.093-0.268,0.235-0.28
						c0.156-0.012,0.268,0.094,0.28,0.236c0.803,9.407,6.728,20.393,20.782,20.393c4.571,0,8.139-1.767,10.316-5.109
						c2.994-4.597,2.75-11.105,0.96-15.158c-0.058-0.131,0.001-0.283,0.132-0.341c0.131-0.056,0.284,0.002,0.341,0.132
						c1.847,4.181,2.096,10.898-0.999,15.649C405.574,236.054,401.857,237.902,397.102,237.902z"/>
					<path style="fill:#FFFFFF;" d="M397.59,243.719h-0.367c-0.451,0-0.816-0.365-0.816-0.816v-5.367
						c0-0.451,0.366-0.816,0.816-0.816h0.367c0.451,0,0.816,0.366,0.816,0.816v5.367
						C398.406,243.354,398.041,243.719,397.59,243.719z"/>
					<circle style="fill:#1F160F;" cx="397.406" cy="243.719" r="1.5"/>
					<circle style="fill:#FFFFFF;" cx="397.406" cy="243.719" r="0.5"/>
					<path style="fill:#F5E5C9;" d="M403.406,260.67v-5.411c-1.031-0.385-2.739-0.962-4.072-1.105
						c0.352-0.517,0.572-1.168,0.572-1.888c0-1.657-1.119-3-2.5-3c-1.381,0-2.5,1.343-2.5,3c0,0.72,0.22,1.371,0.572,1.888
						c-1.333,0.143-3.04,0.72-4.072,1.105v5.411c0,0.552,0.448,1,1,1h10C402.958,261.67,403.406,261.222,403.406,260.67z"/>
					<rect x="395.406" y="256.137" style="fill:#1F160F;" width="4" height="1"/>
					<rect x="393.406" y="258.293" style="fill:#1F160F;" width="8" height="1"/>
				</g>
			</g>
		</g>
		<g>
			<path style="fill:#1F160F;" d="M311.203,288.992h12.5c0.69,0,1.299-0.56,1.359-1.25l1.75-20c0.06-0.69-0.45-1.25-1.141-1.25
				h-12.5c-0.69,0-1.299,0.56-1.359,1.25l-1.75,20C310.002,288.432,310.513,288.992,311.203,288.992z"/>
			<path style="fill:#FFFFFF;" d="M327.672,288.992h-12.5c-0.69,0-1.299-0.56-1.359-1.25l-1.75-20c-0.06-0.69,0.45-1.25,1.141-1.25
				h12.5c0.69,0,1.299,0.56,1.359,1.25l1.75,20C328.873,288.432,328.362,288.992,327.672,288.992z"/>
			<path style="fill:#D3B78D;" d="M328.16,280.281l-0.348-3.973c-1.331-0.482-3.528-1.202-5.211-1.381
				c0.384-0.646,0.587-1.46,0.508-2.36c-0.181-2.071-1.727-3.75-3.453-3.75s-2.978,1.679-2.797,3.75
				c0.079,0.9,0.425,1.714,0.921,2.36c-1.651,0.179-3.722,0.9-4.969,1.381l0.348,3.973H328.16z"/>
			<polygon style="fill:#1F160F;" points="323.427,283.34 318.427,283.34 318.34,282.34 323.34,282.34 			"/>
			<polygon style="fill:#1F160F;" points="325.116,285.496 317.116,285.496 317.028,284.496 325.028,284.496 			"/>
		</g>
		<g>
			<path style="fill:#FFFFFF;" d="M506.435,449h-238V329c0-22.091,17.909-40,40-40h158c22.091,0,40,17.909,40,40V449z"/>
			<path style="fill:#1F160F;" d="M426.435,289.259h-118c-0.143,0-0.259-0.116-0.259-0.259s0.116-0.259,0.259-0.259h118
				c0.143,0,0.259,0.116,0.259,0.259S426.577,289.259,426.435,289.259z"/>
			<path style="fill:#FABC5F;" d="M273.435,449V329c0-19.299,15.701-35,35-35h158c19.299,0,35,15.701,35,35v120H273.435z"/>
			<g>
				<rect x="386.658" y="294" style="fill:#E59E47;" width="1.553" height="155"/>
				<rect x="405.474" y="294" style="fill:#E59E47;" width="1.553" height="155"/>
				<rect x="424.289" y="294" style="fill:#E59E47;" width="1.553" height="155"/>
				<rect x="443.104" y="294" style="fill:#E59E47;" width="1.553" height="155"/>
				<rect x="461.92" y="294" style="fill:#E59E47;" width="1.553" height="155"/>
				<path style="fill:#E59E47;" d="M480.735,297.067V449h1.553V297.812C481.777,297.552,481.26,297.303,480.735,297.067z"/>
				<path style="fill:#E59E47;" d="M294.134,297.067V449h-1.553V297.812C293.092,297.552,293.609,297.303,294.134,297.067z"/>
				<rect x="367.843" y="294" style="fill:#E59E47;" width="1.553" height="155"/>
				<rect x="349.028" y="294" style="fill:#E59E47;" width="1.553" height="155"/>
				<rect x="330.212" y="294" style="fill:#E59E47;" width="1.553" height="155"/>
				<rect x="311.397" y="294" style="fill:#E59E47;" width="1.553" height="155"/>
			</g>
			<g>
				<path style="fill:#1F160F;" d="M454.935,396.5h-135c-1.657,0-3-1.343-3-3v-40c0-1.657,1.343-3,3-3h135c1.657,0,3,1.343,3,3v40
					C457.935,395.157,456.591,396.5,454.935,396.5z"/>
				<path style="fill:#FFFFFF;" d="M454.935,394.5h-135c-1.657,0-3-1.343-3-3v-40c0-1.657,1.343-3,3-3h135c1.657,0,3,1.343,3,3v40
					C457.935,393.157,456.591,394.5,454.935,394.5z"/>
				<g>
					<circle style="fill:#D1795C;" cx="453.935" cy="390.5" r="2"/>
					<circle style="fill:#D1795C;" cx="320.935" cy="390.5" r="2"/>
					<circle style="fill:#D1795C;" cx="453.935" cy="352.5" r="2"/>
					<circle style="fill:#D1795C;" cx="320.935" cy="352.5" r="2"/>
				</g>
			</g>
		</g>
	</g>
</g>
<g id="TEXTS">
	<g>
		
			<text transform="matrix(1 0 0 1 334.3359 378.5918)" style="fill:#D1795C; font-family:'MontserratRoman-SemiBold'; font-size:24px;">COMPANY</text>
	</g>
	<g>
		
			<text transform="matrix(1 0 0 1 422.7531 101.457)" style="fill:#CC4E49; font-family:'MontserratRoman-SemiBold'; font-size:6px;">NEWS</text>
	</g>
</g>
</svg>
