<?xml version="1.0" encoding="utf-8"?>
<!-- Generator: Adobe Illustrator 27.5.0, SVG Export Plug-In . SVG Version: 6.00 Build 0)  -->
<svg version="1.1" xmlns="http://www.w3.org/2000/svg" xmlns:xlink="http://www.w3.org/1999/xlink" x="0px" y="0px"
	 viewBox="0 0 750 500" style="enable-background:new 0 0 750 500;" xml:space="preserve">
<g id="BACKGROUND">
	<g>
		<rect style="opacity:0.28;fill:#63CFE8;" width="750" height="373.212"/>
		<rect y="240.938" style="opacity:0.28;fill:#63CFE8;" width="750" height="16.816"/>
		<g>
			<rect y="374.742" style="opacity:0.53;fill:#63CFE8;" width="750" height="125.258"/>
			<rect y="389.43" style="opacity:0.13;fill:#FFFFFF;" width="750" height="5.359"/>
			<rect y="409.403" style="opacity:0.13;fill:#FFFFFF;" width="750" height="5.359"/>
			<rect y="428.127" style="opacity:0.13;fill:#FFFFFF;" width="750" height="5.359"/>
			<rect y="449.348" style="opacity:0.13;fill:#FFFFFF;" width="750" height="5.359"/>
			<rect y="469.32" style="opacity:0.13;fill:#FFFFFF;" width="750" height="5.359"/>
			<rect y="487.706" style="opacity:0.13;fill:#FFFFFF;" width="750" height="5.359"/>
			<g>
				<g style="opacity:0.33;">
					<rect x="1.4" y="387.526" style="fill:#223147;" width="746.474" height="1"/>
				</g>
				<g style="opacity:0.33;">
					<rect x="1.4" y="407.498" style="fill:#223147;" width="746.474" height="1"/>
				</g>
				<g style="opacity:0.33;">
					<rect x="1.4" y="427.471" style="fill:#223147;" width="746.474" height="1"/>
				</g>
				<g style="opacity:0.33;">
					<rect x="1.4" y="447.444" style="fill:#223147;" width="746.474" height="1"/>
				</g>
				<g style="opacity:0.33;">
					<rect x="1.4" y="467.416" style="fill:#223147;" width="746.474" height="1"/>
				</g>
				<g style="opacity:0.33;">
					<rect x="1.4" y="487.388" style="fill:#223147;" width="746.474" height="1"/>
				</g>
			</g>
		</g>
		<g>
			<rect style="opacity:0.28;fill:#63CFE8;" width="750" height="72.117"/>
			<g style="opacity:0.19;">
				<rect x="0" y="16.785" style="fill:#223147;" width="750" height="1"/>
			</g>
			<g style="opacity:0.19;">
				<rect x="0" y="44.248" style="fill:#223147;" width="750" height="1"/>
			</g>
		</g>
		<rect y="365.448" style="opacity:0.77;fill:#63CFE8;" width="750" height="9.031"/>
	</g>
</g>
<g id="OBJECTS">
	<rect y="375.699" style="opacity:0.13;fill:#FFFFFF;" width="750" height="5.359"/>
	<g>
		<rect x="186.206" y="152.055" style="fill:#FFFFFF;" width="106" height="222"/>
		<path style="fill:#82450F;" d="M275.206,296.055L275.206,296.055c-1.65,0-3-1.35-3-3v-26c0-1.65,1.35-3,3-3l0,0c1.65,0,3,1.35,3,3
			v26C278.206,294.705,276.856,296.055,275.206,296.055z"/>
		
			<rect x="293.294" y="152.055" transform="matrix(-1 -1.224647e-16 1.224647e-16 -1 692.5882 526.11)" style="fill:#CECECE;" width="106" height="222"/>
		<path style="fill:#82450F;" d="M310.294,296.055L310.294,296.055c1.65,0,3-1.35,3-3v-26c0-1.65-1.35-3-3-3l0,0c-1.65,0-3,1.35-3,3
			v26C307.294,294.705,308.644,296.055,310.294,296.055z"/>
		<g style="opacity:0.48;">
			<rect x="292.794" y="152.055" style="fill:#223147;" width="1" height="222"/>
		</g>
		<g style="opacity:0.39;">
			<polygon style="fill:#223147;" points="406.088,375.104 405.088,375.104 405.088,143.49 176.912,143.49 176.912,375.104 
				175.912,375.104 175.912,142.49 406.088,142.49 			"/>
		</g>
		<g>
			<g style="opacity:0.26;">
				<path style="fill:#223147;" d="M278.706,252.555h-81v-87h81V252.555z M198.706,251.555h79v-85h-79V251.555z"/>
			</g>
			<rect x="203.833" y="172.104" style="fill:#63CFE8;" width="68.746" height="73.902"/>
			<polygon style="opacity:0.17;fill:#FFFFFF;" points="272.579,246.006 203.833,246.006 246.928,201.753 272.579,172.104 			"/>
			<g>
				<path style="fill:#155897;" d="M225.838,223.101c-0.12,0-0.241-0.043-0.336-0.13c-0.204-0.186-0.219-0.502-0.034-0.706
					l24.551-27.006c0.187-0.204,0.504-0.218,0.707-0.034c0.204,0.186,0.219,0.502,0.034,0.707l-24.551,27.006
					C226.11,223.046,225.974,223.101,225.838,223.101z"/>
			</g>
			<g>
				<path style="fill:#155897;" d="M235.848,221.652c-0.12,0-0.241-0.043-0.336-0.13c-0.204-0.186-0.219-0.502-0.034-0.707
					l14.672-16.14c0.186-0.205,0.503-0.219,0.707-0.034c0.204,0.186,0.219,0.502,0.034,0.707l-14.672,16.14
					C236.12,221.597,235.984,221.652,235.848,221.652z"/>
			</g>
			<g>
				<path style="fill:#155897;" d="M226.793,212.596c-0.12,0-0.241-0.043-0.337-0.13c-0.204-0.186-0.219-0.502-0.034-0.706
					l14.672-16.139c0.187-0.204,0.503-0.218,0.707-0.034c0.204,0.186,0.219,0.502,0.034,0.707l-14.672,16.139
					C227.064,212.541,226.928,212.596,226.793,212.596z"/>
			</g>
		</g>
		<g>
			<g style="opacity:0.26;">
				<path style="fill:#223147;" d="M388.851,251.027h-81v-87h81V251.027z M308.851,250.027h79v-85h-79V250.027z"/>
			</g>
			<rect x="313.978" y="170.576" style="fill:#63CFE8;" width="68.746" height="73.902"/>
			<polygon style="opacity:0.17;fill:#FFFFFF;" points="382.724,244.478 313.978,244.478 357.072,200.224 382.724,170.576 			"/>
			<g>
				<path style="fill:#155897;" d="M335.983,221.573c-0.12,0-0.241-0.043-0.336-0.13c-0.204-0.186-0.219-0.502-0.034-0.707
					l24.551-27.006c0.187-0.204,0.503-0.218,0.707-0.034c0.204,0.186,0.219,0.502,0.034,0.706l-24.551,27.006
					C336.254,221.518,336.118,221.573,335.983,221.573z"/>
			</g>
			<g>
				<path style="fill:#155897;" d="M345.993,220.124c-0.12,0-0.241-0.043-0.337-0.13c-0.204-0.186-0.219-0.502-0.034-0.706
					l14.672-16.14c0.186-0.204,0.503-0.219,0.707-0.034c0.204,0.186,0.219,0.502,0.034,0.706l-14.672,16.14
					C346.264,220.069,346.129,220.124,345.993,220.124z"/>
			</g>
			<g>
				<path style="fill:#155897;" d="M336.937,211.068c-0.12,0-0.241-0.043-0.336-0.13c-0.204-0.186-0.219-0.502-0.034-0.707
					l14.672-16.139c0.187-0.204,0.504-0.218,0.707-0.034c0.204,0.186,0.219,0.502,0.034,0.706l-14.672,16.139
					C337.209,211.013,337.073,211.068,336.937,211.068z"/>
			</g>
		</g>
		<polygon style="opacity:0.07;fill:#223147;" points="293.294,374.055 399.294,374.055 393.835,369.227 293.294,152.055 		"/>
	</g>
	<g>
		<g>
			<rect x="603.844" y="176.128" style="fill:#63CFE8;" width="144.598" height="198.351"/>
			<rect x="611.911" y="187.195" style="opacity:0.18;fill:#223147;" width="65.735" height="75.804"/>
			<rect x="684.265" y="187.195" style="opacity:0.18;fill:#223147;" width="65.735" height="75.804"/>
			<rect x="618.226" y="215.312" style="opacity:0.18;fill:#223147;" width="2.858" height="21.909"/>
		</g>
		<g>
			<rect x="48.33" y="125.151" style="opacity:0.68;fill:#63CFE8;" width="74.996" height="100.495"/>
			<g style="opacity:0.52;">
				<path style="fill:#155897;" d="M119.801,220.752H51.855v-90.708h67.946V220.752z M52.855,219.752h65.946v-88.708H52.855V219.752
					z"/>
			</g>
			<path style="opacity:0.52;fill:#155897;" d="M100.513,174.421c-0.743,0-1.469,0.077-2.173,0.218l-11.268-10.288v-22.825
				l7.385-1.343v-4.699c-10.741-2.685-14.098,1.343-14.098,1.343s0,21.482,0,26.853c0,5.371-9.385,10.741-9.385,10.741
				c-6.084,0-11.062,4.978-11.062,11.062v22.124c0,2.475,0.833,4.758,2.22,6.606c7.805-0.963,15.535-2.975,19.904-8.359v-20.371
				c0-4.026-2.187-7.558-5.425-9.493l7.104-6.268l9.331,7.634c-2.202,2.025-3.596,4.918-3.596,8.127v20.371
				c4.369,5.384,12.099,7.397,19.904,8.359c1.387-1.848,2.22-4.132,2.22-6.606v-22.124
				C111.575,179.398,106.597,174.421,100.513,174.421z"/>
			<rect x="93.786" y="153.61" style="opacity:0.36;fill:#155897;" width="18.126" height="4.028"/>
			<rect x="93.786" y="147.568" style="opacity:0.36;fill:#155897;" width="18.126" height="4.028"/>
		</g>
		<g>
			<g style="opacity:0.35;">
				<path style="fill:#223147;" d="M749.461,149.652h-314.66v-61h314.66V149.652z M435.801,148.652h312.66v-59h-312.66V148.652z"/>
			</g>
			<g>
				<rect x="442.723" y="95.152" style="fill:#63CFE8;" width="69.449" height="48"/>
				<polygon style="opacity:0.17;fill:#FFFFFF;" points="512.172,143.152 442.723,143.152 481.766,115.663 512.172,95.152 				"/>
				<g>
					<path style="fill:#155897;" d="M462.819,131.166c-0.119-0.016-0.233-0.075-0.316-0.174c-0.177-0.212-0.149-0.527,0.062-0.705
						l27.983-23.431c0.212-0.177,0.528-0.148,0.705,0.062c0.177,0.212,0.149,0.527-0.062,0.705l-27.983,23.431
						C463.095,131.148,462.953,131.184,462.819,131.166z"/>
				</g>
				<g>
					<path style="fill:#155897;" d="M472.933,131.087c-0.119-0.016-0.233-0.075-0.316-0.174c-0.177-0.212-0.149-0.527,0.062-0.705
						l16.724-14.003c0.212-0.178,0.528-0.149,0.705,0.062c0.177,0.212,0.149,0.527-0.062,0.705l-16.724,14.003
						C473.209,131.069,473.067,131.105,472.933,131.087z"/>
				</g>
				<g>
					<path style="fill:#155897;" d="M465.188,120.887c-0.119-0.016-0.233-0.075-0.316-0.174c-0.177-0.212-0.149-0.527,0.062-0.705
						l16.724-14.002c0.212-0.177,0.528-0.148,0.705,0.062c0.177,0.212,0.149,0.527-0.062,0.704l-16.724,14.002
						C465.464,120.87,465.322,120.906,465.188,120.887z"/>
				</g>
			</g>
			<g>
				<rect x="520.108" y="95.152" style="fill:#63CFE8;" width="69.449" height="48"/>
				<polygon style="opacity:0.17;fill:#FFFFFF;" points="589.557,143.152 520.108,143.152 559.152,115.663 589.557,95.152 				"/>
				<g>
					<path style="fill:#155897;" d="M540.204,131.166c-0.119-0.016-0.233-0.075-0.316-0.174c-0.177-0.212-0.149-0.527,0.062-0.705
						l27.983-23.431c0.212-0.177,0.528-0.148,0.705,0.062c0.177,0.212,0.149,0.527-0.062,0.705l-27.983,23.431
						C540.481,131.148,540.339,131.184,540.204,131.166z"/>
				</g>
				<g>
					<path style="fill:#155897;" d="M550.318,131.087c-0.119-0.016-0.233-0.075-0.316-0.174c-0.177-0.212-0.149-0.527,0.062-0.705
						l16.724-14.003c0.212-0.178,0.528-0.149,0.705,0.062c0.177,0.212,0.149,0.527-0.062,0.705l-16.724,14.003
						C550.595,131.069,550.453,131.105,550.318,131.087z"/>
				</g>
				<g>
					<path style="fill:#155897;" d="M542.573,120.887c-0.119-0.016-0.233-0.075-0.316-0.174c-0.177-0.212-0.149-0.527,0.062-0.705
						l16.724-14.002c0.212-0.177,0.528-0.148,0.705,0.062c0.177,0.212,0.149,0.527-0.062,0.704l-16.724,14.002
						C542.85,120.87,542.708,120.906,542.573,120.887z"/>
				</g>
			</g>
			<g>
				<rect x="597.494" y="95.152" style="fill:#63CFE8;" width="69.449" height="48"/>
				<polygon style="opacity:0.17;fill:#FFFFFF;" points="666.943,143.152 597.494,143.152 636.538,115.663 666.943,95.152 				"/>
				<g>
					<path style="fill:#155897;" d="M617.59,131.166c-0.119-0.016-0.233-0.075-0.316-0.174c-0.177-0.212-0.149-0.527,0.062-0.705
						l27.983-23.431c0.212-0.177,0.528-0.148,0.705,0.062c0.177,0.212,0.149,0.527-0.062,0.705l-27.983,23.431
						C617.866,131.148,617.724,131.184,617.59,131.166z"/>
				</g>
				<g>
					<path style="fill:#155897;" d="M627.704,131.087c-0.119-0.016-0.233-0.075-0.316-0.174c-0.177-0.212-0.149-0.527,0.062-0.705
						l16.724-14.003c0.212-0.178,0.529-0.149,0.705,0.062c0.177,0.212,0.149,0.527-0.062,0.705l-16.724,14.003
						C627.98,131.069,627.839,131.105,627.704,131.087z"/>
				</g>
				<g>
					<path style="fill:#155897;" d="M619.959,120.887c-0.119-0.016-0.233-0.075-0.316-0.174c-0.177-0.212-0.149-0.527,0.062-0.705
						l16.724-14.002c0.212-0.177,0.528-0.148,0.705,0.062c0.177,0.212,0.149,0.527-0.062,0.704l-16.724,14.002
						C620.235,120.87,620.093,120.906,619.959,120.887z"/>
				</g>
			</g>
			<g>
				<rect x="674.88" y="95.152" style="fill:#63CFE8;" width="69.449" height="48"/>
				<polygon style="opacity:0.17;fill:#FFFFFF;" points="744.328,143.152 674.88,143.152 713.923,115.663 744.328,95.152 				"/>
				<g>
					<path style="fill:#155897;" d="M694.975,131.166c-0.119-0.016-0.233-0.075-0.316-0.174c-0.177-0.212-0.149-0.527,0.062-0.705
						l27.983-23.431c0.213-0.177,0.528-0.148,0.705,0.062c0.177,0.212,0.149,0.527-0.062,0.705l-27.983,23.431
						C695.252,131.148,695.11,131.184,694.975,131.166z"/>
				</g>
				<g>
					<path style="fill:#155897;" d="M705.09,131.087c-0.119-0.016-0.233-0.075-0.316-0.174c-0.177-0.212-0.149-0.527,0.062-0.705
						l16.724-14.003c0.212-0.178,0.528-0.149,0.705,0.062c0.177,0.212,0.149,0.527-0.062,0.705l-16.724,14.003
						C705.366,131.069,705.224,131.105,705.09,131.087z"/>
				</g>
				<g>
					<path style="fill:#155897;" d="M697.344,120.887c-0.119-0.016-0.233-0.075-0.316-0.174c-0.177-0.212-0.149-0.527,0.062-0.705
						l16.724-14.002c0.212-0.177,0.528-0.148,0.705,0.062c0.177,0.212,0.149,0.527-0.062,0.704l-16.724,14.002
						C697.621,120.87,697.479,120.906,697.344,120.887z"/>
				</g>
			</g>
		</g>
	</g>
	<g>
		<rect x="192.005" y="101.137" style="opacity:0.22;fill:#223147;" width="197.99" height="32.998"/>
		<g>
			
				<rect x="277.437" y="21.641" transform="matrix(-1.836970e-16 1 -1 -1.836970e-16 408.5721 -173.2993)" style="fill:#FD6C6B;" width="26.998" height="191.99"/>
			<polygon style="opacity:0.17;fill:#FFFFFF;" points="194.941,131.135 269.725,103.949 279.388,103.949 210.022,131.212 			"/>
			<polygon style="opacity:0.17;fill:#FFFFFF;" points="302.612,131.48 377.396,104.294 387.059,104.294 317.694,131.557 			"/>
		</g>
		<g>
			<g style="opacity:0.21;">
				<text transform="matrix(1 0 0 1 209.5027 128.749)" style="fill:#223147; font-family:'Inter-Black'; font-size:25.4063px;">EMERGENCY</text>
			</g>
			<g>
				<text transform="matrix(1 0 0 1 208.5027 127.749)" style="fill:#FFFFFF; font-family:'Inter-Black'; font-size:25.4063px;">EMERGENCY</text>
			</g>
		</g>
	</g>
	<g>
		<g>
			<path style="fill:#FEB847;" d="M235.914,77.157H60.77c-3.187,0-5.795-2.608-5.795-5.795l0,0c0-3.187,2.608-5.795,5.795-5.795
				h175.145c3.187,0,5.795,2.608,5.795,5.795l0,0C241.71,74.549,239.102,77.157,235.914,77.157z"/>
			<g>
				<rect x="61.924" y="16" style="fill:#155897;" width="4.13" height="45.044"/>
				<rect x="240.932" y="16" style="fill:#155897;" width="4.13" height="45.044"/>
				<path style="fill:#155897;" d="M255.876,68.793v-4.105c0-6.6-5.4-12-12-12H52.808c-6.6,0-12,5.4-12,12v4.105H255.876z"/>
				<path style="opacity:0.4;fill:#FFFFFF;" d="M253.229,57.203c-2.204-2.745-5.58-4.515-9.353-4.515H52.808
					c-3.773,0-7.149,1.77-9.353,4.515H253.229z"/>
			</g>
		</g>
		<g>
			<path style="fill:#FEB847;" d="M689.23,77.157H514.086c-3.187,0-5.795-2.608-5.795-5.795l0,0c0-3.187,2.608-5.795,5.795-5.795
				H689.23c3.187,0,5.795,2.608,5.795,5.795l0,0C695.026,74.549,692.418,77.157,689.23,77.157z"/>
			<g>
				<rect x="515.24" y="16" style="fill:#155897;" width="4.13" height="45.044"/>
				<rect x="694.248" y="16" style="fill:#155897;" width="4.13" height="45.044"/>
				<path style="fill:#155897;" d="M709.192,68.793v-4.105c0-6.6-5.4-12-12-12H506.124c-6.6,0-12,5.4-12,12v4.105H709.192z"/>
				<path style="opacity:0.4;fill:#FFFFFF;" d="M706.545,57.203c-2.204-2.745-5.58-4.515-9.353-4.515H506.124
					c-3.773,0-7.149,1.77-9.353,4.515H706.545z"/>
			</g>
		</g>
	</g>
	<g>
		<path style="fill:#131C26;" d="M75.655,395.731c0,0,0.582,2.184-0.437,3.64c-1.019,1.456-0.728,6.406,4.513,5.533
			c5.241-0.874,7.571-3.057,7.28-4.95c-0.291-1.893-2.329-6.697-2.329-6.697S76.238,394.421,75.655,395.731z"/>
		<path style="fill:#FFFFFF;" d="M74.637,401.264c0,0-0.744,7.134,6.246,5.241c0,0,8.477-1.019,5.949-7.571
			C86.832,398.934,77.908,399.225,74.637,401.264z"/>
		<g>
			<path style="fill:#FFFFFF;" d="M77.257,399.143c-0.186,0-0.365-0.105-0.451-0.283c-0.12-0.249-0.015-0.548,0.234-0.667
				c0.168-0.082,4.162-1.978,6.813-0.885c0.255,0.105,0.377,0.398,0.272,0.652c-0.105,0.256-0.396,0.38-0.653,0.272
				c-2.24-0.923-5.962,0.844-5.999,0.861C77.403,399.127,77.33,399.143,77.257,399.143z"/>
		</g>
		<g>
			<path style="fill:#FFFFFF;" d="M77.257,397.25c-0.186,0-0.365-0.105-0.451-0.283c-0.12-0.249-0.015-0.548,0.234-0.667
				c0.168-0.082,4.162-1.978,6.813-0.885c0.255,0.105,0.377,0.398,0.272,0.652c-0.105,0.256-0.396,0.38-0.653,0.272
				c-2.24-0.923-5.962,0.844-5.999,0.861C77.403,397.235,77.33,397.25,77.257,397.25z"/>
		</g>
	</g>
	<g>
		<path style="fill:#131C26;" d="M89.548,392.112c0,0-0.315,2.238-1.821,3.182c-1.506,0.943-3.168,5.615,1.999,6.854
			c5.167,1.239,8.164,0.136,8.633-1.72c0.47-1.856,0.466-7.075,0.466-7.075S90.595,391.133,89.548,392.112z"/>
		<path style="fill:#FFFFFF;" d="M86.453,396.81c0,0-3.466,6.28,3.709,7.262c0,0,8.204,2.367,8.43-4.652
			C98.591,399.419,90.26,396.208,86.453,396.81z"/>
		<g>
			<path style="fill:#FFFFFF;" d="M89.693,395.878c-0.171-0.073-0.295-0.238-0.305-0.437c-0.013-0.276,0.2-0.51,0.475-0.523
				c0.187-0.01,4.604-0.199,6.619,1.842c0.194,0.196,0.192,0.513-0.004,0.707c-0.196,0.195-0.513,0.195-0.707-0.005
				c-1.703-1.723-5.819-1.547-5.86-1.546C89.834,395.921,89.76,395.907,89.693,395.878z"/>
		</g>
		<g>
			<path style="fill:#FFFFFF;" d="M90.431,394.135c-0.171-0.073-0.295-0.238-0.305-0.437c-0.013-0.276,0.2-0.51,0.475-0.523
				c0.187-0.01,4.604-0.199,6.619,1.842c0.194,0.196,0.192,0.513-0.004,0.707c-0.196,0.195-0.513,0.195-0.707-0.004
				c-1.703-1.723-5.819-1.547-5.86-1.546C90.572,394.178,90.498,394.164,90.431,394.135z"/>
		</g>
	</g>
	<g>
		<g>
			<rect x="155.301" y="320.621" style="fill:#FD6C6B;" width="1.993" height="18.601"/>
			<rect x="158.301" y="320.621" style="fill:#F49231;" width="1.993" height="18.601"/>
			
				<rect x="172.301" y="320.621" transform="matrix(0.9475 0.3197 -0.3197 0.9475 114.5777 -38.0895)" style="fill:#F49231;" width="1.993" height="18.602"/>
			
				<rect x="169.297" y="320.621" transform="matrix(0.9427 0.3337 -0.3337 0.9427 119.8599 -37.916)" style="fill:#155897;" width="1.993" height="18.602"/>
			<g>
				<g>
					<path style="fill:#223147;" d="M153.36,334.555v33.5c0,5.5,4.5,10,10,10s10-4.5,10-10v-33.5H153.36z"/>
					<path style="fill:#223147;" d="M152.975,391.373L152.975,391.373c-0.913,0-1.661-0.747-1.661-1.661v-42.85
						c0-0.913,0.747-1.661,1.661-1.661l0,0c0.914,0,1.661,0.747,1.661,1.661v42.85C154.636,390.626,153.889,391.373,152.975,391.373
						z"/>
					<path style="fill:#223147;" d="M174.567,391.373L174.567,391.373c-0.913,0-1.661-0.747-1.661-1.661v-42.85
						c0-0.913,0.747-1.661,1.661-1.661l0,0c0.913,0,1.661,0.747,1.661,1.661v42.85C176.227,390.626,175.48,391.373,174.567,391.373z
						"/>
				</g>
				<path style="opacity:0.33;fill:#63CFE8;" d="M162.941,371.443L162.941,371.443c-1.279,0-2.325-1.046-2.325-2.325v-28.567
					c0-1.279,1.046-2.325,2.325-2.325l0,0c1.279,0,2.325,1.046,2.325,2.325v28.567C165.266,370.397,164.219,371.443,162.941,371.443
					z"/>
			</g>
		</g>
		<g>
			<g>
				<path style="fill:#155897;" d="M127.772,343.66H50.471c-6.6,0-12-5.4-12-12v-58.883c0-6.6,5.4-12,12-12h77.302
					c6.6,0,12,5.4,12,12v58.883C139.772,338.26,134.372,343.66,127.772,343.66z"/>
				<g style="opacity:0.47;">
					<path style="fill:#63CFE8;" d="M122.437,339.794h-66.63c-6.893,0-12.5-5.608-12.5-12.5v-50.152c0-6.893,5.607-12.5,12.5-12.5
						h66.63c6.892,0,12.5,5.607,12.5,12.5v50.152C134.937,334.187,129.329,339.794,122.437,339.794z M55.806,265.642
						c-6.341,0-11.5,5.159-11.5,11.5v50.152c0,6.341,5.159,11.5,11.5,11.5h66.63c6.341,0,11.5-5.159,11.5-11.5v-50.152
						c0-6.341-5.159-11.5-11.5-11.5H55.806z"/>
				</g>
				<path style="opacity:0.11;fill:#FFFFFF;" d="M38.471,328.142v3.518c0,6.6,5.4,12,12,12h77.302c6.6,0,12-5.4,12-12v-3.518H38.471
					z"/>
				<path style="fill:#155897;" d="M130.36,362.078H47.883c-5.177,0-9.412-4.236-9.412-9.412v-4.198
					c0-5.177,4.236-9.412,9.412-9.412h82.477c5.177,0,9.412,4.236,9.412,9.412v4.198
					C139.772,357.842,135.537,362.078,130.36,362.078z"/>
				<rect x="42.308" y="360.543" style="fill:#155897;" width="93.627" height="30.698"/>
				<rect x="42.308" y="360.543" style="opacity:0.2;fill:#223147;" width="93.627" height="30.698"/>
				<path style="fill:#155897;" d="M49.92,391.151c0.041-0.391,0.062-0.787,0.062-1.189v-72.139c0-6.331-5.18-11.512-11.512-11.512
					l0,0c-6.331,0-11.511,5.18-11.511,11.512v72.139c0,0.401,0.022,0.798,0.062,1.189H49.92z"/>
				<path style="fill:#155897;" d="M149.687,391.151c0.041-0.391,0.062-0.787,0.062-1.189v-72.139
					c0-6.331-5.18-11.512-11.511-11.512h0c-6.331,0-11.511,5.18-11.511,11.512v72.139c0,0.401,0.022,0.798,0.062,1.189H149.687z"/>
				<ellipse style="opacity:0.11;fill:#FFFFFF;" cx="37.911" cy="321.126" rx="6.608" ry="8.59"/>
				<ellipse style="opacity:0.11;fill:#FFFFFF;" cx="139.091" cy="321.126" rx="6.608" ry="8.59"/>
				<path style="opacity:0.6;fill:#63CFE8;" d="M139.816,305.813c-0.18-0.018-4.512-0.345-8.268,3.255
					c-3.776,3.619-5.532,9.78-5.233,18.284H50.537c0.278-8.948-1.462-15.271-5.187-18.787c-3.25-3.069-6.78-2.764-6.928-2.752
					c-0.274,0.027-0.475,0.271-0.449,0.545c0.026,0.274,0.267,0.463,0.544,0.451c0.032-0.006,3.253-0.264,6.167,2.502
					c3.513,3.336,5.187,9.74,4.839,18.541v63.299c0,0.276,0.224,0.5,0.5,0.5c0.276,0,0.5-0.224,0.5-0.5l0-30.17h75.806v30.17
					c0,0.276,0.224,0.5,0.5,0.5s0.5-0.224,0.5-0.5l-0.001-63.321c-0.374-8.475,1.272-14.539,4.894-18.024
					c3.421-3.291,7.469-2.993,7.506-2.996c0.282,0.022,0.517-0.182,0.54-0.456C140.294,306.078,140.09,305.836,139.816,305.813z
					 M126.33,328.352v10.076H50.524v-10.076H126.33z M50.524,359.981l0-20.553h75.807v20.553H50.524z"/>
			</g>
			<ellipse style="opacity:0.17;fill:#131C26;" cx="88.965" cy="394.138" rx="59.997" ry="9"/>
		</g>
	</g>
	<g>
		<ellipse style="opacity:0.17;fill:#131C26;" cx="339.452" cy="419.637" rx="59.997" ry="9"/>
		<g>
			<g>
				<path style="fill:#82450F;" d="M308.547,322.726c0.609,0.871,1.465-1.963,2.003-4.11c0.185,0.082,0.387,0.154,0.6,0.218
					l-0.207,5.893c0.857,0.974,1.467-3.582,1.692-5.608c0.153,0.017,0.308,0.03,0.463,0.04l-0.247,6.334
					c0.831,1.09,1.476-3.926,1.732-6.323c0.233-0.013,0.458-0.032,0.671-0.058l-0.193,5.486c1.095,1.244,1.787-6.539,1.787-6.539
					l-0.03-0.006c0.375-0.963,0.501-2.521,0.521-4.024c0.279,0.319,0.522,0.806,0.645,1.559c0.423,2.571,1.265,1.646,1.265,1.646
					c0.726-5.237-2.073-7.372-2.073-7.372c-0.265-1.974-5.564-1.725-5.564-1.725s-2.228,6.596-2.226,8.925L308.547,322.726z"/>
				<path style="fill:#FFFFFF;" d="M330.413,236.342c0,0,5.813,12.013-12.401,74.018l-8.138,0.775
					C309.874,311.135,313.749,230.529,330.413,236.342z"/>
			</g>
			<path style="fill:#FFFFFF;" d="M379.008,370.752c0,0-43.559,12.395-66.578-2.833l27.977-55.6l15.936,1.063L379.008,370.752z"/>
			<path style="fill:#155897;" d="M334.14,276.795c0.697-13.613-0.848-27.235-0.973-40.847l3.403-1.308
				c2.599,1.026,5.85,0.461,7.588,0.556c1.716-0.295,3.634-0.397,6.096-1.716l10.551,2.638c0,0,5.288-0.286,4.914,22.547
				c-0.95,4.126-2.542,8.064-2.562,12.48c-0.013,2.841,0.772,12.875,1.592,21.348l1.425,12.115c-2.715,0.904-6.021,0.095-8.795,0.8
				c-0.598,0.152-2.196,0.117-3.955,0.05l-23.42,1.561C331.382,296.945,333.619,286.977,334.14,276.795z"/>
			<g>
				<g>
					<path style="fill:#223147;" d="M352.475,406.831c0,0-4.285,8.013-1.293,9.686c2.992,1.673,22.593,5.958,22.593,5.958
						s2.612-5.021-3.778-6.237c-6.39-1.217-9.103-7.252-9.103-7.252L352.475,406.831z"/>
					<path style="fill:#FFFFFF;" d="M364.082,417.853c0.756-1.401,1.61-2.496,2.545-2.829c0.986,0.536,2.103,0.971,3.37,1.212
						c4.299,0.819,4.521,3.355,4.208,4.93l0,0c0,0,0,0,0,0c-0.116,0.58-0.298,1.024-0.382,1.207
						c-0.001,0.003-0.002,0.004-0.003,0.007c-0.025,0.055-0.044,0.093-0.044,0.093s-0.133-0.029-0.356-0.078
						c-2.627-0.58-19.479-4.337-22.237-5.879c-0.822-0.46-1.084-1.405-1.047-2.524C354.762,415.363,359.447,416.527,364.082,417.853
						z"/>
					<path style="opacity:0.64;fill:#FFFFFF;" d="M352.16,410.672c-0.214,0.799,0.18,1.598,0.879,1.785
						c0.699,0.187,1.439-0.309,1.652-1.108c0.214-0.799-0.18-1.598-0.879-1.785C353.114,409.377,352.374,409.873,352.16,410.672z"/>
					<g style="opacity:0.67;">
						<path style="fill:#FFFFFF;" d="M360.701,414.597c0.13,0.035,0.268-0.03,0.323-0.156c0.676-1.553,2.228-1.673,2.293-1.678
							c0.151-0.01,0.266-0.141,0.256-0.292c-0.011-0.151-0.141-0.267-0.29-0.257c-0.079,0.005-1.951,0.139-2.763,2.008
							c-0.061,0.139,0.003,0.301,0.142,0.362C360.675,414.589,360.689,414.594,360.701,414.597z"/>
					</g>
					<g style="opacity:0.67;">
						<path style="fill:#FFFFFF;" d="M359.725,413.173c0.13,0.035,0.268-0.03,0.323-0.156c0.677-1.553,2.228-1.673,2.293-1.678
							c0.151-0.01,0.266-0.141,0.256-0.292c-0.009-0.151-0.139-0.265-0.29-0.257c-0.079,0.005-1.95,0.14-2.763,2.008
							c-0.06,0.139,0.003,0.301,0.142,0.362C359.7,413.165,359.713,413.17,359.725,413.173z"/>
					</g>
				</g>
				<g>
					<path style="fill:#223147;" d="M315.636,406.036c0,0-4.285,8.013-1.293,9.686s22.593,5.958,22.593,5.958
						s2.612-5.021-3.778-6.238c-6.39-1.217-9.103-7.252-9.103-7.252L315.636,406.036z"/>
					<path style="fill:#FFFFFF;" d="M327.243,417.059c0.756-1.401,1.61-2.496,2.545-2.829c0.986,0.536,2.103,0.971,3.37,1.212
						c4.299,0.819,4.521,3.355,4.208,4.93l0,0c0,0,0,0,0,0c-0.115,0.58-0.298,1.024-0.382,1.207
						c-0.002,0.003-0.002,0.004-0.003,0.007c-0.025,0.055-0.044,0.093-0.044,0.093s-0.133-0.029-0.356-0.078
						c-2.627-0.58-19.479-4.337-22.237-5.879c-0.822-0.46-1.084-1.405-1.047-2.524C317.923,414.568,322.608,415.732,327.243,417.059
						z"/>
					<path style="opacity:0.64;fill:#FFFFFF;" d="M315.321,409.877c-0.214,0.799,0.18,1.598,0.879,1.785
						c0.699,0.187,1.439-0.309,1.652-1.108c0.214-0.799-0.18-1.598-0.879-1.785S315.535,409.078,315.321,409.877z"/>
					<g style="opacity:0.67;">
						<path style="fill:#FFFFFF;" d="M323.862,413.802c0.13,0.035,0.268-0.03,0.323-0.156c0.676-1.553,2.228-1.673,2.293-1.678
							c0.151-0.01,0.266-0.141,0.256-0.292c-0.011-0.151-0.141-0.267-0.29-0.257c-0.079,0.005-1.951,0.139-2.763,2.008
							c-0.061,0.139,0.003,0.301,0.142,0.362C323.836,413.794,323.849,413.799,323.862,413.802z"/>
					</g>
					<g style="opacity:0.67;">
						<path style="fill:#FFFFFF;" d="M322.886,412.379c0.13,0.035,0.268-0.03,0.323-0.156c0.677-1.553,2.228-1.673,2.293-1.678
							c0.151-0.01,0.266-0.141,0.256-0.292c-0.01-0.152-0.139-0.265-0.29-0.257c-0.079,0.005-1.95,0.139-2.763,2.008
							c-0.061,0.139,0.003,0.301,0.142,0.362C322.861,412.371,322.874,412.375,322.886,412.379z"/>
					</g>
				</g>
				<path style="fill:#155897;" d="M366.174,304.608l0.8,103.94l-19.189-0.8l-7.595-102.74
					C340.19,305.008,362.577,299.411,366.174,304.608z"/>
				<path style="opacity:0.13;fill:#131C26;" d="M344.364,306.872l22.61,101.676l-19.189-0.8l-7.595-102.74
					C340.19,305.008,340.766,301.675,344.364,306.872z"/>
				<path style="fill:#155897;" d="M350.511,307.746l-21.74,101.644l-18.56-4.938l14.845-101.945
					C325.057,302.506,348.125,301.892,350.511,307.746z"/>
			</g>
			<g>
				<path style="fill:#FFFFFF;" d="M352.856,233.721c0,0,5.133,106.322,3.666,136.385c0,0,16.465-5.729,22.486,0.646L363.78,236.888
					C363.78,236.888,355.458,233.964,352.856,233.721z"/>
				<path style="fill:#FFFFFF;" d="M336.57,234.64c0,0,6.67,130.092,4.191,137.883l-28.331-4.604c0,0,11.332-70.473,11.332-77.91
					s1.613-52.504,1.613-52.504L336.57,234.64z"/>
				<g style="opacity:0.54;">
					<path style="fill:#131C26;" d="M335.839,312.072c0.287,0,0.53-0.223,0.548-0.514c0.019-0.303-0.211-0.565-0.513-0.584
						l-12.013-0.776c-0.3-0.018-0.565,0.211-0.584,0.514c-0.019,0.303,0.211,0.565,0.513,0.584l12.013,0.776
						C335.815,312.072,335.827,312.072,335.839,312.072z"/>
				</g>
				<g style="opacity:0.54;">
					<path style="fill:#131C26;" d="M371.874,311.52c0.146-0.026,0.229-0.267,0.188-0.556c-0.043-0.3-0.205-0.538-0.362-0.529
						l-6.225,0.314c-0.155,0.009-0.25,0.258-0.207,0.558c0.043,0.3,0.205,0.538,0.362,0.529l6.225-0.314
						C371.862,311.522,371.868,311.521,371.874,311.52z"/>
				</g>
			</g>
			<g>
				<g>
					<path style="fill:#131C26;" d="M356.825,254.313c4.437-17.748-3.422-22.786-3.759-22.992l-0.574,0.939l0.287-0.469
						l-0.289,0.468c0.076,0.046,7.491,4.895,3.268,21.788L356.825,254.313z"/>
				</g>
				<g>
					<path style="fill:#131C26;" d="M334.695,252.996l1.067-0.266c-4.223-16.894,3.192-21.742,3.268-21.788l-0.576-0.938
						C338.118,230.21,330.258,235.247,334.695,252.996z"/>
				</g>
				<g>
					<path style="fill:#131C26;" d="M349.882,255.065l1.089-0.155c-1.349-9.543,6.567-14.634,6.647-14.683l-0.584-0.932
						C356.948,239.349,348.434,244.822,349.882,255.065z"/>
				</g>
				<path style="fill:#131C26;" d="M332.584,253.741c0,1.697,1.376,3.073,3.073,3.073c1.697,0,3.073-1.376,3.073-3.073
					c0-1.697-1.376-3.073-3.073-3.073C333.96,250.667,332.584,252.043,332.584,253.741z"/>
				<path style="fill:#131C26;" d="M354.974,255.058c0,0.97,0.786,1.756,1.756,1.756c0.97,0,1.756-0.786,1.756-1.756
					c0-0.97-0.786-1.756-1.756-1.756C355.76,253.302,354.974,254.088,354.974,255.058z"/>
				<path style="fill:#131C26;" d="M348.389,255.058c0,0.97,0.786,1.756,1.756,1.756c0.97,0,1.756-0.786,1.756-1.756
					c0-0.97-0.786-1.756-1.756-1.756C349.175,253.302,348.389,254.088,348.389,255.058z"/>
			</g>
			<g>
				<path style="fill:#82450F;" d="M352.041,221.993l-0.329,13.918c0,0,1.32,5.686-2.616,5.632
					c-2.149-0.03-8.783-3.935-11.303-6.405l1.009-12.664L352.041,221.993z"/>
				<path style="opacity:0.44;fill:#82450F;" d="M349.601,235.731c0.631,1.072,1.417,2.019,2.288,2.891
					c0.129-1.372-0.177-2.711-0.177-2.711l0.329-13.918l-6.252,0.227C346.755,226.822,347.259,231.751,349.601,235.731z"/>
				<path style="fill:#82450F;" d="M348.634,227.788l2.563-0.143c7.055-0.392,12.507-6.486,12.115-13.541l-0.915-16.451
					c-0.392-7.055-6.486-12.507-13.541-12.115l-2.563,0.143c-7.055,0.392-12.507,6.486-12.115,13.541l0.915,16.451
					C335.485,222.729,341.578,228.18,348.634,227.788z"/>
				<path style="fill:#82450F;" d="M338.107,208.682c0.364,3.14-0.869,5.863-2.753,6.082c-1.884,0.218-3.707-2.15-4.071-5.291
					c-0.364-3.141,0.869-5.863,2.753-6.082C335.921,203.173,337.743,205.542,338.107,208.682z"/>
				<path style="opacity:0.44;fill:#82450F;" d="M336.588,208.858c0.202,1.742-0.482,3.253-1.527,3.374
					c-1.045,0.121-2.057-1.193-2.259-2.936c-0.202-1.743,0.482-3.253,1.527-3.374C335.375,205.801,336.387,207.115,336.588,208.858z
					"/>
				<g>
					<path style="fill:#131C26;" d="M350.792,208.451c0.004,0.779-0.443,1.412-0.999,1.415c-0.556,0.003-1.01-0.626-1.014-1.404
						c-0.004-0.778,0.444-1.412,1-1.415C350.334,207.044,350.788,207.673,350.792,208.451z"/>
					<path style="fill:#131C26;" d="M361.827,208.655c0.004,0.778-0.443,1.412-1,1.415c-0.556,0.003-1.01-0.626-1.014-1.404
						c-0.004-0.778,0.444-1.412,1-1.415C361.369,207.248,361.823,207.876,361.827,208.655z"/>
					<path style="fill:#131C26;" d="M346.58,205.475c0,0,1.487-2.167,5.365-1.895c0,0,0.285,0.873-0.236,1.115
						C351.188,204.937,347.442,205.012,346.58,205.475z"/>
					<path style="fill:#131C26;" d="M362.799,205.11c0,0-0.854-2.082-3.28-1.616c0,0-0.207,0.883,0.11,1.098
						C359.946,204.807,362.278,204.692,362.799,205.11z"/>
					<path style="opacity:0.44;fill:#82450F;" d="M350.048,211.051c0.002,0.428-0.574,0.778-1.287,0.781
						c-0.713,0.004-1.293-0.34-1.295-0.768s0.574-0.778,1.287-0.782C349.466,210.28,350.046,210.624,350.048,211.051z"/>
					<path style="opacity:0.44;fill:#82450F;" d="M362.62,211.382c0.002,0.428-0.574,0.778-1.287,0.782
						c-0.713,0.004-1.293-0.34-1.295-0.768c-0.002-0.428,0.574-0.778,1.287-0.781C362.037,210.61,362.617,210.954,362.62,211.382z"
						/>
				</g>
				<path style="fill:#131C26;" d="M357.284,205.898c0.274,0.601,0.507,1.207,0.722,1.816c0.218,0.608,0.423,1.216,0.614,1.824
					l0.586,1.804c0.102,0.296,0.197,0.588,0.309,0.864c0.06,0.122,0.113,0.284,0.177,0.376c0.032,0.05,0.057,0.107,0.084,0.16
					c0.014,0.005,0.015,0.016,0.014,0.044l0.234,0.579c-0.179,0.45-0.399,0.753-0.702,1.035c-0.296,0.271-0.634,0.49-0.999,0.622
					c-0.365,0.13-0.739,0.196-1.107,0.197c-0.367,0.008-0.725-0.057-1.066-0.148c0.35-0.069,0.685-0.143,1.002-0.249
					c0.315-0.108,0.607-0.247,0.868-0.412c0.251-0.182,0.481-0.374,0.655-0.61c0.167-0.222,0.333-0.512,0.38-0.716l0.234,0.579
					c-0.117-0.084-0.233-0.184-0.334-0.29l-0.17-0.251c-0.117-0.175-0.167-0.323-0.252-0.487c-0.137-0.318-0.267-0.629-0.364-0.945
					c-0.198-0.633-0.371-1.263-0.493-1.903c-0.136-0.637-0.232-1.28-0.3-1.928C357.304,207.211,357.265,206.559,357.284,205.898z"/>
				<path style="fill:#131C26;" d="M339.053,201.789c0,0,1.655,6.763,1.318,12.836c0,0-2.902-10.322-6.335-11.234
					C334.037,203.391,337.511,198.222,339.053,201.789z"/>
				<g>
					<g>
						<path style="fill:#FFFFFF;" d="M342.829,212.15l21.19-0.274c0,0,2.7,14.073-12.241,16.724
							C351.778,228.6,336.388,228.906,342.829,212.15z"/>
						<path style="fill:#FFFFFF;" d="M342.305,219.848c0,0-5.364-1.26-7.833-5.53c0,0-0.704,7.768,8.174,8.534L342.305,219.848z"/>
						<path style="fill:#FFFFFF;" d="M337.303,207.203c0,0,3.952,7.181,6.523,7.904l0.128-2.313
							C343.954,212.793,336.274,204.825,337.303,207.203z"/>
					</g>
					<g style="opacity:0.35;">
						<path style="fill:#223147;" d="M347.247,216.152c-0.142-0.008-0.256-0.124-0.259-0.269c-0.003-0.152,0.118-0.277,0.269-0.28
							l15.391-0.307c0.157-0.011,0.278,0.117,0.281,0.27c0.003,0.152-0.118,0.277-0.269,0.28l-15.391,0.306
							C347.261,216.152,347.254,216.152,347.247,216.152z"/>
					</g>
					<g style="opacity:0.35;">
						<path style="fill:#223147;" d="M347.569,220.81c-0.139-0.008-0.252-0.119-0.259-0.261c-0.008-0.152,0.11-0.281,0.261-0.289
							l13.96-0.675c0.145-0.012,0.281,0.11,0.288,0.261c0.008,0.152-0.11,0.281-0.261,0.289l-13.96,0.675
							C347.589,220.811,347.579,220.811,347.569,220.81z"/>
					</g>
					<g style="opacity:0.35;">
						<path style="fill:#223147;" d="M350.542,224.746c-0.137-0.008-0.251-0.117-0.259-0.259c-0.009-0.151,0.107-0.281,0.258-0.29
							l7.566-0.449c0.145-0.01,0.282,0.106,0.291,0.258c0.009,0.151-0.107,0.281-0.258,0.29l-7.566,0.449
							C350.563,224.746,350.552,224.747,350.542,224.746z"/>
					</g>
				</g>
				<path style="fill:#131C26;" d="M360.339,192.208c0,0-2.789-4.005-4.399,0.789c-1.611,4.793-5.201,1.586-9.592-0.823
					c-4.392-2.409-7.354,3.655-7.294,9.614c0,0-5.528,2.347-6.72-0.454c-1.193-2.801,0.432-13.191,11.233-16.363
					C343.567,184.972,357.164,182.606,360.339,192.208z"/>
				<path style="fill:#131C26;" d="M321.973,187.318c-0.012,4.857,3.916,8.804,8.773,8.816c4.857,0.012,8.805-3.916,8.816-8.773
					c0.012-4.857-3.916-8.804-8.773-8.816C325.932,178.533,321.985,182.46,321.973,187.318z"/>
				<path style="fill:#131C26;" d="M314.358,195.494c-0.008,3.201,2.581,5.803,5.783,5.811c3.201,0.008,5.803-2.581,5.811-5.782
					c0.008-3.201-2.581-5.803-5.783-5.811C316.967,189.704,314.366,192.293,314.358,195.494z"/>
				<path style="fill:#131C26;" d="M313.54,203.088c-0.004,1.877,1.513,3.402,3.39,3.406c1.877,0.005,3.402-1.513,3.406-3.39
					c0.005-1.877-1.513-3.402-3.39-3.406C315.069,199.694,313.544,201.211,313.54,203.088z"/>
			</g>
			<path style="opacity:0.46;fill:#131C26;" d="M323.233,290.96c6.813-24.258,7.401-43.268,7.405-43.457
				c0.009-0.304,0.222-0.545,0.565-0.535c0.303,0.009,0.543,0.261,0.535,0.565c-0.005,0.19-0.594,19.327-7.446,43.723
				c-0.068,0.243-0.289,0.402-0.529,0.402c-0.049,0-0.099-0.007-0.149-0.02C323.321,291.555,323.15,291.252,323.233,290.96z"/>
			<g>
				
					<rect x="328.146" y="259.932" transform="matrix(-1 -1.224647e-16 1.224647e-16 -1 684.7801 558.4419)" style="fill:#FD6C6B;" width="28.488" height="38.578"/>
				
					<rect x="337.538" y="258.638" transform="matrix(-1 -1.224647e-16 1.224647e-16 -1 684.9279 521.942)" style="fill:#131C26;" width="9.851" height="4.666"/>
			</g>
			<g>
				<path style="fill:#82450F;" d="M332.957,278.413c-0.811-0.687,2.091-1.277,4.278-1.612c-0.065-0.192-0.118-0.399-0.161-0.618
					l-5.887-0.34c-0.89-0.943,3.703-1.128,5.741-1.164c-0.002-0.154-0.001-0.309,0.003-0.464l-6.33-0.342
					c-1.008-0.928,4.046-1.105,6.457-1.137c0.034-0.231,0.074-0.453,0.12-0.663l-5.481-0.317c-1.137-1.205,6.676-1.173,6.676-1.173
					l0.003,0.03c0.994-0.283,2.557-0.265,4.055-0.145c-0.292-0.308-0.754-0.594-1.492-0.787c-2.52-0.66-1.522-1.412-1.522-1.412
					c5.281-0.237,7.148,2.748,7.148,2.748c1.94,0.447,1.201,5.7,1.201,5.7s-6.774,1.606-9.093,1.388L332.957,278.413z"/>
				<path style="fill:#FFFFFF;" d="M363.78,236.888c0,0,9.194,4.56,16.657,40.559c0,0,0,8.341-34.683,0.878l0.439-8.781
					l20.634-0.878L363.78,236.888z"/>
				<g style="opacity:0.47;">
					<path style="fill:#131C26;" d="M358.49,267.639c3.024-0.188,5.592-0.041,7.746,0.315l-1.274-21.645
						c-0.018-0.303,0.213-0.564,0.517-0.581c0.295-0.032,0.563,0.214,0.581,0.517l1.29,21.919c6.713,1.418,9.023,4.821,9.16,5.034
						c0.164,0.255,0.092,0.593-0.162,0.758c-0.093,0.06-0.197,0.089-0.3,0.089c-0.179,0-0.355-0.088-0.461-0.248
						c-0.032-0.048-2.256-3.263-8.748-4.58c-0.004,0-0.008,0-0.012,0c-0.077,0-0.15-0.018-0.217-0.047
						c-2.19-0.422-4.866-0.621-8.081-0.425C358.518,268.376,358.508,268.007,358.49,267.639z"/>
					<path style="fill:#131C26;" d="M355.056,279.1l14.488,2.194c0.301,0.045,0.507,0.325,0.461,0.626
						c-0.041,0.272-0.275,0.467-0.543,0.467c-0.027,0-0.055-0.002-0.083-0.006l-14.488-2.194c-0.301-0.045-0.507-0.326-0.461-0.626
						C354.476,279.261,354.756,279.052,355.056,279.1z"/>
				</g>
			</g>
		</g>
	</g>
	<g>
		<g>
			<path style="fill:#223147;" d="M516.052,172.611c0,0,5.713-6.632,10.946-2.427c5.233,4.205,3.215,10.904,1.1,15.763
				s-2.695,8.845,0.239,9.48c2.934,0.635-11.014,6.122-10.925-12.077L516.052,172.611z"/>
			<path style="fill:#F9B88C;" d="M494.732,216.338c0,0-6.882,0.191-10.87,7.515c-3.988,7.324-24.374,14.971-24.374,14.971
				s-0.86,4.423,3.505,4.191c4.365-0.231,22.387,0.317,30.978-14.227C502.563,214.243,494.732,216.338,494.732,216.338z"/>
			<path style="fill:#155897;" d="M496.956,214.601c0,0,7.659,6.64-3.333,20.793l-10.975-10.117
				C482.647,225.277,489.188,210.838,496.956,214.601z"/>
			<path style="fill:#155897;" d="M492.511,246.623c-0.019-4.015-1.466-7.596-2.33-11.347c-0.34-20.76,4.468-20.5,4.468-20.5
				l9.593-2.399c2.239,1.199,3.983,1.293,5.543,1.561c1.58-0.086,4.536,0.427,6.899-0.505l8.038,3.089c0,0,6.045,0.351,0.729,29.237
				c0,0-0.415,14.11,0.66,16.489c0.065,0.145,0.07,0.311,0.027,0.494c-0.441,0.059-0.879,0.133-1.321,0.188
				c-0.369,0.045-4.151,0.344-3.303,0.33c-0.606,0.03-1.211,0.067-1.818,0.086c-5.634,0.176-11.279-0.128-16.855-0.96
				c-0.939-0.14-4.62-0.991-0.482-0.014c-1.304-0.308-2.615-0.584-3.914-0.914c-2.522-0.641-5.014-1.387-7.483-2.209
				C491.775,255.083,492.531,250.878,492.511,246.623z"/>
			<path style="fill:#F9B88C;" d="M503.789,203.103l0.269,12.655c0,0-1.212,5.167,2.366,5.126c1.954-0.022,7.994-3.558,10.291-5.798
				l-0.889-11.516L503.789,203.103z"/>
			<path style="opacity:0.51;fill:#FD6C6B;" d="M505.977,215.598c-0.576,0.974-1.293,1.833-2.086,2.624
				c-0.115-1.248,0.167-2.464,0.167-2.464l-0.269-12.655l5.684,0.221C508.584,207.505,508.115,211.985,505.977,215.598z"/>
			<path style="fill:#F9B88C;" d="M505.709,208.311L505.709,208.311c-7.054-0.41-12.491-6.516-12.081-13.571l0.733-12.626
				c0.409-7.054,6.516-12.491,13.57-12.081l0,0c7.054,0.41,12.491,6.516,12.082,13.57l-0.733,12.626
				C518.87,203.284,512.763,208.721,505.709,208.311z"/>
			<path style="fill:#F9B88C;" d="M516.487,191.031c-0.338,2.855,0.777,5.333,2.49,5.536s3.375-1.947,3.713-4.801
				c0.338-2.855-0.777-5.333-2.49-5.536S516.824,188.177,516.487,191.031z"/>
			<path style="opacity:0.26;fill:#FD6C6B;" d="M517.867,191.195c-0.188,1.584,0.431,2.959,1.381,3.071
				c0.95,0.113,1.872-1.08,2.06-2.664c0.188-1.584-0.431-2.959-1.381-3.071C518.977,188.418,518.055,189.611,517.867,191.195z"/>
			<g>
				<path style="fill:#223147;" d="M504.954,190.793c-0.005,0.708,0.4,1.285,0.906,1.288c0.505,0.004,0.92-0.567,0.925-1.274
					c0.005-0.708-0.4-1.285-0.906-1.288C505.374,189.515,504.959,190.085,504.954,190.793z"/>
				<path style="fill:#223147;" d="M494.921,190.954c-0.005,0.708,0.4,1.285,0.906,1.288c0.505,0.004,0.92-0.567,0.925-1.275
					c0.005-0.708-0.4-1.285-0.906-1.288C495.34,189.676,494.926,190.247,494.921,190.954z"/>
				<path style="fill:#223147;" d="M508.79,188.097c0,0-1.347-1.974-4.874-1.735c0,0-0.261,0.793,0.212,1.014
					C504.602,187.598,508.008,187.674,508.79,188.097z"/>
				<path style="fill:#223147;" d="M494.045,187.729c0,0,0.781-1.891,2.986-1.462c0,0,0.186,0.803-0.102,0.998
					S494.52,187.351,494.045,187.729z"/>
				<path style="fill:#FD6C6B;" d="M505.625,193.159c-0.003,0.389,0.52,0.708,1.169,0.713c0.648,0.005,1.177-0.307,1.18-0.695
					c0.003-0.389-0.52-0.708-1.169-0.713C506.156,192.459,505.628,192.77,505.625,193.159z"/>
				<path style="fill:#FD6C6B;" d="M494.194,193.432c-0.003,0.389,0.52,0.708,1.169,0.713c0.648,0.005,1.176-0.306,1.179-0.695
					c0.003-0.389-0.52-0.708-1.169-0.713C494.725,192.732,494.197,193.043,494.194,193.432z"/>
			</g>
			<path style="fill:#223147;" d="M499.057,188.458c-0.25,0.546-0.463,1.096-0.66,1.649c-0.2,0.552-0.387,1.104-0.562,1.657
				l-0.536,1.639c-0.093,0.268-0.18,0.535-0.283,0.785c-0.055,0.111-0.103,0.258-0.161,0.342c-0.029,0.046-0.052,0.097-0.077,0.145
				c-0.013,0.004-0.013,0.015-0.013,0.04l-0.214,0.526c0.162,0.41,0.361,0.685,0.636,0.943c0.269,0.247,0.576,0.447,0.907,0.568
				c0.332,0.119,0.671,0.18,1.006,0.181c0.334,0.008,0.659-0.05,0.97-0.133c-0.318-0.064-0.623-0.131-0.91-0.229
				c-0.286-0.099-0.551-0.226-0.788-0.377c-0.228-0.166-0.436-0.341-0.594-0.556c-0.151-0.203-0.301-0.466-0.344-0.652l-0.214,0.526
				c0.106-0.076,0.212-0.167,0.305-0.263l0.155-0.227c0.107-0.159,0.152-0.294,0.23-0.443c0.125-0.289,0.244-0.571,0.333-0.859
				c0.181-0.575,0.34-1.147,0.452-1.729c0.125-0.578,0.214-1.163,0.277-1.752C499.036,189.652,499.074,189.059,499.057,188.458z"/>
			
				<rect x="494.239" y="227.408" transform="matrix(-0.9733 -0.2293 0.2293 -0.9733 928.5941 565.1088)" style="opacity:0.33;fill:#FFFFFF;" width="5.793" height="2.37"/>
			<path style="fill:#223147;" d="M518.632,186.449c0,0-15.183-2.886-17.152-10.165c0,0,0.5,4.456,4.57,6.613
				c4.07,2.157-4.996,0.265-6.673-6.502c0,0-1.676,4.931-5.016,5.719c0,0-0.177-14.145,15.462-12.602c0,0,13.82,2.159,10.377,16.717
				L518.632,186.449z"/>
			<path style="fill:#223147;" d="M515.642,184.762c0,0-1.52,6.145-1.227,11.667c0,0,2.661-9.379,5.784-10.199
				C520.199,186.23,517.052,181.523,515.642,184.762z"/>
			<g>
				<g>
					<path style="fill:#FFFFFF;" d="M512.186,194.174l-19.265-0.296c0,0-2.486,12.789,11.092,15.233
						C504.013,209.111,518.005,209.423,512.186,194.174z"/>
					<path style="fill:#FFFFFF;" d="M512.645,201.174c0,0,4.88-1.134,7.134-5.01c0,0,0.623,7.064-7.451,7.741L512.645,201.174z"/>
					<path style="fill:#FFFFFF;" d="M517.221,189.688c0,0-3.609,6.52-5.948,7.171l-0.112-2.104
						C511.162,194.756,518.162,187.529,517.221,189.688z"/>
				</g>
				<g style="opacity:0.35;">
					<path style="fill:#223147;" d="M508.16,197.803c0.129-0.007,0.233-0.112,0.236-0.244c0.003-0.138-0.106-0.253-0.244-0.255
						l-13.992-0.313c-0.142-0.01-0.253,0.105-0.256,0.244c-0.003,0.138,0.106,0.253,0.244,0.255l13.992,0.313
						C508.147,197.803,508.154,197.803,508.16,197.803z"/>
				</g>
				<g style="opacity:0.35;">
					<path style="fill:#223147;" d="M507.857,202.038c0.126-0.007,0.229-0.108,0.236-0.237c0.007-0.138-0.099-0.256-0.237-0.263
						l-12.691-0.645c-0.132-0.012-0.255,0.1-0.262,0.237c-0.007,0.138,0.099,0.256,0.237,0.263l12.691,0.645
						C507.839,202.038,507.848,202.038,507.857,202.038z"/>
				</g>
				<g style="opacity:0.35;">
					<path style="fill:#223147;" d="M505.146,205.609c0.125-0.007,0.228-0.106,0.236-0.234c0.008-0.137-0.096-0.256-0.234-0.264
						l-6.878-0.425c-0.132-0.01-0.257,0.096-0.265,0.234c-0.008,0.137,0.096,0.256,0.234,0.264l6.878,0.425
						C505.126,205.609,505.136,205.609,505.146,205.609z"/>
				</g>
			</g>
			<path style="fill:#F9B88C;" d="M486.273,247.496c2.615-0.402,5.536-1.714,5.536-1.714s18.875-10.851,21.623-18.726
				c2.748-7.874,9.508-9.178,9.508-9.178s7.388-3.337,1.269,12.409c-6.12,15.745-23.992,18.126-28.261,19.063
				c-1.342,2.965-8.399,2.298-8.399,2.298s-0.414,2.131-1.715,2.464c-1.301,0.333-3.197-0.621-3.197-0.621
				C481.956,250.625,483.657,247.898,486.273,247.496z"/>
			<path style="fill:#F9B88C;" d="M459.518,238.53c0,0-2.921,1.311-5.536,1.714c-2.616,0.402-4.317,3.13-3.637,5.994
				c0,0,1.896,0.954,3.197,0.621c1.301-0.333,1.715-2.464,1.715-2.464s7.058,0.667,8.399-2.298
				C464.998,239.132,460.875,237.565,459.518,238.53z"/>
			<path style="fill:#155897;" d="M526.008,216.192c0,0,7.659,6.64-3.333,20.793l-10.975-10.117
				C511.699,226.867,518.24,212.428,526.008,216.192z"/>
			<g style="opacity:0.52;">
				<path style="fill:#223147;" d="M502.984,212.887c0.132,0.042,0.204,0.183,0.161,0.314c-1.597,4.971,0.959,8.283,1.416,8.821
					c8.158,0.004,13.713-7.685,13.768-7.762c0.08-0.114,0.236-0.139,0.348-0.06c0.113,0.08,0.139,0.236,0.059,0.349
					c-0.055,0.078-5.438,7.528-13.451,7.953c-0.277,0.015-0.558,0.022-0.84,0.019l-0.106-0.001l-0.073-0.076
					c-0.034-0.036-3.432-3.688-1.597-9.396C502.711,212.917,502.853,212.843,502.984,212.887z"/>
				<path style="fill:#223147;" d="M513.633,225.974c0.004-0.056,0.018-0.112,0.06-0.156c0.017-0.018,0.042-0.016,0.062-0.027
					l3.577-5.406c0.076-0.115,0.231-0.146,0.346-0.071c0.115,0.076,0.147,0.232,0.07,0.346l-3.52,5.32l9.77,9.262
					c1.576-2.196,3.262-5.813,3.284-5.861c0.058-0.125,0.207-0.178,0.332-0.121c0.125,0.058,0.18,0.206,0.121,0.332
					c-0.093,0.2-1.765,3.787-3.389,6.014c0.057,0.094,0.063,0.212-0.016,0.296c-0.046,0.048-0.106,0.074-0.168,0.077
					c-0.028,0.001-0.052-0.021-0.08-0.029c-0.45,0.575-0.89,1.033-1.284,1.254c-0.035,0.02-0.072,0.029-0.109,0.031
					c-0.092,0.005-0.183-0.041-0.231-0.128c-0.067-0.12-0.025-0.272,0.095-0.34c0.344-0.193,0.736-0.6,1.143-1.122l-9.748-9.241
					l-1.082,1.635c-0.045,0.069-0.119,0.108-0.195,0.112c-0.052,0.003-0.105-0.01-0.151-0.041c-0.115-0.076-0.147-0.232-0.07-0.346
					L513.633,225.974z"/>
				<path style="fill:#223147;" d="M483.666,223.698c0.086-0.109,0.242-0.127,0.351-0.041l7.083,5.607
					c1.206-3.289,3.177-8.134,3.29-8.41c0.051-0.129,0.199-0.188,0.326-0.138c0.128,0.053,0.189,0.198,0.137,0.326
					c-0.028,0.068-2.125,5.222-3.34,8.548l0.043,0.034c0.108,0.085,0.126,0.243,0.041,0.351c-0.046,0.059-0.114,0.091-0.183,0.095
					c-0.023,0.001-0.043-0.016-0.066-0.021c-0.316,0.88-0.555,1.6-0.644,1.986c-0.025,0.112-0.121,0.188-0.23,0.194
					c-0.023,0.001-0.046-0.001-0.069-0.006c-0.135-0.031-0.219-0.165-0.188-0.299c0.097-0.422,0.36-1.21,0.704-2.165l-7.214-5.71
					C483.598,223.964,483.58,223.807,483.666,223.698z"/>
			</g>
		</g>
		<g>
			<g>
				<g>
					<path style="fill:#F9B88C;" d="M649.721,218.827c0,0,6.882,0.191,10.87,7.515s24.374,14.971,24.374,14.971
						s0.86,4.423-3.505,4.191s-22.387,0.317-30.979-14.227C641.89,216.733,649.721,218.827,649.721,218.827z"/>
					<path style="fill:#155897;" d="M647.497,217.091c0,0-7.659,6.64,3.333,20.793l10.975-10.117
						C661.806,227.767,655.265,213.328,647.497,217.091z"/>
					<path style="fill:#155897;" d="M651.942,249.113c0.019-4.015,1.466-7.596,2.33-11.347c0.34-20.76-4.468-20.5-4.468-20.5
						l-9.593-2.399c-2.239,1.199-3.983,1.293-5.543,1.561c-1.58-0.086-4.536,0.427-6.899-0.505l-8.038,3.089
						c0,0-6.045,0.351-0.729,29.237c0,0,0.415,14.11-0.66,16.489c-0.065,0.145-0.07,0.311-0.027,0.494
						c0.441,0.059,0.879,0.133,1.321,0.188c0.369,0.045,4.15,0.344,3.303,0.33c0.606,0.031,1.211,0.067,1.818,0.086
						c5.634,0.176,11.279-0.128,16.855-0.96c0.939-0.14,4.62-0.991,0.481-0.014c1.304-0.308,2.615-0.584,3.914-0.914
						c2.522-0.641,5.014-1.387,7.483-2.209C652.678,257.572,651.922,253.368,651.942,249.113z"/>
					<path style="fill:#F9B88C;" d="M640.664,205.593l-0.269,12.654c0,0,1.213,5.167-2.366,5.127
						c-1.954-0.022-7.994-3.558-10.291-5.798l0.889-11.516L640.664,205.593z"/>
					<path style="opacity:0.51;fill:#FD6C6B;" d="M638.476,218.088c0.576,0.974,1.293,1.833,2.086,2.623
						c0.115-1.247-0.167-2.464-0.167-2.464l0.269-12.654l-5.684,0.221C635.869,209.994,636.339,214.475,638.476,218.088z"/>
					<path style="fill:#F9B88C;" d="M638.744,210.801L638.744,210.801c7.054-0.409,12.491-6.516,12.081-13.571l-0.733-12.626
						c-0.409-7.054-6.516-12.491-13.57-12.081l0,0c-7.054,0.41-12.491,6.516-12.081,13.57l0.733,12.626
						C625.583,205.774,631.69,211.21,638.744,210.801z"/>
					<g>
						<path style="fill:#223147;" d="M639.499,193.283c0.005,0.708-0.4,1.285-0.906,1.288c-0.506,0.004-0.92-0.567-0.925-1.274
							c-0.005-0.708,0.4-1.285,0.906-1.288C639.08,192.004,639.494,192.575,639.499,193.283z"/>
						<path style="fill:#223147;" d="M649.532,193.444c0.005,0.708-0.4,1.285-0.906,1.288c-0.505,0.004-0.92-0.567-0.925-1.274
							c-0.005-0.708,0.4-1.285,0.906-1.288C649.113,192.165,649.527,192.736,649.532,193.444z"/>
						<path style="fill:#F49231;" d="M635.663,190.587c0,0,1.347-1.974,4.873-1.735c0,0,0.261,0.793-0.212,1.014
							C639.851,190.087,636.445,190.164,635.663,190.587z"/>
						<path style="fill:#F49231;" d="M650.409,190.219c0,0-0.781-1.891-2.986-1.462c0,0-0.186,0.803,0.102,0.998
							S649.933,189.84,650.409,190.219z"/>
						<path style="fill:#FD6C6B;" d="M638.828,195.649c0.003,0.389-0.52,0.708-1.169,0.713c-0.648,0.005-1.177-0.307-1.18-0.695
							c-0.003-0.389,0.52-0.708,1.169-0.713C638.297,194.948,638.825,195.26,638.828,195.649z"/>
						<path style="fill:#FD6C6B;" d="M650.259,195.922c0.003,0.389-0.52,0.708-1.169,0.713c-0.648,0.005-1.177-0.306-1.179-0.695
							c-0.003-0.389,0.52-0.708,1.169-0.713C649.728,195.221,650.256,195.533,650.259,195.922z"/>
					</g>
					<path style="fill:#FD6C6B;" d="M645.396,190.948c0.25,0.546,0.464,1.096,0.66,1.649c0.2,0.552,0.387,1.104,0.562,1.657
						l0.536,1.639c0.093,0.268,0.18,0.535,0.282,0.785c0.055,0.111,0.103,0.258,0.161,0.342c0.029,0.046,0.052,0.097,0.077,0.145
						c0.013,0.005,0.014,0.015,0.013,0.04l0.214,0.526c-0.162,0.41-0.361,0.685-0.636,0.943c-0.269,0.247-0.576,0.447-0.907,0.568
						c-0.331,0.119-0.671,0.18-1.006,0.182c-0.334,0.008-0.659-0.05-0.97-0.133c0.318-0.064,0.623-0.131,0.91-0.229
						c0.287-0.099,0.551-0.226,0.788-0.377c0.228-0.166,0.436-0.341,0.594-0.556c0.151-0.203,0.301-0.466,0.344-0.652l0.214,0.526
						c-0.106-0.076-0.212-0.167-0.305-0.263l-0.155-0.227c-0.107-0.159-0.152-0.294-0.23-0.443
						c-0.125-0.289-0.244-0.571-0.333-0.859c-0.181-0.575-0.34-1.147-0.452-1.729c-0.125-0.578-0.214-1.163-0.277-1.752
						C645.417,192.141,645.379,191.548,645.396,190.948z"/>
					
						<rect x="644.421" y="229.898" transform="matrix(0.9733 -0.2293 0.2293 0.9733 -35.7435 154.6186)" style="opacity:0.33;fill:#FFFFFF;" width="5.793" height="2.37"/>
					<path style="fill:#F49231;" d="M628.811,187.251c0,0,1.52,6.145,1.227,11.667c0,0-2.661-9.379-5.785-10.199
						C624.254,188.719,627.401,184.012,628.811,187.251z"/>
					<path style="fill:#F9B88C;" d="M664.089,253.475c-2.988-0.373-6.352-1.768-6.352-1.768s-21.819-11.714-25.199-20.566
						c-3.38-8.852-11.111-10.115-11.111-10.115s-8.511-3.551-1.042,14.13c7.469,17.68,27.874,19.809,32.76,20.735
						c1.622,3.324,9.628,2.339,9.628,2.339s0.54,2.407,2.03,2.743c1.49,0.336,3.616-0.808,3.616-0.808
						C669.1,256.89,667.077,253.848,664.089,253.475z"/>
					<path style="fill:#F9B88C;" d="M684.935,241.019c0,0,2.921,1.311,5.536,1.714c2.616,0.403,4.317,3.13,3.637,5.994
						c0,0-1.896,0.954-3.197,0.621c-1.301-0.333-1.715-2.464-1.715-2.464s-7.058,0.667-8.399-2.298
						C679.455,241.621,683.578,240.055,684.935,241.019z"/>
					<g style="opacity:0.52;">
						<path style="fill:#223147;" d="M641.469,215.377c-0.132,0.042-0.204,0.183-0.161,0.314c1.597,4.971-0.959,8.283-1.416,8.821
							c-8.158,0.004-13.713-7.685-13.768-7.762c-0.08-0.114-0.236-0.139-0.348-0.06c-0.113,0.08-0.139,0.236-0.059,0.349
							c0.055,0.078,5.438,7.528,13.451,7.953c0.277,0.015,0.558,0.022,0.841,0.019l0.106-0.001l0.073-0.076
							c0.034-0.036,3.432-3.688,1.597-9.396C641.742,215.407,641.6,215.333,641.469,215.377z"/>
						<path style="fill:#223147;" d="M660.787,226.188c-0.086-0.109-0.242-0.127-0.351-0.041l-7.082,5.607
							c-1.206-3.289-3.177-8.134-3.29-8.41c-0.051-0.129-0.199-0.188-0.326-0.137c-0.128,0.053-0.19,0.198-0.137,0.326
							c0.028,0.068,2.125,5.222,3.34,8.548l-0.043,0.034c-0.108,0.085-0.126,0.243-0.041,0.351c0.046,0.059,0.114,0.091,0.183,0.095
							c0.023,0.001,0.043-0.016,0.066-0.021c0.316,0.88,0.555,1.6,0.644,1.986c0.025,0.112,0.121,0.188,0.23,0.194
							c0.022,0.001,0.046,0,0.069-0.006c0.135-0.031,0.219-0.165,0.188-0.299c-0.097-0.422-0.36-1.21-0.703-2.165l7.213-5.71
							C660.855,226.454,660.873,226.296,660.787,226.188z"/>
					</g>
				</g>
				<path style="fill:#F49231;" d="M628.811,187.251c0,0,8.21-2.66,12.423-10.15c0,0,7.49,6.553,10.298,5.617
					c0,0-3.277-14.979-16.852-11.702c0,0-15.447,1.404-13.107,17.788l1.571,5.287L628.811,187.251z"/>
				<path style="fill:#F9B88C;" d="M627.966,193.521c0.338,2.855-0.777,5.333-2.489,5.536c-1.713,0.203-3.375-1.947-3.713-4.801
					c-0.338-2.855,0.777-5.333,2.489-5.536C625.966,188.517,627.629,190.666,627.966,193.521z"/>
				<path style="opacity:0.26;fill:#FD6C6B;" d="M626.586,193.684c0.187,1.584-0.431,2.959-1.381,3.071s-1.873-1.08-2.06-2.664
					c-0.187-1.584,0.431-2.959,1.381-3.071C625.476,190.908,626.398,192.101,626.586,193.684z"/>
				<g>
					<g>
						<path style="fill:#FFFFFF;" d="M632.267,196.664l19.265-0.296c0,0,2.486,12.789-11.092,15.233
							C640.44,211.6,626.448,211.913,632.267,196.664z"/>
						<path style="fill:#FFFFFF;" d="M631.808,203.664c0,0-4.88-1.134-7.133-5.01c0,0-0.623,7.064,7.451,7.741L631.808,203.664z"/>
						<path style="fill:#FFFFFF;" d="M627.232,192.178c0,0,3.609,6.52,5.948,7.171l0.112-2.104
							C633.291,197.246,626.291,190.018,627.232,192.178z"/>
					</g>
					<g style="opacity:0.35;">
						<path style="fill:#223147;" d="M636.293,200.292c-0.129-0.007-0.233-0.112-0.236-0.244c-0.003-0.138,0.106-0.253,0.244-0.255
							l13.992-0.313c0.142-0.01,0.253,0.105,0.256,0.244c0.003,0.138-0.106,0.253-0.244,0.255l-13.992,0.313
							C636.306,200.293,636.299,200.292,636.293,200.292z"/>
					</g>
					<g style="opacity:0.35;">
						<path style="fill:#223147;" d="M636.596,204.527c-0.126-0.007-0.229-0.108-0.236-0.236c-0.007-0.138,0.099-0.256,0.237-0.263
							l12.691-0.645c0.132-0.012,0.255,0.1,0.262,0.237c0.007,0.138-0.099,0.256-0.237,0.263l-12.691,0.645
							C636.614,204.528,636.605,204.527,636.596,204.527z"/>
					</g>
					<g style="opacity:0.35;">
						<path style="fill:#223147;" d="M639.307,208.098c-0.125-0.007-0.228-0.106-0.236-0.234c-0.008-0.137,0.096-0.256,0.234-0.264
							l6.878-0.425c0.132-0.01,0.256,0.096,0.265,0.234c0.008,0.137-0.096,0.256-0.234,0.264l-6.878,0.425
							C639.327,208.098,639.317,208.099,639.307,208.098z"/>
					</g>
				</g>
				<ellipse style="fill:#F49231;" cx="622.51" cy="175.932" rx="7.49" ry="7.724"/>
			</g>
			<g>
				<path style="fill:#155897;" d="M618.371,218.989c0,0-8.59,7.447,3.738,23.32l12.309-11.347
					C634.419,230.962,627.083,214.768,618.371,218.989z"/>
				<path style="opacity:0.59;fill:#223147;" d="M632.973,229.425c-0.005-0.063-0.021-0.126-0.067-0.175
					c-0.019-0.02-0.047-0.018-0.069-0.031l-4.011-6.062c-0.085-0.129-0.259-0.164-0.388-0.08c-0.129,0.085-0.165,0.26-0.079,0.388
					l3.948,5.967L621.35,239.82c-1.767-2.463-3.658-6.519-3.683-6.574c-0.065-0.141-0.232-0.2-0.372-0.136
					c-0.141,0.065-0.201,0.232-0.136,0.372c0.104,0.224,1.979,4.247,3.801,6.744c-0.064,0.105-0.071,0.237,0.018,0.332
					c0.051,0.054,0.119,0.083,0.188,0.087c0.032,0.002,0.059-0.024,0.09-0.033c0.505,0.645,0.998,1.158,1.439,1.406
					c0.039,0.022,0.081,0.033,0.123,0.035c0.103,0.006,0.205-0.046,0.259-0.143c0.076-0.134,0.028-0.306-0.107-0.382
					c-0.386-0.217-0.826-0.673-1.282-1.258l10.932-10.364l1.213,1.834c0.051,0.077,0.133,0.121,0.219,0.126
					c0.058,0.003,0.117-0.011,0.17-0.046c0.129-0.085,0.165-0.26,0.079-0.389L632.973,229.425z"/>
			</g>
		</g>
	</g>
	<g>
		<g>
			<rect x="449.087" y="226.647" style="fill:#223147;" width="104.995" height="67.497"/>
			<g style="opacity:0.48;">
				<path style="fill:#63CFE8;" d="M547.197,289.897h-91.227v-57.239h91.227V289.897z M456.971,288.897h89.227v-55.239h-89.227
					V288.897z"/>
			</g>
		</g>
		<g>
			<rect x="430" y="255.055" style="fill:#155897;" width="320" height="152"/>
			<rect x="430" y="331.055" style="opacity:0.26;fill:#223147;" width="318" height="20"/>
			<rect x="430" y="278.558" style="opacity:0.26;fill:#223147;" width="318" height="20"/>
			<rect x="430" y="398.052" style="opacity:0.16;fill:#223147;" width="318" height="10"/>
			<path style="fill:#FFFFFF;" d="M749.072,253.055H426c-6.6,0-12,5.4-12,12v2c0,6.6,5.4,12,12,12h323.072V253.055z"/>
			<g>
				<g>
					<rect x="676.361" y="194.794" style="fill:#FD6C6B;" width="24" height="72"/>
					<path style="opacity:0.28;fill:#223147;" d="M690.007,266.794h10.354v-72h-0.724
						C696.09,218.676,698.208,243.856,690.007,266.794z"/>
					<rect x="684.55" y="220.075" style="opacity:0.77;fill:#FFFFFF;" width="7.621" height="33.34"/>
					<circle style="fill:#223147;" cx="688.361" cy="207.215" r="5.239"/>
				</g>
				<g>
					<rect x="725.858" y="194.794" style="fill:#FD6C6B;" width="24" height="72"/>
					<path style="opacity:0.28;fill:#223147;" d="M739.505,266.794h10.354v-72h-0.724
						C745.587,218.676,747.706,243.856,739.505,266.794z"/>
					<rect x="734.048" y="220.075" style="opacity:0.77;fill:#FFFFFF;" width="7.62" height="33.34"/>
					<circle style="fill:#223147;" cx="737.858" cy="207.215" r="5.239"/>
				</g>
				<g>
					<rect x="701.127" y="194.794" style="fill:#F49231;" width="24" height="72"/>
					<path style="opacity:0.28;fill:#223147;" d="M714.774,266.794h10.354v-72h-0.724
						C720.857,218.676,722.975,243.856,714.774,266.794z"/>
					<rect x="709.317" y="220.075" style="opacity:0.77;fill:#FFFFFF;" width="7.62" height="33.34"/>
					<circle style="fill:#223147;" cx="713.127" cy="207.215" r="5.239"/>
				</g>
			</g>
			<g style="opacity:0.26;">
				<rect x="414" y="266.555" style="fill:#223147;" width="335.858" height="1"/>
			</g>
			<g style="opacity:0.26;">
				<rect x="429.588" y="315.642" style="fill:#223147;" width="317.984" height="1"/>
			</g>
			<g style="opacity:0.26;">
				<rect x="429.588" y="374.139" style="fill:#223147;" width="317.984" height="1"/>
			</g>
		</g>
	</g>
	<g>
		<g>
			<g>
				<g>
					<g>
						<path style="fill:#00A58C;" d="M695.521,412.693c-0.045-3.918-0.883-96.341,18.404-130.081l3.035,1.736
							c-18.815,32.917-17.954,127.355-17.943,128.304L695.521,412.693z"/>
					</g>
					<g>
						<path style="fill:#00A58C;" d="M708.83,296.624c0,0-2.573-30.275,10.603-27.25C732.609,272.4,708.83,296.624,708.83,296.624z"
							/>
						<path style="opacity:0.14;fill:#223147;" d="M719.433,269.374c-0.031-0.007-0.059-0.007-0.09-0.014
							c-5.059,8.206-8.579,17.432-10.127,26.862C712.191,293.107,731.625,272.173,719.433,269.374z"/>
					</g>
					<g>
						<path style="fill:#00A58C;" d="M705.276,304.183c0,0,17.039-25.157,25.381-14.518
							C738.999,300.304,705.276,304.183,705.276,304.183z"/>
						<path style="opacity:0.14;fill:#223147;" d="M730.657,289.665c-0.02-0.025-0.041-0.043-0.061-0.067
							c-9.094,3.198-17.633,8.158-24.768,14.516C710.1,303.563,738.375,299.509,730.657,289.665z"/>
					</g>
					<g>
						<path style="fill:#00A58C;" d="M703.175,320.97c0,0,17.039-25.157,25.381-14.518
							C736.898,317.091,703.175,320.97,703.175,320.97z"/>
						<path style="opacity:0.14;fill:#223147;" d="M728.556,306.452c-0.02-0.025-0.041-0.043-0.061-0.067
							c-9.094,3.198-17.633,8.158-24.768,14.516C708,320.35,736.274,316.296,728.556,306.452z"/>
					</g>
					<g>
						<path style="fill:#00A58C;" d="M699.783,337.596c0,0,17.039-25.157,25.381-14.518
							C733.506,333.717,699.783,337.596,699.783,337.596z"/>
						<path style="opacity:0.14;fill:#223147;" d="M725.164,323.078c-0.02-0.025-0.041-0.043-0.061-0.067
							c-9.094,3.198-17.633,8.158-24.768,14.516C704.608,336.976,732.882,332.922,725.164,323.078z"/>
					</g>
					<g>
						<path style="fill:#00A58C;" d="M697.682,354.384c0,0,17.039-25.157,25.381-14.518
							C731.405,350.504,697.682,354.384,697.682,354.384z"/>
						<path style="opacity:0.14;fill:#223147;" d="M723.063,339.865c-0.02-0.025-0.041-0.043-0.061-0.067
							c-9.094,3.198-17.633,8.158-24.768,14.516C702.507,353.763,730.782,349.709,723.063,339.865z"/>
					</g>
					<g>
						<path style="fill:#00A58C;" d="M697.482,371c0,0,17.039-25.157,25.381-14.518C731.205,367.121,697.482,371,697.482,371z"/>
						<path style="opacity:0.14;fill:#223147;" d="M722.863,356.482c-0.02-0.025-0.041-0.043-0.061-0.067
							c-9.094,3.198-17.633,8.158-24.768,14.516C702.307,370.38,730.582,366.326,722.863,356.482z"/>
					</g>
					<g>
						<path style="fill:#00A58C;" d="M705.593,309.469c0,0-10.315-28.58-21.021-20.325
							C673.866,297.4,705.593,309.469,705.593,309.469z"/>
						<path style="opacity:0.14;fill:#223147;" d="M684.572,289.144c0.025-0.019,0.05-0.031,0.076-0.05
							c8.025,5.34,15.079,12.252,20.427,20.172C701.07,307.679,674.666,296.783,684.572,289.144z"/>
					</g>
					<g>
						<path style="fill:#00A58C;" d="M703.492,326.256c0,0-10.315-28.58-21.021-20.325
							C671.765,314.187,703.492,326.256,703.492,326.256z"/>
						<path style="opacity:0.14;fill:#223147;" d="M682.471,305.932c0.025-0.02,0.05-0.031,0.076-0.05
							c8.025,5.34,15.079,12.252,20.427,20.172C698.969,324.466,672.565,313.57,682.471,305.932z"/>
					</g>
					<g>
						<path style="fill:#00A58C;" d="M702.683,343.205c0,0-10.315-28.58-21.021-20.325
							C670.956,331.136,702.683,343.205,702.683,343.205z"/>
						<path style="opacity:0.14;fill:#223147;" d="M681.662,322.88c0.025-0.02,0.05-0.031,0.076-0.05
							c8.025,5.34,15.079,12.252,20.427,20.172C698.16,341.415,671.756,330.519,681.662,322.88z"/>
					</g>
					<g>
						<path style="fill:#00A58C;" d="M700.582,359.993c0,0-10.315-28.58-21.021-20.325
							C668.855,347.923,700.582,359.993,700.582,359.993z"/>
						<path style="opacity:0.14;fill:#223147;" d="M679.561,339.668c0.025-0.019,0.05-0.031,0.076-0.05
							c8.025,5.34,15.079,12.252,20.427,20.172C696.059,358.202,669.655,347.306,679.561,339.668z"/>
					</g>
					<g>
						<path style="fill:#00A58C;" d="M696.681,376.146c0,0-10.315-28.58-21.021-20.325
							C664.954,364.077,696.681,376.146,696.681,376.146z"/>
						<path style="opacity:0.14;fill:#223147;" d="M675.66,355.822c0.025-0.02,0.05-0.031,0.076-0.05
							c8.025,5.34,15.079,12.252,20.427,20.172C692.158,374.356,665.754,363.46,675.66,355.822z"/>
					</g>
				</g>
				<g>
					<g>
						<path style="fill:#00A58C;" d="M679.931,395.874c-1.06-2.381-25.936-58.593-23.054-84.279l2.311,0.26
							c-2.811,25.06,22.611,82.495,22.868,83.072L679.931,395.874z"/>
					</g>
					<g>
						<path style="fill:#00A58C;" d="M657.459,321.494c0,0-9.552-17.808-0.709-19.434S657.459,321.494,657.459,321.494z"/>
						<path style="opacity:0.14;fill:#223147;" d="M656.75,302.06c-0.021,0.004-0.038,0.011-0.058,0.015
							c-0.926,6.344-0.643,12.905,0.898,19.072C658.584,318.461,664.932,300.555,656.75,302.06z"/>
					</g>
					<g>
						<path style="fill:#00A58C;" d="M657.282,327.046c0,0,3.772-19.853,11.67-15.555
							C676.85,315.788,657.282,327.046,657.282,327.046z"/>
						<path style="opacity:0.14;fill:#223147;" d="M668.952,311.491c-0.019-0.01-0.036-0.015-0.055-0.025
							c-4.71,4.35-8.616,9.63-11.296,15.393C660.064,325.396,676.26,315.467,668.952,311.491z"/>
					</g>
					<g>
						<path style="fill:#00A58C;" d="M660.425,337.85c0,0,3.772-19.853,11.67-15.555C679.993,326.592,660.425,337.85,660.425,337.85
							z"/>
						<path style="opacity:0.14;fill:#223147;" d="M672.095,322.295c-0.019-0.01-0.036-0.015-0.055-0.025
							c-4.71,4.35-8.616,9.63-11.296,15.393C663.207,336.2,679.403,326.271,672.095,322.295z"/>
					</g>
					<g>
						<path style="fill:#00A58C;" d="M662.736,348.896c0,0,3.772-19.853,11.67-15.556
							C682.305,337.638,662.736,348.896,662.736,348.896z"/>
						<path style="opacity:0.14;fill:#223147;" d="M674.407,333.341c-0.019-0.01-0.036-0.015-0.055-0.025
							c-4.71,4.35-8.616,9.63-11.296,15.393C665.519,347.246,681.715,337.317,674.407,333.341z"/>
					</g>
					<g>
						<path style="fill:#00A58C;" d="M665.879,359.701c0,0,3.772-19.853,11.67-15.556
							C685.448,348.442,665.879,359.701,665.879,359.701z"/>
						<path style="opacity:0.14;fill:#223147;" d="M677.549,344.145c-0.019-0.01-0.036-0.015-0.055-0.025
							c-4.71,4.35-8.616,9.63-11.296,15.393C668.661,358.05,684.857,348.121,677.549,344.145z"/>
					</g>
					<g>
						<path style="fill:#00A58C;" d="M670.138,369.9c0,0,3.772-19.853,11.67-15.556C689.706,358.641,670.138,369.9,670.138,369.9z"
							/>
						<path style="opacity:0.14;fill:#223147;" d="M681.808,354.344c-0.019-0.01-0.036-0.015-0.055-0.025
							c-4.71,4.35-8.616,9.63-11.296,15.393C672.92,368.249,689.116,358.32,681.808,354.344z"/>
					</g>
					<g>
						<path style="fill:#00A58C;" d="M658.869,330.19c0,0-13.832-14.732-18.193-6.869
							C636.315,331.185,658.869,330.19,658.869,330.19z"/>
						<path style="opacity:0.14;fill:#223147;" d="M640.676,323.322c0.01-0.018,0.022-0.032,0.033-0.051
							c6.308,1.145,12.437,3.506,17.79,6.932C655.635,330.29,636.641,330.597,640.676,323.322z"/>
					</g>
					<g>
						<path style="fill:#00A58C;" d="M662.012,340.995c0,0-13.832-14.732-18.193-6.869
							C639.458,341.989,662.012,340.995,662.012,340.995z"/>
						<path style="opacity:0.14;fill:#223147;" d="M643.819,334.126c0.01-0.018,0.022-0.032,0.033-0.051
							c6.308,1.145,12.437,3.506,17.79,6.932C658.778,341.094,639.784,341.401,643.819,334.126z"/>
					</g>
					<g>
						<path style="fill:#00A58C;" d="M665.986,351.557c0,0-13.832-14.732-18.193-6.869
							C643.431,352.551,665.986,351.557,665.986,351.557z"/>
						<path style="opacity:0.14;fill:#223147;" d="M647.792,344.688c0.01-0.018,0.022-0.032,0.033-0.051
							c6.308,1.145,12.437,3.506,17.79,6.932C662.752,351.656,643.757,351.963,647.792,344.688z"/>
					</g>
					<g>
						<path style="fill:#00A58C;" d="M669.128,362.361c0,0-13.832-14.732-18.193-6.869
							C646.574,363.355,669.128,362.361,669.128,362.361z"/>
						<path style="opacity:0.14;fill:#223147;" d="M650.935,355.492c0.01-0.018,0.022-0.032,0.033-0.051
							c6.308,1.145,12.437,3.506,17.79,6.932C665.895,362.46,646.9,362.767,650.935,355.492z"/>
					</g>
					<g>
						<path style="fill:#00A58C;" d="M671.005,373.253c0,0-13.832-14.732-18.193-6.869
							C648.451,374.247,671.005,373.253,671.005,373.253z"/>
						<path style="opacity:0.14;fill:#223147;" d="M652.812,366.384c0.01-0.018,0.022-0.032,0.033-0.051
							c6.308,1.145,12.437,3.506,17.79,6.932C667.771,373.352,648.777,373.659,652.812,366.384z"/>
					</g>
				</g>
				<path style="fill:#FD6C6B;" d="M664.343,387.517v34.428c0,11.539,9.441,20.98,20.98,20.98h10.818
					c11.539,0,20.98-9.441,20.98-20.98v-34.428H664.343z"/>
				<rect x="664.343" y="387.517" style="opacity:0.37;fill:#223147;" width="52.778" height="25.492"/>
				<rect x="660.36" y="382.182" style="fill:#FD6C6B;" width="60.744" height="20.912"/>
			</g>
		</g>
		<g>
			<g>
				<path style="fill:#00A58C;" d="M546.576,249.694c0,0-15.759-12.441-11.612-31.518
					C534.964,218.176,552.382,235.594,546.576,249.694z"/>
				<path style="opacity:0.24;fill:#223147;" d="M535.018,218.341c0,0,12.524,24.493,12.032,31.169l-3.559-3.018
					C543.492,246.492,532.159,235.899,535.018,218.341z"/>
			</g>
			<g>
				<path style="fill:#00A58C;" d="M549.117,247.861c0,0-11.786-16.255-2.612-33.488
					C546.505,214.373,558.535,235.868,549.117,247.861z"/>
				<path style="opacity:0.24;fill:#223147;" d="M546.512,214.547c0,0,5.398,26.974,3.111,33.266l-2.605-3.872
					C547.018,243.941,538.99,230.668,546.512,214.547z"/>
			</g>
			<g>
				<path style="fill:#00A58C;" d="M553.525,247.891c0,0-6.202-19.096,7.837-32.662
					C561.362,215.228,566.181,239.385,553.525,247.891z"/>
				<path style="opacity:0.24;fill:#223147;" d="M561.316,215.396c0,0-3.179,27.325-7.294,32.605l-1.285-4.486
					C552.737,243.515,549.191,228.413,561.316,215.396z"/>
			</g>
			<g>
				<path style="fill:#00A58C;" d="M557.78,247.324c0,0-2.614-17.441,11.509-27.167C569.289,220.157,569.975,241.783,557.78,247.324
					z"/>
				<path style="opacity:0.24;fill:#223147;" d="M569.225,220.295c0,0-6.702,23.215-11.031,27.196l-0.465-4.072
					C557.73,243.419,556.839,229.822,569.225,220.295z"/>
			</g>
			<g>
				<path style="fill:#FD6C6B;" d="M538.716,242.953c-0.09,0.682-0.139,1.378-0.139,2.086c0,8.067,6.014,14.606,13.432,14.606
					c7.419,0,13.433-6.539,13.433-14.606c0-0.709-0.049-1.405-0.139-2.086H538.716z"/>
				<path style="fill:#FD6C6B;" d="M566.097,244.741h-28.175c-1.148,0-2.087-0.939-2.087-2.087l0,0c0-1.148,0.939-2.087,2.087-2.087
					h28.175c1.148,0,2.086,0.939,2.086,2.087l0,0C568.184,243.802,567.245,244.741,566.097,244.741z"/>
			</g>
		</g>
	</g>
	<g>
		<path style="fill:#131C26;" d="M76.268,344.038c-0.118-4.509-3.868-8.068-8.377-7.951c-4.509,0.118-8.068,3.868-7.951,8.377
			c0.015,0.568,0.088,1.12,0.212,1.652c-0.052,0.171-0.108,0.335-0.156,0.514l15.985,50.266l9.278-2.243
			C85.26,394.654,77.709,348.169,76.268,344.038z"/>
		<path style="fill:#131C26;" d="M95.884,341.858c-0.118-4.509,3.442-8.259,7.951-8.377c4.509-0.118,8.259,3.442,8.377,7.951
			c0.015,0.568-0.029,1.123-0.125,1.661c0.061,0.168,0.125,0.328,0.182,0.505L98.93,394.63l-9.382-1.755
			C89.548,392.875,94.66,346.059,95.884,341.858z"/>
		<path style="fill:#131C26;" d="M72.058,323.308c0,0-12.227,16.992-11.474,20.307c0.754,3.315,14.013,0.301,15.968-1.418
			c1.956-1.718,5.482-7.146,20.274-2.53c0,0,14.871,7.614,15.385,1.765c0,0-1.647-10.863-5.401-14.732
			C103.056,322.831,72.058,323.308,72.058,323.308z"/>
		<path style="fill:#F49231;" d="M74.298,330.02c10.306,3.672,22.668-1.009,33.879-4.625c-0.866-3.856-0.868-15.574-0.868-15.574
			c4.461-29.031-1.591-29.203-1.591-29.203l-7.023-3.11c-2.334,1.002-6.407,0.836-7.983,0.968c-1.567-0.222-3.774-0.235-6.047-1.368
			l-9.057,2.653c0,0-6.052-0.172-3.251,29.065c0,0-0.805,14.093-2.081,16.371C69.78,326.077,71.497,327.991,74.298,330.02z"/>
		<path style="fill:#F49231;" d="M75.468,280.022c0,0-3.34-1.434-8.335,12.691c-4.995,14.125-1.024,18.492,3.75,16.587
			C75.657,307.395,79.639,286.764,75.468,280.022z"/>
		<path style="fill:#F49231;" d="M104.262,280.226c0,0,3.207-1.86,9.656,15.401c6.449,17.26,2.906,22.75-2.08,20.536
			c-2.859-1.27-9.412-12.186-10.981-21.103C99.689,288.426,102.768,283.818,104.262,280.226z"/>
		<path style="fill:#82450F;" d="M85.529,269.447L84.534,278c0,0,7.66,5.598,13.951-0.195l-0.912-8.22L85.529,269.447z"/>
		<path style="opacity:0.27;fill:#131C26;" d="M98.099,274.321l-0.526-4.737l-12.044-0.137l-0.571,4.908
			C89.206,276.757,93.825,276.344,98.099,274.321z"/>
		<path style="fill:#82450F;" d="M90.685,274.203L90.685,274.203c-7.063-0.201-12.678-6.145-12.477-13.208l0.36-12.642
			c0.201-7.063,6.145-12.678,13.208-12.477l0,0c7.063,0.201,12.678,6.145,12.477,13.208l-0.36,12.642
			C103.692,268.789,97.749,274.404,90.685,274.203z"/>
		<g>
			<path style="fill:#82450F;" d="M81.278,257.206c-0.077,2.715-1.577,4.875-3.351,4.825c-1.773-0.05-3.148-2.292-3.071-5.007
				c0.077-2.715,1.577-4.875,3.351-4.824C79.98,252.25,81.355,254.491,81.278,257.206z"/>
			<path style="opacity:0.27;fill:#131C26;" d="M79.959,257.169c-0.046,1.599-0.929,2.872-1.974,2.842
				c-1.045-0.03-1.855-1.35-1.809-2.95c0.046-1.599,0.929-2.872,1.974-2.842C79.194,254.249,80.004,255.569,79.959,257.169z"/>
		</g>
		<g>
			<path style="fill:#82450F;" d="M107.951,258.188c-0.257,2.577-1.895,4.523-3.66,4.347c-1.765-0.176-2.988-2.407-2.732-4.983
				c0.257-2.577,1.896-4.523,3.661-4.347C106.985,253.38,108.208,255.611,107.951,258.188z"/>
			<path style="opacity:0.27;fill:#131C26;" d="M106.43,258.267c-0.159,1.592-1.13,2.799-2.17,2.695
				c-1.04-0.103-1.754-1.478-1.596-3.07c0.159-1.592,1.13-2.799,2.17-2.695C105.874,255.3,106.589,256.675,106.43,258.267z"/>
		</g>
		<path style="fill:#131C26;" d="M81.199,245.337c0,0-1.351,14.5-0.588,15.927c0.763,1.427-4.208-0.321-3.722-10.348
			C76.889,250.916,79.84,243.691,81.199,245.337z"/>
		<path style="fill:#131C26;" d="M102.117,249.989c0,0,0.521,11.045-0.293,12.444c-0.813,1.399,4.238-2.639,4.112-12.677
			C105.936,249.756,103.534,248.393,102.117,249.989z"/>
		<g style="opacity:0.42;">
			<path style="fill:#131C26;" d="M91.296,282.11c-0.045-0.001-0.075-0.003-0.089-0.004c-6.529-0.186-8.95-3.996-9.05-4.158
				c-0.108-0.176-0.054-0.406,0.122-0.515c0.177-0.109,0.407-0.055,0.516,0.12c0.022,0.037,2.332,3.629,8.441,3.803
				c0.065,0.01,5.996,0.237,8.408-3.431c0.113-0.173,0.345-0.222,0.519-0.107c0.173,0.114,0.221,0.346,0.107,0.52
				C97.763,282.152,92.106,282.133,91.296,282.11z"/>
		</g>
		<path style="fill:#131C26;" d="M86.121,257.04c-0.02,0.688-0.434,1.234-0.925,1.22c-0.491-0.014-0.874-0.583-0.854-1.271
			c0.02-0.688,0.434-1.234,0.925-1.22C85.758,255.783,86.141,256.352,86.121,257.04z"/>
		<path style="fill:#131C26;" d="M97.687,257.369c-0.02,0.688-0.434,1.234-0.925,1.22c-0.491-0.014-0.874-0.583-0.854-1.271
			c0.02-0.688,0.434-1.234,0.925-1.22C97.324,256.112,97.706,256.681,97.687,257.369z"/>
		<path style="fill:#131C26;" d="M82.488,254.286c0,0,1.378-1.871,4.796-1.515c0,0,0.226,0.78-0.242,0.978
			C86.575,253.947,83.263,253.902,82.488,254.286z"/>
		<path style="fill:#131C26;" d="M99.365,254.167c0,0-1.269-1.946-4.702-1.786c0,0-0.27,0.766,0.186,0.99
			C95.304,253.596,98.613,253.74,99.365,254.167z"/>
		<g>
			<path style="fill:#131C26;" d="M86.655,241.821c0,0,12.865,10.006,19.668,8.794c0,0-0.343-21.9-21.236-14.863
				C85.087,235.752,85.195,238.767,86.655,241.821z"/>
			<path style="fill:#131C26;" d="M76.889,250.916c-0.062,0.599,13.306-8.859,14.515-16.054
				C91.404,234.862,78.825,232.294,76.889,250.916z"/>
		</g>
		<g>
			<g>
				<path style="fill:#FFFFFF;" d="M78.209,260.995l25.685,0.731c0,0-0.406,12.806-13.198,13.785
					C90.696,275.512,76.339,274.658,78.209,260.995z"/>
				<path style="fill:#FFFFFF;" d="M80.611,261.264c0,0-0.647-9.905-4.022-9.33c0,0,2.232,6.336,1.62,9.06
					C78.209,260.995,81.027,267.468,80.611,261.264z"/>
				<path style="fill:#FFFFFF;" d="M101.847,261.095c0,0,1.21-9.852,4.547-9.086c0,0-2.589,6.199-2.133,8.953
					C104.26,260.963,101.078,267.265,101.847,261.095z"/>
			</g>
			<g style="opacity:0.46;">
				<path style="fill:#131C26;" d="M99.406,264.504l-16.444-0.468c-0.276-0.008-0.493-0.238-0.486-0.514
					c0.008-0.276,0.238-0.493,0.514-0.486l16.445,0.468c0.276,0.008,0.493,0.238,0.485,0.514
					C99.912,264.295,99.683,264.512,99.406,264.504z"/>
			</g>
			<g style="opacity:0.46;">
				<path style="fill:#131C26;" d="M97.194,271.417l-12.417-0.354c-0.276-0.008-0.493-0.238-0.486-0.514
					c0.008-0.276,0.238-0.493,0.514-0.485l12.417,0.354c0.276,0.008,0.493,0.238,0.486,0.514
					C97.7,271.208,97.47,271.425,97.194,271.417z"/>
			</g>
			<g style="opacity:0.46;">
				<path style="fill:#131C26;" d="M97.623,268.141l-13.088-0.373c-0.276-0.008-0.493-0.238-0.486-0.514
					c0.008-0.276,0.238-0.493,0.514-0.486l13.088,0.373c0.276,0.008,0.493,0.238,0.486,0.514
					C98.129,267.931,97.899,268.149,97.623,268.141z"/>
			</g>
		</g>
		<path style="fill:#82450F;" d="M78.208,316.226c0,0,1.813,5.568,9.776,4.064l-0.124-4.748L78.208,316.226z"/>
		<path style="fill:#F49231;" d="M87.992,320.557c0,0,28.06,1.934,29.184-6.098c0,0,2.738-10.075-29.28,2.432L87.992,320.557z"/>
		<g>
			<g>
				<path style="fill:#82450F;" d="M106.428,305.347c0,0,3.387-0.941,4.027,0.109c0.64,1.049-3.292,1.908-3.292,1.908
					L106.428,305.347z"/>
				<path style="fill:#82450F;" d="M106.93,307.286c0,0,3.521,0.03,3.829,1.214c0.309,1.183-3.711,0.924-3.711,0.924L106.93,307.286
					z"/>
				<path style="fill:#82450F;" d="M106.154,309.716c0,0,3.298,1.195,3.174,2.411c-0.124,1.215-3.811-0.361-3.811-0.361
					L106.154,309.716z"/>
				<path style="fill:#82450F;" d="M103.815,311.867c0,0,3.298,1.195,3.174,2.411c-0.124,1.215-3.811-0.361-3.811-0.361
					L103.815,311.867z"/>
				<path style="fill:#FFFFFF;" d="M94.918,302.792c0,0,7.807-2.731,8.419-0.753c0.612,1.978,1.609,2.331,3.613,2.712
					c2.004,0.381,2.085,8.881-5.999,9.644C92.868,315.157,91.109,306.611,94.918,302.792z"/>
				<path style="fill:#82450F;" d="M102.66,302.745c0,0,5.236-2.289,4.276-0.444c-0.96,1.844-1.915,2.764-3.82,3.681
					C101.212,306.898,102.66,302.745,102.66,302.745z"/>
			</g>
			<g>
				<path style="fill:#131C26;" d="M77.156,279.106c0,0-10.474,35.671-7.809,36.397c2.665,0.726,31.141,3.129,31.604-1.107
					c0.463-4.237-16.289-37.288-16.289-37.288S77.224,276.819,77.156,279.106z"/>
				<g style="opacity:0.36;">
					<path style="fill:#155897;" d="M77.955,308.207c-0.01,0-0.021-0.001-0.031-0.002c-0.275-0.024-0.478-0.26-0.453-0.528
						l2.473-26.868c0.025-0.268,0.27-0.469,0.543-0.442c0.275,0.024,0.478,0.26,0.453,0.527l-2.473,26.868
						C78.443,308.022,78.217,308.215,77.955,308.207z"/>
				</g>
				<g style="opacity:0.36;">
					<path style="fill:#155897;" d="M88.645,307.523c-0.225-0.006-0.426-0.162-0.474-0.386l-5.562-25.786
						c-0.057-0.263,0.117-0.522,0.387-0.577c0.27-0.052,0.535,0.113,0.592,0.375l5.562,25.786c0.057,0.263-0.117,0.522-0.387,0.577
						C88.723,307.52,88.684,307.524,88.645,307.523z"/>
				</g>
			</g>
		</g>
		<g style="opacity:0.34;">
			<path style="fill:#131C26;" d="M105.212,303.268c-0.24,0.006-0.456-0.161-0.504-0.405c-0.379-1.962-3.384-15.766-3.415-15.905
				c-0.059-0.27,0.113-0.536,0.382-0.595c0.276-0.056,0.536,0.113,0.595,0.382c0.03,0.14,3.037,13.955,3.419,15.928
				c0.053,0.271-0.125,0.534-0.396,0.586C105.267,303.265,105.239,303.268,105.212,303.268z"/>
		</g>
		<g style="opacity:0.34;">
			<path style="fill:#131C26;" d="M107.673,320.877c-0.003,0-0.005,0-0.008,0l-19.669,0.18c-0.276,0.002-0.502-0.219-0.505-0.496
				c-0.002-0.275,0.235-0.482,0.495-0.504l19.668-0.18c0.276-0.002,0.502,0.219,0.505,0.496
				C108.162,320.645,107.946,320.87,107.673,320.877z"/>
		</g>
		<g style="opacity:0.34;">
			<path style="fill:#131C26;" d="M84.161,330.362c-11.386,0.297-14.167-4.622-14.331-4.933c-0.128-0.244-0.034-0.546,0.21-0.675
				c0.246-0.129,0.546-0.035,0.674,0.207c0.066,0.122,6.115,10.431,37.21-1.063c0.26-0.092,0.547,0.038,0.642,0.296
				c0.096,0.259-0.037,0.547-0.295,0.643C97.617,328.774,89.824,330.214,84.161,330.362z"/>
		</g>
	</g>
</g>
</svg>
