<?xml version="1.0" encoding="utf-8"?>
<!-- Generator: Adobe Illustrator 27.5.0, SVG Export Plug-In . SVG Version: 6.00 Build 0)  -->
<svg version="1.1" id="Layer_1" xmlns="http://www.w3.org/2000/svg" xmlns:xlink="http://www.w3.org/1999/xlink" x="0px" y="0px"
	 viewBox="0 0 2894.76 2000" style="enable-background:new 0 0 2894.76 2000;" xml:space="preserve">
<g>
	<rect x="0.107" style="fill:#AAC9DC;" width="2894.653" height="1713.47"/>
	<polygon style="opacity:0.1;fill:#365E99;" points="2752.924,1072.483 2752.924,1028.598 2752.924,637.201 2520.691,637.201 
		2521.744,828.032 2452.269,828.258 2451.223,757.874 2370.174,757.874 2370.174,634.482 2321.545,634.482 2321.545,551.607 
		2131.66,551.607 2131.66,634.482 2083.032,634.482 2083.032,757.874 2001.984,757.874 2001.984,914.732 1964.587,916.581 
		1953.355,451.868 1703.264,451.868 1703.264,699.086 1615.269,700.93 1615.269,314.539 1585.165,314.539 1585.165,233 1321.18,233 
		1321.18,314.539 1291.076,314.539 1291.076,835.238 1235.5,835.238 1235.5,672.882 1189.187,672.882 1189.187,593.488 
		1122.033,593.488 1122.033,361.746 1024.775,361.746 1024.775,593.488 957.621,593.488 957.621,672.882 911.308,672.882 
		911.308,947.565 878.888,947.565 853.416,947.294 853.416,445.466 519.269,448.005 519.269,859.542 371.627,859.542 
		371.627,632.71 167.98,634.258 167.98,982.843 0.107,982.843 0.107,1514.881 133.651,1514.881 133.651,1657.273 2894.76,1657.273 
		2894.76,1072.483 	"/>
	<path style="opacity:0.5;fill:#FFFFFF;" d="M2894.76,189.964c-28.634,0.019-192.293,43.036-323.609,329.122
		c-18.969,41.326-56.197,72.237-94.518,96.716c-63.072,40.291-134.292,62.126-159.689,140.262
		c-15.646,48.137-60.79,237.771-14.235,277.424c39.725,33.835,84.967-27.6,99.951-57.415
		c28.362-56.432,57.804-103.602,122.343-122.971c34.904-10.475,72.095-9.973,107.914-16.676
		c35.82-6.704,73.045-23.171,89.647-55.611c10.024-19.588,11.512-43.157,24.088-61.214c23.993-34.448,74.319-33.287,116.123-29.434
		c10.575,0.975,21.262,1.863,31.985,2.52V189.964z"/>
	<polygon style="fill:#183658;" points="2466.291,935.01 2371.413,935.01 2276.534,935.01 2214.657,1658.556 2371.413,1658.556 
		2528.168,1658.556 	"/>
	<path style="opacity:0.5;fill:#FFFFFF;" d="M1397.119,0c-60.034,33.413-112.17,74.747-160.867,117.521
		c-20.056,17.616-40.361,35.991-67.653,46.819c-22.896,9.084-49.229,12.191-75.117,12.71
		c-122.697,2.461-249.805-49.132-363.252-13.964c-63.074,19.552-107.681,62.861-139.426,108.205
		c-36.224,51.741-59.643,108.513-68.71,166.566c-14.797,94.738,2.692,203.413-84.363,272.9
		c-79.005,63.062-224.799,73.615-274.134,151.86c-34.061,54.021-4.795,114.012,29.081,163.54
		c14.186,20.741,29.017,37.18,34.741,60.015c1.974,7.874,1.896,76.866,14.342,76.77c42.313-0.328,63.093-40.441,58.687-72.032
		c-4.407-31.591-22.183-63.568-10.523-94.103c15.365-40.238,73.497-59.985,118.304-84.902
		c74.525-41.443,121.825-106.98,200.298-144.091c56.088-26.525,125.208-37,174.999-69.852
		c100.712-66.45,79.922-190.861,154.243-274.637c13.889-15.656,31.992-30.188,55.579-36.539c27.873-7.506,58.59-2.549,87.646,1.739
		c117.49,17.339,238.161,22.486,357.512,15.251c62.319-3.778,126.254-11.441,179.412-36.147
		c52.061-24.195,89.071-62.45,130.953-95.979c118.751-95.067,285.828-155.248,458.923-165.302
		c88.147-5.121,178.764,2.081,263.556-16.713C2532.918,75.985,2592.016,42.563,2616.396,0H1397.119z"/>
	<rect x="2265.835" y="918.785" style="fill:#6EA7CE;" width="211.154" height="16.225"/>
	<path style="fill:#BAE1F4;" d="M2271.123,998.282c0,0,200.578-1.83,200.578,0c0,1.83,11.514,134.631,11.514,134.631h-223.962
		L2271.123,998.282z"/>
	<polygon style="fill:#BAE1F4;" points="2250.245,1242.416 2492.58,1242.416 2505.303,1391.186 2237.522,1391.186 	"/>
	<g>
		<g>
			<rect x="1189.995" y="1055.264" style="fill:#6EA7CE;" width="8.808" height="305.473"/>
			<rect x="1316.379" y="1055.264" style="fill:#6EA7CE;" width="8.807" height="305.473"/>
			<polygon style="fill:#6EA7CE;" points="1324.664,1206.396 1316.52,1208 1193.719,1065.104 1201.864,1063.499 			"/>
			
				<rect x="1250.279" y="997.535" transform="matrix(-1.836970e-16 1 -1 -1.836970e-16 2318.3171 -195.0154)" style="fill:#6EA7CE;" width="12.774" height="128.232"/>
			
				<rect x="1250.279" y="1143.885" transform="matrix(-1.836970e-16 1 -1 -1.836970e-16 2464.6667 -48.6657)" style="fill:#6EA7CE;" width="12.774" height="128.232"/>
			<polygon style="fill:#6EA7CE;" points="1193.719,1206.396 1201.864,1208 1324.664,1065.104 1316.52,1063.499 			"/>
			<polygon style="fill:#6EA7CE;" points="1324.664,1355.835 1316.52,1357.439 1193.719,1214.543 1201.864,1212.938 			"/>
			<polygon style="fill:#6EA7CE;" points="1193.719,1355.835 1201.864,1357.439 1324.664,1214.543 1316.52,1212.938 			"/>
		</g>
		<g>
			<rect x="1189.995" y="1351.25" style="fill:#6EA7CE;" width="8.808" height="305.473"/>
			<rect x="1316.379" y="1351.25" style="fill:#6EA7CE;" width="8.807" height="305.473"/>
			<polygon style="fill:#6EA7CE;" points="1324.664,1502.382 1316.52,1503.986 1193.719,1361.091 1201.864,1359.486 			"/>
			
				<rect x="1250.279" y="1293.522" transform="matrix(-1.836970e-16 1 -1 -1.836970e-16 2614.304 100.9715)" style="fill:#6EA7CE;" width="12.775" height="128.232"/>
			
				<rect x="1250.279" y="1439.871" transform="matrix(-1.836970e-16 1 -1 -1.836970e-16 2760.6531 247.3206)" style="fill:#6EA7CE;" width="12.774" height="128.232"/>
			
				<rect x="1250.279" y="1587.22" transform="matrix(-1.836970e-16 1 -1 -1.836970e-16 2908.0027 394.6701)" style="fill:#6EA7CE;" width="12.774" height="128.232"/>
			<polygon style="fill:#6EA7CE;" points="1193.719,1502.382 1201.864,1503.986 1324.664,1361.091 1316.52,1359.486 			"/>
			<polygon style="fill:#6EA7CE;" points="1324.664,1651.821 1316.52,1653.426 1193.719,1510.53 1201.864,1508.926 			"/>
			<polygon style="fill:#6EA7CE;" points="1193.719,1651.821 1201.864,1653.426 1324.664,1510.53 1316.52,1508.926 			"/>
		</g>
	</g>
	<g>
		<path style="fill:#183658;" d="M1713.227,1321.07h-26.091v-37.229c0-33.574,27.314-60.888,60.889-60.888h201.191v26.091h-201.191
			c-19.188,0-34.798,15.609-34.798,34.797V1321.07z"/>
	</g>
	<polygon style="fill:#6EA7CE;" points="2018.967,1262.539 1916.26,1198.745 1916.26,1417.412 2018.967,1417.412 	"/>
	<polygon style="opacity:0.3;fill:#365E99;" points="1976.238,1236 1976.238,1417.412 2018.967,1417.412 2018.967,1262.539 	"/>
	<rect x="1071.958" y="1208.764" style="fill:#6EA7CE;" width="52.522" height="103.142"/>
	<rect x="1071.958" y="1208.764" style="opacity:0.3;fill:#365E99;" width="52.522" height="21.313"/>
	<polygon style="fill:#6EA7CE;" points="650.191,1187.231 629.088,1187.231 607.985,1187.231 594.223,1546.9 629.088,1546.9 
		663.954,1546.9 	"/>
	<polygon style="fill:#6EA7CE;" points="351.234,1077.936 256.356,1077.936 161.477,1077.936 99.601,1524.297 256.356,1524.297 
		413.111,1524.297 	"/>
	<polygon style="fill:#6EA7CE;" points="775.504,1187.231 754.401,1187.231 733.298,1187.231 719.535,1546.9 754.401,1546.9 
		789.267,1546.9 	"/>
	<rect x="846.027" y="1286.786" style="fill:#6EA7CE;" width="353.05" height="370.938"/>
	<polygon style="fill:#6EA7CE;" points="439.837,1657.724 351.634,1657.724 351.634,1457.691 439.837,1414.095 	"/>
	<rect x="416.304" y="1407.244" style="opacity:0.3;fill:#365E99;" width="23.549" height="250.48"/>
	<polygon style="fill:#183658;" points="338.789,1472.326 439.837,1414.095 440.051,1393.757 339.003,1451.988 	"/>
	<polygon style="fill:#6EA7CE;" points="352.063,1657.724 263.859,1657.724 263.859,1457.691 352.063,1414.095 	"/>
	<rect x="328.474" y="1407.244" style="opacity:0.3;fill:#365E99;" width="23.549" height="250.48"/>
	<polygon style="fill:#183658;" points="251.015,1472.326 352.063,1414.095 352.276,1393.757 251.229,1451.988 	"/>
	<polygon style="fill:#6EA7CE;" points="264.288,1657.724 176.085,1657.724 176.085,1457.691 264.288,1414.095 	"/>
	<rect x="240.643" y="1407.244" style="opacity:0.3;fill:#365E99;" width="23.549" height="250.48"/>
	<polygon style="fill:#183658;" points="163.24,1472.326 264.288,1414.095 264.502,1393.757 163.454,1451.988 	"/>
	<polygon style="fill:#6EA7CE;" points="176.513,1657.724 88.31,1657.724 88.31,1457.691 176.513,1414.095 	"/>
	<rect x="152.963" y="1407.244" style="opacity:0.3;fill:#365E99;" width="23.55" height="250.48"/>
	<polygon style="fill:#183658;" points="75.465,1472.326 176.513,1414.095 176.727,1393.757 75.679,1451.988 	"/>
	<polygon style="fill:#6EA7CE;" points="88.31,1657.724 0.107,1657.724 0.107,1457.691 88.31,1414.095 	"/>
	<rect x="64.761" y="1407.244" style="opacity:0.3;fill:#365E99;" width="23.549" height="250.48"/>
	<polygon style="fill:#183658;" points="0,1472.326 88.31,1414.095 88.524,1393.757 0.214,1451.988 	"/>
	<rect x="478.658" y="1414.095" style="fill:#6EA7CE;" width="386.637" height="243.629"/>
	<rect x="743.838" y="1414.095" style="opacity:0.3;fill:#365E99;" width="121.457" height="243.629"/>
	<rect x="440.051" y="1486.476" style="fill:#183658;" width="38.607" height="44.582"/>
	<rect x="440.051" y="1606.486" style="fill:#183658;" width="38.607" height="21.746"/>
	<rect x="512.102" y="1522.374" style="opacity:0.3;fill:#365E99;" width="54.045" height="135.35"/>
	<rect x="612.223" y="1522.374" style="opacity:0.3;fill:#365E99;" width="54.044" height="135.35"/>
	<rect x="766.222" y="1486.476" style="fill:#183658;" width="31.97" height="31.97"/>
	<rect x="766.222" y="1551.609" style="fill:#183658;" width="31.97" height="31.97"/>
	<rect x="814.058" y="1486.476" style="fill:#183658;" width="31.97" height="31.97"/>
	<rect x="898.146" y="1340.021" style="fill:#183658;" width="31.97" height="57.518"/>
	<rect x="983.137" y="1340.021" style="fill:#183658;" width="31.97" height="57.518"/>
	<rect x="1062.943" y="1340.021" style="fill:#183658;" width="31.97" height="57.518"/>
	<rect x="898.146" y="1438.786" style="fill:#183658;" width="31.97" height="57.518"/>
	<rect x="983.137" y="1438.786" style="fill:#183658;" width="31.97" height="57.518"/>
	<rect x="1062.943" y="1438.786" style="fill:#183658;" width="31.97" height="57.518"/>
	<rect x="898.146" y="1537.551" style="fill:#183658;" width="31.97" height="57.518"/>
	<rect x="983.137" y="1537.551" style="fill:#183658;" width="31.97" height="57.518"/>
	<rect x="1062.943" y="1537.551" style="fill:#183658;" width="31.97" height="57.518"/>
	<rect x="814.058" y="1551.609" style="fill:#183658;" width="31.97" height="31.97"/>
	
		<rect x="1143.51" y="1286.786" transform="matrix(-1 -1.224647e-16 1.224647e-16 -1 2342.5874 2944.5098)" style="opacity:0.3;fill:#365E99;" width="55.567" height="370.938"/>
	<rect x="830.042" y="1286.786" style="fill:#183658;" width="385.02" height="14.082"/>
	<polygon style="fill:#BAE1F4;" points="603.791,1296.844 654.386,1296.844 653.512,1274.008 604.665,1274.008 	"/>
	<polygon style="fill:#BAE1F4;" points="605.757,1245.463 652.419,1245.463 651.546,1222.627 606.631,1222.627 	"/>
	<polygon style="fill:#BAE1F4;" points="729.103,1296.844 779.698,1296.844 778.824,1274.008 729.977,1274.008 	"/>
	<polygon style="fill:#BAE1F4;" points="731.07,1245.463 777.732,1245.463 776.858,1222.627 731.943,1222.627 	"/>
	<polygon style="fill:#6EA7CE;" points="2117.865,1108.98 2096.763,1108.98 2075.66,1108.98 2061.897,1468.649 2096.763,1468.649 
		2131.629,1468.649 	"/>
	<polygon style="fill:#6EA7CE;" points="2203.783,1108.98 2182.68,1108.98 2161.576,1108.98 2147.814,1468.649 2182.68,1468.649 
		2217.545,1468.649 	"/>
	<polygon style="fill:#BAE1F4;" points="2071.466,1218.592 2122.061,1218.592 2121.187,1195.757 2072.339,1195.757 	"/>
	<polygon style="fill:#BAE1F4;" points="2073.432,1167.212 2120.094,1167.212 2119.221,1144.376 2074.305,1144.376 	"/>
	<polygon style="fill:#BAE1F4;" points="2157.383,1218.592 2207.977,1218.592 2207.104,1195.757 2158.256,1195.757 	"/>
	<polygon style="fill:#BAE1F4;" points="2159.349,1167.212 2206.011,1167.212 2205.137,1144.376 2160.223,1144.376 	"/>
	<g>
		<rect x="483.368" y="1365.76" style="fill:#183658;" width="3.997" height="65.652"/>
		<rect x="704.641" y="1365.76" style="fill:#183658;" width="3.997" height="65.652"/>
		<rect x="515.813" y="1365.76" style="fill:#183658;" width="3.997" height="65.652"/>
		<rect x="547.879" y="1365.76" style="fill:#183658;" width="3.996" height="65.652"/>
		<rect x="579.944" y="1365.76" style="fill:#183658;" width="3.997" height="65.652"/>
		<rect x="612.009" y="1365.76" style="fill:#183658;" width="3.996" height="65.652"/>
		<rect x="644.074" y="1365.76" style="fill:#183658;" width="3.996" height="65.652"/>
		<rect x="676.14" y="1365.76" style="fill:#183658;" width="3.996" height="65.652"/>
		
			<rect x="594.004" y="1255.123" transform="matrix(-1.836970e-16 1 -1 -1.836970e-16 1963.7603 771.7554)" style="fill:#183658;" width="3.996" height="225.27"/>
	</g>
	<g>
		<rect x="2449.143" y="1180.112" style="fill:#183658;" width="3.985" height="65.653"/>
		<rect x="2669.807" y="1180.112" style="fill:#183658;" width="3.984" height="65.653"/>
		<rect x="2481.499" y="1180.112" style="fill:#183658;" width="3.985" height="65.653"/>
		<rect x="2513.476" y="1180.112" style="fill:#183658;" width="3.985" height="65.653"/>
		<rect x="2545.453" y="1180.112" style="fill:#183658;" width="3.985" height="65.653"/>
		<rect x="2577.43" y="1180.112" style="fill:#183658;" width="3.985" height="65.653"/>
		<rect x="2609.406" y="1180.112" style="fill:#183658;" width="3.985" height="65.653"/>
		<rect x="2641.384" y="1180.112" style="fill:#183658;" width="3.985" height="65.653"/>
		
			<rect x="2559.469" y="1069.786" transform="matrix(-1.836970e-16 1 -1 -1.836970e-16 3743.5771 -1379.3564)" style="fill:#183658;" width="3.996" height="224.648"/>
	</g>
	<g>
		<rect x="2670.11" y="1180.112" style="fill:#183658;" width="3.985" height="65.653"/>
		<rect x="2890.774" y="1180.112" style="fill:#183658;" width="3.985" height="65.653"/>
		<rect x="2702.467" y="1180.112" style="fill:#183658;" width="3.985" height="65.653"/>
		<rect x="2734.443" y="1180.112" style="fill:#183658;" width="3.986" height="65.653"/>
		<rect x="2766.42" y="1180.112" style="fill:#183658;" width="3.986" height="65.653"/>
		<rect x="2798.397" y="1180.112" style="fill:#183658;" width="3.985" height="65.653"/>
		<rect x="2830.374" y="1180.112" style="fill:#183658;" width="3.985" height="65.653"/>
		<rect x="2862.352" y="1180.112" style="fill:#183658;" width="3.984" height="65.653"/>
		
			<rect x="2780.437" y="1069.786" transform="matrix(-1.836970e-16 1 -1 -1.836970e-16 3964.5454 -1600.3247)" style="fill:#183658;" width="3.996" height="224.649"/>
	</g>
	<rect x="1888.749" y="1414.927" style="fill:#6EA7CE;" width="386.637" height="243.629"/>
	<rect x="2153.929" y="1414.927" style="opacity:0.3;fill:#365E99;" width="121.457" height="243.629"/>
	<path style="opacity:0.5;fill:#FFFFFF;" d="M2894.759,0h-526.597c-29.933,26.753-60.137,52.424-99.432,59.742
		c-49.505,9.219-99.524-14.067-149.934-12.774c-55.127,1.414-105.117,32.141-144.813,68.88
		c-63.391,58.67-107.396,133.433-158.287,202.41c-50.893,68.977-113.002,135.371-195.713,164.392
		c-49.541,17.383-110.034,17.49-146.687,53.897c-162.536,161.45-111.819,298.111-83.907,387.824
		c17.312,55.643,87.415,142.141,134.289,55.31c11.672-21.621,15.426-46.298,24.186-69.151
		c21.012-54.816,68.919-95.372,115.024-133.496c19.788-16.363,39.931-32.946,63.708-43.323
		c46.098-20.118,99.279-14.483,149.729-10.279c69.97,5.831,146.152,6.545,203.323-32.605
		c48.229-33.027,73.383-87.948,101.237-138.134c27.854-50.185,65.57-101.738,122.817-116.387c32.318-8.27,66.635-3.441,99.285,3.525
		c67.71,14.447,133.318,37.933,194.348,69.57c22.98,11.913,45.639,25.104,70.835,31.704c23.883,6.254,49.124,6.299,73.722,3.619
		c55.405-6.038,108.013-27.176,152.864-58.747V0z"/>
	<rect x="1922.193" y="1523.206" style="opacity:0.3;fill:#365E99;" width="54.045" height="135.35"/>
	<rect x="1927.902" y="1523.206" style="fill:#183658;" width="54.045" height="135.35"/>
	<rect x="1931.465" y="1308.647" style="fill:#183658;" width="24.846" height="24.846"/>
	<rect x="1931.465" y="1361.787" style="fill:#183658;" width="24.846" height="24.846"/>
	<rect x="2174.754" y="1552.441" style="fill:#183658;" width="31.971" height="31.97"/>
	<rect x="150.778" y="1057.917" style="fill:#183658;" width="211.155" height="20.018"/>
	<path style="fill:#BAE1F4;" d="M156.066,1116.969c0,0,200.579-1.129,200.579,0s11.514,83.056,11.514,83.056H144.196
		L156.066,1116.969z"/>
	<rect x="470.919" y="1414.095" style="fill:#BAE1F4;" width="402.115" height="18.946"/>
	<polygon style="fill:#BAE1F4;" points="135.188,1267.577 377.523,1267.577 390.246,1359.354 122.466,1359.354 	"/>
	<path style="fill:#183658;" d="M1595.146,1319.374l-2.277-12.493c-19.002-104.267-28.658-212.605-28.658-321.536v-54.717h-98.483
		h-98.484v54.717c0,108.931-9.656,217.27-28.658,321.536l-2.277,12.493c-19.974,109.602-30.125,223.483-30.125,337.989v0.549
		h159.544h159.544v-0.549C1625.271,1542.857,1615.121,1428.976,1595.146,1319.374z"/>
	<rect x="1358.379" y="917.13" style="fill:#6EA7CE;" width="214.696" height="15.747"/>
	<path style="fill:#6EA7CE;" d="M1845.226,1399.888c0-54.55-66.433-98.771-148.381-98.771c-81.949,0-148.382,44.222-148.382,98.771
		h-3.021v258.024h302.807v-258.024H1845.226z"/>
	<path style="fill:#BAE1F4;" d="M1847.151,1414.927h-302.244c-4.876,0-8.828-3.952-8.828-8.828v-8.849
		c0-4.876,3.952-8.828,8.828-8.828h302.244c4.876,0,8.828,3.952,8.828,8.828v8.849
		C1855.979,1410.975,1852.027,1414.927,1847.151,1414.927z"/>
	<path style="fill:#BAE1F4;" d="M1847.151,1498.76h-302.244c-4.876,0-8.828-3.953-8.828-8.828v-8.849
		c0-4.876,3.952-8.828,8.828-8.828h302.244c4.876,0,8.828,3.952,8.828,8.828v8.849
		C1855.979,1494.807,1852.027,1498.76,1847.151,1498.76z"/>
	<path style="fill:#BAE1F4;" d="M1847.151,1582.593h-302.244c-4.876,0-8.828-3.953-8.828-8.829v-8.848
		c0-4.876,3.952-8.828,8.828-8.828h302.244c4.876,0,8.828,3.952,8.828,8.828v8.848
		C1855.979,1578.64,1852.027,1582.593,1847.151,1582.593z"/>
	<path style="fill:#183658;" d="M1655.849,1340.146v23.929h-42.593v-23.929h-3.828v317.766h3.828v-18.664h42.593v18.664h3.828
		v-317.766H1655.849z M1655.849,1367.066v17.945h-42.593v-17.945H1655.849z M1613.256,1594.383v-17.945h42.593v17.945H1613.256z
		 M1655.849,1597.374v17.946h-42.593v-17.946H1655.849z M1613.256,1573.446V1555.5h42.593v17.946H1613.256z M1613.256,1552.509
		v-17.946h42.593v17.946H1613.256z M1613.256,1531.572v-17.946h42.593v17.946H1613.256z M1613.256,1510.635v-17.946h42.593v17.946
		H1613.256z M1613.256,1489.697v-17.945h42.593v17.945H1613.256z M1613.256,1468.761v-17.946h42.593v17.946H1613.256z
		 M1613.256,1447.823v-17.946h42.593v17.946H1613.256z M1613.256,1426.887v-17.946h42.593v17.946H1613.256z M1613.256,1405.949
		v-17.946h42.593v17.946H1613.256z M1613.256,1636.258v-17.946h42.593v17.946H1613.256z"/>
	<rect x="898.146" y="1017.352" style="fill:#183658;" width="7.992" height="279.492"/>
	<rect x="1012.835" y="1017.352" style="fill:#183658;" width="7.993" height="279.492"/>
	<polygon style="fill:#183658;" points="1020.354,1155.629 1012.963,1157.098 901.524,1026.355 908.916,1024.887 	"/>
	
		<rect x="952.803" y="965.012" transform="matrix(-1.836970e-16 1 -1 -1.836970e-16 1981.8435 64.5481)" style="fill:#183658;" width="11.688" height="116.368"/>
	
		<rect x="952.804" y="1098.914" transform="matrix(-1.836970e-16 1 -1 -1.836970e-16 2115.7454 198.45)" style="fill:#183658;" width="11.688" height="116.368"/>
	<polygon style="fill:#183658;" points="901.524,1155.629 908.916,1157.098 1020.354,1026.355 1012.963,1024.887 	"/>
	<polygon style="fill:#183658;" points="1020.354,1292.358 1012.963,1293.827 901.524,1163.084 908.916,1161.616 	"/>
	<polygon style="fill:#183658;" points="901.524,1292.358 908.916,1293.827 1020.354,1163.084 1012.963,1161.616 	"/>
	<rect x="2449.143" y="1212.938" style="fill:#6EA7CE;" width="445.617" height="445.617"/>
	<rect x="1881.01" y="1414.927" style="fill:#BAE1F4;" width="402.115" height="18.946"/>
	<rect x="2671.951" y="1212.938" style="opacity:0.3;fill:#365E99;" width="222.809" height="445.617"/>
	<path style="fill:#578391;" d="M2894.76,1594.826c-24.357-2.449-54.66-1.428-92.377,4.849
		c-197.897,32.928-702.842,51.661-929.01,51.661s-276.296-48.754-361.109-33.787c-84.813,14.967-198.671,52.6-198.671,52.6
		l1581.167,7.694V1594.826z"/>
	<path style="fill:#6794A5;" d="M0.107,1668.446l1672.062,3.447c-48.267-1.86-1127.771-97.431-1617.977-72.219
		c-19.974,1.027-37.938,2.235-54.085,3.594V1668.446z"/>
	<rect x="0.107" y="1668.446" style="fill:#485568;" width="2894.653" height="331.554"/>
	<g>
		<path style="fill:#F8A492;" d="M615.59,1509.565c-0.373-0.262-0.711-0.563-1.014-0.903
			c-9.759-10.971-91.673-103.124-94.119-108.164c-2.209-4.55-22.493-97.341-22.493-97.341l44.897,5.057l15.803,85.818
			c2.464,3.871,50.513,73.938,50.513,73.938s8.468,13.086,13.937,20.496c2.136,0.896,4.174,1.723,5.881,2.362
			c3.827,1.173,7.389,1.678,10.479,2.002c3.889,0.407,11.542,2.211,13.212,3.104c1.941,1.038,5.871,3.309,8.218,4.706
			c2.347,1.396,5.159,2.938,6.313,3.827c0.702,0.541,2.613,1.065,4.002,1.394c2.068,0.489,2.467,3.282,0.606,4.312
			c-1.753,0.969-4.564,0.388-6.309,0.018c-4.925-1.043-11.663-5.395-11.789-4.641c-0.127,0.755,8.194,11.51,9.066,12.8
			c0.872,1.291,10.475,13.843,11.53,16.896c1.055,3.053-0.665,4.216-2.337,3.401c-1.44-0.701-15.988-17.059-15.988-17.059
			s-1.86-2.082-2.047-0.599c-0.187,1.483,12.993,16.361,14.544,18.946c1.551,2.586,1.372,5.045-1.447,4.671
			c-3.429-0.455-16.517-17.202-16.517-17.202s-1.677-2.071-2.261-1.076c-0.583,0.994,10.842,13.465,11.319,15.099
			c0.476,1.633-0.639,3.614-3.14,2.741c-2.945-1.027-14.5-16.079-14.5-16.079s-1.201-0.894-1.314-0.042
			c-0.113,0.852,8.867,12.18,8.853,14.145c-0.011,1.65-1.493,1.667-1.493,1.667c-3.145,0.727-10.353-11.495-15.343-16.048
			c-4.99-4.552-8.442-12.005-14.984-16.773C617.255,1510.737,616.234,1510.018,615.59,1509.565z"/>
		<path style="fill:#F7A491;" d="M359.87,1854.991c0,0-17.296,15.892-17.336,15.921c-2.424,1.793-8.925,5.725-10.811,7.666
			c-7.088,7.293,38.336,25.475,34.234,15.146c-0.372-0.936-1.068-9.162,1.128-11.855c3.385-4.15,9.475-10.063,9.475-10.063
			L359.87,1854.991z"/>
		<path style="fill:#0E2E35;" d="M365.944,1893.576c0,0-9.756-5.203-14.184-8.453c-4.428-3.25-4.987-12.967-8.969-14.391
			c-4.382-1.568-22.797,17.277-22.797,17.277s35.993,39.142,54.827,52.186c4.057,2.809,8.974,1.914,10.712,1.944
			C392.185,1942.258,376.406,1913.972,365.944,1893.576z"/>
		<path style="fill:#F7A491;" d="M577.694,1885.807c0,0,5.371,26.018,5.377,26.073c0.334,3.396,0.38,11.997,1.167,14.955
			c2.956,11.113,46.74-22.637,34.393-24.603c-1.118-0.179-6.672-2.411-8.583-5.841c-3.322-5.967-6.476-17.138-6.476-17.138
			L577.694,1885.807z"/>
		<path style="fill:#0E2E35;" d="M618.481,1902.159c0,0-10.658,6.499-16.354,8.937c-5.696,2.438-16.116-4.328-19.791-1.271
			c-4.045,3.363,2.541,33.164,2.541,33.164s74.898-19.868,90.833-30.182C682.024,1908.721,644.225,1903.74,618.481,1902.159z"/>
		<path style="fill:#B75742;" d="M513.752,1261.441c32.272,7.693,40.403,79.766,42.358,89.072
			c-10.696,3.762-23.388,7.556-34.369,10.76l-13.139-101.285C508.602,1259.988,510.425,1260.648,513.752,1261.441z"/>
		<path style="fill:#F7CC7F;" d="M537.386,1528.842l46.413,185.654l29.344,179.788l-36.539,4.929c0,0-51.466-137.49-52.899-153.314
			c-1.433-15.823-27.268-89.798-27.268-89.798L537.386,1528.842z"/>
		<path style="fill:#FAE0B2;" d="M429.061,1507.35c0,0,3.475,178.008,0.61,194.551c-2.866,16.543-80.624,157.679-80.624,157.679
			l26.178,28.474c0,0,111.258-129.085,116.161-140.471c7.687-17.853,45.636-219.105,45.636-219.105L429.061,1507.35z"/>
		<path style="fill:#F47458;" d="M471.698,1261.016c0,0-19.712-1.81-27.592,16.892c-7.88,18.7-15.76,108.607-12.178,151.763
			c3.582,43.155-11.531,102.884-11.531,102.884c68.715,35.591,117.554-2.906,117.554-2.906s18.144-165.14,11.462-195.639
			c-13.966-63.745-40.813-74.021-40.813-74.021L471.698,1261.016z"/>
		<path style="fill:#F7A491;" d="M479.946,1221.086l-6.463,42.628c0,0,23.603,50.756,37.694,46.354
			c11.823-3.693,4.549-48.604,4.549-48.604s-6.444-24.118-4.512-36.187C513.147,1213.208,479.946,1221.086,479.946,1221.086z"/>
		<path style="fill:#F47458;" d="M511.215,1225.277c1.933-12.069-31.268-4.191-31.268-4.191l-0.536,3.535
			c0.971,2.365,2.159,4.389,3.6,5.941c7.417,7.986,19.008,12.783,29.031,13.146C511.039,1237.201,510.422,1230.227,511.215,1225.277
			z"/>
		<path style="fill:#F7A491;" d="M474.499,1160.778c-0.938-0.341-7.522,48.551,4.972,62.003
			c12.493,13.452,36.833,17.855,45.564,7.261c9.657-11.72,9.172-64.267-10.251-78.105
			C495.36,1138.099,474.499,1160.778,474.499,1160.778z"/>
		<path style="fill:#184655;" d="M507.389,1125.783c-15.013,3.063-24.738,12.244-28.311,16.157
			c-6.816,0.806-16.082,4.575-25.65,20.428c-11.765,19.491-3.076,41.086,10.619,51.682c13.695,10.595,13.504,22.834,13.504,22.834
			l2.165-6.33c1.597-4.796,2.25-9.881,1.715-14.911c-0.321-3.019-0.967-6.281-2.215-8.965c-3.294-7.076,7.076-11.777,9.983-17.664
			c2.238-4.533,2.347-14.902,5.875-22.396l4.212-5.72c0,0,9.718-7.567,19.226-5.433
			C528.019,1157.602,526.652,1121.854,507.389,1125.783z"/>
		<path style="fill:#FFFFFF;" d="M508.848,1211.498l18.831-0.976c0,0-0.064,7.179-8.333,7.848
			C509.264,1219.185,508.848,1211.498,508.848,1211.498z"/>
		<path style="fill:#F8A492;" d="M379.944,1522.581c-0.095-0.446-0.138-0.897-0.128-1.353c0.311-14.684,2.967-137.988,4.602-143.348
			c1.477-4.838,49.723-86.639,49.723-86.639l29.456,34.28l-46.787,73.641c-0.829,4.515-13.276,88.573-13.276,88.573
			s-2.696,15.354-3.728,24.508c0.956,2.111,1.887,4.104,2.702,5.736c2.006,3.465,4.272,6.261,6.316,8.604
			c2.573,2.946,6.953,9.479,7.569,11.271c0.716,2.082,2.052,6.422,2.821,9.044c0.77,2.622,1.781,5.667,2.022,7.103
			c0.147,0.875,1.19,2.561,1.984,3.747c1.183,1.767-0.425,4.085-2.487,3.571c-1.944-0.483-3.608-2.823-4.635-4.283
			c-2.899-4.118-4.875-11.895-5.481-11.429c-0.606,0.467-1.824,14.013-2.063,15.552c-0.239,1.54-1.74,17.277-3.043,20.232
			c-1.303,2.955-3.354,2.637-4.026,0.9c-0.578-1.494-0.113-23.387-0.113-23.387s0.053-2.792-1.093-1.833
			c-1.146,0.96-1.608,20.836-2.229,23.787c-0.622,2.951-2.426,4.63-4.237,2.437c-2.203-2.668-0.402-23.852-0.402-23.852
			s0.179-2.66-0.925-2.329c-1.104,0.331-1.214,17.25-1.976,18.771c-0.761,1.521-2.926,2.213-4.165-0.13
			c-1.459-2.759,0.311-21.656,0.311-21.656s-0.272-1.472-0.934-0.925c-0.663,0.547-1.787,14.962-3.134,16.393
			c-1.131,1.202-2.227,0.205-2.227,0.205c-2.798-1.609,0.232-15.473-0.328-22.207c-0.56-6.733,1.979-14.545,0.43-22.494
			C380.367,1524.573,380.108,1523.351,379.944,1522.581z"/>
		<path style="fill:#F47458;" d="M399.436,1339.31l43.195,33.526c0,0,19.073-18.197,28.653-38.326
			c9.697-20.375-2.112-74.067-12.434-71.304C435.764,1269.387,399.436,1339.31,399.436,1339.31z"/>
		<path style="fill:#A9D8CF;" d="M490.431,1200.016c0,0-3.613-9.938-5.573-11.836c0,0,4.846,2.131,7.654,11.276
			c0,0,0.053,3.686-0.558,3.032C491.343,1201.835,490.431,1200.016,490.431,1200.016z"/>
		<path style="fill:#A9D8CF;" d="M478.63,1206.094c0,0,12.257,23.832,20.184,26.064l-0.95-2.141c0,0-5.978-4.853-16.59-23.77
			L478.63,1206.094z"/>
		<path style="fill:#A9D8CF;" d="M490.431,1200.016c0,0,23.764-9.825,43.064,0.767c0,0,0.751,37.338-17.661,39.825
			C497.422,1243.094,490.313,1217.018,490.431,1200.016z"/>
		<path style="fill:#F7A491;" d="M488.56,1197.715c0.099,5.965-2.611,10.849-6.053,10.907s-6.313-4.729-6.412-10.694
			c-0.1-5.965,2.611-10.849,6.052-10.907C485.59,1186.962,488.461,1191.75,488.56,1197.715z"/>
	</g>
	<g>
		<g>
			<path style="fill:#F7CC7F;" d="M2623.466,1533.245c0.28,0,0.565-0.04,0.849-0.125c1.566-0.468,2.458-2.118,1.99-3.687
				l-13.339-44.727c-0.468-1.568-2.117-2.46-3.685-1.992c-1.566,0.469-2.458,2.119-1.99,3.688l13.339,44.727
				C2621.014,1532.414,2622.19,1533.245,2623.466,1533.245z"/>
		</g>
		
			<rect x="2551.98" y="1520.122" transform="matrix(-1 -1.224647e-16 1.224647e-16 -1 5193.0947 3157.8701)" style="fill:#73A2E5;" width="89.134" height="117.626"/>
		<path style="fill:#BAE1F4;" d="M2558.108,1447.625l-1.622,1.454c-0.835,0.747-2.091,0.716-2.806-0.07l-28.792-31.673
			c-0.715-0.787-0.618-2.03,0.217-2.777l1.621-1.454c0.835-0.747,2.091-0.716,2.806,0.07l28.793,31.673
			C2559.04,1445.635,2558.942,1446.878,2558.108,1447.625z"/>
		<path style="fill:#F7A491;" d="M2655.724,1421.894c-3.849-3.131-33.609,9.937-33.231,14.485
			c0.377,4.55-20.768,48.649-20.768,48.649l-36.54-29.154l-0.015,0.009c-0.323-1.055-3.787-12.394-3.955-14.422
			c-0.178-2.128-6.352-5.851-9.22-5.303c-2.868,0.549,2.453,4.148,2.802,4.809c0.951,1.799-2.725,2.475-2.725,2.475
			s-10.559-5.799-10.783-9.209c-0.224-3.409-2.402-10.557-4.684-9.062c-1.178,0.771-1.167,5.842-0.799,8.248
			c-0.678-2.73-1.639-5.815-2.573-6.121c-1.708-0.559-2.558,1.616-2.247,2.684c0.31,1.067,3.067,12.663,3.905,13.968
			c0.819,1.275,17.869,15.021,20.325,18.005c0,0,47.264,54.065,50.629,55.48c2.952,1.241,13.48-17.392,23.427-29.761
			C2639.22,1475.305,2667.75,1431.678,2655.724,1421.894z"/>
		<path style="fill:#F48C7F;" d="M2751.09,1819.443c0,0,6.494,6.342,6.642,8.669s0.575,27.259-2.076,29.587
			c-2.651,2.327-10.439,3.978-7.935,6.596c1.892,1.979,16.45,1.556,26.099,1.023c2.816-0.154,6.349-22.643,7.465-25.947
			c1.62-4.8,5.56-15.612,4.087-18.958c-0.718-1.63-4.151-4.98-8.989-8.107c-5.09-3.289-9.958-10.612-9.958-10.612L2751.09,1819.443z
			"/>
		<path style="fill:#F7A491;" d="M2683.812,1834.211c0,0,5.812,16.43,5.819,16.472c0.432,2.603,2.133,9.034,2.133,11.4
			c0,8.89-40.063-7.546-31.084-11.485c0.813-0.357,3.361-3.205,3.629-6.23c0.412-4.662-3.375-10.509-3.375-10.509L2683.812,1834.211
			z"/>
		<g>
			<path style="fill:#B75742;" d="M2620.961,1528.267c0,0-2.921,29.454-2.921,29.893c0,47.646-9.438,140.714-7.644,149.671
				c4.379,21.849,51.508,133.305,51.508,133.305l25.473-3.047l-33.193-133.444l12.215-53.712l17.284-106.172L2620.961,1528.267z"/>
			<path style="fill:#F47458;" d="M2706.448,1554.318l4.833,27.916l13.077,114.891l49.8,112.288c0,0-7.005,16.339-17.34,18.634
				l-79.26-115.286l-49.236-147.518l1.729-32.773L2706.448,1554.318z"/>
		</g>
		<path style="fill:#F47458;" d="M2610.803,1458.139l35.32,3.608c0,0,1.62-28.976,1.62-42.797c0-16.769-1.427-38.368-3.451-37.903
			c-5.68,1.305-13.328,4.442-17.883,10.704C2610.651,1413.417,2610.803,1458.139,2610.803,1458.139z"/>
		<path style="fill:#F7CC7F;" d="M2628.154,1415.992c-0.74,5.112-14.317,144.105-14.317,144.105
			c64.312,31.082,99.798,5.537,99.798,5.537s-2.104-97.604,0.418-110.888c1.67-8.79,3.75-67.194-1.942-68.83
			c-7.304-2.1-15.679-4.329-24.808-5.276c-7.792-0.81-38.062-1.278-43.478,0.542
			C2643.825,1381.183,2631.266,1394.492,2628.154,1415.992z"/>
		<path style="fill:#0E2E35;" d="M2776.066,1812.147c0,0-14.969,42.174-20.828,44.21c-1.555,0.541-9.021,1.912-10.43,5.216
			c-0.424,0.995,0,4.319,0,4.319h31.2c0,0,3.946-18.582,5.507-26.746c0,0,8.258-19.949,7.341-21.762
			C2787.938,1815.572,2776.066,1812.147,2776.066,1812.147z"/>
		<path style="fill:#0E2E35;" d="M2694.043,1865.016l-4.588-14.503c0,0-9.636,4.079-14.453,3.399s-14.224-3.399-14.224-3.399
			c-19.229,6.334-34.983,9.407-32.118,14.503l0,0H2694.043z"/>
		<g>
			<path style="fill:#F7CC7F;" d="M2604.414,1536.627c1.045,0.198,2.047-0.498,2.225-1.547c0.666-3.922,2.135-13.352,2.682-23.132
				c1.008-18.044-1.423-28.251-7.433-31.207c-5.998-2.952-15.607,1.26-29.376,12.872c-7.462,6.293-14.086,13.103-16.811,15.982
				c-0.731,0.771-0.686,1.991,0.1,2.708l0,0c0.769,0.701,1.954,0.654,2.664-0.106c12.529-13.432,33.867-31.91,41.743-28.037
				c7.872,3.871,5.913,32.112,2.692,50.271C2602.719,1535.456,2603.393,1536.434,2604.414,1536.627L2604.414,1536.627z"/>
		</g>
		<g>
			<path style="fill:#FAE0B2;" d="M2589.994,1524.308c1.603,0-0.059-0.673,0.057-2.28c3.066-43.161,12.703-38.69,13.125-39.907
				c0.711-2.042-1.538-3.433-3.079-2.884c-1.356,0.484-12.194,5.774-13.063,42.037c-0.039,1.636,1.254,2.994,2.889,3.033
				C2589.946,1524.307,2589.971,1524.308,2589.994,1524.308z"/>
		</g>
		<polygon style="fill:#355389;" points="2551.98,1503.191 2616.396,1533.953 2585.82,1658.958 2477.109,1603.932 		"/>
		<g>
			<path style="fill:#F7A491;" d="M2605.846,1517.435c-0.146-0.062-0.669-0.473-0.971-0.722c1.145-13.617,0.938-26.812-3.333-31.273
				c0.103-0.213,1.036-2.199,2.011-4.258c4.949,3.831,7.301,14.008,6.379,30.528c-0.064,1.136-0.391,2.003-0.652,3.421
				C2607.846,1516.709,2606.543,1517.728,2605.846,1517.435z"/>
		</g>
		<polygon style="fill:#183658;" points="2468.368,1587.283 2551.98,1503.191 2477.109,1603.932 2474.572,1592.927 		"/>
		<path style="fill:#F8A492;" d="M2777.331,1561.57c0.04-0.298,0.045-0.596,0.016-0.896c-0.948-9.625-8.935-90.453-10.279-93.89
			c-1.215-3.102-37.034-54.367-37.034-54.367l-17.605,24.002l34.448,45.981c0.772,2.922,13.201,57.485,13.201,57.485
			s2.547,9.945,3.688,15.902c-0.52,1.436-1.031,2.791-1.483,3.904c-1.142,2.377-2.488,4.327-3.712,5.969
			c-1.54,2.065-4.086,6.577-4.399,7.785c-0.365,1.403-1.022,4.32-1.395,6.081c-0.373,1.761-0.882,3.812-0.968,4.767
			c-0.053,0.581-0.652,1.741-1.113,2.561c-0.688,1.221,0.485,2.661,1.814,2.219c1.252-0.416,2.226-2.037,2.826-3.047
			c1.695-2.852,2.6-8.058,3.021-7.782c0.422,0.275,1.907,9.108,2.142,10.106c0.235,1,2.018,11.256,3.022,13.131
			c1.005,1.874,2.336,1.561,2.689,0.387c0.304-1.01-1.11-15.361-1.11-15.361s-0.176-1.831,0.625-1.259s2.111,13.6,2.668,15.506
			c0.558,1.905,1.827,2.917,2.905,1.385c1.312-1.864-0.943-15.682-0.943-15.682s-0.253-1.737,0.489-1.576
			c0.741,0.162,1.67,11.265,2.247,12.226c0.577,0.96,2.034,1.305,2.729-0.297c0.818-1.885-1.301-14.203-1.301-14.203
			s0.104-0.98,0.566-0.655c0.463,0.326,1.931,9.733,2.888,10.605c0.803,0.731,1.473,0.021,1.473,0.021
			c1.756-1.199-0.936-10.148-0.909-14.598c0.026-4.45-2.036-9.45-1.421-14.749
			C2777.154,1562.899,2777.262,1562.084,2777.331,1561.57z"/>
		<path style="fill:#F7CC7F;" d="M2758.018,1444.887l-30.598,20.557c0,0-17.246-25.68-26.503-34.821
			c-11.597-11.452,4.225-46.536,11.696-44.552C2729.325,1390.511,2758.018,1444.887,2758.018,1444.887z"/>
		<path style="fill:#07345A;" d="M2659.584,1291.258c0,0,10.484-11.061,18.916,2.396c0,0,6.496-3.649,11.055,2.851
			c0,0,11.736-3.535,14.586,14.025c0,0,6.039-1.141,6.837,6.044c0.798,7.184-2.849,11.974-2.849,11.974s3.393,2.545,1.852,9.15
			c-1.311,5.616-5.954,6.471-5.954,6.471s-1.253,9.465-5.356,12.315c-4.102,2.852-9.686,1.483-9.686,1.483s-1.481,5.131-6.268,4.675
			s-10.712-5.018-16.067-2.965c-5.356,2.053-19.259-0.114-19.259-0.114s-15.611-6.955-10.939-22.92c0,0-8.205-7.412-1.025-16.307
			c0,0-5.242-13.911,5.128-22.122C2650.924,1290.004,2659.584,1291.258,2659.584,1291.258z"/>
		<path style="fill:#F7A491;" d="M2661.355,1366.353l-1.898,14.089c0,0-4.251,20.299,1.219,24.211
			c5.469,3.914,23.259-24.789,23.259-24.789l-1.879-35.7L2661.355,1366.353z"/>
		<path style="fill:#F47458;" d="M2682.662,1355.732c-4.518,12.177-15.277,19.662-22.916,22.565l1.609-11.945l20.7-22.189
			L2682.662,1355.732z"/>
		<path style="fill:#07345A;" d="M2711.163,1319.899c0,5.438-3.09,9.845-6.901,9.845c-3.813,0-6.902-4.407-6.902-9.845
			s3.09-9.845,6.902-9.845C2708.073,1310.055,2711.163,1314.462,2711.163,1319.899z"/>
		<ellipse style="fill:#07345A;" cx="2682.061" cy="1298.738" rx="8.397" ry="5.658"/>
		<path style="fill:#F7A491;" d="M2669.416,1306.656c-11.099-3.823-22.93,3.555-24.624,15.004
			c-0.736,4.977-1.402,11.234-1.526,18.076c-0.299,16.455,8.215,32.471,15.682,32.471c7.468,0,28.105-10.652,28.852-34.014
			C2688.26,1323.771,2681.064,1310.668,2669.416,1306.656z"/>
		<path style="fill:#07345A;" d="M2637.065,1298.469c-7.714,6.114-10.416,15.405-6.038,20.751
			c4.379,5.346,14.182,4.724,21.896-1.392c7.714-6.114,10.416-15.404,6.037-20.751
			C2654.581,1291.731,2644.778,1292.354,2637.065,1298.469z"/>
		<path style="fill:#07345A;" d="M2657.231,1303.482c0,2.657,3.206,4.812,7.161,4.812c3.956,0,7.162-2.154,7.162-4.812
			s-3.206-4.812-7.162-4.812C2660.438,1298.671,2657.231,1300.825,2657.231,1303.482z"/>
		<path style="fill:#07345A;" d="M2635.922,1323.931c0,3.417,2.737,6.187,6.113,6.187c3.377,0,6.114-2.77,6.114-6.187
			c0-3.416-2.737-6.186-6.114-6.186C2638.659,1317.745,2635.922,1320.515,2635.922,1323.931z"/>
		<path style="fill:#FFFFFF;" d="M2651.13,1354.149l14.608,0.578c0,0-0.557,5.539-6.988,5.47
			C2650.908,1360.114,2651.13,1354.149,2651.13,1354.149z"/>
		<path style="fill:#C3E5DF;" d="M2686.588,1345.813c0,0-5.209,7.72-8.87,12.889l-1.492,3.283c0,0,10.657-13.344,11.165-16.129
			L2686.588,1345.813z"/>
		<path style="fill:#C3E5DF;" d="M2680.813,1344.574c0,0-22.3-5.332-38.066,1.34c0,0,1.664,23.862,16.16,26.505
			C2673.401,1375.062,2680.17,1356.742,2680.813,1344.574z"/>
		<path style="fill:#C3E5DF;" d="M2685.653,1334.342c0,0-4.186,4.72-4.841,10.232h-1.665
			C2679.147,1344.574,2681.611,1334.559,2685.653,1334.342z"/>
		<path style="fill:#F7A491;" d="M2682.297,1340.04c0,3.63,2.404,6.573,5.371,6.573s5.371-2.943,5.371-6.573
			s-2.404-6.572-5.371-6.572S2682.297,1336.41,2682.297,1340.04z"/>
	</g>
	<g>
		<path style="fill:#A34B3D;" d="M1252.139,1275.292c-10.919,44.867,48.17,77.445,94.958,78.637
			c30.407,0.774,44.384-2.338,49.301-34.271c7.975-51.794-13.44-83.37-43.443-96.438
			C1314.239,1206.358,1261.146,1238.278,1252.139,1275.292z"/>
		<path style="fill:#FAE0B2;" d="M1405.587,1529.078c-16.905-23.031-86.659-89.743-94.406-89.606
			c-22.59,0.395-96.736,0.423-111.232,7.761l0.7,127.001c2.363,10.659,53.549,176.709,50.578,213.058l0.354,0.34
			c42.902,41.289,110.562,38.045,149.797-7.183h0c0,0-0.17-50.37,5.871-96.317
			C1416.713,1612.152,1447.583,1586.287,1405.587,1529.078z"/>
		<path style="fill:#F7A491;" d="M1288.45,1367.978c0,0,1.955,46.856-2.269,64.62c-4.224,17.765-9.854,19.107,26.397,24.513
			c14.241,2.123,27.973,5.292,27.973,5.292s-3.72-26.088-4.283-37.1c-0.926-18.136,4.19-74.141,4.19-74.141L1288.45,1367.978z"/>
		<path style="fill:#F47458;" d="M1316.057,1391.295c7.459,4.018,14.426,6.39,20.851,7.375c1.233-22.124,3.551-47.509,3.551-47.509
			l-49.617,16.043C1296.602,1376.787,1304.786,1385.223,1316.057,1391.295z"/>
		<path style="fill:#F8A492;" d="M1433.937,1415.776c-0.68-2.667-4.667-6.881-10.542-27.545c-1.696-5.965,0.576-14.48,0.576-14.48
			s2.877-10.448,5.552-10.449c2.674-0.002,4.829,2.603,5.062,4.703c0.233,2.101-1.418,6.106-1.185,8.207
			c0.233,2.101,5.401,6.468,7.722,7.279c2.32,0.813,9.756-30.267,9.756-30.267s1.702-9.016,2.029-12.06
			c0.279-2.595,0.499-10.443,0.499-10.443s0.933-11.14,4.415-10.613c2.053,0.311,4.011,10.459,4.273,20.495
			c0.284,10.81-1.174,21.562-0.108,21.839c2.503,0.653,6.988-16.297,6.988-16.297s0.251-8.493,1.555-12.022
			c-0.728-5.263,0.605-13.943,4.803-13.011c0.775,0.172,2.408,12.543,2.408,12.543s-0.475,8.054-0.459,11.913
			c0.026,6.808-2.946,16.34-3.296,20.932c-0.291,3.819,1.033,2.736,1.36,3.033c0.253,0.229,1.406-4.734,3.111-11.511
			c0.858-3.413,2.577-7.056,2.944-11.189c0.341-3.827,1.58-9.002,2.404-12.097c2.333-8.762,7.518-5.674,6.695,2.866
			c-0.313,3.254-0.684,6.792-1.072,10.376c-1.513,13.936-5.894,26.182-4.52,26.854c1.783,0.871,8.402-21.973,8.402-21.973
			s7.14-11.241,5.908,1.37c-1.428,14.635-5.568,25.364-5.78,25.827c-1.435,3.135-3.094,15.742-9.818,25.827
			c-4.958,7.437-12.373,17.911-15.93,22.905L1433.937,1415.776z"/>
		<path style="fill:#F7A491;" d="M1378.903,1585.641l35.619-50.236c0,0,28.925,17.815,34.643,19.843
			c0,0-7.295-71.968-17.457-144.202l32.379-4.129c0.309-0.056,25.799,88.317,36.502,155.86c6.008,37.915,1.327,68.1-28.152,73.368
			C1462.807,1637.865,1378.903,1585.641,1378.903,1585.641z"/>
		<path style="fill:#F7CC7F;" d="M1273.717,1513.551c11.185,42.864,105.957,100.793,105.957,100.793s52.38-70.8,57.051-91.661
			c0,0-91.84-56.283-97.65-59.583c-26.302-14.941-45.518-4.62-57.243,3.599C1272.417,1473.298,1273.717,1513.551,1273.717,1513.551z
			"/>
		<path style="fill:#A34B3D;" d="M1279.112,1514.751c36.882-32.081,50.796-102.813,26.735-144.95
			c16.711-21.674,27.424-17.808,23.697-44.768c-7.353-53.183,66.917-85.207,11.441-99.352
			c-56.063-11.205-102.694,23.116-128.336,57.209c-11.553,15.361-25.933,28.644-43.025,37.983
			c-33.862,18.504-51.722,62.91-33.738,109.199c-27.118,15.161-50.793,59.003-32.847,95.401
			c4.308,8.736,13.012,18.962,13.282,21.467c-0.516-3.082-25.262,78.098,67.152,105.743
			C1277.776,1680.895,1297.191,1590.682,1279.112,1514.751z"/>
		<path style="fill:#F7A491;" d="M1320.853,1251.365c0,0-20.569,6.897-31.533,27.596c-10.964,20.698-5.514,86.977,40.104,108.833
			c45.618,21.857,66.585-27.776,63.276-64.403S1376.179,1238.839,1320.853,1251.365z"/>
		<path style="fill:#A34B3D;" d="M1273.108,1329.117c-6.749-34.252-4.106-60.212,20.313-72.746
			c24.419-12.535,45.292-24.961,67.146-2.434l4.939,2.775c0,0-41.235,11.358-43.537,33.183
			c-2.302,21.825-24.225,47.768-20.849,58.487c3.375,10.719,7.27,32.097,7.27,32.097l-9.03-7.399
			C1299.361,1373.08,1279.857,1363.37,1273.108,1329.117z"/>
		<path style="fill:#A9D8CF;" d="M1300.691,1327.467c0,0,16.671,23.695,24.908,36.666l0.935,5.688c0,0-26.459-35.29-27.63-42.26
			L1300.691,1327.467z"/>
		<path style="fill:#F7A491;" d="M1315.613,1316.008c3.406,9.459,0.832,18.955-5.75,21.21c-6.583,2.255-14.681-3.585-18.088-13.044
			c-3.407-9.46-0.832-18.956,5.75-21.211C1304.108,1300.708,1312.206,1306.548,1315.613,1316.008z"/>
		<path style="fill:#A9D8CF;" d="M1315.195,1324.455c0,0,45.391-15.447,80.644,1.45c0,0,0.89,62.054-31.396,68.451
			S1316.801,1354.872,1315.195,1324.455z"/>
		<path style="fill:#A9D8CF;" d="M1304.872,1303.443c0,0,8.783,7.224,10.324,21.012l3.713,0.023
			C1318.908,1324.479,1313.89,1304.044,1304.872,1303.443z"/>
		<path style="fill:#F47458;" d="M1471.682,2000c-2.229-46.729-13.204-92.686-32.435-135.412l-37.87-84.14
			c-15.32,4.857-29.759,8.993-45.86,10.793c-35.021,3.919-69.466,0.028-104.291-3.951c-0.107,1.315-0.266,2.463-0.48,3.429
			c-6.32,28.571-41.521,92.271-56.35,179.334c-1.646,9.667-3.172,19.703-4.586,29.947H1471.682z"/>
	</g>
	<g>
		<path style="fill:#B75742;" d="M2187.62,1528.836c0,0,33.061-4.389,45.121,1.854c12.062,6.242,18.663,80.573,18.663,80.573
			l-10.71,3.256c0,0,1.524,51.471-6.66,55.046s-65.69-7.521-78.802-20.641c-13.111-13.121,11.571-122.832,11.571-122.832
			L2187.62,1528.836z"/>
		<path style="fill:#F7A491;" d="M1850.609,1845.923c0,0-2.462,26.899-0.843,35.671c0.217,1.174,0.693,2.662,1.25,4.301
			c1.667,4.918-2.9,19.935-2.9,19.935l-61.255,0.226c-3.337,0.013-1.105-2.104,1.608-4.046c4.442-3.178,8.022-5.271,22.17-11.891
			c0.923-0.432,4.289-2.511,5.502-3.23c3.077-1.824,6.18-4.718,8.856-7.62c4.457-4.835,5.135-28.541,5.135-28.541L1850.609,1845.923
			z"/>
		<path style="fill:#B75742;" d="M1816.15,1886.883c16.145,4.351,28.152,1.678,34.884-0.937c1.667,4.91,4.803,21.512,2.932,21.512
			c-15.36,0-28.361,2.91-72.373,2.216c-1.575-0.024-1.384-5.441-0.356-6.637C1784.075,1899.735,1814.934,1887.604,1816.15,1886.883z
			"/>
		<path style="fill:#3C8F7C;" d="M1927.435,1526.613c0,0-0.871,38.396-11.867,62.984c-10.711,23.948-61.969,83.012-75.593,117.485
			c4.212,19.445,15.788,46.775,14.95,68.326c-0.949,24.424,0.471,89.047,0.471,89.047l-27.507,0.873l-36.086-166.766l56.381-184.368
			l22.674-39.258L1927.435,1526.613z"/>
		<path style="fill:#F7A491;" d="M1989.463,1821.471c0,0,12.384,25.906,18.634,33.035c3.347,3.817,13.224,9.943,13.398,15.261
			s-57.541,41.344-57.541,41.344c-3.041,1.828-2.155-1.319-0.732-4.571c2.329-5.323,4.459-9.184,13.779-22.936
			c0.607-0.896,2.551-4.629,3.268-5.947c1.817-3.342,3.077-7.674,3.942-11.783c1.441-6.844-10.835-28.863-10.835-28.863
			L1989.463,1821.471z"/>
		<path style="fill:#B75742;" d="M1980.273,1877.646c17.111-4.82,26.623-13.802,31.349-19.855
			c4.193,3.576,15.751,11.688,14.343,13.093c-11.077,11.049-23.054,25.124-63.626,48.463c-1.452,0.836-5.452-6.278-5.163-7.93
			C1957.972,1906.855,1979.555,1878.969,1980.273,1877.646z"/>
		<g>
			<path style="fill:#F7A491;" d="M2262.061,1593.124c7.707,4.224,26.386,21.336,32.715,27.164
				c0.121,0.735,1.017,4.965,6.136,10.023c3.616,3.574,6.818,12.129,8.793,9.475c1.975-2.653-3.966-9.18-1.503-9.421
				c2.463-0.242,15.803,12.557,17.592,10.151c1.79-2.405-11.617-13.659-9.413-13.876c2.203-0.217,13.282,11.381,15.812,7.98
				s-14.301-12.435-12.943-14.259c1.357-1.825,11.816,4.145,13.854,1.407c2.035-2.736-14.678-7.475-13.381-7.602
				c1.296-0.127,10.684-0.618,10.609-2.428c-0.083-2.047-24.111-3.332-27.305-6.633v0.001c-6.998-9.405-19.492-26.605-31.321-33.648
				c-14.473-8.617-47.774-26.688-47.774-26.688l-14.115,21.586C2209.814,1566.357,2252.92,1588.115,2262.061,1593.124z"/>
		</g>
		<path style="fill:#50BFA5;" d="M1927.756,1499.134c0,0,15.081,35.316,15.234,62.254c0.149,26.237-22.1,101.229-20.252,138.254
			c11.873,15.959,33.711,36.049,41.858,56.017c9.232,22.629,37.241,80.875,37.241,80.875l-24.683,12.182l-101.796-136.889
			l-21.55-161.401l-4.171-53.463L1927.756,1499.134z"/>
		<path style="fill:#F7A491;" d="M2267.304,1848.837c0,0,11.19,10.28,11.216,10.3c1.568,1.16,5.773,3.703,6.995,4.959
			c4.586,4.719-24.803,16.482-22.148,9.8c0.24-0.604,0.69-5.928-0.73-7.67c-2.19-2.686-6.13-6.511-6.13-6.511L2267.304,1848.837z"/>
		<path style="fill:#50BFA5;" d="M2263.374,1873.8c0,0,6.312-3.366,9.177-5.469s3.227-8.39,5.803-9.311
			c2.836-1.015,14.749,11.178,14.749,11.178s-23.286,25.324-35.472,33.763c-2.624,1.817-5.806,1.238-6.93,1.258
			C2246.396,1905.296,2256.605,1886.995,2263.374,1873.8z"/>
		<path style="fill:#F7A491;" d="M2112.808,1867.752c0,0-3.476,16.833-3.479,16.868c-0.216,2.197-0.246,7.762-0.755,9.676
			c-1.912,7.19-30.24-14.646-22.252-15.917c0.724-0.115,4.317-1.561,5.553-3.779c2.149-3.859,4.189-11.087,4.189-11.087
			L2112.808,1867.752z"/>
		<path style="fill:#50BFA5;" d="M2086.42,1878.332c0,0,6.896,4.204,10.58,5.781c3.686,1.577,10.428-2.8,12.805-0.823
			c2.616,2.177-1.645,21.456-1.645,21.456s-48.456-12.854-58.767-19.526C2045.31,1882.576,2069.764,1879.354,2086.42,1878.332z"/>
		<path style="fill:#FAE0B2;" d="M2138.186,1638.909l-30.027,120.112l-18.985,116.318l23.64,3.188c0,0,44.862-116.396,45.79-126.633
			c0.927-10.237,60.25-68.704,60.25-68.704L2138.186,1638.909z"/>
		<path style="fill:#F7CC7F;" d="M2218.188,1638.366c0,0,8.077,97.772,9.931,108.476s46.187,104.963,46.187,104.963l-16.937,18.422
			c0,0-71.98-83.515-75.152-90.881c-4.973-11.551-38.068-167.342-38.068-167.342L2218.188,1638.366z"/>
		<g>
			<path style="fill:#F7A491;" d="M2080.979,1568.984c-8.932,3.136-36.081,5.78-45.304,6.655c-0.676-0.433-4.706-2.761-12.441-2.302
				c-5.465,0.324-14.618-3.271-13.916,0.223s10.203,3.434,8.622,5.582c-1.58,2.147-21.432,3.62-20.795,6.787
				c0.636,3.166,19.3,0.527,17.886,2.449c-1.413,1.922-18.675,2.447-17.775,6.924s20.252-2.506,20.734-0.104
				c0.483,2.402-11.827,6.485-11.104,10.089c0.724,3.603,16.553-6.38,15.721-5.249c-0.831,1.131-7.199,9.008-5.697,10.252
				c1.697,1.407,20.033-16.924,24.973-17.106l0,0c12.568,1.165,35.334,3.54,49.49-0.867c17.32-5.394,55.769-19.067,55.769-19.067
				l-7.11-26.859C2140.031,1546.391,2091.571,1565.267,2080.979,1568.984z"/>
			<path style="fill:#F48C7F;" d="M2021.692,1582.017c0.632,1.313,1.579,2.394,2.651,3.331c0.214,0.1,3.479,3.389,8.629,2.396
				C2029.792,1587.23,2026.266,1586.649,2021.692,1582.017z"/>
		</g>
		<path style="fill:#3C8F7C;" d="M2108.26,1556.596c0,0,1.286,6.041,24.459,26.211l48.42-25.381l-22.53-29.192L2108.26,1556.596z"/>
		<path style="fill:#50BFA5;" d="M2179.519,1532.771c0,0-16.131-1.824-21.943-3.935c-5.812-2.11-52.302,155.632-38.968,158.496
			c27.85,5.983,109.993,7.011,109.993,7.011s-0.17-24.117-4.07-36.542c-6.755-21.518-10.581-70.754-10.581-79.432
			c0-5.101,26.395,12.577,26.395,12.577l11.061-39.995c0,0-33.698-13.544-45.507-15.979
			C2202.604,1534.292,2179.519,1532.771,2179.519,1532.771z"/>
		<g>
			<path style="fill:#B75742;" d="M2129.269,1613.588c4.239-20.549,40.327-82.211,40.64-82.794l-7.405-3.968
				c-1.297,2.424-30.501,54.555-34.986,76.289L2129.269,1613.588z"/>
		</g>
		<g>
			<path style="fill:#B75742;" d="M2224.82,1640.592l3.781-6.022c-0.32-0.202-32.245-20.596-35.846-46.615
				c-3.639-26.291,14.883-53.916,15.07-54.192l-5.873-4.005c-0.829,1.218-20.256,30.131-16.238,59.173
				C2189.772,1618.252,2223.392,1639.692,2224.82,1640.592z"/>
		</g>
		<g>
			<path style="fill:#0E2E35;" d="M2179.069,1448.593c0,0-12.762-4.629-21.01,8.31c-8.248,12.938-3.79,11.711-7.803,18.18
				s-14.489,5.131-14.489,15.169s4.682,11.599,4.682,11.599s-4.236,7.808,0.445,15.838c4.682,8.031,16.354,14.946,26.122,13.831
				c0,0,14.672,8.049,29.385,4.247c14.713-3.801,9.586-3.801,15.604-3.801s22.292-8.254,19.617-20.3c0,0,9.916-11.787,0.294-21.414
				c-9.621-9.628-11.44-19.407-17.013-32.346C2209.331,1444.968,2185.757,1445.47,2179.069,1448.593z"/>
		</g>
		<path style="fill:#F7A491;" d="M2170.543,1517.465c0,0,0.535,17.766-1.132,19.434s-3.995,4.435-1.543,8.673
			s13.097,1.534,18.056-0.892c4.761-2.329,7.834-6.661,7.834-6.661l-2.483-28.138L2170.543,1517.465z"/>
		<path style="fill:#F47458;" d="M2191.622,1513.82l-0.348-3.939l-20.731,7.584c0,0,0.068,8.585,0,13.173
			C2173.447,1530.518,2192.742,1526.51,2191.622,1513.82z"/>
		<path style="fill:#F7A491;" d="M2174.778,1455.675c0,0-10.031-0.223-15.158,7.585c-5.128,7.807-10.7,30.114-2.229,45.506
			s19.282,11.6,23.741,10.038c4.458-1.562,13.264-5.02,17.722-19.407C2203.313,1485.009,2200.08,1452.664,2174.778,1455.675z"/>
		<path style="fill:#C3E5DF;" d="M2203.003,1491.064c0,0-5.653,9.485-9.642,15.849l-1.554,3.987c0,0,11.718-16.498,12.142-19.836
			H2203.003z"/>
		<path style="fill:#FFFFFF;" d="M2161.412,1500.469l19.355,0.766c0,0-0.737,7.339-9.259,7.248
			C2161.118,1508.372,2161.412,1500.469,2161.412,1500.469z"/>
		<path style="fill:#F8A492;" d="M1862.126,1451.864c0.83-4.302,13.51-84.345,13.51-84.345l-36.433,14.287l-7.983,61.9
			c-1.005,3.189-16.428,78.965-22.064,103.491c-1.132,4.926-4.688,8.89-9.411,10.683c-0.025,0.009-0.051,0.019-0.076,0.028
			c-3.162,1.212-9.162,4.436-10.358,5.556c-1.393,1.304-4.173,4.083-5.824,5.778c-1.651,1.694-3.658,3.614-4.425,4.616
			c-0.467,0.609-1.947,1.477-3.036,2.063c-1.621,0.872-1.33,3.299,0.457,3.742c1.684,0.418,3.905-0.697,5.282-1.397
			c3.888-1.977,8.551-7.126,8.825-6.523c0.275,0.603-4.281,11.465-4.722,12.739c-0.44,1.275-5.667,13.929-5.867,16.72
			c-0.2,2.79,1.499,3.378,2.717,2.322c1.047-0.909,9.561-17.854,9.561-17.854s1.09-2.158,1.579-0.959
			c0.488,1.2-7.211,16.6-7.931,19.11s-0.02,4.527,2.256,3.583c2.767-1.148,9.971-18.092,9.971-18.092s0.94-2.108,1.65-1.407
			c0.711,0.701-6.059,13.694-6.093,15.168c-0.032,1.473,1.344,2.881,3.241,1.591c2.233-1.52,8.534-16.701,8.534-16.701
			s0.806-1.017,1.09-0.329c0.286,0.688-4.693,12.176-4.242,13.817c0.379,1.379,1.621,1.061,1.621,1.061
			c2.794-0.097,6.091-11.937,9.247-16.863S1861.207,1456.63,1862.126,1451.864z"/>
		<path style="fill:#F7CC7F;" d="M1846.856,1289.069c-0.734-17.8,1.874-35.377,9.798-51.948
			c6.818-14.258,23.688-22.348,39.072-22.368c48.852-0.063,55.063,64.801,86.16,89.821c9.501,7.645,20.122,13.871,29.113,22.116
			c33.199,30.444,18.245,86.799-12.24,113.489c-21.154,18.521-54.402,29.044-80.477,14.565
			c-13.609-7.558-23.941-20.121-31.303-33.887c-10.446-19.536-17.181-42.076-24.611-62.897
			C1854.46,1335.8,1847.834,1312.729,1846.856,1289.069z"/>
		<path style="fill:#F48C7F;" d="M2001.412,1557.819c0.094-0.403-16.14-69.38-22.699-84.632s-32.061-86.091-32.061-86.091
			l33.008-7.214c0,0,21.283,55.435,30.988,80.497c9.704,25.063,5.557,71.271,5.99,84.31c0.006,0.188,1.424,11.03,1.433,11.214
			h-0.001c0.331,1.44,0.637,2.647,0.78,2.879c0.394,0.638,1.524,5.013,1.576,5.389c0.051,0.377,1.019,1.857,1.412,2.495
			c0.394,0.637,1.29,9.495,1.484,10.927c0.194,1.433-0.44,4.666-0.44,4.666l0.348,5.939c0.254,4.361-4.263,3.209-4.263,3.209
			c0.106,2.058-0.61,3.134-1.766,3.521c-1.155,0.388-2.523,0.056-2.742,0.144c-0.218,0.087-0.303,0.731-0.303,0.731
			c0.12,1.308-1.354,2.314-2.307,2.502c-0.952,0.187-2.649-0.446-3.129-1.014c-0.48-0.568-0.813-0.484-0.813-0.484
			c-0.963,0.821-4.649,0.786-5.501-0.403c-0.853-1.188-1.626-7.454-2.01-8.017c-0.383-0.562-1.204-1.524-1.327-2.429
			s-3.143-7.325-3.316-8.606s1.693-5.604,2.109-8.192c0.415-2.589,2.936-6.616,3.546-7.774c0.238-0.452,0.173-1.932,0.005-3.566
			L2001.412,1557.819z"/>
		<path style="fill:#0E2E35;" d="M1838.877,1375.262c15.259-46.317,32.322-44.345,32.322-44.345l-13.195,97.378
			c-9.423-2.578-21.691-8.316-31.104-10.978C1830.021,1402.676,1835.119,1386.669,1838.877,1375.262z"/>
		<path style="fill:#0E2E35;" d="M1910.249,1322.603c0,0,28.113-1.796,39.235,10.362s-24.672,108.337-26.694,123.812
			c-2.022,15.474,10.31,56.618,10.31,56.618s-66.042,13.328-84.916,0.801c0,0-2.022-111.271,0-122.325
			c2.021-11.054,18.874-56.005,22.919-60.426C1875.147,1327.022,1910.249,1322.603,1910.249,1322.603z"/>
		<path style="fill:#F7A491;" d="M1900.89,1284.926c0,0,0.146,0.831,0.407,2.244c1.254,6.778,6.08,29.267,9.341,35.448
			c3.94,7.472-13.49,31.3-30.269,28.392c-4.994-0.866,4.222-21.894,3.779-24.121c-0.849-4.264-1.998-10.081-3.175-16.045
			c-0.663-3.365-1.335-6.776-1.967-9.982c-1.794-9.111-3.259-16.563-3.259-16.563L1900.89,1284.926z"/>
		<path style="fill:#F47458;" d="M1901.297,1287.17c-0.262-1.413-0.407-2.244-0.407-2.244l-25.142-0.628
			c0,0,1.465,7.452,3.259,16.563c0.628,3.188,1.296,6.58,1.956,9.926c3.882-0.572,7.938-2.465,12.004-6.035
			c4.434-3.893,7.339-8.57,9.093-13.563C1901.75,1289.595,1901.491,1288.221,1901.297,1287.17z"/>
		<path style="fill:#F7A491;" d="M1883.969,1227.611c0,0,11.85-1.373,19.278,8.263c7.428,9.635,15.434,39.432-3.019,55.632
			s-36.684-2.138-39.387-21.58S1857.088,1226.91,1883.969,1227.611z"/>
		<path style="fill:#C3E5DF;" d="M1914.86,1263.756c0,0-5.779,10.21-9.868,17.065l-1.541,4.265c0,0,12.083-17.824,12.43-21.363
			L1914.86,1263.756z"/>
		<path style="fill:#F7A491;" d="M1855.383,1269.639c2.202,4.294,5.899,6.672,8.257,5.311c2.358-1.361,2.484-5.945,0.282-10.239
			s-5.899-6.672-8.258-5.312C1853.307,1260.76,1853.181,1265.345,1855.383,1269.639z"/>
		<path style="fill:#F7CC7F;" d="M1882.644,1224.426c0,0,15.831,28.336,27.156,29.645c11.326,1.31,12.813,16.366,12.813,16.366
			s-4.049-34.694-15.261-41.385C1896.139,1222.361,1882.644,1224.426,1882.644,1224.426z"/>
		<path style="fill:#F7A491;" d="M1906.83,1261.19c-0.921,5.032,0.932,9.646,4.138,10.308c3.206,0.66,6.552-2.884,7.473-7.916
			c0.921-5.031-0.931-9.646-4.138-10.307C1911.098,1252.615,1907.751,1256.159,1906.83,1261.19z"/>
		<path style="fill:#FFFFFF;" d="M1895.734,1274.88l-23.685,0.937c0,0,0.901,8.98,11.328,8.869
			C1896.093,1284.551,1895.734,1274.88,1895.734,1274.88z"/>
		<path style="fill:#0E2E35;" d="M1962.147,1428.514c0,0-36.446-43.638-43.027-59.786c-6.582-16.148,3.267-40.332,18.636-42.229
			c15.369-1.896,53.832,69.722,53.832,69.722L1962.147,1428.514z"/>
		<path style="fill:#0E2E35;" d="M2171.021,1452.881c0,0,14.014,29.634,29.35,28.065c15.335-1.568,2.923-22.27,2.923-22.27
			s-17.378-6.624-18.205-6.624S2171.021,1452.881,2171.021,1452.881z"/>
		<path style="fill:#C3E5DF;" d="M1907.407,1262.82c0,0-28.831-4.299-48.101,5.723c0,0,4.654,29.674,23.307,31.438
			C1901.267,1301.745,1907.891,1278.109,1907.407,1262.82z"/>
		<path style="fill:#C3E5DF;" d="M1912.451,1253.196c0,0-4.801,2.658-5.044,9.624l-2.11,0.178
			C1905.297,1262.998,1907.352,1253.897,1912.451,1253.196z"/>
		<path style="fill:#F7A491;" d="M2195.248,1489.623c0,0,0.504-10.443,6.914-8.415c6.411,2.028,1.525,17.79-3.789,17.272
			C2193.059,1497.962,2195.248,1489.623,2195.248,1489.623z"/>
		<path style="fill:#C3E5DF;" d="M2196.125,1489.958c0,0-26.585-4.929-44.732,3.974c0,0,3.443,28.208,20.673,30.435
			C2189.296,1526.593,2196.126,1504.434,2196.125,1489.958z"/>
		<path style="fill:#C3E5DF;" d="M2200.371,1480.946c0,0-3.816,2.429-4.246,9.012l-1.96,0.104
			C2194.165,1490.063,2195.625,1481.457,2200.371,1480.946z"/>
	</g>
</g>
</svg>
